<?xml version="1.0" encoding="UTF-8"?>
<svg xmlns="http://www.w3.org/2000/svg" width="348" height="98" viewBox="0 0 348 98" fill="none">
  <path d="M42.9034 44.6742V29.1657C42.9034 27.5273 41.0014 25.5972 39.2416 25.5747H30.0595L25.3482 36.8414C25.3482 36.8414 21.3365 28.0547 21.2163 27.7405C21.0742 27.4263 19.8827 25.5747 17.8605 25.5747C16.0787 25.5747 7.84766 25.5747 7.84766 25.5747V40.9149C7.84766 42.6992 9.72779 44.6742 11.3456 44.6742H15.401V31.915L22.1782 44.6742H28.5619L35.2955 31.915V40.9149C35.3173 42.6992 37.1756 44.6742 38.7606 44.6742H42.9034Z" fill="#061E35"></path>
  <path fill-rule="evenodd" clip-rule="evenodd" d="M66.4826 29.6931L66.4607 29.1657C66.4826 27.5273 64.5587 25.5972 62.7988 25.5972H45.6699V29.6931H66.4826ZM66.4826 44.6967V40.7017H53.2998V37.0658H65.4551V33.2841H45.6918V40.9374C45.6918 42.7216 47.5719 44.6967 49.1679 44.6967H66.4826Z" fill="#061E35"></path>
  <path d="M95.1328 40.4436V37.5372V33.2729H81.9718V37.0546H87.1641V37.9075C87.1641 39.7254 85.7321 41.2067 83.9722 41.2067H79.9387C78.1788 41.2067 76.7468 39.7254 76.7468 37.9075V32.9362C76.7468 31.1295 78.1788 29.6595 79.9387 29.6595L95.1547 29.6819C95.1547 27.3478 91.5583 25.5859 87.1531 25.5859H76.7359C72.3197 25.5859 68.7344 27.4936 68.7344 29.8053C68.7344 30.5796 68.7562 39.703 68.7562 40.4773C68.7562 42.8002 72.3525 44.6967 76.7577 44.6967L87.1313 44.6742C91.5474 44.6742 95.1328 42.789 95.1328 40.4436Z" fill="#061E35"></path>
  <path fill-rule="evenodd" clip-rule="evenodd" d="M125.226 44.6739L118.558 29.6815C117.749 27.8636 116.601 25.5295 114.634 25.5744H105.451L103.801 29.603H111.19L116.022 40.533C116.809 42.351 117.978 44.6851 119.946 44.6627H125.226V44.6739ZM109.54 33.194H102.008L96.7285 44.6739H102.26C104.238 44.6963 105.397 42.3622 106.184 40.5443L109.54 33.194Z" fill="#061E35"></path>
  <path d="M122.689 25.5859L141.239 6.54248L159.8 25.5859L141.261 44.6629L122.689 25.5859Z" fill="#C3007D"></path>
  <path d="M145.152 6.49756H153.832L170.982 24.3066H162.347L145.152 6.49756Z" fill="#061E35"></path>
  <path d="M145.186 44.663H153.865L170.983 26.854H162.347L145.186 44.663Z" fill="#061E35"></path>
  <path d="M201.174 40.4319V37.5254V33.2611H188.024V37.0317H193.205V37.8733C193.205 39.6912 191.774 41.1613 190.014 41.1613H185.98C184.22 41.1613 182.788 39.68 182.788 37.8733V32.9133C182.788 31.1066 184.22 29.6365 185.98 29.6365L201.174 29.6589C201.174 27.3248 197.589 25.563 193.184 25.563H182.799C178.394 25.563 174.809 27.4595 174.809 29.7712C174.809 30.5455 174.83 39.6576 174.83 40.4319C174.83 42.7436 178.416 44.6513 182.821 44.6513L193.184 44.6288C197.589 44.6401 201.174 42.766 201.174 40.4319Z" fill="#C3007D"></path>
  <path fill-rule="evenodd" clip-rule="evenodd" d="M203.502 25.5859V44.6518H211.176V37.3576H219.702L220.904 40.466C221.658 42.4074 223.243 44.6854 225.255 44.663H230.687L226.37 35.4499C228.14 35.4499 230.032 33.5085 230.053 31.8589L230.075 29.7268L230.053 29.1881C230.075 27.5385 228.14 25.5972 226.37 25.5972H203.502V25.5859ZM221.44 29.8278C222.981 29.8278 222.981 33.2729 221.396 33.2729H211.219V29.8278H221.44Z" fill="#C3007D"></path>
  <path d="M259.075 25.5859H251.085V37.885C251.085 39.6917 249.653 41.173 247.893 41.173H243.848C242.089 41.173 240.657 39.703 240.657 37.885V25.5859H232.666C232.666 25.5859 232.666 39.6805 232.666 40.4436C232.666 42.7665 236.262 44.663 240.678 44.663L251.063 44.6406C255.479 44.6406 259.075 42.7553 259.075 40.4212V37.5259V25.5859Z" fill="#C3007D"></path>
  <path fill-rule="evenodd" clip-rule="evenodd" d="M261.557 25.5747V44.6518H265.689C267.284 44.6518 269.165 42.6767 269.165 40.8925V37.1107L284.249 37.0883C286.993 37.0883 287.889 35.1581 287.911 33.5197L287.933 29.6707L287.911 29.1432C287.933 27.5049 286.009 25.5747 284.249 25.5747H261.557ZM279.363 29.637C280.883 29.637 280.883 33.0596 279.32 33.0596H269.208V29.637H279.363Z" fill="#C3007D"></path>
  <path fill-rule="evenodd" clip-rule="evenodd" d="M290.109 25.5859V44.6518H294.23C295.826 44.6518 297.696 42.6767 297.696 40.8925V37.1107L312.769 37.0883C315.513 37.0883 316.398 35.1581 316.431 33.531L316.453 29.6819L316.431 29.1545C316.453 27.5161 314.529 25.5972 312.769 25.5972H290.109V25.5859ZM307.905 29.6482C309.424 29.6482 309.424 33.0709 307.861 33.0709H297.761V29.6482H307.905Z" fill="#C3007D"></path>
  <path fill-rule="evenodd" clip-rule="evenodd" d="M339.911 29.6707L339.889 29.1432C339.911 27.5049 337.987 25.5859 336.227 25.5859H319.109V29.6819H339.911V29.6707ZM339.911 44.663V40.668H326.739V37.0322H338.884V33.2504H319.142V40.9037C319.142 42.688 321.022 44.663 322.607 44.663H339.911Z" fill="#C3007D"></path>
  <path fill-rule="evenodd" clip-rule="evenodd" d="M164.961 66.2871C165.934 65.8158 165.114 65.6586 164.392 65.6025C162.086 66.1749 162.753 65.9729 162.239 66.0177C163.725 60.8669 168.743 50.5092 169.158 49.6115C169.563 48.7137 169.158 48.5566 168.743 48.0404C168.284 47.7711 167.868 48.8259 167.311 49.6676C166.742 50.5092 163.824 56.2436 162.949 57.6575C161.616 60.6537 159.921 62.7522 159.572 63.0664C159.211 63.3806 159.998 62.9766 160.249 62.8195C160.501 62.6624 160.741 62.5502 161.517 61.5964C160.752 63.7509 159.878 66.2197 159.572 66.8594C158.085 67.802 156.391 68.2284 155.68 68.3294C156.085 67.4317 157.724 62.7522 158.5 60.7098C159.266 58.6562 161.058 52.8209 161.321 51.7661C161.572 50.7112 160.752 50.6102 160.446 50.7112C159.932 51.1376 158.238 56.1762 157.528 58.1737C156.806 60.1712 153.483 68.5875 153.33 69.0027C151.745 69.8444 149.384 69.115 148.302 68.7446C146.815 68.6885 146.717 68.8456 146.717 69.2721C147.843 71.3818 151.231 71.1686 152.095 71.2695C151.581 72.7396 148.87 78.2158 148.87 78.8443C148.87 79.4727 149.329 80.0001 149.745 80.2582C150.16 80.5163 150.051 80.2021 150.313 80.045C150.565 79.8879 151.592 78.1485 151.898 77.5762C152.204 77.0039 152.62 76.0052 152.871 75.5226C153.122 75.0513 153.844 73.6261 154.205 73.0538C154.565 72.4703 154.467 72.3693 154.15 72.4254C153.122 73.9965 153.177 73.6822 153.275 73.368C153.374 73.0538 154.095 71.6399 154.456 71.0002C155.068 70.686 157.528 69.9454 158.347 69.6312C158.096 70.5177 156.139 77.4079 155.833 78.9902C155.527 80.5724 155.166 79.8318 154.707 78.5188C154.248 77.2059 153.275 76.05 153.275 76.05C153.275 76.05 153.024 76.2633 153.177 76.5214C153.33 76.7795 154.205 80.5163 154.358 81.1447C154.511 81.7732 154.817 82.5138 155.538 82.5587C156.26 82.6148 156.511 82.4577 156.762 82.0874C157.178 80.8754 160.916 68.9915 161.168 68.3631C161.987 68.0713 163.988 66.7584 164.961 66.2871ZM175.422 78.7321C175.859 79.3829 176.963 79.2146 177.499 79.0126C178.034 78.7994 178.974 77.8119 179.433 77.4528C179.882 77.0937 179.674 76.9927 179.51 76.6897C179.346 76.3979 179.116 76.4989 178.548 76.6223C177.608 77.2283 177.335 77.0263 177.094 77.0488C176.843 77.0712 177.094 76.4765 177.324 76.0837C177.553 75.6797 177.652 75.2196 177.695 75.0737C177.444 74.0638 176.875 73.7496 176.58 73.6598C176.132 73.6374 175.411 74.0862 174.919 74.4341C173.356 75.3431 172.427 76.5214 172.164 76.7121C172.142 76.2633 172.973 74.5127 173.17 73.1885C173.378 71.8643 172.514 71.797 172.208 71.898C171.465 72.1112 170.273 74.075 169.06 75.3206C167.846 76.5662 167.726 76.353 167.409 76.4428C167.267 75.6012 168.535 73.2109 168.972 72.1336C170.044 70.3045 170.12 69.115 170.142 68.8008C169.748 66.3095 168.601 65.6138 168.153 65.5128C166.983 65.423 166.611 66.1075 166.141 66.8033C165.999 67.0165 165.278 67.8357 164.228 69.2721C163.179 70.7085 162.173 73.3905 161.966 73.974C161.758 74.5688 161.244 76.2071 161.168 77.4528C161.08 78.6984 161.616 79.4951 162.031 79.8991C162.447 80.3031 162.403 80.3704 163.474 80.045C164.545 79.7308 165.179 78.6086 165.343 78.3729C165.507 78.1373 165.627 77.9577 165.77 78.0587C166.611 79.1809 166.819 78.9228 167.453 79.0126C168.087 79.1024 168.623 78.4066 169.093 77.9129C169.563 77.4303 169.891 76.7682 170.186 76.5999C170.273 76.7458 170.35 76.9814 170.393 78.0587C170.437 79.136 171.235 79.2146 171.629 79.2146C172.022 79.2146 172.776 78.4739 173.399 77.8231C174.023 77.1722 174.82 76.7907 175.061 76.7682C175.028 77.4415 174.995 78.0812 175.422 78.7321ZM163.769 77.3181C163.463 77.6099 163.113 78.1373 163.157 77.3181C163.201 76.4989 163.113 75.3767 164.141 73.3792C165.168 71.3705 166.447 69.1599 166.666 68.8681C166.895 68.5763 167.529 67.5551 168.087 67.1848C168.174 67.1624 168.601 67.6337 168.251 68.913C167.901 70.2035 167.595 71.191 166.732 72.5825C165.868 73.9628 164.075 77.0263 163.769 77.3181ZM182.079 78.4964C182.494 78.3505 183.871 77.3742 184.647 76.4652C184.768 76.7009 184.91 78.5076 185.959 79.1473C187.009 79.7757 187.194 80.3704 189.763 79.338C189.993 79.1697 190.255 78.8779 189.807 78.6872C189.359 78.4964 188.124 78.1822 187.653 77.8455C187.183 77.5089 186.353 76.9814 186.353 76.0949C186.353 75.2084 186.211 75.1635 186.801 74.0862C187.402 73.0089 188.921 69.6087 189.206 68.7222C189.49 67.8357 190.135 66.5227 189.676 65.1761C189.37 64.918 188.856 64.6262 188.342 65.1761C187.828 65.726 186.681 68.105 186.036 69.9229C185.402 71.7409 185.424 71.8419 185.38 71.9541C185.336 72.0551 185.38 72.201 185.15 71.9316C184.921 71.6511 184.516 71.0002 184.199 70.8207C183.893 70.6299 183.642 70.585 183.172 70.9217C182.702 71.2583 181.303 72.6049 180.723 73.9179C180.144 75.2309 179.641 76.656 180.286 77.6996C180.975 78.732 181.674 78.6423 182.079 78.4964ZM181.816 75.287C181.904 74.9727 182.418 74.2097 182.8 73.772C183.194 73.3344 183.379 73.0538 183.642 72.6947C183.904 72.3356 183.74 72.5264 183.828 72.6498C183.915 72.7845 184.035 73.5812 184.09 73.9403C184.156 74.2994 184.232 74.7371 184.134 74.8942C184.035 75.0401 183.041 75.7807 182.713 76.0725C182.385 76.3643 182.155 76.4765 181.805 76.3867C181.467 76.3081 181.729 75.6124 181.816 75.287ZM191.643 78.8667C191.785 78.9565 193.305 79.4839 193.906 79.1585C194.726 78.8443 195.589 77.8904 196.125 77.1722C196.191 77.4864 196.311 79.4054 198.104 79.8542C199.011 80.0674 199.229 80.1011 199.689 79.8093C200.137 79.5176 201.438 78.3954 201.744 77.9914C202.05 77.5874 202.727 77.0039 202.979 76.7907C203.044 76.9366 202.913 77.4191 203.022 77.9465C203.132 78.4739 203.252 79.4839 204.356 79.3605C204.728 79.338 205.449 79.338 206.827 78.2046C207.362 77.8904 207.778 77.4079 208.346 78.1036C208.696 78.7994 209.144 79.641 209.68 79.8093C210.215 79.9777 210.609 79.8991 211.013 79.5288C211.341 79.4054 211.385 79.5064 211.505 79.2931C211.625 79.0799 211.855 78.4964 211.461 78.1597C211.133 77.9241 210.926 78.0363 210.663 78.0139C210.39 77.9914 210.27 78.3056 209.986 77.4079C209.734 76.8805 209.45 76.1623 209.33 75.8929C209.209 75.6236 208.696 75.4665 208.444 75.5563C208.204 75.6461 206.597 76.4989 206.225 76.757C205.854 77.0039 205.263 77.5538 205.056 77.5538C204.848 77.5538 204.64 77.6772 204.793 77.1722C204.935 76.6672 205.701 74.3443 205.733 73.8393C205.777 73.3344 205.876 72.4478 205.526 72.3468C205.176 72.2458 204.761 72.2234 204.247 72.7845C203.831 73.3344 202.771 74.8269 201.864 75.5451C200.957 76.2633 199.995 77.3967 199.525 77.5762C199.055 77.7445 198.803 77.969 198.563 77.5538C198.442 77.1273 198.147 76.4316 198.191 75.3655C198.268 74.9615 198.289 75.0289 198.705 74.6249C199.12 74.2209 200.694 72.3917 201.623 70.8095C202.552 69.2272 204.072 67.3307 203.536 64.9629C203.263 64.5252 202.924 63.9305 202.017 64.4804C201.361 65.1312 200.29 66.1861 199.47 68.0826C198.77 69.5414 197.229 72.9528 196.967 73.5027C196.693 74.0526 196.289 74.8942 195.447 75.5226C195.24 75.7358 194.07 76.8356 193.633 76.9141C193.206 76.9927 192.857 77.2957 192.627 76.6336C192.398 75.9827 192.245 75.9154 192.769 75.4777C193.097 75.0737 194.584 73.6037 195.338 72.3356C195.622 71.8306 196.366 70.6075 196.18 69.1037C195.928 68.2621 195.71 68.1723 195.502 68.0264C195.294 67.8806 195.272 67.8132 194.868 67.8806C194.464 67.9479 193.797 67.7908 193.021 68.8681C192.245 69.9454 191.108 72.0102 190.78 73.4466C190.43 74.9054 189.916 77.9353 191.643 78.8667ZM199.995 70.2371C200.159 69.7546 201.12 67.7459 201.842 67.1175C201.962 67.1175 202.214 67.1175 202.006 67.5215C201.798 67.9255 200.552 70.1137 200.257 70.3494C199.973 70.5738 199.831 70.7309 199.995 70.2371ZM194.387 70.0688C194.507 70.0015 194.781 69.9454 194.595 70.4728C194.409 71.0002 193.491 72.1224 193.305 72.2458C193.119 72.3693 192.933 72.4815 192.889 72.5601C192.66 73.0202 192.671 71.7745 194.387 70.0688ZM222.272 73.3905C222.502 73.2446 222.698 72.9304 222.862 72.7172C223.026 72.504 223.824 72.0663 224.054 71.9653C224.13 72.2122 223.824 73.1885 223.726 73.7383C223.627 74.2882 223.19 76.8356 223.048 77.5986C222.6 80.3817 221.879 82.1323 221.802 82.5587C221.715 82.9851 221.43 83.131 221.266 83.2769C220.938 83.8492 221.168 83.8941 222.01 84.0624C222.851 84.2307 223.3 83.4452 223.671 83.0076C224.043 82.5699 224.261 81.9527 224.349 81.6609C224.425 81.3692 224.578 80.6734 224.797 80.3368C225.027 80.0001 225.846 78.5413 226.054 78.2046C226.262 77.868 227.125 76.5326 227.268 76.2857C227.41 76.0388 227.803 76.1847 227.88 76.2633C227.694 76.6897 227.628 77.0488 227.694 77.5313C227.759 78.0138 228.186 78.6311 228.787 79.1136C229.607 79.6186 231.214 79.237 231.771 79.0014C232.329 78.7657 233.52 78.0475 233.903 77.9465C234.296 77.8455 234.373 78.1597 234.722 78.5525C235.072 78.9565 234.952 79.0014 235.258 79.1697C235.564 79.338 236.012 79.1921 236.384 78.934C236.756 78.6759 236.832 76.757 236.963 76.0613C237.084 75.3655 237.379 74.8381 237.783 74.2658C238.199 73.6935 238.581 73.3344 238.975 73.1885C239.368 73.0426 240.33 72.8069 240.68 72.6835C241.03 72.5601 240.909 72.4366 240.822 72.201C240.538 71.6062 239.696 71.6735 239.117 71.6287C236.996 71.8419 236.406 72.7508 235.947 73.166C235.269 73.9852 235.083 75.1523 234.985 75.4889C234.941 76.0613 234.941 76.3081 234.821 76.656C234.635 76.5101 234.613 76.7346 234.209 76.2969C233.793 75.8593 233.367 75.9827 233.083 76.0837C231.782 77.0488 231.52 76.9029 230.656 77.2171C229.793 77.5313 229.869 76.4204 229.891 75.9042C229.913 75.3992 230.219 73.772 230.427 72.9977C230.634 72.2122 230.853 71.5838 230.798 71.2022C230.711 70.5289 230.033 70.2933 229.749 70.4055C228.842 71.0115 227.738 72.8743 227.071 73.7608C226.437 75.1747 225.508 76.0613 225.114 76.4204C225.3 75.7022 225.912 72.5601 226.043 71.9316C226.163 71.292 226.295 69.8219 226.371 69.418C226.459 69.317 226.535 69.1823 227.585 68.2958C228.634 67.4093 229.541 65.8045 230.066 64.7721C230.601 63.7397 230.416 62.0116 230.372 61.63C230.022 60.4293 229.093 60.5303 228.689 60.5752C227.661 60.8333 227.377 61.7984 226.983 62.4492C226.59 63.1001 225.956 64.7721 225.857 65.1649C225.748 65.5689 224.885 67.9703 224.83 68.3743C224.764 68.7783 224.032 69.519 223.638 69.979C223.245 70.4391 222.687 70.7758 221.977 71.3481C221.048 72.4478 220.698 72.6723 220.534 73.1436C220.37 73.6037 220.785 73.5476 221.113 73.6261C221.452 73.7159 222.042 73.5364 222.272 73.3905ZM227.158 66.0514C227.289 65.4005 227.825 63.5153 228.831 62.4268C228.94 62.4492 229.016 62.5951 228.754 63.4928C228.492 64.3906 227.902 65.2659 227.639 65.625C227.366 65.9729 227.027 66.7023 227.158 66.0514ZM232.733 69.3394C233.061 69.317 233.312 69.1262 233.903 69.0027C234.504 68.8793 234.81 68.6212 235.138 68.408C235.466 68.1948 235.433 68.004 235.553 67.8581C235.673 67.7122 235.783 67.5215 235.827 67.3083C235.87 67.095 235.684 66.9492 235.367 66.7584C235.061 66.5676 234.755 66.7584 234.362 66.8033C233.968 66.8482 233.236 67.4317 232.82 67.7347C232.405 68.0265 232.121 68.307 232.001 68.6212C231.88 68.9466 232.023 68.9242 232.066 69.216C232.099 69.5189 232.405 69.3618 232.733 69.3394ZM233.848 70.7533C233.378 71.1349 233.771 70.8207 233.771 71.2134C233.771 71.6174 233.979 71.8419 234.22 71.9092C234.471 71.9765 234.832 71.8868 235.225 71.7409C235.619 71.595 235.466 71.5277 235.739 71.4828C236.001 71.4379 236.329 71.1237 236.81 70.8095C237.28 70.4952 236.996 70.5962 237.138 70.383C237.28 70.1698 237.302 70.0913 237.63 69.8556C237.958 69.6199 238.002 69.2721 237.794 69.0589C237.586 68.8456 237.193 69.0027 236.952 69.1037C236.701 69.2047 236.133 69.5638 235.346 69.8668C234.569 70.1698 234.318 70.3718 233.848 70.7533ZM239.958 76.8131C239.674 77.4864 239.445 77.9577 239.838 78.7769C240.068 79.1809 240.418 80.2358 242.494 80.1684C243.216 80.1684 243.959 80.146 245.041 79.7196C246.134 79.2931 247.075 78.9004 247.61 78.3505C248.146 77.8006 248.638 76.7682 247.446 75.7919C246.703 75.388 245.927 75.0289 245.369 74.6136C244.812 74.1872 244.298 73.5364 244.386 72.8182C244.462 72.4142 244.549 71.7184 245.533 71.09C245.839 70.7982 246.003 70.2933 245.785 70.0352C245.555 69.7883 245.533 69.6985 245.151 69.6087C244.757 69.5302 244.014 69.7322 243.773 69.9229C243.533 70.1137 242.702 70.9553 242.56 71.5725C242.418 72.1785 242.188 73.5364 242.866 74.4229C243.216 74.8269 244.123 75.4777 244.549 75.6461C244.976 75.8144 245.621 76.2408 245.664 76.5775C245.708 76.9141 245.664 77.2508 245.227 77.4191C244.79 77.5874 244.178 78.1149 242.735 78.1149C242.123 77.9914 241.401 77.8006 241.609 77.161C241.795 76.7795 241.959 76.4652 241.981 76.2969C242.003 76.1286 241.696 75.5787 241.215 75.6797C240.745 75.8032 240.243 76.1398 239.958 76.8131ZM260.159 70.0352C260.432 70.2708 262.017 70.7533 262.586 70.8431C263.252 70.9329 264.007 70.7982 264.214 70.7758C264.029 71.0339 263.515 72.3805 263.143 72.9865C262.771 73.6037 261.842 76.4204 261.646 77.0824C261.438 77.7333 261.744 78.3505 262.116 78.7096C262.487 79.0687 262.706 78.732 262.957 78.3729C263.209 78.0138 264.269 75.949 264.411 75.5675C264.553 75.186 265.417 73.3568 265.646 73.0089C265.876 72.6723 266.062 72.4142 266.073 72.2458C266.095 72.0775 266.073 72.0887 265.909 72.0439C265.745 71.999 265.57 72.1112 265.592 71.9765C265.614 71.8531 265.974 70.8768 266.073 70.7758C266.237 70.7309 266.794 70.5065 267.483 70.2259C268.106 69.9678 269.811 69.1037 269.975 69.2496C269.997 69.6312 268.029 75.5675 267.8 76.3081C267.57 77.0488 267.417 78.0812 267.231 78.4964C267.253 78.6086 266.75 78.171 266.63 77.8904C266.51 77.6211 265.209 75.0176 265.133 74.8381C265.045 74.6473 265.089 74.5575 264.969 74.7259C264.848 74.8942 264.892 74.9391 264.892 75.0625C264.892 75.186 265.614 77.2508 265.876 78.0812C266.138 78.9004 266.86 81.8742 266.925 82.0088C267.013 82.1884 267.384 82.3567 267.603 82.3567C267.822 82.3567 267.997 82.0986 268.139 81.6161C268.281 81.1335 270.85 72.3805 270.937 72.0551C271.024 71.7409 272.456 68.1274 272.566 67.903C273.845 67.4654 275.331 66.4105 275.517 66.2983C275.703 66.1973 275.605 66.029 275.605 65.8943C275.605 65.7709 275.32 65.7484 275.025 65.7484C274.872 65.7484 274.162 66.0402 274.03 66.029C273.899 66.0177 273.692 65.9504 273.539 66.0065C273.211 66.1075 273.539 66.2422 273.178 66.2197C273.429 65.2434 275.932 59.1276 276.37 58.0503C276.807 56.973 278.818 52.6077 279.059 52.2037C279.31 51.7997 279.583 51.2499 279.583 50.8571C279.321 50.0603 278.884 49.993 278.698 50.0155C278.141 50.3297 277.419 51.8783 277.102 52.4506C276.796 53.0229 274.971 56.4792 274.293 57.7809C272.631 61.5964 272.085 62.1799 271.626 63.2011C271.582 63.2908 271.637 63.347 272.008 62.8869C272.03 62.8644 272.292 62.6175 272.369 62.64C272.271 63.2684 271.21 66.4554 271.09 66.8145C271.013 66.9043 269.735 67.3419 268.893 67.6112C268.051 67.8806 267.581 68.2397 267.384 68.105C267.505 67.7908 268.915 64.2559 269.144 63.7285C269.374 63.2011 272.391 54.1675 272.664 53.584C272.937 53.0005 272.566 52.6301 272.336 52.4506C271.822 52.3047 271.68 52.5965 271.407 52.7872C270.915 53.3371 269.658 56.9842 269.472 57.5116C269.286 58.039 267.461 63.3806 267.188 64.009C266.925 64.6487 265.209 68.9579 265.122 68.9466C264.564 69.014 263.81 68.9466 263.548 68.9466C261.558 68.9242 260.585 68.5988 260.104 68.4192C259.886 68.3407 259.798 68.408 259.689 68.509C259.591 68.61 259.438 68.5202 259.394 68.61C259.295 69.5077 259.897 69.8107 260.159 70.0352ZM278.272 77.8904C278.009 77.6548 278.392 76.4316 278.534 75.6797C278.676 74.9166 279.299 72.9304 279.441 72.3468C279.583 71.7521 279.354 71.5613 279.277 71.5052C279.113 71.4828 279.092 71.2359 279.048 70.6636C279.19 69.4404 278.414 68.7895 278.02 68.6212C277.627 68.4529 276.927 68.913 276.512 69.1486C276.096 69.3843 276.042 69.6985 275.648 70.2035C275.255 70.7085 274.293 72.1673 274.085 72.4254C273.877 72.6723 273.014 74.2545 272.828 74.58C272.413 75.4665 272.271 76.4765 272.271 77.1722C272.271 77.868 272.249 78.3056 272.828 79.237C273.407 80.1684 273.943 79.5961 274.205 79.4278C274.468 79.2595 275.681 78.2046 275.976 77.7782C276.14 77.5313 276.468 76.9702 276.588 76.8692C276.709 76.7682 276.862 77.161 276.916 77.4864C276.982 77.8006 277.102 78.5862 277.288 79.0912C277.408 79.7869 277.911 79.8767 278.195 79.9103C278.895 80.0562 279.529 79.5512 279.802 79.2819C280.064 79.0126 280.895 78.4178 281.125 78.3393C281.354 78.2495 281.365 78.4852 281.387 78.6759C281.409 78.8667 281.343 79.1248 281.638 79.5849C281.923 80.045 282.6 79.9328 282.852 79.944C283.256 79.9664 283.453 79.6073 283.923 79.3492C284.393 79.0911 285.016 78.5301 285.464 78.0812C286.098 77.5762 286.536 77.8904 286.743 78.1485C286.951 78.3954 287.159 78.9116 287.465 79.3717C288.044 80.0001 288.427 79.8991 288.776 79.8542C289.126 79.8093 289.028 79.7083 289.268 79.5625C289.859 79.439 289.924 78.934 289.924 78.6311C289.924 78.3393 289.432 78.0251 289.334 78.0587C288.984 78.1485 288.733 78.2271 288.492 77.9802C288.241 77.7221 287.88 76.4428 287.749 76.0613C287.279 75.4441 286.929 75.7807 286.208 76.0613C285.486 76.3306 284.251 77.4303 283.617 77.5762C282.983 77.7221 283.245 77.2171 283.431 76.7346C283.617 76.252 284.273 74.0301 284.273 73.1885C284.273 72.3468 283.508 72.5376 283.223 72.7172C282.732 73.166 279.933 76.4316 279.376 77.0488C278.818 77.6323 278.534 77.9129 278.272 77.8904ZM277.616 71.7521C277.408 72.2346 276.337 74.1984 276.053 74.58C275.768 74.9615 275.091 75.9042 274.861 76.2408C274.632 76.5775 274.03 76.9366 273.943 77.1049C273.899 77.2059 273.746 76.7233 273.91 76.2633C274.074 75.8032 274.326 74.3892 275.747 72.4927C276.14 71.898 277.168 70.787 277.343 70.6748C277.528 70.5738 277.736 70.4167 277.758 70.6075C277.78 70.7982 277.813 71.2583 277.616 71.7521ZM290.766 78.9565C291.422 79.4839 292.121 79.0238 292.799 78.5749C293.477 78.1373 294.297 77.262 294.504 77.06C294.559 76.9253 294.679 77.8567 294.963 78.5525C295.248 79.2483 295.422 79.1809 296.21 79.1809C296.986 79.1809 297.215 78.7994 297.827 78.4627C298.439 78.1261 298.789 77.8567 298.855 77.6996C298.92 77.5538 298.614 77.4415 298.385 77.4415C298.155 77.4415 297.641 77.4864 297.051 77.5874C296.461 77.6884 296.461 77.4415 296.21 77.1273C295.958 76.8131 295.958 75.8817 296.024 75.4777C296.089 75.085 296.461 74.4229 296.953 73.4802C297.445 72.5264 298.756 69.2833 299.15 68.0377C299.543 66.7921 299.369 66.1973 299.128 65.8831C298.592 65.3557 298.079 65.9055 297.773 66.2197C296.964 67.0614 296.111 69.2609 295.925 69.7434C295.739 70.2259 295.226 72.1449 295.04 72.4254C294.854 72.6947 294.657 72.2122 294.461 71.9429C293.936 71.2134 294.012 71.4154 293.673 71.2022C293.094 71.2247 292.362 72.0326 292.067 72.3693C291.116 73.2783 290.711 74.1423 290.405 75.0737C289.804 76.7233 289.848 77.6099 289.913 78.0924C289.979 78.5637 290.547 78.8218 290.766 78.9565ZM291.553 76.3306C291.717 75.5226 291.859 74.9727 292.515 74.3219C293.171 73.671 293.4 72.9977 293.586 73.2446C293.772 73.5027 293.892 74.6698 293.87 75.1298C293.739 75.4216 292.919 76.1286 292.515 76.3643C292.099 76.5999 291.389 77.1273 291.553 76.3306ZM299.871 79.4727C300.265 79.4951 300.407 79.0911 300.637 78.9228C300.866 78.7545 301.478 78.1373 301.937 77.8231C302.386 77.5089 302.429 77.6996 302.495 77.8904C302.517 78.2271 302.637 79.3044 302.932 79.9777C303.216 80.651 303.73 80.9091 304.736 80.9091C305.741 80.9091 306.069 80.3031 306.528 79.7532C306.977 79.2034 307.643 77.7894 307.785 77.3069C307.928 76.8243 307.807 76.6672 307.851 76.5887C307.895 76.4989 308.365 76.4428 308.627 76.3755C308.9 76.3081 309.075 76.252 309.261 76.3979C309.163 76.8356 309.217 76.8805 309.239 78.1485C309.261 79.4166 310.147 79.7757 310.496 80.0674C310.846 80.3592 312.387 80.7183 313 80.7856C313.623 80.853 314.049 80.9091 314.333 80.853C314.639 80.853 315.197 80.752 315.503 80.7632C315.809 80.7856 316.038 80.7856 316.366 80.8642C316.694 80.954 316.858 80.9091 316.978 80.7632C317.099 80.6173 317.164 80.2133 317.241 79.4951C317.328 78.7769 317.099 78.6984 317.077 78.1822C317.066 77.9016 317.099 77.2059 317.055 76.7234C317.011 76.2408 317.197 76.1735 317.47 75.9603C317.733 75.7471 318.87 75.3094 319.405 75.0513C319.941 74.8044 320.072 74.5688 320.083 74.3555C320.094 74.2209 319.875 74.1423 319.755 74.0413C319.635 73.9403 319.132 73.9403 318.793 73.873C318.443 73.8057 318.421 73.7047 317.973 73.6598C317.011 73.7271 316.18 74.3331 315.612 74.7371C315.033 75.1411 315.186 75.5563 315.306 75.8817C315.426 76.1959 315.59 77.4864 315.59 77.9465C315.59 78.4066 315.514 78.8106 315.153 79.1024C314.803 79.3941 314.606 79.2034 314.082 79.1697C312.136 79.0687 311.24 78.3281 310.977 78.0475C310.704 77.767 310.606 77.3967 310.671 76.9927C310.77 76.7458 310.999 76.2296 311.207 76.1061C311.415 75.9827 311.742 76.1061 312.191 76.1061C312.639 76.1061 313.196 75.9603 313.896 75.1523C314.595 74.3555 314.595 73.2334 314.552 72.6162C314.432 71.9877 313.94 71.8194 313.524 71.6623C312.967 71.5164 312.573 71.7521 312.147 72.0887C311.71 72.4254 311.251 73.0875 311.065 73.2783C310.791 73.5588 309.983 74.1311 309.819 74.1087C309.655 74.0862 308.846 74.2321 308.474 74.277C307.982 74.5463 307.086 74.4453 306.66 74.4453C306.222 74.4453 306.124 74.2321 305.916 74.2321C305.709 74.2321 305.479 74.3555 305.566 74.5463C305.654 74.7371 305.632 74.883 305.654 75.1747C305.676 75.4665 305.741 75.5114 305.862 75.6797C306.135 75.9939 306.113 76.4652 306.135 76.9702C306.157 77.4752 305.883 77.7333 305.643 78.1373C305.392 78.5413 305.064 78.9228 304.714 79.2146C304.364 79.5063 304.244 79.3605 304.08 78.9789C304.036 78.2832 303.73 77.464 303.61 77.0376C303.446 76.1286 302.834 76.1061 302.692 76.0725C302.407 76.05 302.342 76.0949 302.342 75.9042C302.976 75.2982 303.271 74.3892 303.511 73.9852C303.763 73.5812 303.949 73.0538 303.971 72.5713C303.992 72.0887 303.828 72.0214 303.577 71.898C303.337 71.7745 303.009 71.8082 302.757 71.898C302.571 71.9653 302.571 72.0439 302.506 72.1673C302.44 72.2907 301.762 73.4129 301.336 74.1872C300.899 74.9727 300.101 76.3418 299.751 76.6785C299.401 77.0151 299.281 77.4752 299.194 78.3056C299.095 79.1473 299.489 79.4502 299.871 79.4727ZM311.939 74.0862C312.049 73.8393 312.18 73.6935 312.344 73.5588C312.825 73.1436 312.901 73.1436 313.065 73.1436C313.229 73.1436 313.229 73.2558 313.163 73.4241C313.098 73.5925 312.868 73.8506 312.639 74.0301C312.409 74.2209 312.311 74.4004 312.147 74.4004C311.983 74.4229 311.775 74.4678 311.939 74.0862ZM319.984 78.6423C320.083 79.5512 320.564 79.338 320.804 79.3829C321.056 79.4278 321.209 79.2819 321.493 79.2595C321.559 79.5288 321.602 79.9777 321.952 80.247C322.302 80.5163 323.799 80.7295 324.215 80.7295C324.63 80.7295 327.483 80.7744 327.833 80.7969C328.183 80.8193 329.626 80.8642 329.932 80.8642C330.238 80.8642 331.025 80.7183 331.757 80.5724C332.5 80.4265 332.446 80.4041 332.457 80.2807C332.413 79.9216 331.965 79.6522 331.506 79.439C330.063 78.9677 327.68 78.8892 326.816 78.8892C325.953 78.8892 323.996 78.7545 323.614 78.7208C323.22 78.6759 322.914 78.4515 322.936 78.171C322.99 77.8792 324.291 77.0039 324.849 76.5887C325.406 76.1623 326.849 75.1747 326.969 75.0064C327.09 74.8381 326.98 74.3219 326.784 74.075C326.007 73.4802 325.22 73.9852 324.794 74.176C324.357 74.3668 323.81 74.7259 323.515 74.681C323.865 74.2321 325.341 70.989 325.614 70.4391C325.876 69.8893 326.576 68.1611 326.849 67.6112C327.112 67.0614 327.221 66.3881 327.199 66.1749C327.177 65.9616 326.969 65.7484 326.718 65.6923C326.478 65.625 326.182 65.6699 325.964 65.7933C325.734 65.9168 325.636 66.433 325.548 66.5788C325.461 66.7247 324.543 68.6436 324.269 69.0476C324.007 69.4516 322.313 72.3581 321.865 73.166C321.416 73.9628 320.935 75.2084 320.465 76.0388C320.006 76.858 319.941 78.0363 319.984 78.6423ZM331.834 90.9526C330.85 90.6496 325.253 89.5948 319.984 88.8204C314.716 88.0461 303.686 86.823 299.762 86.5873C294.985 86.0823 277.856 84.8255 270.653 84.8592C265.187 84.6908 249.173 84.8255 247.435 84.8255C245.697 84.8255 227.213 85.8018 225.967 85.8691C224.721 85.9364 213.516 86.8791 212.303 86.9913C211.09 87.0923 198.311 88.2033 195.415 88.5399C192.518 88.8766 186.56 89.2805 185.697 89.3142C184.844 89.3479 181.15 89.7182 180.035 89.7519C178.92 89.7855 177.335 89.7182 176.646 89.6509C175.957 89.5835 176.187 89.3142 176.384 89.1459C176.58 88.9776 175.662 88.8766 175.203 89.4489C174.744 90.0212 175.597 90.3578 176.056 90.4925C177.411 90.7955 180.603 90.6272 181.357 90.6272C182.111 90.6272 188.506 90.1222 189.555 90.0212C190.605 89.9202 201.514 88.7643 202.924 88.596C204.345 88.4277 219.496 87.3055 220.807 87.2494C222.13 87.1821 237.772 86.3741 239.379 86.3068C240.997 86.2394 250.113 85.9701 252.715 85.9028C255.317 85.8355 270.598 86.1048 271.647 86.1048C272.697 86.1048 280.84 86.3068 282.546 86.4751C284.251 86.6434 291.433 87.0811 292.362 87.2157C293.28 87.3504 300.888 87.8554 302.506 87.9564C304.124 88.0574 315.35 89.2132 316.53 89.3703C317.722 89.5386 327.428 91.1546 328.653 91.4351C330.128 91.7718 330.172 92.2768 329.702 92.1421C328.751 92.1084 325.516 91.8391 323.581 91.7718C321.635 91.7045 310.573 91.5025 307.25 91.6035C303.927 91.7044 301.588 92.0074 301.063 92.1421C299.554 92.9501 300.112 93.1184 300.538 93.1184C300.964 93.1184 303.5 92.9837 305.577 92.8491C307.654 92.7144 312.158 92.9164 313.349 92.9501C314.541 92.9837 320.826 93.1184 322.072 93.1857C323.318 93.2531 330.107 93.556 331.265 93.4887C332.424 93.4214 333.145 93.0174 333.375 92.8491C334.075 91.7606 332.326 91.2219 331.834 90.9526Z" fill="#667D8E"></path>
  <path fill-rule="evenodd" clip-rule="evenodd" d="M336.119 78.6868C336.425 78.395 337.398 77.3177 337.737 77.284C337.901 77.2504 338.447 77.8676 338.611 78.0583C338.775 78.2491 339.202 78.6868 339.289 78.8551C339.333 78.9561 339.377 78.9336 338.885 79.4611C338.48 79.8987 337.923 80.4935 337.77 80.6057C337.529 80.774 337.529 80.7403 337.005 80.2017C336.644 79.8314 336.086 79.1917 335.977 79.0459C335.879 78.9112 335.868 78.9112 336.119 78.6868Z" fill="#C3007D"></path>
</svg>
