<svg xmlns="http://www.w3.org/2000/svg" viewBox="0 0 189.81 30.77"><defs><style>.cls-1{fill:#e73331;}.cls-2{fill:#fff;}</style></defs><g id="Ebene_2" data-name="Ebene 2"><g id="Ebene_1-2" data-name="Ebene 1"><polygon points="48.05 19.35 53.59 19.35 48.53 8.07 53.37 0.46 48 0.46 43.53 8.39 43.53 0.46 38.5 0.46 38.5 19.35 43.53 19.35 43.53 14.11 45.05 11.69 48.05 19.35"/><polygon points="60.21 15.68 60.21 11.48 66.25 11.48 66.25 7.86 60.21 7.86 60.21 4.13 66.65 4.13 66.65 0.46 55.18 0.46 55.18 19.35 66.83 19.35 66.83 15.68 60.21 15.68"/><path d="M78,19.35h5.35l-3.17-8.14a5,5,0,0,0,2.85-5c0-3.67-2.15-5.8-6.68-5.8H69V19.35h5V12.17h1.65L78,19.35ZM74,9V3.82h1.54c1.57,0,2.26.8,2.26,2.45S77.1,9,75.56,9H74Z"/><path d="M96,19.35h5L95.81.46H89.56L84.37,19.35h5l.85-3.86h4.9L96,19.35ZM91,12l1.06-4.87a29,29,0,0,0,.59-2.95h0c.16,1.12.37,2,.59,3L94.34,12Z"/><path d="M102.67,19.35h4.2V9.19c0-1.22,0-2.47-.11-3.62h.08a17.66,17.66,0,0,0,.32,2l2.58,11.76h3.7l2.45-11.76c.13-.61.24-1.36.32-2h.08c-.08,1.2-.08,2.45-.08,3.64V19.34h4.42V.45H113.9l-1.81,8.94a19.54,19.54,0,0,0-.37,2.69h-.08a17.27,17.27,0,0,0-.37-2.66l-1.92-9h-6.68v18.9Z"/><path d="M123.26.46V13.6c0,3.86,2.63,6.2,7.13,6.2s7.13-2.34,7.13-6.2V.46h-5v13a2,2,0,0,1-2.13,2.31,2,2,0,0,1-2.1-2.31V.46Z"/><path d="M140.13,19.35h4.6V11.1c0-1.3,0-2.93,0-3.86h.05a10.13,10.13,0,0,0,1,3.33l4.2,8.78h5V.46h-4.58V8.1c0,1.28,0,2.66,0,3.88h-.08a11,11,0,0,0-.93-3.33L145.47.46h-5.35V19.35Z"/><path d="M157.69,19.35h6.73c5,0,8.19-2.55,8.19-9.44S169.39.47,164.47.47h-6.78V19.35Zm5-3.56V4h1.76c2.08,0,3,1.38,3,5.88,0,3.67-1,5.88-3,5.88Z"/><path d="M181.93,19.8c4.82,0,7.88-2.71,7.88-9.9S186.75,0,181.93,0s-7.87,2.71-7.87,9.9,3,9.9,7.87,9.9Zm0-3.88c-1.7,0-2.71-1.12-2.71-6s1-6,2.71-6,2.69,1.09,2.69,6-1,6-2.69,6Z"/><path d="M39.58,30.61h1.78l.93-4.56a3.46,3.46,0,0,0,.06-.49h0a3.52,3.52,0,0,0,0,.49l.93,4.56h1.79l1.6-6.72H45.15l-.86,4.36a4,4,0,0,0-.06.56h0a3,3,0,0,0-.08-.56l-1-4.36h-1.6l-1,4.36a3,3,0,0,0-.08.56h0a4.07,4.07,0,0,0-.07-.56l-.85-4.36H38l1.61,6.72Z"/><polygon points="49.21 29.43 49.21 27.76 52.05 27.76 52.05 26.59 49.21 26.59 49.21 25.08 52.21 25.08 52.21 23.89 47.61 23.89 47.61 30.61 52.27 30.61 52.27 29.43 49.21 29.43"/><polygon points="53.44 30.61 57.76 30.61 57.76 29.31 55.04 29.31 55.04 23.89 53.44 23.89 53.44 30.61"/><polygon points="62.63 23.89 57.14 23.89 57.14 25.16 59.08 25.16 59.08 30.61 60.67 30.61 60.67 25.16 62.63 25.16 62.63 23.89"/><path d="M65.73,30.61h2.66a3.18,3.18,0,0,0,3.34-3.4,3.13,3.13,0,0,0-3.32-3.32H65.73v6.72Zm1.59-1.17V25.07h1c1.15,0,1.74.93,1.74,2.15s-.62,2.22-1.76,2.22Z"/><polygon points="74.3 29.43 74.3 27.76 77.13 27.76 77.13 26.59 74.3 26.59 74.3 25.08 77.3 25.08 77.3 23.89 72.7 23.89 72.7 30.61 77.36 30.61 77.36 29.43 74.3 29.43"/><path d="M82.38,30.61h1.73L82.62,27.8A1.86,1.86,0,0,0,83.94,26c0-1.23-.76-2.06-2.46-2.06h-3v6.72h1.6V28.05h1l1.29,2.56ZM80.12,25h1c.79,0,1.12.35,1.12.94s-.34,1-1.12,1h-1V25Z"/><polygon points="92.02 25.1 92.02 23.89 87.42 23.89 87.42 30.61 89.02 30.61 89.02 27.85 91.84 27.85 91.84 26.66 89.02 26.66 89.02 25.1 92.02 25.1"/><polygon points="92.97 30.61 97.29 30.61 97.29 29.31 94.57 29.31 94.57 23.89 92.97 23.89 92.97 30.61"/><polygon points="99.81 30.61 99.81 23.89 98.21 23.89 98.21 30.61 99.81 30.61"/><polygon points="102.81 29.43 102.81 27.76 105.65 27.76 105.65 26.59 102.81 26.59 102.81 25.08 105.81 25.08 105.81 23.89 101.21 23.89 101.21 30.61 105.87 30.61 105.87 29.43 102.81 29.43"/><path d="M109.26,30.77c1.76,0,2.74-.88,2.74-2.16s-.64-1.72-1.84-2l-1-.21c-.71-.16-1-.38-1-.81s.41-.69,1-.69a1.88,1.88,0,0,1,1.73,1l1-.88a2.84,2.84,0,0,0-2.67-1.33c-1.62,0-2.62.77-2.62,2s.68,1.76,1.85,2l.9.19c.68.14,1,.33,1,.83s-.51.77-1.15.77a2,2,0,0,1-1.83-1.15l-1.18.83a3.1,3.1,0,0,0,3,1.56Z"/><polygon points="114.55 29.43 114.55 27.76 117.39 27.76 117.39 26.59 114.55 26.59 114.55 25.08 117.55 25.08 117.55 23.89 112.95 23.89 112.95 30.61 117.61 30.61 117.61 29.43 114.55 29.43"/><path d="M118.78,30.61h1.47v-3.8c0-.33,0-.61,0-.89h0a5.06,5.06,0,0,0,.4.82l2.23,3.87h1.7V23.89h-1.47v3.84c0,.32,0,.6,0,.86h0a7.43,7.43,0,0,0-.41-.87l-2.16-3.83h-1.77v6.72Z"/><polygon class="cls-1" points="0 30.61 30.15 30.61 30.15 0.46 0 0.46 0 30.61"/><path class="cls-2" d="M2.31,7.5s.21.29,1,.17c.25,0,.48-.08.55.19.15.67.34,1.35.34,1.35l.32,1.68s.13,1.07.25,1.58a14.78,14.78,0,0,0,.42,1.43c.17.67.11.71.86.55.44-.1.48-.31.38-1l-.19-1.24q-.12-.39-.21-.78a4.34,4.34,0,0,1,.8-.15A8.65,8.65,0,0,1,8.08,11l1.55-.13,1.24.11a5,5,0,0,0,1,0c0,.21.15,1.26.15,1.26s.11,1.16.15,1.43a11.61,11.61,0,0,1,0,1.56,4.2,4.2,0,0,1-.5,1.68c-.34.34-1,.9-1,.9s-1,1-1.34,1.49a9.58,9.58,0,0,0-.82,1.51A8.36,8.36,0,0,0,7.51,23c-.08.55-.4,1.45-.5,2.21,0,.4-.1,1,.17,1.18,1.32.88,1.62-.8,1.81-1.76a12.77,12.77,0,0,1,.92-2.58,16.51,16.51,0,0,1,1.16-1.85s.8-.9,1.26-1.3.55-.69.93-.78.53-.17.76-.23a1.92,1.92,0,0,1,1.72.29c.51.34,1.53,1.05,1.53,1.05a14.18,14.18,0,0,1,1.2,1.37,17.72,17.72,0,0,1,1.2,1.81c.19.34.71,1.79.71,1.79s.31,1.43.38,1.79.53,1.26.76,1.3a1.22,1.22,0,0,0,.8,0c.65-.19.65-1.05.46-1.91a8.53,8.53,0,0,0-.38-1.07l-.32-.9c-.31-.86-1-2.61-1-2.61a26.23,26.23,0,0,0-1.79-2.44,9.82,9.82,0,0,0-1-1,5.7,5.7,0,0,1-1.6-2,6.68,6.68,0,0,1-.27-1.09s-.06-.48-.08-.74,0-.61,0-.9c0-.55-.06-1-.08-1.41.71-.1.4-.11,1.76-.27a4.94,4.94,0,0,1,1.51-.11c.36.06.95.21.95.21a6.46,6.46,0,0,1,.92.53,1.94,1.94,0,0,1,.67.92,5.77,5.77,0,0,1,.57,2.23c-.25.31-.76,1-.76,1s-.42.34-.67.57-.42.34-.27.5.78.59.92.51a4.26,4.26,0,0,0,.88-.65l.84-1c.48-.55.82-1.07,1.34-1.68.36-.42,1.05-1.32,1.05-1.32s.63-.8.86-1.18a7.52,7.52,0,0,0,.61-1.2c.19-.53.4-1,.55-1.55.31-1.15-.11-1.62-.72-1.64a3.33,3.33,0,0,0-1,.4,5.69,5.69,0,0,0-.9,1.07c-.08.11-.21.44-.29.55-.44.59-.73.9-.53,1,.38.23.82.25,1.16.46.1.06-.23.38-.46.8a9.79,9.79,0,0,1-1.35,1.91,5.67,5.67,0,0,0-.63-1.87c-.19-.29-.4-.55-.61-.84a6.3,6.3,0,0,0-.94-.92,5.87,5.87,0,0,0-2.39-.59A17.28,17.28,0,0,0,17.41,9c-.32,0-.65,0-1,0a4.69,4.69,0,0,1-.92.06c-.17,0-.36-.11-.36-.32a1.4,1.4,0,0,1,.44-1.15,2,2,0,0,0,.63-1.66,3,3,0,0,0-.69-1.56,2.15,2.15,0,0,0-1.77-.71,1.42,1.42,0,0,0-1,.29,4.77,4.77,0,0,0-.63.48c-.52.57-.76,2.44-.13,3a3,3,0,0,1,.4.4,1.69,1.69,0,0,1,.25.69c0,.33.06.61-.38.69l-1.89.06s-2.06.27-2.67.31c-.38,0-1.45.25-1.89.21a11.38,11.38,0,0,1-.42-2c0-.15,0-.48.32-.53s.48-.06.76-.13.44-.15.67-.19l-.06-.52S7,5.9,7,5.77c-.08-.34-.08-.63-.27-.71s-.63.11-1.32.21-1.87.06-2.61.17S2,5.78,2,6.07a4.27,4.27,0,0,0,.15.71l.13.72Z"/></g></g></svg>