<svg height="511pt" viewBox="-25 0 511 511.95" width="511pt" xmlns="http://www.w3.org/2000/svg"><path d="m400.875 137.75c-30.398438 0-55-24.601562-55-55 0-9 2.199219-17.800781 6.398438-25.800781h-320.597657c-14.402343 0-26.199219 11.800781-26.199219 26.199219v348c0 14.402343 11.796876 26.203124 26.199219 26.203124h361.199219c14.398438 0 26.199219-11.800781 26.199219-26.203124v-296.597657c-5.800781 2.199219-12 3.199219-18.199219 3.199219zm0 0" fill="#acdef9"/><path d="m44.074219 159.550781h338.601562c3.800781 0 6.800781 3 6.800781 6.800781v67.796876c0 3.800781-3 6.800781-6.800781 6.800781h-338.601562c-3.800781 0-6.800781-3-6.800781-6.800781v-67.796876c.203124-3.601562 3.203124-6.800781 6.800781-6.800781zm0 0" fill="#e9e9ea"/><path d="m44.074219 292.75h80.402343c3.796876 0 6.796876 3 6.796876 6.800781v33.398438c0 3.800781-3 6.800781-6.796876 6.800781h-80.402343c-3.800781 0-6.800781-3-6.800781-6.800781v-33.398438c.203124-3.800781 3.203124-6.800781 6.800781-6.800781zm0 0" fill="#ea4647"/><path d="m173.273438 292.75h80.402343c3.800781 0 6.800781 3 6.800781 6.800781v33.398438c0 3.800781-3 6.800781-6.800781 6.800781h-80.402343c-3.796876 0-6.796876-3-6.796876-6.800781v-33.398438c0-3.800781 3-6.800781 6.796876-6.800781zm0 0" fill="#ffcd29"/><path d="m302.273438 292.75h80.402343c3.800781 0 6.800781 3 6.800781 6.800781v33.398438c0 3.800781-3 6.800781-6.800781 6.800781h-80.402343c-3.796876 0-6.796876-3-6.796876-6.800781v-33.398438c0-3.800781 3-6.800781 6.796876-6.800781zm0 0" fill="#6dcc6d"/><path d="m455.875 82.550781c0 30.375-24.625 55-55 55s-55-24.625-55-55 24.625-55 55-55 55 24.625 55 55zm0 0" fill="#ea4647"/><path d="m345.675781 82.550781c0-9 2.199219-17.800781 6.398438-25.800781h-320.398438c-14.402343 0-26.199219 11.800781-26.199219 26.199219v26.601562h347.398438c-4.601562-8-7.199219-17.402343-7.199219-27zm0 0" fill="#55acd5"/><path d="m151.476562 493.351562h-3.601562v-3.601562c0-2.800781-2.199219-5-5-5s-5 2.199219-5 5v3.601562h-3.601562c-2.796876 0-5 2.199219-5 5 0 2.796876 2.203124 5 5 5h3.601562v3.597657c0 2.800781 2.199219 5 5 5s5-2.199219 5-5v-3.597657h3.601562c2.796876 0 5-2.203124 5-5 0-2.800781-2.203124-5-5-5zm0 0" fill="#ffcd29"/><path d="m342.875 3.949219c0-.398438-.199219-.597657-.199219-1-.199219-.199219-.199219-.597657-.402343-.800781-.199219-.199219-.398438-.597657-.597657-.796876-2-1.800781-5-1.800781-7 0-.199219.199219-.402343.398438-.601562.796876-.199219.203124-.398438.601562-.398438.800781-.199219.402343-.199219.601562-.199219 1 0 .402343-.203124.601562-.203124 1 0 .402343 0 .601562.203124 1 0 .402343.199219.601562.199219 1 .199219.402343.199219.601562.398438.800781s.402343.601562.601562.800781c2 2 5 2 7 0 .199219-.199219.398438-.402343.597657-.800781.203124-.199219.402343-.601562.402343-.800781.199219-.199219.199219-.597657.199219-1 0-.398438 0-.597657.199219-1-.199219-.398438-.199219-.800781-.199219-1zm0 0" fill="#ea4647"/><path d="m104.074219 482.550781c0-.402343-.199219-.601562-.199219-1-.199219-.199219-.199219-.601562-.398438-.800781-.203124-.199219-.402343-.601562-.601562-.800781-2-1.800781-5-1.800781-7 0-.199219.199219-.398438.402343-.601562.800781-.398438.601562-.597657 1.199219-.796876 1.800781-.203124.597657-.203124 1.398438 0 2 0 .398438.199219.597657.199219 1 .199219.398438.199219.597657.398438.800781.199219.199219.402343.597657.601562.796876 2 2 5 2 7 0 .199219-.199219.398438-.398438.597657-.796876.203124-.203124.402343-.601562.402343-.800781.199219-.199219.199219-.601562.199219-1 .199219-.601562.199219-1.402343.199219-2zm0 0" fill="#6dcc6d"/><path d="m304.476562 26.148438c-6.601562-1.199219-11.800781-6.398438-13.203124-13.199219 0-.199219-.199219-.199219-.398438-.199219s-.199219.199219-.199219.199219c-1.199219 6.601562-6.402343 11.800781-13.199219 13.199219-.203124 0-.203124.203124-.203124.402343s.203124.199219.203124.199219c6.597657 1.199219 11.796876 6.398438 13.199219 13.199219 0 .199219.199219.199219.398438.199219s.199219-.199219.199219-.199219c1.203124-6.597657 6.402343-11.800781 13.203124-13.199219.199219 0 .199219-.199219.199219-.398438 0-.203124 0-.203124-.199219-.203124zm0 0" fill="#55acd5"/><g fill="#231f20"><path d="m392.875 462.351562h-361.199219c-17.199219 0-31.199219-14-31.199219-31.203124v-348c0-17.199219 14-31.199219 31.199219-31.199219h320.398438c2.800781 0 5 2.199219 5 5 0 .800781-.199219 1.601562-.597657 2.402343-3.800781 7.199219-5.800781 15.199219-5.800781 23.398438 0 27.601562 22.398438 50 50.199219 50 5.601562 0 11.199219-1 16.601562-2.800781 2.597657-1 5.398438.402343 6.398438 3 .199219.601562.199219 1 .199219 1.601562v296.597657c0 17.203124-14 31.203124-31.199219 31.203124zm-361.199219-400.402343c-11.800781 0-21.199219 9.601562-21.199219 21.199219v348c0 11.800781 9.597657 21.203124 21.199219 21.203124h361.199219c11.800781 0 21.199219-9.601562 21.199219-21.203124v-289.796876c-32.398438 7.398438-64.597657-13-71.800781-45.402343-2.597657-11.398438-1.796876-23.199219 2.203124-34zm0 0"/><path d="m352.875 114.75h-347.398438c-2.800781 0-5-2.199219-5-5v-26.601562c0-17.199219 14-31.199219 31.199219-31.199219h320.398438c2.800781 0 5 2.199219 5 5 0 .800781-.199219 1.601562-.597657 2.402343-3.800781 7.199219-5.800781 15.199219-5.800781 23.398438 0 8.601562 2.199219 17.199219 6.597657 24.601562 1.402343 2.398438.601562 5.398438-1.796876 6.796876-.800781.402343-1.800781.601562-2.601562.601562zm-342.398438-10h334.597657c-5.398438-13.800781-5.597657-29-.597657-42.800781h-312.800781c-11.800781 0-21.199219 9.601562-21.199219 21.199219zm0 0"/><path d="m37.476562 88.351562c-.402343 0-.601562 0-1 0-.402343 0-.601562-.203124-1-.203124-.203124-.199219-.601562-.199219-.800781-.398438s-.601562-.398438-.800781-.601562c-.199219-.199219-.398438-.597657-.601562-.796876-.199219-.203124-.398438-.601562-.398438-.800781-.199219-.199219-.199219-.601562-.199219-1 0-.402343 0-.601562 0-1 0-.402343 0-.601562 0-1 .199219-.601562.398438-1.199219.800781-1.800781.199219-.199219.398438-.601562.597657-.800781s.402343-.398438.800781-.597657c.601562-.402343 1.199219-.601562 1.800781-.800781.597657-.199219 1.398438-.199219 2 0 .597657.199219 1.199219.398438 1.800781.800781.199219.199219.597657.398438.796876.597657.203124.199219.402343.402343.601562.800781.398438.601562.601562 1.199219.800781 1.800781v1c0 1.398438-.601562 2.597657-1.402343 3.597657-.199219.203124-.398438.402343-.796876.601562-.203124.199219-.601562.398438-.800781.398438-.402343.203124-.601562.203124-1 .203124-.601562 0-1 0-1.199219 0zm0 0"/><path d="m56.675781 88.351562c-2.800781 0-5-2.203124-5-5 0-1.402343.597657-2.601562 1.398438-3.601562.199219-.199219.402343-.398438.800781-.601562.199219-.199219.601562-.398438.800781-.398438.398438-.199219.597657-.199219 1-.199219 2.597657-.601562 5.398438 1.199219 5.800781 3.800781 0 .398438.199219.597657.199219 1 0 2.796876-2.199219 5-5 5zm0 0"/><path d="m76.074219 88.351562c-1.398438 0-2.597657-.601562-3.597657-1.402343-.203124-.199219-.402343-.398438-.601562-.800781-.199219-.199219-.398438-.597657-.398438-.796876-.203124-.203124-.203124-.601562-.203124-1 0-.402343 0-.601562 0-1 0-2.800781 2.203124-5 5-5 .402343 0 .601562 0 1 .199219.601562.199219 1.203124.398438 1.800781.800781.199219.199219.601562.398438.800781.597657 1 1 1.398438 2.199219 1.398438 3.601562v1c0 .398438-.199219.597657-.199219 1-.199219.398438-.199219.597657-.398438.800781-.199219.199219-.402343.597657-.601562.796876-.199219.203124-.398438.402343-.800781.601562-.199219.199219-.597657.398438-.796876.398438-.402343.203124-.601562.203124-1 .203124-.800781 0-1.203124 0-1.402343 0zm0 0"/><path d="m192.875 273.148438c-2.800781 0-5-2.199219-5-5 0-1.398438.601562-2.597657 1.398438-3.597657 2-1.800781 5-1.800781 7 0 .203124.199219.402343.398438.601562.800781.398438.597657.601562 1.199219.800781 1.796876 0 .402343 0 .601562.199219 1 0 2.601562-2.199219 5-5 5zm0 0"/><path d="m212.273438 273.148438c-1.398438 0-2.597657-.597657-3.597657-1.398438-.199219-.199219-.402343-.398438-.601562-.800781-.398438-.597657-.597657-1.199219-.800781-1.800781 0-.398438 0-.597657-.199219-1 0-1.398438.601562-2.597657 1.402343-3.597657 2-1.800781 5-1.800781 7 0 2 2 2 5.199219 0 7-.601562 1-1.800781 1.597657-3.203124 1.597657zm0 0"/><path d="m231.476562 273.148438c-.402343 0-.601562 0-1-.199219-.402343 0-.601562-.199219-1-.199219-.402343-.199219-.601562-.199219-.800781-.398438-.199219-.203124-.601562-.402343-.800781-.601562-2-2-2-5.199219 0-7 .199219-.199219.398438-.398438.800781-.601562 2-1.398438 4.597657-1 6.398438.601562 2 2 2 5.199219 0 7-1 .800781-2.199219 1.398438-3.597657 1.398438zm0 0"/><path d="m326.273438 88.351562h-191c-2.796876 0-5-2.203124-5-5 0-2.800781 2.203124-5 5-5h191c2.800781 0 5 2.199219 5 5 0 2.796876-2.199219 5-5 5zm0 0"/><path d="m400.875 142.75c-33.199219 0-60-27-60-60s27-60 60-60 60 27 60 60-26.800781 60-60 60zm0-110.199219c-27.601562 0-50 22.398438-50 50 0 27.597657 22.398438 50 50 50s50-22.402343 50-50c0-27.601562-22.398438-50-50-50zm0 0"/><path d="m400.875 111.75c-2.800781 0-5-2.199219-5-5v-48.199219c0-2.800781 2.199219-5 5-5s5 2.199219 5 5v48.398438c0 2.601562-2.199219 4.800781-5 4.800781zm0 0"/><path d="m425.074219 87.550781h-48.398438c-2.800781 0-5-2.199219-5-5s2.199219-5 5-5h48.398438c2.800781 0 5 2.199219 5 5s-2.398438 5-5 5zm0 0"/><path d="m382.675781 245.949219h-338.601562c-6.398438 0-11.800781-5.199219-11.800781-11.800781v-67.796876c0-6.402343 5.203124-11.800781 11.800781-11.800781h338.601562c6.398438 0 11.800781 5.199219 11.800781 11.800781v67.796876c-.203124 6.601562-5.402343 11.800781-11.800781 11.800781zm-338.601562-81.398438c-1 0-1.800781.800781-1.800781 1.800781v67.796876c0 1 .800781 1.800781 1.800781 1.800781h338.601562c1 0 1.800781-.800781 1.800781-1.800781v-67.796876c0-1-.800781-1.800781-1.800781-1.800781zm0 0"/><path d="m124.476562 344.75h-80.402343c-6.398438 0-11.800781-5.199219-11.800781-11.800781v-33.398438c0-6.402343 5.203124-11.800781 11.800781-11.800781h80.402343c6.398438 0 11.796876 5.199219 11.796876 11.800781v33.398438c0 6.402343-5.199219 11.800781-11.796876 11.800781zm-80.402343-47c-1 0-1.800781.800781-1.800781 1.800781v33.398438c0 1 .800781 1.800781 1.800781 1.800781h80.402343c1 0 1.796876-.800781 1.796876-1.800781v-33.398438c0-1-.796876-1.800781-1.796876-1.800781zm0 0"/><path d="m253.675781 344.75h-80.402343c-6.398438 0-11.796876-5.199219-11.796876-11.800781v-33.398438c0-6.402343 5.199219-11.800781 11.796876-11.800781h80.402343c6.398438 0 11.800781 5.199219 11.800781 11.800781v33.398438c-.203124 6.402343-5.402343 11.800781-11.800781 11.800781zm-80.402343-47c-1 0-1.796876.800781-1.796876 1.800781v33.398438c0 1 .796876 1.800781 1.796876 1.800781h80.402343c1 0 1.800781-.800781 1.800781-1.800781v-33.398438c0-1-.800781-1.800781-1.800781-1.800781zm0 0"/><path d="m382.675781 344.75h-80.402343c-6.398438 0-11.796876-5.199219-11.796876-11.800781v-33.398438c0-6.402343 5.199219-11.800781 11.796876-11.800781h80.402343c6.398438 0 11.800781 5.199219 11.800781 11.800781v33.398438c-.203124 6.402343-5.402343 11.800781-11.800781 11.800781zm-80.402343-47c-1 0-1.796876.800781-1.796876 1.800781v33.398438c0 1 .796876 1.800781 1.796876 1.800781h80.402343c1 0 1.800781-.800781 1.800781-1.800781v-33.398438c0-1-.800781-1.800781-1.800781-1.800781zm0 0"/><path d="m389.273438 369.550781h-93.796876c-2.800781 0-5-2.199219-5-5s2.199219-5 5-5h93.796876c2.800781 0 5 2.199219 5 5s-2.199219 5-5 5zm0 0"/><path d="m389.273438 393.75h-93.796876c-2.800781 0-5-2.199219-5-5s2.199219-5 5-5h93.796876c2.800781 0 5 2.199219 5 5s-2.199219 5-5 5zm0 0"/><path d="m389.273438 417.75h-93.796876c-2.800781 0-5-2.199219-5-5s2.199219-5 5-5h93.796876c2.800781 0 5 2.199219 5 5s-2.199219 5-5 5zm0 0"/><path d="m260.273438 369.550781h-93.796876c-2.800781 0-5-2.199219-5-5s2.199219-5 5-5h93.796876c2.800781 0 5 2.199219 5 5s-2.199219 5-5 5zm0 0"/><path d="m260.273438 393.75h-93.796876c-2.800781 0-5-2.199219-5-5s2.199219-5 5-5h93.796876c2.800781 0 5 2.199219 5 5s-2.199219 5-5 5zm0 0"/><path d="m260.273438 417.75h-93.796876c-2.800781 0-5-2.199219-5-5s2.199219-5 5-5h93.796876c2.800781 0 5 2.199219 5 5s-2.199219 5-5 5zm0 0"/><path d="m131.273438 369.550781h-93.796876c-2.800781 0-5-2.199219-5-5s2.199219-5 5-5h93.796876c2.800781 0 5 2.199219 5 5s-2.199219 5-5 5zm0 0"/><path d="m131.273438 393.75h-93.796876c-2.800781 0-5-2.199219-5-5s2.199219-5 5-5h93.796876c2.800781 0 5 2.199219 5 5s-2.199219 5-5 5zm0 0"/><path d="m131.273438 417.75h-93.796876c-2.800781 0-5-2.199219-5-5s2.199219-5 5-5h93.796876c2.800781 0 5 2.199219 5 5s-2.199219 5-5 5zm0 0"/></g></svg>