<svg height="511pt" viewBox="-24 0 511 511.95" width="511pt" xmlns="http://www.w3.org/2000/svg"><path d="m372.636719 212.949219c-47.402344 0-86-38.398438-86-85.800781 0-17.597657 5.398437-34.597657 15.398437-49-18.601562-6.796876-38.199218-11-58-12.398438-178.199218-14-296.398437 178.601562-209 330.398438 54.199219 94.203124 169 135 270.601563 96.402343 58.796875-22.402343 105.199219-69 127.597656-127.800781 21.199219-55.601562 19-117.398438-6-171.398438-15.199219 12.597657-34.597656 19.597657-54.597656 19.597657zm0 0" fill="#55acd5"/><path d="m398.234375 211.550781c-.398437-.800781-.597656-1.402343-1-2.199219-45.398437 13.597657-93.398437-12.203124-107-57.601562-4.199219-13.800781-4.800781-28.199219-1.800781-42.199219-11-3.800781-22.398438-6.601562-33.796875-8.402343-118.203125-18-222.402344 78.402343-214.601563 196.800781 7.601563 118.199219 122.601563 201 238.398438 167.601562 61.800781-17.800781 110.203125-66.199219 128-128.199219 12-41.601562 9-86.203124-8.199219-125.800781zm0 0" fill="#e9e9ea"/><path d="m372.636719 212.949219c-45.800781 0-83.601563-36-85.800781-81.800781-25-9.597657-52-13.199219-78.601563-10.199219-137.597656 15.601562-197.597656 184.199219-98.597656 282.601562 41.796875 41.597657 102.199219 57.800781 159.199219 43 58.199218-15.199219 103.597656-60.601562 118.597656-118.800781 10-38.398438 5.800781-79.199219-11.597656-114.800781-1.199219 0-2.199219 0-3.199219 0zm0 0" fill="#e9e9ea"/><path d="m225.835938 262.949219c3.398437 0 6.800781.800781 10 2.199219v-92.199219c0-5.597657-4.402344-10-10-10-5.601563 0-10 4.402343-10 10v92.199219c3.199218-1.398438 6.597656-2.199219 10-2.199219zm0 0" fill="#6d6c6b"/><path d="m242.796875 269.953125c-9.371094-9.371094-24.566406-9.371094-33.9375 0-9.375 9.371094-9.375 24.566406 0 33.941406 9.371094 9.371094 24.566406 9.371094 33.9375 0 9.375-9.375 9.375-24.570312 0-33.941406zm0 0" fill="#e9e9ea"/><path d="m208.835938 303.949219c-2.199219-2.199219-4-4.800781-5.199219-7.597657l-48.601563 48.597657c-4 3.800781-4 10.199219 0 14.199219 3.800782 4 10.199219 4 14.199219 0l49.199219-49.199219c-3.597656-1.398438-6.796875-3.398438-9.597656-6zm0 0" fill="#ea4647"/><path d="m372.636719 40.949219c-47.402344 0-86 38.402343-86 86 0 47.601562 38.398437 86 86 86 47.597656 0 86-38.398438 86-86-.203125-47.398438-38.601563-85.800781-86-86zm0 0" fill="#88e288"/><path d="m372.636719 190.550781c-35 0-63.402344-28.402343-63.402344-63.402343s28.402344-63.398438 63.402344-63.398438 63.398437 28.398438 63.398437 63.398438c0 34.800781-28.398437 63.203124-63.398437 63.402343zm0 0" fill="#6dcc6d"/><path d="m286.234375 21.949219h-3.597656v-3.597657c0-2.800781-2.203125-5-5-5-2.800781 0-5 2.199219-5 5v3.597657h-3.601563c-2.800781 0-5 2.199219-5 5s2.199219 5 5 5h3.601563v3.601562c0 2.800781 2.199219 5 5 5 2.796875 0 5-2.199219 5-5v-3.601562h3.597656c2.800781 0 5-2.199219 5-5s-2.199219-5-5-5zm0 0" fill="#6dcc6d"/><path d="m216.835938 3.949219c0-.398438-.199219-.597657-.199219-1-.203125-.199219-.203125-.597657-.402344-.800781-.199219-.199219-.398437-.597657-.597656-.796876-2-1.800781-5-1.800781-7 0-.203125.199219-.402344.398438-.601563.796876-.199218.203124-.398437.601562-.398437.800781-.203125.402343-.203125.601562-.203125 1 0 .402343-.199219.601562-.199219 1 0 .402343 0 .601562.199219 1 0 .402343.203125.601562.203125 1 .199219.402343.199219.601562.398437.800781.199219.199219.398438.601562.601563.800781 2 2 5 2 7 0 .199219-.199219.398437-.402343.597656-.800781.199219-.199219.402344-.601562.402344-.800781.199219-.199219.199219-.597657.199219-1 0-.398438 0-.597657.199218-1-.199218-.398438-.199218-.800781-.199218-1zm0 0" fill="#55acd5"/><path d="m388.835938 491.949219c0-.398438-.199219-.597657-.199219-1-.203125-.199219-.203125-.597657-.402344-.800781-.199219-.199219-.398437-.597657-.597656-.796876-2-1.800781-5-1.800781-7 0-.203125.199219-.402344.398438-.601563.796876-.398437.601562-.601562 1.203124-.800781 1.800781-.199219.601562-.199219 1.402343 0 2 0 .402343.199219.601562.199219 1 .203125.402343.203125.601562.402344.800781.199218.199219.398437.601562.597656.800781 2 2 5 2 7 0 .203125-.199219.402344-.402343.601562-.800781.199219-.199219.398438-.601562.398438-.800781.203125-.199219.203125-.597657.203125-1 .199219-.800781.199219-1.398438.199219-2zm0 0" fill="#ffcd29"/><path d="m38.835938 457.949219c0-.398438-.199219-.597657-.199219-1-.203125-.199219-.203125-.597657-.402344-.800781-.199219-.199219-.398437-.597657-.597656-.796876-2-1.800781-5-1.800781-7 0-.203125.199219-.402344.398438-.601563.796876-.398437.601562-.601562 1.203124-.800781 1.800781-.199219.601562-.199219 1.402343 0 2 0 .402343.199219.601562.199219 1 .203125.402343.203125.601562.402344.800781.199218.199219.398437.601562.597656.800781 2 2 5 2 7 0 .203125-.199219.402344-.402343.601562-.800781.199219-.199219.398438-.601562.398438-.800781.203125-.199219.203125-.597657.203125-1 .199219-.800781.199219-1.398438.199219-2zm0 0" fill="#ea4647"/><path d="m450.433594 444.148438c-6.597656-1.199219-11.796875-6.398438-13.199219-13.199219 0-.199219-.199219-.199219-.398437-.199219-.199219 0-.199219.199219-.199219.199219-1.203125 6.601562-6.402344 11.800781-13.203125 13.199219-.199219 0-.199219.203124-.199219.402343s.199219.199219.199219.199219c6.601562 1.199219 11.800781 6.398438 13.203125 13.199219 0 .199219.199219.199219.398437.199219.199219 0 .199219-.199219.199219-.199219 1.199219-6.597657 6.402344-11.800781 13.199219-13.199219.203125 0 .203125-.199219.203125-.398438 0-.203124 0-.203124-.203125-.203124zm0 0" fill="#ea4647"/><path d="m75.234375 290.949219h-14.800781c-2.796875 0-5-2.199219-5-5s2.203125-5 5-5h14.800781c2.800781 0 5 2.199219 5 5s-2.199219 5-5 5zm0 0"/><path d="m392.035156 290.949219h-14.800781c-2.800781 0-5-2.199219-5-5s2.199219-5 5-5h14.800781c2.800782 0 5 2.199219 5 5s-2.199218 5-5 5zm0 0"/><path d="m109.035156 408.148438c-2.800781 0-5-2.199219-5-5 0-1.398438.601563-2.597657 1.398438-3.597657l10.402344-10.402343c2-2 5.199218-1.796876 7 .203124 1.800781 2 1.800781 5 0 7l-10.402344 10.398438c-.796875.800781-2 1.398438-3.398438 1.398438zm0 0"/><path d="m226.234375 456.75c-2.800781 0-5-2.199219-5-5v-14.800781c0-2.800781 2.199219-5 5-5s5 2.199219 5 5v14.800781c0 2.800781-2.199219 5-5 5zm0 0"/><path d="m226.234375 139.949219c-2.800781 0-5-2.199219-5-5v-14.800781c0-2.796876 2.199219-5 5-5s5 2.203124 5 5v14.800781c0 2.601562-2.199219 5-5 5zm0 0"/><path d="m343.636719 408.148438c-1.402344 0-2.601563-.597657-3.601563-1.398438l-10.398437-10.398438c-2-2-1.800781-5.203124.199219-7 2-1.800781 5-1.800781 7 0l10.398437 10.398438c2 2 2 5.199219 0 7-1 .800781-2.398437 1.398438-3.597656 1.398438zm0 0"/><path d="m119.433594 184.148438c-1.398438 0-2.597656-.597657-3.597656-1.398438l-10.402344-10.398438c-2-2-2-5.203124 0-7 2-2 5-2 7 0l10.402344 10.398438c2 2 2 5.199219 0 7-.800782.800781-2 1.398438-3.402344 1.398438zm0 0"/><g fill="#231f20"><path d="m372.636719 217.949219c-50.203125 0-91-40.800781-91-91s40.796875-91 91-91c50.199219 0 91 40.800781 91 91-.203125 50.199219-40.800781 91-91 91zm0-172c-44.800781 0-81 36.199219-81 81s36.199219 81 81 81c44.796875 0 81-36.199219 81-81-.203125-44.597657-36.402344-80.800781-81-81zm0 0"/><path d="m365.835938 153.75c-1.402344 0-2.800782-.601562-3.601563-1.601562l-20-21.796876c-1.800781-2-1.597656-5.203124.402344-7 2-1.800781 5-1.601562 7 .398438l16.398437 18 29.800782-29.800781c2-2 5-2 7-.199219s2 5 .199218 7c0 0 0 0-.199218.199219l-33.601563 33.601562c-.800781.597657-2 1.199219-3.398437 1.199219zm0 0"/><path d="m372.636719 195.550781c-37.800781 0-68.402344-30.601562-68.402344-68.402343 0-37.796876 30.601563-68.398438 68.402344-68.398438 37.796875 0 68.398437 30.601562 68.398437 68.398438 0 37.601562-30.601562 68.203124-68.398437 68.402343zm0-127c-32.402344 0-58.402344 26.199219-58.402344 58.398438 0 32.402343 26.199219 58.402343 58.402344 58.402343 32.199219 0 58.398437-26.203124 58.398437-58.402343s-26.199218-58.398438-58.398437-58.398438zm0 0"/></g><path d="m226.835938 511.949219c-81 0-155.800782-43.199219-196.199219-113.398438-21.203125-36.601562-31.601563-78.601562-30-120.800781 1.796875-40 14-78.800781 35.398437-112.601562 45.601563-72.199219 123.601563-111.199219 208.398438-104.597657h.601562c20 1.597657 39.800782 5.800781 58.601563 12.800781 2.597656 1 4 3.796876 3 6.398438-.203125.398438-.402344.800781-.601563 1.199219-25.398437 36.800781-16.398437 87.199219 20.398438 112.601562 29.800781 20.597657 69.800781 19 97.601562-4.199219 2.199219-1.800781 5.199219-1.402343 7 .597657.199219.402343.601563.601562.601563 1 25.398437 55.199219 27.597656 118.402343 6 175.199219 0 .203124-.203125.402343-.203125.601562-23 59.601562-70 106.800781-129.597656 129.800781-.199219.199219-.402344.199219-.601563.199219-25.398437 10.199219-52.800781 15.199219-80.398437 15.199219zm-1-442c-74 0-140.800782 36.800781-181.199219 100.601562-20.402344 32.398438-32.203125 69.398438-34 107.597657-1.601563 40.402343 8.398437 80.402343 28.597656 115.402343 53 92 164.800781 131.800781 264 94.398438.199219 0 .402344-.199219.601563-.199219 57.398437-22 102.800781-67.398438 124.597656-125 0-.199219.203125-.398438.203125-.601562 19.597656-52.199219 18.199219-109.796876-3.601563-161.199219-40.800781 29.199219-97.601562 19.601562-126.800781-21.199219-20.800781-29.199219-22.597656-68.199219-4.199219-99-16.398437-5.398438-33.398437-8.800781-50.800781-10.199219-.199219 0-.398437 0-.597656 0-5.402344-.402343-11.203125-.601562-16.800781-.601562zm0 0"/><path d="m226.433594 477.949219c-106-.199219-191.796875-86.398438-191.597656-192.398438.199218-106 86.398437-191.800781 192.398437-191.601562 9.402344 0 18.800781.800781 28.199219 2.199219h.402344c11.597656 1.800781 23.199218 4.601562 34.199218 8.601562 2.398438.800781 3.800782 3.199219 3.199219 5.800781-9.199219 43.800781 18.800781 86.597657 62.601563 95.800781 13.199218 2.796876 27 2.199219 39.800781-1.800781 2.398437-.800781 5 .398438 6 2.800781l.398437.796876c.199219.402343.398438.800781.601563 1.203124 0 0 0 .199219.199219.199219 17.597656 40.800781 20.597656 86.597657 8.398437 129.398438v.199219c-18.398437 63.203124-67.800781 112.601562-131 131.203124-.199219 0-.199219.199219-.398437.199219-17.402344 5-35.402344 7.398438-53.402344 7.398438zm0-374c-100.398438 0-181.796875 81.601562-181.796875 182.199219.199219 100.601562 81.796875 182 182.398437 181.800781 16.800782 0 33.601563-2.398438 49.601563-7 .199219 0 .199219-.199219.398437-.199219 60.199219-17.601562 107.199219-64.601562 124.601563-124.800781v-.199219c11.199219-39.800781 8.597656-82.398438-7.402344-120.601562-48.800781 12-98-17.597657-110.199219-66.398438-3-11.800781-3.398437-24-1.601562-36-9.398438-3-19-5.398438-28.796875-6.800781-.203125 0-.402344 0-.402344 0-8.800781-1.398438-17.800781-2-26.800781-2zm0 0"/><path d="m227.035156 456.949219c-45.398437 0-88.800781-17.800781-121-49.800781-66.800781-66.796876-67-175.199219-.199218-242 27.398437-27.398438 63.199218-44.796876 101.800781-49.199219h.796875c27.203125-3 54.601562.800781 80.203125 10.601562 1.796875.800781 3 2.398438 3.199219 4.398438 2 43.199219 37.597656 77 80.800781 77h2.597656.402344c2 0 3.796875 1 4.597656 2.800781 18 36.800781 22.199219 78.800781 12 118.398438 0 .203124-.199219.601562-.199219.800781-15.800781 59.199219-62 105.601562-121.398437 121.402343-.203125 0-.402344.199219-.601563.199219-14 3.398438-28.398437 5.398438-43 5.398438zm-19-331c-88.398437 10.402343-151.601562 90.601562-141 179 4.199219 36 20.601563 69.402343 46.199219 95 40.402344 40 98.800781 55.800781 153.800781 41.800781.199219 0 .398438-.199219.601563-.199219 56.398437-14.800781 100.199219-58.800781 115-115.199219 0-.203124.199219-.601562.199219-.800781 9.199218-36 5.597656-74-10.199219-107.800781-47.203125 0-86.601563-36.199219-90.601563-83.199219-23.398437-8.402343-48.601562-11.402343-73.398437-8.601562-.203125 0-.402344 0-.601563 0zm0 0"/><path d="m215.835938 270.148438c-2.800782 0-5-2.199219-5-5v-92.199219c0-8.199219 6.800781-15 15-15 8.199218 0 15 6.800781 15 15v92.199219c0 2.800781-2.199219 5-5 5-.800782 0-1.402344-.199219-2-.398438-5-2.398438-10.800782-2.398438-15.800782 0-.800781.199219-1.601562.398438-2.199218.398438zm10-12.199219c1.597656 0 3.398437.199219 5 .402343v-85.402343c0-2.800781-2.199219-5-5-5-2.800782 0-5 2.199219-5 5v85.402343c1.597656-.203124 3.199218-.402343 5-.402343zm0 0"/><path d="m225.835938 315.949219c-16 0-29-13-29-29s13-29 29-29c7.597656 0 15 3 20.597656 8.402343 11.402344 11.398438 11.402344 29.597657 0 41-5.597656 5.597657-13 8.597657-20.597656 8.597657zm0-48c-10.402344 0-19 8.601562-19 19 0 10.402343 8.597656 19 19 19 10.398437 0 19-8.597657 19-19 0-5-2-9.800781-5.601563-13.398438-3.597656-3.601562-8.398437-5.601562-13.398437-5.601562zm0 0"/><path d="m162.234375 366.949219c-8.199219 0-15-6.800781-15-15 0-4 1.601563-7.800781 4.402344-10.597657l48.597656-48.601562c2-2 5.199219-2 7 0 .402344.398438.800781 1 1 1.601562 1 2.199219 2.402344 4.199219 4 6 2.199219 2.199219 4.800781 3.796876 7.601563 4.597657 2.597656.800781 4 3.601562 3.199218 6.199219-.199218.800781-.601562 1.402343-1.199218 2l-49.199219 49.203124c-2.601563 3-6.402344 4.597657-10.402344 4.597657zm40.402344-62.597657-44 44c-2 2-2 5.199219 0 7 2 2 5.199219 2 7 0l44.199219-44.203124c-1.601563-1-3.199219-2.398438-4.601563-3.796876-.800781-.800781-1.800781-1.800781-2.597656-3zm0 0"/></svg>