<svg id="Layer_1" enable-background="new 0 0 512 512" viewBox="0 0 512 512" xmlns="http://www.w3.org/2000/svg"><g><g><path clip-rule="evenodd" d="m422.285 376.632v104.982h-270.586v-78.059c-51.378-3.518-92.322-46.64-92.322-98.864v-69.693h70.57v69.693c0 15.543 12.973 28.516 28.516 28.516h87.121v-28.405h44.886v28.405h88.381c23.889 0 43.434 19.545 43.434 43.425z" fill="#08a9f1" fill-rule="evenodd"/></g><g><path clip-rule="evenodd" d="m241.185 262.714h57.003v39.373l-28.516 17.658-28.487-17.658z" fill="#fbe1ca" fill-rule="evenodd"/></g><g><path clip-rule="evenodd" d="m90.091 177.995h7.686c10.943 0 19.915 8.943 19.915 19.887v37.116h-47.517v-37.116c0-10.944 8.972-19.887 19.916-19.887z" fill="#fbe1ca" fill-rule="evenodd"/></g><g><path clip-rule="evenodd" d="m266.043 282.172c43.374 0 78.748-43.917 78.748-97.748 0-53.832-35.374-97.749-78.748-97.749s-78.747 43.917-78.747 97.749c0 53.831 35.374 97.748 78.747 97.748z" fill="#fbe1ca" fill-rule="evenodd"/></g><g><path clip-rule="evenodd" d="m343.991 198.367c81.833-65.232-13.03-197.525-143.551-133.407-28.173 20.458-43.488 48.031-36.659 87.805 5.629 23.659 13.973 38.602 24.43 46.603-1.171-44.488 7.772-69.633 22.287-84.205 14.172 16.201 32.602 26.544 56.46 29.43 58.689-8.229 82.29 11.343 77.033 53.774z" fill="#5c5f85" fill-rule="evenodd"/></g><g><path clip-rule="evenodd" d="m60.917 126.534 28.573 21.287v-21.287h39.802c6.543 0 11.886-5.372 11.886-11.886v-72.375c0-6.515-5.343-11.886-11.886-11.886h-112.406c-6.514-.001-11.886 5.371-11.886 11.886v72.375c0 6.515 5.372 11.886 11.886 11.886z" fill="#df646e" fill-rule="evenodd"/></g><g><path clip-rule="evenodd" d="m456.483 287.229-33.974 26.173v-26.173h-39.802c-6.544 0-11.887-5.372-11.887-11.886v-72.375c0-6.515 5.343-11.886 11.887-11.886h112.406c6.544 0 11.887 5.372 11.887 11.886v72.375c0 6.515-5.343 11.886-11.887 11.886z" fill="#6c9" fill-rule="evenodd"/></g><g><path clip-rule="evenodd" d="m241.185 302.087-53.403 31.116 38.002 30.43 43.888-43.888z" fill="#e2f0fa" fill-rule="evenodd"/></g><g><path clip-rule="evenodd" d="m298.188 302.087 53.403 31.116-38.002 30.43-43.917-43.888z" fill="#e2f0fa" fill-rule="evenodd"/></g><g><path clip-rule="evenodd" d="m117.206 126.534h12.087c6.543 0 11.886-5.372 11.886-11.886v-72.375c0-6.515-5.343-11.886-11.886-11.886h-12.087c6.543 0 11.886 5.372 11.886 11.886v72.375c0 6.515-5.343 11.886-11.886 11.886z" fill="#d82f3c" fill-rule="evenodd"/></g><g><path clip-rule="evenodd" d="m482.999 287.229h12.115c6.544 0 11.887-5.372 11.887-11.886v-72.375c0-6.515-5.343-11.886-11.887-11.886h-12.115c6.543 0 11.886 5.372 11.886 11.886v72.375c0 6.515-5.343 11.886-11.886 11.886z" fill="#4dba83" fill-rule="evenodd"/></g></g><path d="m377.624 325.455h-25.103l-47.775-27.836v-20.151c23.315-14.634 40.418-42.063 44.949-74.922 16.924-14.275 27.257-32.262 29.905-52.204 2.525-19.021-2.225-39.187-13.377-56.786-14.602-23.044-38.175-39.668-66.375-46.807-31.867-8.067-67.123-3.289-101.957 13.824-.359.176-.702.383-1.025.618-33.014 23.973-45.797 54.647-39.078 93.775.024.146.055.291.089.435 5.428 22.815 13.448 38.624 24.47 48.2 5.235 35.464 25.27 64.717 51.98 77.848v16.171l-47.775 27.836h-27.14c-11.502 0-21.218-9.729-21.218-21.247v-69.002c0-3.86-3.129-6.988-6.988-6.988h-5.176v-29.762c0-14.726-11.982-26.707-26.708-26.707h-7.61c-14.726 0-26.708 11.981-26.708 26.707v29.762h-3.706c-3.86 0-6.988 3.129-6.988 6.988v69.002c0 52.85 39.647 97.418 91.41 104.211v70.969c0 3.86 3.129 6.988 6.988 6.988h267.947c3.86 0 6.988-3.129 6.988-6.988v-103.942c.001-27.566-22.438-49.992-50.019-49.992zm-79.758-15.67 40.452 23.569-24.793 19.852-32.796-32.816zm-126.341-157.402c-5.693-33.529 4.82-58.819 33.07-79.532 69.266-33.752 126.195-9.102 149.823 28.185 17.402 27.462 15.541 57.832-3.87 80.993-1.047-12.583-5.389-22.689-12.987-30.167-10.196-10.034-25.593-15.002-46.728-15.002-7.319 0-15.325.596-24.04 1.783-20.689-2.69-37.248-11.427-50.601-26.692-.049-.056-.103-.104-.154-.158-.087-.094-.175-.187-.268-.276-.089-.086-.182-.166-.275-.247-.058-.05-.111-.104-.171-.153-.029-.023-.06-.042-.089-.065-.098-.077-.199-.148-.301-.219-.097-.068-.193-.135-.293-.198-.092-.058-.185-.11-.279-.163-.116-.065-.232-.13-.35-.188-.084-.041-.17-.079-.256-.117-.132-.058-.263-.114-.397-.164-.082-.03-.166-.058-.25-.085-.138-.046-.277-.088-.418-.124-.087-.023-.174-.042-.262-.062-.139-.03-.278-.057-.419-.079-.093-.015-.185-.027-.279-.038-.138-.016-.275-.027-.414-.035-.055-.003-.108-.012-.163-.014-.043-.001-.084.003-.127.003-.143-.002-.285.002-.427.009-.091.004-.182.008-.273.016-.139.012-.278.031-.417.051-.095.014-.19.026-.284.044-.128.024-.253.056-.379.087-.101.025-.203.047-.302.077-.117.035-.232.077-.348.118-.102.037-.206.069-.306.11-.118.048-.232.105-.348.16-.093.043-.187.083-.277.131-.137.072-.27.155-.403.237-.063.039-.13.074-.192.115-.184.122-.363.255-.536.396-.009.007-.018.013-.026.019-.193.159-.38.329-.558.511-8.561 8.621-14.794 20.079-18.789 34.524-3.46 10.465-5.506 21.633-6.022 33.146-3.813-7.162-7.033-16.143-9.615-26.937zm24.345 46.978c-.492-19.143.94-35.115 4.339-48.11 2.772-8.588 6.603-16.629 11.427-23.86 14.756 14.167 32.999 22.651 54.359 25.238.601.072 1.211.066 1.81-.018 29.383-4.12 49.555-1.021 59.952 9.212 6.483 6.381 9.489 16.152 8.998 29.08-2.377 47.181-33.355 84.023-70.825 84.023-35.299.001-64.655-32.79-70.06-75.565zm70.06 89.542c8.632 0 16.973-1.579 24.839-4.509v13.347l-21.221 13.133-21.244-13.134v-11.09c5.689 1.472 11.584 2.253 17.626 2.253zm-24.72 20.881 17.158 10.607-32.817 32.817-24.794-19.854zm-162.229-111.329c0-7.02 5.711-12.73 12.731-12.73h7.61c7.021 0 12.731 5.711 12.731 12.73v29.762h-33.072zm334.686 273.945h-46.171v-82.355c0-3.86-3.129-6.988-6.988-6.988s-6.988 3.129-6.988 6.988v82.355h-193.823v-70.304c0-3.674-2.846-6.721-6.512-6.972-47.607-3.256-84.898-43.192-84.898-90.917v-62.014h55.931v62.014c0 19.422 15.789 35.223 35.195 35.223h26.575l35.712 28.597c1.283 1.027 2.827 1.534 4.366 1.534 1.797 0 3.587-.69 4.943-2.047l31.554-31.554v106.903c0 3.86 3.129 6.988 6.988 6.988 3.86 0 6.988-3.129 6.988-6.988v-106.894l31.525 31.545c1.357 1.358 3.146 2.049 4.944 2.049 1.539 0 3.083-.507 4.366-1.534l35.712-28.597h24.538c19.874 0 36.043 16.156 36.043 36.015zm-326.724-317.908c1.229.916 2.698 1.385 4.175 1.385 1.069 0 2.142-.246 3.135-.743 2.362-1.186 3.853-3.602 3.853-6.246v-14.088h32.422c10.343 0 18.757-8.414 18.757-18.757v-71.662c0-10.343-8.414-18.758-18.757-18.758h-111.271c-10.342 0-18.757 8.415-18.757 18.758v71.661c0 10.343 8.415 18.757 18.757 18.757h41.253zm-72.466-38.449v-71.662c0-2.593 2.189-4.782 4.781-4.782h111.271c2.592 0 4.781 2.189 4.781 4.782v71.661c0 2.592-2.189 4.781-4.781 4.781h-39.412c-3.86 0-6.988 3.129-6.988 6.988v7.157l-17.128-12.76c-1.206-.9-2.671-1.385-4.174-1.385h-43.57c-2.591 0-4.78-2.189-4.78-4.78zm478.265 68.691h-111.298c-10.343 0-18.757 8.414-18.757 18.757v71.662c0 10.343 8.414 18.757 18.757 18.757h32.449v18.927c0 2.664 1.515 5.096 3.905 6.271.979.48 2.033.717 3.083.717 1.517 0 3.021-.493 4.268-1.454l31.724-24.461h35.869c10.343 0 18.758-8.414 18.758-18.757v-71.662c0-10.343-8.415-18.757-18.758-18.757zm4.781 90.42c0 2.592-2.189 4.781-4.782 4.781h-38.25c-1.544 0-3.044.512-4.267 1.454l-22.355 17.237v-11.703c0-3.86-3.129-6.988-6.988-6.988h-39.438c-2.592 0-4.781-2.189-4.781-4.781v-71.662c0-2.592 2.189-4.781 4.781-4.781h111.298c2.593 0 4.782 2.189 4.782 4.781zm-433.508-204.701c0 3.86-3.129 6.988-6.988 6.988s-6.988-3.129-6.988-6.988c0-12.721 7.65-21.638 20.988-24.461 12.4-2.654 25.119 3.014 30.23 13.48 4.454 9.117 1.921 19.225-6.61 26.379-2.732 2.297-5.637 3.456-7.973 4.387-.989.395-2.462.981-2.902 1.343-.04.129-.123.485-.123 1.194v3.254c0 3.86-3.129 6.988-6.988 6.988s-6.988-3.129-6.988-6.988v-3.254c0-10.805 7.693-13.871 11.825-15.52 1.689-.673 3.148-1.254 4.162-2.107 2.496-2.093 5.043-5.443 3.04-9.543-1.952-3.995-7.79-7.435-14.762-5.944-8.747 1.851-9.923 6.494-9.923 10.792zm19.635 42.38v.114c0 3.86-3.129 6.988-6.988 6.988s-6.988-3.129-6.988-6.988v-.114c0-3.86 3.129-6.988 6.988-6.988s6.988 3.128 6.988 6.988zm405.952 105.144c0 3.86-3.129 6.988-6.988 6.988h-91.862c-3.86 0-6.988-3.129-6.988-6.988 0-3.86 3.129-6.988 6.988-6.988h91.862c3.86 0 6.988 3.128 6.988 6.988zm0 21.331c0 3.86-3.129 6.988-6.988 6.988h-91.862c-3.86 0-6.988-3.129-6.988-6.988 0-3.86 3.129-6.988 6.988-6.988h91.862c3.86 0 6.988 3.129 6.988 6.988zm0 21.36c0 3.86-3.129 6.988-6.988 6.988h-91.862c-3.86 0-6.988-3.129-6.988-6.988s3.129-6.988 6.988-6.988h91.862c3.86 0 6.988 3.128 6.988 6.988z"/></svg>