<svg fill="none" height="512" viewBox="0 0 24 24" width="512" xmlns="http://www.w3.org/2000/svg"><path clip-rule="evenodd" d="m2 12c0-5.52285 4.47715-10 10-10 5.5228 0 10 4.47715 10 10 0 5.5228-4.4772 10-10 10-5.52285 0-10-4.4772-10-10zm13.7071 1.7071c-.3905.3905-1.0237.3905-1.4142 0l-2.2929-2.2929-2.29289 2.2929c-.39053.3905-1.02369.3905-1.41422 0-.39052-.3905-.39052-1.0237 0-1.4142l2.79861-2.79865c.5018-.50173 1.3152-.50173 1.817 0l2.7986 2.79865c.3905.3905.3905 1.0237 0 1.4142z" fill="rgb(0,0,0)" fill-rule="evenodd"/></svg>