<svg fill="none" height="512" viewBox="0 0 24 24" width="512" xmlns="http://www.w3.org/2000/svg"><path clip-rule="evenodd" d="m2 12c0-5.52285 4.47715-10 10-10 2.6522 0 5.1957 1.05357 7.0711 2.92893 1.8753 1.87537 2.9289 4.41891 2.9289 7.07107 0 5.5228-4.4772 10-10 10-5.52285 0-10-4.4772-10-10zm14 .0058c.2666 0 .5222-.1065.71-.2958.1893-.1878.2958-.4434.2958-.71s-.1065-.5222-.2958-.71l-4-4c-.0951-.09104-.2072-.16241-.33-.21-.2435-.10002-.5165-.10002-.76 0-.1228.04759-.2349.11896-.33.21l-4 4c-.25366.2537-.35272.6234-.25988.9699.09285.3465.3635.6171.71.71.34651.0928.71622-.0062.96988-.2599l2.29-2.3v7.59c0 .5523.4477 1 1 1s1-.4477 1-1v-7.59l2.29 2.3c.1878.1893.4434.2958.71.2958z" fill="rgb(0,0,0)" fill-rule="evenodd"/></svg>