<svg id="Layer_1" enable-background="new 0 0 136 136" height="512" viewBox="0 0 136 136" width="512" xmlns="http://www.w3.org/2000/svg"><g><g><path d="m131.5 132h-127c-.28 0-.5-.22-.5-.5s.22-.5.5-.5h127c.28 0 .5.22.5.5s-.22.5-.5.5z" fill="#3d3935"/></g><g><g><path d="m54.31 104.47c-3.22-.06-5.79-2.73-5.72-5.96s2.73-5.78 5.96-5.71c.2 0 .39.02.59.04v-.03c.06-3.22 2.73-5.78 5.96-5.71 1.35.03 2.59.52 3.56 1.31.8-.75 1.89-1.2 3.08-1.17 1.99.04 3.64 1.4 4.12 3.23.53-.14 1.08-.22 1.65-.2 1.59.03 3 .69 4.03 1.73.63-.5 1.42-.79 2.3-.77 1.54.03 2.83 1.03 3.31 2.4.74-.48 1.63-.75 2.58-.73 1.03.02 1.97.38 2.72.97.81-1.09 2.13-1.78 3.59-1.75.82.02 1.58.25 2.22.66.66-.99 1.78-1.63 3.07-1.6 1.66.03 3.04 1.19 3.41 2.74.72-.44 1.56-.68 2.47-.66 1.17.02 2.22.47 3.01 1.2.6-1.21 1.85-2.02 3.28-1.99.47.01.92.1 1.33.28.65-1.02 1.79-1.69 3.1-1.66 1.39.03 2.58.84 3.15 2 .53-.29 1.14-.45 1.79-.44 1.99.04 3.56 1.68 3.52 3.67l-.17 8.22z" fill="#9df"/></g><g><path d="m122.21 105.03-67.91-.06h-.01c-1.69-.03-3.27-.73-4.45-1.95-1.17-1.22-1.8-2.83-1.77-4.52.07-3.49 2.94-6.3 6.47-6.2h.11c.15-1.52.82-2.89 1.92-3.94 1.22-1.17 2.8-1.8 4.52-1.76 1.28.03 2.49.43 3.53 1.17.87-.69 1.95-1.05 3.11-1.03 1.99.04 3.76 1.31 4.45 3.14.44-.08.88-.13 1.33-.11 1.51.03 2.94.59 4.06 1.58.67-.43 1.45-.65 2.26-.63 1.5.03 2.86.89 3.54 2.19.73-.36 1.53-.53 2.36-.52.94.02 1.84.29 2.62.79.94-1.02 2.3-1.6 3.69-1.58.74.02 1.45.19 2.08.51.79-.94 1.96-1.48 3.21-1.45 1.64.03 3.08 1.04 3.69 2.52.68-.31 1.42-.46 2.19-.44 1.04.02 2.04.35 2.87.95.77-1.1 2.04-1.76 3.43-1.74.39.01.77.07 1.13.18.79-1.01 1.98-1.6 3.29-1.56 1.37.03 2.61.73 3.34 1.85.5-.2 1.04-.3 1.59-.29 1.09.02 2.11.47 2.87 1.26s1.16 1.83 1.14 2.92l-.17 8.22c.01.28-.21.5-.49.5zm-67.9-1.06 67.41.06.16-7.73c.02-.83-.29-1.61-.86-2.21s-1.34-.93-2.17-.95c-.54-.02-1.07.12-1.54.38-.12.07-.26.08-.39.04s-.24-.13-.3-.26c-.51-1.04-1.54-1.7-2.71-1.72-1.09-.03-2.08.51-2.66 1.43-.13.21-.4.29-.63.19-.34-.15-.73-.23-1.13-.24-1.18-.04-2.3.65-2.83 1.71-.07.14-.2.24-.36.27s-.31-.02-.43-.12c-.73-.67-1.68-1.05-2.68-1.07-.76-.01-1.54.19-2.2.59-.14.08-.3.1-.45.04s-.26-.19-.29-.35c-.32-1.36-1.53-2.33-2.93-2.36-1.07-.03-2.05.5-2.64 1.38-.15.23-.46.29-.69.14-.57-.37-1.25-.57-1.96-.58-1.27-.02-2.44.56-3.18 1.55-.08.11-.2.18-.33.2s-.27-.02-.37-.1c-.7-.55-1.54-.84-2.42-.86-.82-.01-1.62.21-2.3.65-.13.08-.29.1-.43.05-.15-.05-.26-.16-.31-.31-.42-1.21-1.56-2.04-2.85-2.06-.73-.01-1.41.21-1.98.66-.2.16-.49.14-.67-.04-.98-.99-2.29-1.55-3.68-1.58-.51-.02-1.01.05-1.51.19-.13.03-.27.02-.38-.05-.12-.07-.2-.18-.23-.3-.44-1.65-1.94-2.83-3.65-2.86-1.03-.02-2 .35-2.72 1.04-.18.17-.47.18-.66.03-.94-.76-2.06-1.17-3.26-1.2-1.41-.03-2.78.5-3.81 1.48-1.03.99-1.61 2.31-1.64 3.74 0 .14-.07.29-.17.38s-.25.15-.39.13c-.18-.02-.36-.03-.54-.04-1.42-.04-2.78.5-3.81 1.48-1.03.99-1.61 2.31-1.64 3.74s.5 2.78 1.49 3.81c.97 1.02 2.3 1.6 3.72 1.63z" fill="#3d3935"/></g><g><g><g><path d="m117.93 115.36c1.24 1.08 2.1 2.73 1.99 4.4-.14 2.19-1.68 2.83-3.31 3.87-1.85 1.19-.39 2.31.67 3.34 1.21 1.17.9 3.2-.49 4.09-.63.4-1.71.64-2.38.18-.74-.51-.57-1.62-.51-2.39.09-1.24-.55-2.42-1.35-3.36s-1.79-1.71-2.6-2.65-1.45-2.12-1.37-3.35z" fill="#575553"/></g><g><path d="m56.91 115.36c-1.24 1.08-2.1 2.73-1.99 4.4.14 2.19 1.68 2.83 3.31 3.87 1.85 1.19.39 2.31-.67 3.34-1.21 1.17-.9 3.2.49 4.09.63.4 1.71.64 2.38.18.74-.51.57-1.62.51-2.39-.09-1.24.55-2.42 1.35-3.36.81-.94 1.79-1.71 2.6-2.65s1.45-2.12 1.37-3.35z" fill="#575553"/></g></g><g><g><path d="m115.32 132c-.43 0-.85-.1-1.2-.34-.91-.63-.81-1.83-.74-2.63l.02-.21c.09-1.18-.62-2.28-1.23-3-.39-.45-.82-.86-1.27-1.3-.45-.43-.91-.87-1.33-1.35-.74-.85-1.59-2.19-1.49-3.71.01-.19.13-.35.3-.42l9.35-4.14c.18-.08.38-.05.53.08 1.45 1.26 2.27 3.1 2.16 4.81-.14 2.17-1.5 3.01-2.94 3.89-.2.12-.4.24-.6.37-.28.18-.63.46-.65.75-.04.44.58 1.03 1.13 1.55l.28.26c.66.64.98 1.55.89 2.49-.1.97-.64 1.87-1.46 2.39-.48.3-1.12.51-1.75.51zm-6.25-12.17c.04 1.07.69 2.05 1.25 2.7.39.45.81.85 1.26 1.28s.92.88 1.34 1.37c.74.86 1.59 2.2 1.47 3.72l-.02.22c-.05.63-.12 1.42.31 1.72.44.3 1.3.15 1.83-.19.56-.36.93-.97 1-1.65.06-.63-.15-1.24-.59-1.67l-.27-.26c-.72-.68-1.53-1.45-1.44-2.37.05-.56.42-1.05 1.11-1.49.21-.13.41-.26.62-.38 1.37-.84 2.36-1.45 2.47-3.1.09-1.31-.52-2.73-1.59-3.78z" fill="#3d3935"/></g><g><path d="m59.51 132c-.62 0-1.26-.21-1.73-.51-.81-.52-1.36-1.41-1.46-2.39-.1-.94.23-1.85.89-2.49l.28-.26c.55-.52 1.17-1.11 1.13-1.55-.03-.29-.37-.56-.65-.75-.2-.13-.4-.25-.6-.37-1.44-.88-2.8-1.72-2.94-3.89-.11-1.71.72-3.55 2.16-4.81.15-.13.35-.16.53-.08l9.35 4.14c.17.08.28.24.3.42.1 1.52-.75 2.86-1.49 3.71-.42.49-.88.93-1.33 1.35-.46.43-.88.84-1.27 1.3-.61.71-1.32 1.81-1.23 3l.02.21c.07.8.17 2-.74 2.63-.36.24-.79.34-1.22.34zm-2.5-16.05c-1.07 1.05-1.68 2.47-1.59 3.78.11 1.66 1.1 2.26 2.47 3.1.2.12.41.25.62.38.69.44 1.06.93 1.11 1.49.09.92-.72 1.69-1.44 2.37l-.27.26c-.44.43-.65 1.04-.59 1.67.07.67.44 1.29 1 1.65.53.34 1.39.49 1.83.19.43-.3.37-1.09.31-1.72l-.02-.22c-.11-1.53.74-2.87 1.47-3.72.42-.49.89-.94 1.34-1.37s.88-.83 1.26-1.28c.56-.65 1.21-1.63 1.25-2.7z" fill="#3d3935"/></g></g><g><path d="m131.5 98.69c0 1.08-.88 1.96-1.96 1.96h-84.25c-1.08 0-1.96-.88-1.96-1.96 0-1.08.88-1.96 1.96-1.96h84.25c1.08.01 1.96.88 1.96 1.96z" fill="#d1c5cb"/></g><g><path d="m129.54 101.15h-84.25c-1.35 0-2.46-1.1-2.46-2.46s1.1-2.46 2.46-2.46h84.25c1.35 0 2.46 1.1 2.46 2.46s-1.1 2.46-2.46 2.46zm-84.25-3.91c-.8 0-1.46.65-1.46 1.46s.65 1.46 1.46 1.46h84.25c.8 0 1.46-.65 1.46-1.46s-.65-1.46-1.46-1.46z" fill="#3d3935"/></g><g><path d="m47.79 100.65 8.26 15.49c1.98 3.71 5.85 6.03 10.05 6.03h42.63c4.21 0 8.07-2.32 10.05-6.03l8.26-15.49z" fill="#eaeaea"/></g><g><path d="m123.91 107.03h-72.98c-.28 0-.5-.22-.5-.5s.22-.5.5-.5h72.98c.28 0 .5.22.5.5s-.22.5-.5.5z" fill="#3d3935"/></g><g><path d="m108.73 122.67h-42.63c-4.4 0-8.42-2.41-10.49-6.3l-8.26-15.49c-.08-.15-.08-.34.01-.49s.25-.24.43-.24h79.26c.18 0 .34.09.43.24s.1.34.01.49l-8.26 15.49c-2.07 3.89-6.09 6.3-10.5 6.3zm-60.11-21.52 7.87 14.75c1.9 3.56 5.58 5.77 9.61 5.77h42.63c4.03 0 7.71-2.21 9.61-5.77l7.87-14.75z" fill="#3d3935"/></g></g><g><g><path d="m126.76 96.74h-2.85v-23.59c0-2.16-1.76-3.91-3.91-3.91-2.16 0-3.91 1.76-3.91 3.91v1.46h-2.85v-1.46c0-3.73 3.03-6.76 6.76-6.76s6.76 3.03 6.76 6.76z" fill="#eaeaea"/></g><g><path d="m126.76 97.24h-2.85c-.28 0-.5-.22-.5-.5v-23.59c0-1.88-1.53-3.41-3.41-3.41s-3.41 1.53-3.41 3.41v1.46c0 .28-.22.5-.5.5h-2.85c-.28 0-.5-.22-.5-.5v-1.46c0-4 3.26-7.26 7.26-7.26s7.26 3.26 7.26 7.26v23.59c0 .27-.23.5-.5.5zm-2.35-1h1.85v-23.09c0-3.45-2.81-6.26-6.26-6.26s-6.26 2.81-6.26 6.26v.96h1.85v-.96c0-2.43 1.98-4.41 4.41-4.41s4.41 1.98 4.41 4.41z" fill="#3d3935"/></g><g><path d="m112.82 74.61h3.67v1.93h-3.67z" fill="#575553"/></g><g><path d="m116.49 77.04h-3.67c-.28 0-.5-.22-.5-.5v-1.93c0-.28.22-.5.5-.5h3.67c.28 0 .5.22.5.5v1.93c0 .28-.22.5-.5.5zm-3.17-1h2.67v-.93h-2.67z" fill="#3d3935"/></g><g><path d="m123.91 84.89h-3.08c-.28 0-.5-.22-.5-.5s.22-.5.5-.5h3.08c.28 0 .5.22.5.5s-.22.5-.5.5z" fill="#3d3935"/></g><g><path d="m120.83 86.43c-.28 0-.5-.22-.5-.5v-3.08c0-.28.22-.5.5-.5s.5.22.5.5v3.08c0 .28-.22.5-.5.5z" fill="#3d3935"/></g></g></g><g><g><g><path d="m50.11 58.5v23.95h-5.89v-23.95c0-1.63 1.32-2.94 2.94-2.94 1.63 0 2.95 1.32 2.95 2.94z" fill="#a07fc6"/></g><g><g><path d="m44.23 73.59h5.89v3.23h-5.89z" fill="#ffeb33"/></g></g><g><path d="m50.11 82.95h-5.89c-.28 0-.5-.22-.5-.5v-23.95c0-1.9 1.54-3.44 3.44-3.44s3.44 1.54 3.44 3.44v23.95c.01.27-.21.5-.49.5zm-5.39-1h4.89v-23.45c0-1.35-1.1-2.44-2.44-2.44-1.35 0-2.44 1.1-2.44 2.44v23.45z" fill="#3d3935"/></g><g><g><path d="m50.11 77.32h-5.89c-.28 0-.5-.22-.5-.5v-3.23c0-.28.22-.5.5-.5h5.89c.28 0 .5.22.5.5v3.23c0 .27-.22.5-.5.5zm-5.38-1h4.89v-2.23h-4.89z" fill="#3d3935"/></g></g></g><g><g><path d="m56.98 59.3h-39.02c-.28 0-.5-.22-.5-.5s.22-.5.5-.5h39.02c.28 0 .5.22.5.5s-.22.5-.5.5z" fill="#3d3935"/></g><g><path d="m20.2 58.8c0 1.24-1.01 2.23-2.24 2.23s-2.23-.99-2.23-2.23 1.01-2.23 2.23-2.23c1.23 0 2.24 1 2.24 2.23z" fill="#575553"/></g><g><path d="m17.96 61.53c-1.51 0-2.73-1.23-2.73-2.73s1.23-2.73 2.73-2.73c1.51 0 2.74 1.23 2.74 2.73s-1.23 2.73-2.74 2.73zm0-4.46c-.95 0-1.73.78-1.73 1.73s.78 1.73 1.73 1.73c.96 0 1.74-.78 1.74-1.73s-.78-1.73-1.74-1.73z" fill="#3d3935"/></g><g><path d="m59.22 58.8c0 1.24-1.01 2.23-2.24 2.23s-2.23-.99-2.23-2.23 1.01-2.23 2.23-2.23c1.23 0 2.24 1 2.24 2.23z" fill="#575553"/></g><g><path d="m56.97 61.53c-1.51 0-2.73-1.23-2.73-2.73s1.23-2.73 2.73-2.73c1.51 0 2.74 1.23 2.74 2.73s-1.22 2.73-2.74 2.73zm0-4.46c-.95 0-1.73.78-1.73 1.73s.78 1.73 1.73 1.73c.96 0 1.74-.78 1.74-1.73s-.77-1.73-1.74-1.73z" fill="#3d3935"/></g></g><g><g><path d="m47.16 55.56c-1.62 0-2.94 1.31-2.94 2.94v27.81h-20.61v-27.81c0-1.63 1.32-2.94 2.94-2.94z" fill="#a07fc6"/></g><g><path d="m23.61 77.45h20.61v3.23h-20.61z" fill="#ffeb33"/></g><g><path d="m44.22 86.81h-20.61c-.28 0-.5-.22-.5-.5v-27.81c0-1.9 1.54-3.44 3.44-3.44h20.61c.28 0 .5.22.5.5s-.22.5-.5.5c-1.35 0-2.44 1.1-2.44 2.44v27.81c0 .28-.22.5-.5.5zm-20.11-1h19.61v-27.31c0-.95.39-1.82 1.02-2.44h-18.19c-1.35 0-2.44 1.1-2.44 2.44z" fill="#3d3935"/></g><g><path d="m44.23 81.18h-20.62c-.28 0-.5-.22-.5-.5v-3.23c0-.28.22-.5.5-.5h20.61c.28 0 .5.22.5.5v3.23c.01.27-.22.5-.49.5zm-20.12-1h19.61v-2.23h-19.61z" fill="#3d3935"/></g></g></g><g><g><g><path d="m75.63 48.29h42.81v3.52h-42.81z" fill="#eaeaea"/></g><g><path d="m118.44 52.31h-42.81c-.28 0-.5-.22-.5-.5v-3.52c0-.28.22-.5.5-.5h42.81c.28 0 .5.22.5.5v3.52c0 .27-.22.5-.5.5zm-42.31-1h41.81v-2.52h-41.81z" fill="#3d3935"/></g><g><path d="m80.42 51.81h3.38v3.75h-3.38z" fill="#575553"/></g><g><path d="m83.8 56.06h-3.38c-.28 0-.5-.22-.5-.5v-3.75c0-.28.22-.5.5-.5h3.38c.28 0 .5.22.5.5v3.75c0 .27-.22.5-.5.5zm-2.88-1h2.38v-2.75h-2.38z" fill="#3d3935"/></g><g><path d="m110.28 51.81h3.38v3.75h-3.38z" fill="#575553"/></g><g><path d="m113.66 56.06h-3.38c-.28 0-.5-.22-.5-.5v-3.75c0-.28.22-.5.5-.5h3.38c.28 0 .5.22.5.5v3.75c0 .27-.22.5-.5.5zm-2.88-1h2.38v-2.75h-2.38z" fill="#3d3935"/></g></g><g><g><path d="m79.46 45.14h5.21v3.15h-5.21z" fill="#575553"/></g><g><path d="m84.67 48.79h-5.21c-.28 0-.5-.22-.5-.5v-3.15c0-.28.22-.5.5-.5h5.21c.28 0 .5.22.5.5v3.15c0 .28-.22.5-.5.5zm-4.71-1h4.21v-2.15h-4.21z" fill="#3d3935"/></g><g><path d="m86.25 33.39-1.58 11.75h-5.21l-1.58-11.75z" fill="#75e24d"/></g><g><path d="m84.67 45.64h-5.21c-.25 0-.46-.19-.5-.43l-1.58-11.76c-.02-.14.02-.29.12-.4s.23-.17.38-.17h8.37c.14 0 .28.06.38.17.09.11.14.25.12.4l-1.58 11.76c-.04.25-.25.43-.5.43zm-4.77-1h4.34l1.45-10.76h-7.23z" fill="#3d3935"/></g></g><g><g><path d="m91.38 31.94h4.3v3.45h-4.3z" fill="#575553"/></g><g><path d="m95.67 35.89h-4.3c-.28 0-.5-.22-.5-.5v-3.45c0-.28.22-.5.5-.5h4.3c.28 0 .5.22.5.5v3.45c0 .28-.22.5-.5.5zm-3.79-1h3.3v-2.45h-3.3z" fill="#3d3935"/></g><g><path d="m90.23 35.39h6.59v12.9h-6.59z" fill="#78d1f4"/></g><g><path d="m96.82 48.79h-6.59c-.28 0-.5-.22-.5-.5v-12.9c0-.28.22-.5.5-.5h6.59c.28 0 .5.22.5.5v12.9c0 .28-.23.5-.5.5zm-6.09-1h5.59v-11.9h-5.59z" fill="#3d3935"/></g></g><g><g><path d="m103.85 24.44h6.27v5.04h-6.27z" fill="#575553"/></g><g><path d="m110.12 29.98h-6.27c-.28 0-.5-.22-.5-.5v-5.04c0-.28.22-.5.5-.5h6.27c.28 0 .5.22.5.5v5.04c0 .28-.23.5-.5.5zm-5.77-1h5.27v-4.04h-5.27z" fill="#3d3935"/></g><g><path d="m102.18 29.48h9.61v18.81h-9.61z" fill="#f33"/></g><g><path d="m111.79 48.79h-9.61c-.28 0-.5-.22-.5-.5v-18.81c0-.28.22-.5.5-.5h9.61c.28 0 .5.22.5.5v18.81c0 .28-.23.5-.5.5zm-9.11-1h8.61v-17.81h-8.61z" fill="#3d3935"/></g></g></g><g><g><path d="m4.5 4.5h51.18v34.19h-51.18z" fill="#c96"/></g><g><path d="m8.5 8.5h43.18v26.19h-43.18z" fill="#c9eaf5"/></g><g><path d="m51.68 35.19h-43.18c-.28 0-.5-.22-.5-.5v-26.19c0-.28.22-.5.5-.5h43.18c.28 0 .5.22.5.5v26.19c0 .28-.22.5-.5.5zm-42.68-1h42.18v-25.19h-42.18z" fill="#3d3935"/></g><g><path d="m55.68 39.19h-51.18c-.28 0-.5-.22-.5-.5v-34.19c0-.28.22-.5.5-.5h51.18c.28 0 .5.22.5.5v34.19c0 .28-.22.5-.5.5zm-50.68-1h50.18v-33.19h-50.18z" fill="#3d3935"/></g><g><path d="m30.09 35.19c-.28 0-.5-.22-.5-.5v-26.19c0-.28.22-.5.5-.5s.5.22.5.5v26.19c0 .28-.22.5-.5.5z" fill="#3d3935"/></g><g><path d="m51.68 22.09h-43.18c-.28 0-.5-.22-.5-.5s.22-.5.5-.5h43.18c.28 0 .5.22.5.5s-.22.5-.5.5z" fill="#3d3935"/></g></g><g><g><path d="m9.89 100.99h27.44v19.4h-27.44z" fill="#c96"/></g><g><path d="m34.33 117.89h-21.44c-.28 0-.5-.22-.5-.5v-13.4c0-.28.22-.5.5-.5h21.44c.28 0 .5.22.5.5v13.4c0 .28-.22.5-.5.5zm-20.94-1h20.44v-12.4h-20.44z" fill="#3d3935"/></g><g><path d="m34.33 111.19h-21.44c-.28 0-.5-.22-.5-.5s.22-.5.5-.5h21.44c.28 0 .5.22.5.5s-.22.5-.5.5z" fill="#3d3935"/></g><g><g><path d="m24.45 107.59h-1.69c-.28 0-.5-.22-.5-.5s.22-.5.5-.5h1.69c.28 0 .5.22.5.5s-.22.5-.5.5z" fill="#3d3935"/></g><g><path d="m24.45 114.78h-1.69c-.28 0-.5-.22-.5-.5s.22-.5.5-.5h1.69c.28 0 .5.22.5.5s-.22.5-.5.5z" fill="#3d3935"/></g></g><g><g><path d="m12.15 120.39h2.98v11.11h-2.98z" fill="#575553"/></g><g><path d="m15.12 132h-2.98c-.28 0-.5-.22-.5-.5v-11.11c0-.28.22-.5.5-.5h2.98c.28 0 .5.22.5.5v11.11c0 .28-.22.5-.5.5zm-2.47-1h1.98v-10.11h-1.98z" fill="#3d3935"/></g><g><path d="m32.1 120.39h2.98v11.11h-2.98z" fill="#575553"/></g><g><path d="m35.08 132h-2.98c-.28 0-.5-.22-.5-.5v-11.11c0-.28.22-.5.5-.5h2.98c.28 0 .5.22.5.5v11.11c0 .28-.23.5-.5.5zm-2.48-1h1.98v-10.11h-1.98z" fill="#3d3935"/></g></g><g><path d="m37.33 120.89h-27.44c-.28 0-.5-.22-.5-.5v-19.4c0-.28.22-.5.5-.5h27.44c.28 0 .5.22.5.5v19.4c0 .28-.22.5-.5.5zm-26.94-1h26.44v-18.4h-26.44z" fill="#3d3935"/></g><g><path d="m8.42 98.15h30.38v2.84h-30.38z" fill="#c96"/></g><g><path d="m38.8 101.49h-30.38c-.28 0-.5-.22-.5-.5v-2.84c0-.28.22-.5.5-.5h30.38c.28 0 .5.22.5.5v2.84c0 .28-.22.5-.5.5zm-29.88-1h29.38v-1.84h-29.38z" fill="#3d3935"/></g></g></g></svg>