<svg id="Layer_1" viewBox="0 0 512 512" xmlns="http://www.w3.org/2000/svg" data-name="Layer 1"><path d="m400.056 309.205c-49.596 0-89.944 40.349-89.944 89.944s40.349 89.916 89.944 89.916 89.944-40.336 89.944-89.916-40.349-89.944-89.944-89.944z" fill="#6cf5c2"/><path d="m22 139.751v271.587c0 8.41 6.829 15.252 15.224 15.252h262.573c-2.397-8.745-3.686-17.945-3.686-27.441 0-2.613.1-5.203.29-7.768h-25.35c-3.866 0-7-3.134-7-7v-38.069c0-3.866 3.134-7 7-7h38.069c1.819 0 3.472.7 4.716 1.838 8.812-13.056 20.509-24.01 34.168-31.945h-9.148c-3.866 0-7-3.134-7-7v-38.069c0-3.866 3.134-7 7-7h38.069c3.866 0 7 3.134 7 7v32.322c5.258-.823 10.645-1.253 16.13-1.253 8.922 0 17.585 1.131 25.854 3.255v-158.709z" fill="#eceff1"/><path d="m439.909 303.154v-226.727c0-16.114-13.109-29.224-29.224-29.224h-37.532v-14.26c0-13.238-10.77-24.008-24.008-24.008s-24.036 10.77-24.036 24.008v14.26h-35.407v-14.26c0-13.238-10.77-24.008-24.008-24.008s-24.035 10.77-24.035 24.008v14.26h-35.408v-14.26c0-13.238-10.77-24.008-24.008-24.008s-24.036 10.77-24.036 24.008v14.26h-35.407v-14.26c0-13.238-10.77-24.008-24.008-24.008s-24.036 10.77-24.036 24.008v14.26h-37.532c-16.114 0-29.224 13.11-29.224 29.224v362.69c0 16.129 13.109 29.252 29.224 29.252h285.377c19.047 21.279 46.712 34.696 77.455 34.696 57.315 0 103.944-46.616 103.944-103.916 0-43.203-26.496-80.329-64.091-95.995zm-100.8-270.211c0-5.518 4.502-10.008 10.036-10.008s10.008 4.49 10.008 10.008v14.26h-20.044zm-83.45 0c0-5.518 4.502-10.008 10.035-10.008s10.008 4.49 10.008 10.008v14.26h-20.043zm-83.452 0c0-5.518 4.502-10.008 10.036-10.008s10.008 4.49 10.008 10.008v14.26h-20.044zm-83.451 0c0-5.518 4.502-10.008 10.036-10.008s10.008 4.49 10.008 10.008v14.26h-20.044zm-51.532 28.26h37.532v7.684c0 13.238 10.782 24.008 24.036 24.008 3.866 0 7-3.134 7-7s-3.134-7-7-7c-5.534 0-10.036-4.489-10.036-10.008v-7.684h69.451v7.684c0 13.238 10.782 24.008 24.036 24.008 3.866 0 7-3.134 7-7s-3.134-7-7-7c-5.534 0-10.036-4.489-10.036-10.008v-7.684h69.452v7.684c0 13.238 10.782 24.008 24.035 24.008 3.866 0 7-3.134 7-7s-3.134-7-7-7c-5.533 0-10.035-4.489-10.035-10.008v-7.684h69.45v7.684c0 13.238 10.782 24.008 24.036 24.008 3.866 0 7-3.134 7-7s-3.134-7-7-7c-5.534 0-10.036-4.489-10.036-10.008v-7.684h71.576c8.395 0 15.224 6.829 15.224 15.224v49.324h-403.909v-49.324c0-8.394 6.829-15.224 15.224-15.224zm-15.224 78.548h403.909v158.709c-8.269-2.124-16.932-3.255-25.854-3.255-5.485 0-10.872.431-16.13 1.253v-32.322c0-3.866-3.134-7-7-7h-38.069c-3.866 0-7 3.134-7 7v38.069c0 3.866 3.134 7 7 7h9.148c-13.659 7.935-25.356 18.889-34.168 31.945-1.244-1.138-2.896-1.838-4.716-1.838h-38.069c-3.866 0-7 3.134-7 7v38.069c0 3.866 3.134 7 7 7h25.35c-.19 2.565-.29 5.155-.29 7.768 0 9.496 1.288 18.695 3.686 27.441h-262.573c-8.395 0-15.224-6.842-15.224-15.252zm347.926 155.454h-24.069v-24.069h24.069zm-67.805 69.114c-1.511 4.235-2.754 8.596-3.71 13.062h-20.359v-24.069h24.069zm-264.897 90.049c-8.395 0-15.224-6.842-15.224-15.252v-2.821c4.437 2.721 9.65 4.293 15.224 4.293h267.521c2.093 4.791 4.535 9.395 7.297 13.779h-274.818zm362.832 34.696c-49.596 0-89.944-40.336-89.944-89.916s40.349-89.944 89.944-89.944 89.944 40.349 89.944 89.944-40.349 89.916-89.944 89.916zm-332.416-262.064h38.068c3.866 0 7-3.134 7-7v-38.068c0-3.866-3.134-7-7-7h-38.068c-3.866 0-7 3.134-7 7v38.068c0 3.866 3.134 7 7 7zm7-38.068h24.068v24.068h-24.068zm-7 202.449h38.068c3.866 0 7-3.134 7-7v-38.069c0-3.866-3.134-7-7-7h-38.068c-3.866 0-7 3.134-7 7v38.069c0 3.866 3.134 7 7 7zm7-38.069h24.068v24.069h-24.068zm60.804-126.311h38.069c3.866 0 7-3.134 7-7v-38.068c0-3.866-3.134-7-7-7h-38.069c-3.866 0-7 3.134-7 7v38.068c0 3.866 3.134 7 7 7zm7-38.068h24.069v24.068h-24.069zm-7 202.449h38.069c3.866 0 7-3.134 7-7v-38.069c0-3.866-3.134-7-7-7h-38.069c-3.866 0-7 3.134-7 7v38.069c0 3.866 3.134 7 7 7zm7-38.069h24.069v24.069h-24.069zm60.805-126.311h38.069c3.866 0 7-3.134 7-7v-38.068c0-3.866-3.134-7-7-7h-38.069c-3.866 0-7 3.134-7 7v38.068c0 3.866 3.134 7 7 7zm7-38.068h24.069v24.068h-24.069zm-7 202.449h38.069c3.866 0 7-3.134 7-7v-38.069c0-3.866-3.134-7-7-7h-38.069c-3.866 0-7 3.134-7 7v38.069c0 3.866 3.134 7 7 7zm7-38.069h24.069v24.069h-24.069zm60.804-126.311h38.069c3.866 0 7-3.134 7-7v-38.068c0-3.866-3.134-7-7-7h-38.069c-3.866 0-7 3.134-7 7v38.068c0 3.866 3.134 7 7 7zm7-38.068h24.069v24.068h-24.069zm60.805 38.068h38.069c3.866 0 7-3.134 7-7v-38.068c0-3.866-3.134-7-7-7h-38.069c-3.866 0-7 3.134-7 7v38.068c0 3.866 3.134 7 7 7zm7-38.068h24.069v24.068h-24.069zm-278.217 120.273h38.068c3.866 0 7-3.134 7-7v-38.069c0-3.866-3.134-7-7-7h-38.068c-3.866 0-7 3.134-7 7v38.069c0 3.866 3.134 7 7 7zm7-38.069h24.068v24.069h-24.068zm60.804 38.069h38.069c3.866 0 7-3.134 7-7v-38.069c0-3.866-3.134-7-7-7h-38.069c-3.866 0-7 3.134-7 7v38.069c0 3.866 3.134 7 7 7zm7-38.069h24.069v24.069h-24.069zm60.805 38.069h38.069c3.866 0 7-3.134 7-7v-38.069c0-3.866-3.134-7-7-7h-38.069c-3.866 0-7 3.134-7 7v38.069c0 3.866 3.134 7 7 7zm7-38.069h24.069v24.069h-24.069zm60.804 38.069h38.069c3.866 0 7-3.134 7-7v-38.069c0-3.866-3.134-7-7-7h-38.069c-3.866 0-7 3.134-7 7v38.069c0 3.866 3.134 7 7 7zm7-38.069h24.069v24.069h-24.069zm144.271 89.837-36.021 36.371-8.684-8.449c-3.613-3.526-8.394-5.428-13.444-5.359-5.07.07-9.806 2.112-13.32 5.735-3.529 3.616-5.434 8.397-5.363 13.463.071 5.053 2.099 9.778 5.711 13.302l.014.014 22.084 21.432c3.652 3.542 8.414 5.31 13.176 5.31 4.856 0 9.713-1.84 13.386-5.513l49.224-49.507c7.363-7.365 7.383-19.365.043-26.751-7.359-7.403-19.367-7.441-26.805-.047zm16.848 16.913-49.223 49.506c-1.886 1.885-4.981 1.901-6.9.04l-22.072-21.421c-.939-.919-1.467-2.152-1.485-3.474-.019-1.317.473-2.556 1.398-3.504.92-.948 2.155-1.481 3.478-1.499 1.283-.018 2.545.472 3.482 1.387l13.663 13.294c2.752 2.678 7.15 2.639 9.855-.091l40.864-41.262c1.927-1.913 5.052-1.901 6.967.026s1.909 5.06-.027 6.996z"/><g fill="#8ac9fe"><path d="m142.443 353.311h24.069v24.069h-24.069z"/><path d="m142.443 188.932h24.069v24.068h-24.069z"/><path d="m142.443 271.135h24.069v24.069h-24.069z"/><path d="m210.248 188.932h24.069v24.068h-24.069z"/><path d="m210.248 271.135h24.069v24.069h-24.069z"/><path d="m210.248 353.311h24.069v24.069h-24.069z"/><path d="m74.64 188.932h24.068v24.068h-24.068z"/></g><path d="m432.231 370.863-40.864 41.262c-2.705 2.73-7.104 2.77-9.855.091l-13.663-13.294c-.938-.915-2.199-1.405-3.482-1.387-1.322.018-2.558.551-3.478 1.499-.926.948-1.417 2.188-1.398 3.504.019 1.321.546 2.555 1.485 3.474l22.072 21.421c1.919 1.861 5.015 1.845 6.9-.04l49.223-49.506c1.937-1.937 1.942-5.069.027-6.996s-5.04-1.94-6.967-.026z" fill="#fff"/><path d="m345.856 271.135h24.069v24.069h-24.069z" fill="#8ac9fe"/><path d="m74.64 271.135h24.068v24.069h-24.068z" fill="#8ac9fe"/><path d="m74.64 353.311h24.068v24.069h-24.068z" fill="#8ac9fe"/><path d="m298.411 377.38c.956-4.467 2.199-8.827 3.71-13.062v-11.007h-24.069v24.069z" fill="#8ac9fe"/><path d="m37.224 440.589c-5.574 0-10.787-1.572-15.224-4.293v2.821c0 8.41 6.829 15.252 15.224 15.252h274.817c-2.762-4.384-5.204-8.988-7.297-13.779h-267.52z" fill="#d2d9db"/><path d="m425.909 76.427c0-8.394-6.829-15.224-15.224-15.224h-71.576v7.684c0 5.518 4.502 10.008 10.036 10.008 3.866 0 7 3.134 7 7s-3.134 7-7 7c-13.254 0-24.036-10.77-24.036-24.008v-7.684h-69.45v7.684c0 5.518 4.502 10.008 10.035 10.008 3.866 0 7 3.134 7 7s-3.134 7-7 7c-13.253 0-24.035-10.77-24.035-24.008v-7.684h-69.452v7.684c0 5.518 4.502 10.008 10.036 10.008 3.866 0 7 3.134 7 7s-3.134 7-7 7c-13.254 0-24.036-10.77-24.036-24.008v-7.684h-69.451v7.684c0 5.518 4.502 10.008 10.036 10.008 3.866 0 7 3.134 7 7s-3.134 7-7 7c-13.254 0-24.036-10.77-24.036-24.008v-7.684h-37.532c-8.395 0-15.224 6.829-15.224 15.224v49.324h403.909z" fill="#fe646f"/><path d="m278.052 188.932h24.069v24.068h-24.069z" fill="#8ac9fe"/><path d="m345.856 188.932h24.069v24.068h-24.069z" fill="#8ac9fe"/><path d="m278.052 271.135h24.069v24.069h-24.069z" fill="#8ac9fe"/></svg>