<svg id="Layer_1" viewBox="0 0 64 64" xmlns="http://www.w3.org/2000/svg"><path d="m7.304 61.934c.033.003.061.019.094.019h17.644s.005.002.008.002h27.095c.439 0 .827-.287.956-.708l5.521-18.041c.093-.303.036-.632-.152-.887s-.486-.405-.804-.405h-23.128c-1.653-3.927-5.512-6.52-9.823-6.52h-12.063c-5.874 0-10.652 4.782-10.652 10.661v10.5c0 .034.016.062.019.095.187 2.831 2.454 5.098 5.285 5.285zm44.102-1.979h-25.004l4.909-16.041h25.004zm-47.406-13.9c0-4.775 3.882-8.661 8.652-8.661h12.063c3.209 0 6.107 1.77 7.605 4.52h-1.749c-.439 0-.827.287-.956.708l-5.303 17.331h-2.059c.654-.87.999-1.902.94-2.98-.062-1.161-.553-2.255-1.378-3.081-.893-.893-2.08-1.385-3.342-1.385h-6.194v-5.414c0-.552-.447-1-1-1s-1 .448-1 1v5.677c0 .958.779 1.737 1.737 1.737h6.457c.728 0 1.412.284 1.928.799.477.477.759 1.107.796 1.775.038.706-.223 1.392-.735 1.933-.564.596-1.358.938-2.177.938h-10.604c-2.029 0-3.681-1.651-3.681-3.681v-10.217z"/><path d="m18.685 34.451c5.18 0 9.394-4.214 9.394-9.393s-4.214-9.393-9.394-9.393-9.393 4.214-9.393 9.393 4.214 9.393 9.393 9.393zm0-16.786c4.077 0 7.394 3.316 7.394 7.393s-3.316 7.393-7.394 7.393-7.393-3.316-7.393-7.393 3.316-7.393 7.393-7.393z"/><path d="m38.61 2c-8.198 0-15.657 4.178-19.953 11.177-.289.471-.142 1.086.329 1.375.47.29 1.086.142 1.376-.329 3.929-6.401 10.75-10.223 18.248-10.223 11.794 0 21.39 9.596 21.39 21.39 0 5.091-1.818 10.017-5.12 13.869-.359.419-.311 1.051.109 1.41.188.162.42.241.65.241.281 0 .562-.119.76-.349 3.611-4.215 5.601-9.603 5.601-15.171 0-12.897-10.492-23.39-23.39-23.39z"/><path d="m48.582 39.101c-.446.324-.546.95-.222 1.396.196.27.501.413.811.413.203 0 .409-.062.587-.191 4.892-3.552 7.812-9.283 7.812-15.329 0-10.455-8.506-18.96-18.96-18.96-6.137 0-11.911 2.984-15.446 7.982-.319.451-.212 1.075.239 1.394.45.319 1.075.211 1.394-.239 3.161-4.469 8.325-7.138 13.813-7.138 9.352 0 16.96 7.608 16.96 16.96 0 5.408-2.612 10.534-6.988 13.711z"/><path d="m37.905 26.376 6.052 6.052c.195.195.451.293.707.293s.512-.098.707-.293c.391-.391.391-1.023 0-1.414l-5.759-5.759v-11.896c0-.552-.447-1-1-1s-1 .448-1 1v12.029c0 .049.021.091.028.138-.044.302.033.618.265.85z"/></svg>