<svg id="Layer_1" viewBox="0 0 512 512" xmlns="http://www.w3.org/2000/svg"><path d="m103.995 358.923c-.105-16.104-11.255-30.001-26.392-34.031-.584-4.318-1.956-8.468-4.042-12.263 9.229-6.534 14.855-17.146 14.855-28.878 0-15.516-10.276-29.149-24.674-33.77-2.575-17.03-17.312-30.126-35.05-30.126h-14.122c-3.866 0-7 3.134-7 7v217.643c0 3.866 3.134 7 7 7h56.354c17.377 0 31.946-12.52 34.899-29.213 11.463-6.123 18.66-17.959 18.66-31.227 0-13.9-8.188-26.397-20.489-32.135zm-7.199 52.13c-2.566.997-4.311 3.406-4.456 6.155-.603 11.378-10.009 20.291-21.415 20.291h-49.354v-203.643h7.122c11.807 0 21.415 9.589 21.448 21.388l-.008.3c-.033 3.499 2.522 6.485 5.983 6.993 10.433 1.531 18.3 10.651 18.3 21.216 0 8.914-5.371 16.761-13.683 19.993-2.165.842-3.771 2.702-4.288 4.966-.518 2.264.123 4.638 1.708 6.335 3.721 3.986 5.771 9.181 5.771 14.627 0 .291-.013.579-.024.867-.145 3.747 2.688 6.942 6.425 7.248 11.03.902 19.671 10.287 19.671 21.367 0 1.125-.091 2.267-.27 3.394-.559 3.518 1.613 6.895 5.046 7.845 9.251 2.561 15.712 11.059 15.712 20.666 0 8.916-5.373 16.765-13.688 19.995zm-82.185-219.148c-2.733-2.733-2.733-7.166 0-9.899 2.734-2.733 7.166-2.733 9.9 0l16.861 16.861c2.733 2.733 2.733 7.166 0 9.899-1.367 1.367-3.159 2.05-4.95 2.05s-3.583-.684-4.95-2.05zm-.913-84.921c-2.734-2.733-2.734-7.166 0-9.899l16.861-16.862c2.734-2.733 7.167-2.733 9.899 0 2.734 2.733 2.734 7.166 0 9.899l-16.861 16.862c-1.367 1.367-3.159 2.05-4.95 2.05s-3.583-.684-4.949-2.05zm456.731-39.446h-28.194v-.036c0-3.866-3.134-7-7-7h-99.251c-.858 0-1.71.158-2.512.466l-48.811 18.761c-3.951-11.187-14.625-19.226-27.147-19.226-15.873 0-28.786 12.914-28.786 28.787v7.556h-73.396c-14.03 0-25.585 10.776-26.836 24.485h-78.138v.011c-.413 0-.827.026-1.239.1l-35.787 6.436c-3.334.6-5.761 3.501-5.761 6.89v19.08c0 3.388 2.427 6.29 5.761 6.89l35.787 6.436c.412.074.827.11 1.239.11h.006 78.131c1.251 13.709 12.807 24.486 26.836 24.486h73.396v114.797c0 15.873 12.913 28.786 28.786 28.786s28.786-12.914 28.786-28.786v-95.723l47.335 16.863c.754.269 1.548.406 2.349.406h14.252v75.757c0 17.169 13.969 31.137 31.138 31.137s31.138-13.968 31.138-31.137v-9.706h31.739c33.183 0 60.179-26.996 60.179-60.179v-132.447c0-18.748-15.252-34-34-34zm-427.071 84.372-21.787-3.918v-7.373l21.787-3.918v15.208zm85.02 1.37h-71.02v-17.951h71.02zm100.35 24.486h-73.396c-7.143 0-12.954-5.811-12.954-12.954v-41.014c0-7.143 5.812-12.954 12.954-12.954h73.396v66.921zm43.572 128.797c0 8.153-6.633 14.786-14.786 14.786s-14.786-6.633-14.786-14.786v-217.274c0-8.153 6.633-14.787 14.786-14.787s14.786 6.633 14.786 14.787v217.275zm169.934-110.821v-92.934h26.924v131.174c0 13.734-11.174 24.908-24.908 24.908h-31.739v-30.898c16.615-1.351 29.724-15.294 29.724-32.25zm-43.723 108.124c0 9.45-7.688 17.137-17.138 17.137s-17.138-7.688-17.138-17.137v-75.757h34.275v75.757zm11.356-89.757h-72.674l-50.894-18.13v-101.881l50.982-19.596h90.952v121.24c0 10.128-8.239 18.367-18.367 18.367zm80.562 19.872c0 25.463-20.716 46.179-46.179 46.179h-31.739v-7.271h31.739c21.454 0 38.908-17.454 38.908-38.908v-132.443c0-7.02-5.71-12.73-12.729-12.73h-28.194v-7.27h28.194c11.028 0 20 8.972 20 20zm-324.475 150.351c-14.667 0-26.599 11.932-26.599 26.598s11.932 26.599 26.599 26.599 26.599-11.932 26.599-26.599-11.932-26.598-26.599-26.598zm0 39.196c-6.947 0-12.599-5.652-12.599-12.599s5.651-12.598 12.599-12.598 12.599 5.651 12.599 12.598-5.651 12.599-12.599 12.599zm19.599-107.917c-11.064 0-20.065 9.001-20.065 20.065s9.001 20.065 20.065 20.065 20.065-9.001 20.065-20.065-9.001-20.065-20.065-20.065zm0 26.131c-3.345 0-6.065-2.721-6.065-6.065s2.721-6.065 6.065-6.065 6.065 2.721 6.065 6.065-2.721 6.065-6.065 6.065zm-63.241-82.536c-11.064 0-20.065 9.001-20.065 20.065s9.001 20.066 20.065 20.066 20.065-9.001 20.065-20.066-9.001-20.065-20.065-20.065zm0 26.131c-3.345 0-6.065-2.721-6.065-6.066s2.721-6.065 6.065-6.065 6.065 2.721 6.065 6.065-2.721 6.066-6.065 6.066z"/></svg>