<svg id="Capa_1" enable-background="new 0 0 512 512" height="512" viewBox="0 0 512 512" width="512" xmlns="http://www.w3.org/2000/svg"><g><circle cx="473.438" cy="224.938" r="7.5"/><circle cx="473.438" cy="162.812" r="7.5"/><circle cx="473.438" cy="100.688" r="7.5"/><circle cx="287.062" cy="162.812" r="7.5"/><circle cx="287.062" cy="100.688" r="7.5"/><circle cx="473.438" cy="38.562" r="7.5"/><circle cx="411.312" cy="224.938" r="7.5"/><circle cx="349.188" cy="224.938" r="7.5"/><circle cx="287.062" cy="224.938" r="7.5"/><circle cx="411.312" cy="38.562" r="7.5"/><circle cx="349.188" cy="38.562" r="7.5"/><circle cx="287.062" cy="38.562" r="7.5"/><circle cx="473.438" cy="473.438" r="7.5"/><circle cx="473.438" cy="411.312" r="7.5"/><circle cx="473.438" cy="349.188" r="7.5"/><circle cx="287.062" cy="411.312" r="7.5"/><circle cx="287.062" cy="349.188" r="7.5"/><circle cx="473.438" cy="287.062" r="7.5"/><circle cx="411.312" cy="473.438" r="7.5"/><circle cx="349.188" cy="473.438" r="7.5"/><circle cx="287.062" cy="473.438" r="7.5"/><circle cx="411.312" cy="287.062" r="7.5"/><circle cx="349.188" cy="287.062" r="7.5"/><circle cx="287.062" cy="287.062" r="7.5"/><path d="m489.5 0h-218.5c-12.407 0-22.5 10.094-22.5 22.5v8.562h-47.628c-2.035-8.884-10.004-15.531-19.497-15.531h-6.062c-9.492 0-17.461 6.647-19.497 15.531h-110.257c-2.035-8.884-10.004-15.531-19.497-15.531h-6.062c-11.028 0-20 8.972-20 20v360.25c0 4.143 3.358 7.5 7.5 7.5s7.5-3.357 7.5-7.5v-124.781c0-4.136 3.364-7.5 7.5-7.5h226v233.5h-226c-4.136 0-7.5-3.364-7.5-7.5v-58.719c0-4.143-3.358-7.5-7.5-7.5s-7.5 3.357-7.5 7.5v58.719c0 12.406 10.093 22.5 22.5 22.5h467c12.407 0 22.5-10.094 22.5-22.5v-467c0-12.406-10.093-22.5-22.5-22.5zm-226 22.5c0-4.136 3.364-7.5 7.5-7.5h218.5c4.136 0 7.5 3.364 7.5 7.5v226h-233.5v-67.219c0-4.143-3.358-7.5-7.5-7.5s-7.5 3.357-7.5 7.5v36.156h-47.125v-124.781h47.125v54.625c0 4.143 3.358 7.5 7.5 7.5s7.5-3.357 7.5-7.5zm-62.125 209.938h47.125v16.062h-47.125zm47.125-154.782h-47.125v-31.594h47.125zm-78.188-42.125c0-2.757 2.243-5 5-5h6.062c2.757 0 5 2.243 5 5v212.969h-16.062zm-15 135.313h-109.25v-31.594h109.25zm-109.25 15h109.25v31.594h-109.25zm109.25-108.188h-62.904c-4.142 0-7.5 3.357-7.5 7.5s3.358 7.5 7.5 7.5h62.904v31.594h-109.25v-31.594h11.346c4.142 0 7.5-3.357 7.5-7.5s-3.358-7.5-7.5-7.5h-11.346v-31.594h109.25zm-109.25 154.782h109.25v16.062h-109.25zm-31.062 17.347v-214.254c0-2.757 2.243-5 5-5h6.062c2.757 0 5 2.243 5 5v212.969h-8.562c-2.629 0-5.153.453-7.5 1.285zm474.5 247.215h-226v-233.5h233.5v226c0 4.136-3.364 7.5-7.5 7.5z"/><circle cx="224.938" cy="473.438" r="7.5"/><circle cx="224.938" cy="411.312" r="7.5"/><circle cx="224.938" cy="349.188" r="7.5"/><circle cx="38.562" cy="411.312" r="7.5"/><circle cx="38.562" cy="349.188" r="7.5"/><circle cx="224.938" cy="287.062" r="7.5"/><circle cx="162.812" cy="473.438" r="7.5"/><circle cx="100.688" cy="473.438" r="7.5"/><circle cx="38.562" cy="473.438" r="7.5"/><circle cx="162.812" cy="287.062" r="7.5"/><circle cx="100.688" cy="287.062" r="7.5"/><circle cx="38.562" cy="287.062" r="7.5"/></g></svg>