<svg id="Layer_1" viewBox="0 0 512 512" xmlns="http://www.w3.org/2000/svg" data-name="Layer 1"><path d="m228.707 306.885h-18.307c-88.83 0-105.7 85.333-113.544 155.978h263.698c-7.84-70.645-24.714-155.978-113.574-155.978z" fill="#69a7ff" fill-rule="evenodd"/><path d="m228.707 306.885h-18.307c-16.262 0-30.134 2.885-41.967 7.986l60.27 126.163 60.269-126.163c-11.832-5.1-25.7-7.986-42-7.986z" fill="#5f96e6" fill-rule="evenodd"/><path d="m215.767 334.718-8.539 61.348 21.479 44.968 21.479-44.968-8.569-61.348 13.756-27.57q-4.065-.263-8.393-.263h-36.58c-2.856 0-5.654.088-8.364.263z" fill="#ff3d50" fill-rule="evenodd"/><path d="m241.617 334.718 13.756-27.57q-4.065-.263-8.393-.263h-36.58c-2.856 0-5.654.088-8.364.263l13.727 27.57z" fill="#e82e41" fill-rule="evenodd"/><path d="m228.707 136.772a67.428 67.428 0 0 1 67.235 67.235v16.093a67.428 67.428 0 0 1 -67.235 67.235 67.427 67.427 0 0 1 -67.235-67.235v-16.093a67.427 67.427 0 0 1 67.235-67.235z" fill="#fbbd80" fill-rule="evenodd"/><path d="m400.714 179.031-37.479-27.337-37.479 27.337 14.426-44.095-37.566-27.162 46.368.087 14.251-44.152 14.251 44.152 46.368-.087-37.566 27.162zm-134.557-63.709-37.45-27.336-37.479 27.336 14.426-44.094-37.567-27.192 46.368.088 14.252-44.124 14.251 44.124 46.368-.088-37.566 27.192zm-134.529 63.709-37.449-27.337-37.479 27.337 14.426-44.095-37.567-27.162 46.368.087 14.252-44.152 14.251 44.152 46.368-.087-37.567 27.162z" fill="#ffd23b" fill-rule="evenodd"/><path d="m364.43 394.463 46.135-26.638 67.876 117.537-35.731-7.577-10.433 34.215z" fill="#ff3d50" fill-rule="evenodd"/><path d="m410.535 394.463-46.163-26.638-67.847 117.537 35.73-7.577 10.433 34.215z" fill="#ff3d50" fill-rule="evenodd"/><path d="m415.781 306.069a18.431 18.431 0 0 1 24.51 14.164 12.707 12.707 0 0 0 10.317 10.317 18.481 18.481 0 0 1 14.192 24.539 12.787 12.787 0 0 0 3.76 14.106 18.495 18.495 0 0 1 .029 28.327 12.809 12.809 0 0 0 -3.789 14.135 18.467 18.467 0 0 1 -14.193 24.51 12.744 12.744 0 0 0 -10.317 10.317 18.424 18.424 0 0 1 -24.51 14.194 12.792 12.792 0 0 0 -14.134 3.788 18.47 18.47 0 0 1 -28.328 0 12.807 12.807 0 0 0 -14.135-3.788 18.424 18.424 0 0 1 -24.51-14.194 12.744 12.744 0 0 0 -10.317-10.317 18.469 18.469 0 0 1 -14.193-24.51 12.809 12.809 0 0 0 -3.789-14.135 18.47 18.47 0 0 1 0-28.327 12.764 12.764 0 0 0 3.789-14.106 18.483 18.483 0 0 1 14.193-24.539 12.707 12.707 0 0 0 10.317-10.317 18.455 18.455 0 0 1 8.947-12.823 18.261 18.261 0 0 1 15.563-1.341 12.842 12.842 0 0 0 14.135-3.789 18.471 18.471 0 0 1 28.328 0 12.9 12.9 0 0 0 14.134 3.789z" fill="#ffd23b" fill-rule="evenodd"/><path d="m387.483 438.353a54.995 54.995 0 1 0 -54.995-54.994 55.094 55.094 0 0 0 55 54.994z" fill="#ffab02" fill-rule="evenodd"/><path d="m409.778 359.723a7.192 7.192 0 1 1 10.171 10.171l-37.129 37.13a7.214 7.214 0 0 1 -10.172 0l-17.632-17.632a7.193 7.193 0 0 1 10.172-10.172l12.531 12.532z" fill="#ffd23b"/><g fill-rule="evenodd"><path d="m83.658 134.936-37.538-27.162h-12.561l37.567 27.162-14.426 44.095 16.466-12.036z" fill="#e8bd31"/><path d="m94.179 63.709-14.252 44.123 12.532.029 7.985-24.713z" fill="#e8bd31"/><path d="m127.694 166.995-20.984-15.301-6.266 4.575 31.184 22.762z" fill="#e8bd31"/><path d="m205.654 71.228-14.426 44.094 16.495-12.036 10.463-32.058-37.538-27.162-12.561-.03z" fill="#e8bd31"/><path d="m214.455 44.124h12.532l7.986-24.685-6.266-19.439z" fill="#e8bd31"/><path d="m262.251 103.286-21.012-15.3-6.266 4.575 31.184 22.761z" fill="#e8bd31"/><path d="m340.182 134.936-14.426 44.095 16.495-12.036 10.463-32.059-37.537-27.162h-12.561z" fill="#e8bd31"/><path d="m348.984 107.832 12.561.029 7.956-24.713-6.266-19.439z" fill="#e8bd31"/><path d="m396.78 166.995-21.013-15.301-6.266 4.575 31.213 22.762z" fill="#e8bd31"/><path d="m175 204.007a67.493 67.493 0 0 1 60.473-66.914 64.892 64.892 0 0 0 -6.761-.321 67.427 67.427 0 0 0 -67.235 67.235v16.093a67.427 67.427 0 0 0 67.235 67.235 64.865 64.865 0 0 0 6.761-.35 67.443 67.443 0 0 1 -60.473-66.885z" fill="#f5ad65"/><path d="m117.639 462.863c5.829-51.089 16.7-109.085 56.1-136.859l-5.3-11.133.029-.03c-52.779 22.791-65.224 90.317-71.606 148.022z" fill="#5f96e6"/><path d="m308.1 383.359a18.449 18.449 0 0 1 6.61-14.159 12.762 12.762 0 0 0 3.789-14.106 18.534 18.534 0 0 1 1.341-15.594c.233-.379.466-.758.728-1.137a18.483 18.483 0 0 1 12.1-7.81 12.775 12.775 0 0 0 10.346-10.317 18.544 18.544 0 0 1 13.986-14.836 18.461 18.461 0 0 0 -22.324 14.834 12.707 12.707 0 0 1 -10.317 10.317 18.483 18.483 0 0 0 -14.193 24.539 12.764 12.764 0 0 1 -3.789 14.106 18.47 18.47 0 0 0 0 28.327 12.809 12.809 0 0 1 3.789 14.135 18.469 18.469 0 0 0 14.193 24.51 3.534 3.534 0 0 1 .525.117 12.743 12.743 0 0 1 9.792 10.2 18.406 18.406 0 0 0 22.324 14.834 18.376 18.376 0 0 1 -13.989-14.835 12.811 12.811 0 0 0 -10.346-10.317 18.4 18.4 0 0 1 -6.353-2.36 18.689 18.689 0 0 1 -6.47-6.587 18.468 18.468 0 0 1 -1.341-15.563 12.856 12.856 0 0 0 -3.789-14.135 18.4 18.4 0 0 1 -6.615-14.163z" fill="#e8bd31"/><path d="m367.694 306.127a12.842 12.842 0 0 0 13.96-3.847 18.316 18.316 0 0 1 10-6.149 17.884 17.884 0 0 0 -4.167-.466 18.4 18.4 0 0 0 -14.164 6.615 12.593 12.593 0 0 1 -5.625 3.847z" fill="#e8bd31"/><path d="m381.654 464.466a12.8 12.8 0 0 0 -8.918-4.517 12.424 12.424 0 0 0 -5.042.67 13.214 13.214 0 0 1 3.585 1.895 12.9 12.9 0 0 1 2.04 1.952 18.5 18.5 0 0 0 14.164 6.616 19.655 19.655 0 0 0 4.167-.466 18.48 18.48 0 0 1 -10-6.15z" fill="#e8bd31"/><path d="m384.452 328.452a54.991 54.991 0 0 1 4.983 109.318c-1.369.205-2.768.35-4.138.467-.292 0-.554.029-.845.029.262.029.524.029.787.058.728.029 1.486.029 2.244.029s1.486 0 2.244-.029a55 55 0 0 0 -2.244-109.96c-1.02 0-2.011.029-3.031.088z" fill="#ed9e00"/><path d="m319.811 462.863 12.561-21.741a12.687 12.687 0 0 0 -7.49-4.838l-15.359 26.579-13 22.5 11.745-2.477z" fill="#e82e41"/><path d="m343.971 475.278-11.716 2.507 10.433 34.215 8.161-14.135z" fill="#e82e41"/><path d="m410.623 459.949a12.865 12.865 0 0 0 -6.936 2.565l28.59 49.486 2.914-9.53z" fill="#e82e41"/><path d="m445.625 468.226-2.915 9.559 35.731 7.577-6.703-11.57z" fill="#e82e41"/></g></svg>