<svg height="512" viewBox="0 0 64 64" width="512" xmlns="http://www.w3.org/2000/svg"><g id="Calendar_Deadline" data-name="Calendar Deadline"><path d="m6 59a5.006 5.006 0 0 1 -5-5v-38a5.006 5.006 0 0 1 5-5h2v2.831a3.142 3.142 0 0 0 2.78 3.161c.074.006.148.008.221.008a3 3 0 0 0 3-3v-3h8v2.831a3.142 3.142 0 0 0 2.78 3.161c.074.006.148.008.221.008a3 3 0 0 0 3-3v-3h8v2.831a3.142 3.142 0 0 0 2.78 3.161c.074.006.147.008.221.008a3 3 0 0 0 3-3v-3h8v2.831a3.142 3.142 0 0 0 2.78 3.161c.074.006.148.008.222.008a3 3 0 0 0 3-3v-3h2a5.006 5.006 0 0 1 5 5v38a5.006 5.006 0 0 1 -5 5z" fill="#e6edff"/><path d="m58 11h-2v3a3 3 0 0 1 -3 3c-.074 0-.148 0-.222-.008a3.142 3.142 0 0 1 -2.778-3.161v-2.831h-8v3a3 3 0 0 1 -3 3c-.074 0-.147 0-.221-.008a3.142 3.142 0 0 1 -2.779-3.161v-2.831h-8v3a3 3 0 0 1 -3 3c-.073 0-.147 0-.221-.008a3.142 3.142 0 0 1 -2.779-3.161v-2.831h-8v3a3 3 0 0 1 -3 3c-.073 0-.147 0-.221-.008a3.142 3.142 0 0 1 -2.779-3.161v-2.831h-2a5.006 5.006 0 0 0 -5 5v7h62v-7a5.006 5.006 0 0 0 -5-5z" fill="#e63b47"/><path d="m11 17a3 3 0 0 1 -3-3v-6a3 3 0 0 1 6 0v6a3 3 0 0 1 -3 3z" fill="#4aa4f2"/><path d="m25 17a3 3 0 0 1 -3-3v-6a3 3 0 0 1 6 0v6a3 3 0 0 1 -3 3z" fill="#4aa4f2"/><path d="m39 17a3 3 0 0 1 -3-3v-6a3 3 0 0 1 6 0v6a3 3 0 0 1 -3 3z" fill="#4aa4f2"/><path d="m53 17a3 3 0 0 1 -3-3v-6a3 3 0 0 1 6 0v6a3 3 0 0 1 -3 3z" fill="#4aa4f2"/><circle cx="41" cy="41" fill="#ffc170" r="10"/><g fill="#222128"><path d="m58 10h-1v-2a4 4 0 0 0 -8 0v2h-6v-2a4 4 0 0 0 -8 0v2h-6v-2a4 4 0 0 0 -8 0v2h-6v-2a4 4 0 0 0 -8 0v2h-1a6.006 6.006 0 0 0 -6 6v38a6.006 6.006 0 0 0 6 6h52a6.006 6.006 0 0 0 6-6v-38a6.006 6.006 0 0 0 -6-6zm-7-2a2 2 0 0 1 4 0v6a2 2 0 0 1 -4 0zm-14 0a2 2 0 0 1 4 0v6a2 2 0 0 1 -4 0zm-14 0a2 2 0 0 1 4 0v6a2 2 0 0 1 -4 0zm-14 0a2 2 0 0 1 4 0v6a2 2 0 0 1 -4 0zm-3 4h1v2a4 4 0 0 0 8 0v-2h6v2a4 4 0 0 0 8 0v-2h6v2a4 4 0 0 0 8 0v-2h6v2a4 4 0 0 0 8 0v-2h1a4 4 0 0 1 4 4v6h-60v-6a4 4 0 0 1 4-4zm52 46h-52a4 4 0 0 1 -4-4v-30h60v30a4 4 0 0 1 -4 4z"/><path d="m41 30a11 11 0 1 0 11 11 11.013 11.013 0 0 0 -11-11zm0 20a9 9 0 1 1 9-9 9.01 9.01 0 0 1 -9 9z"/><path d="m27 34h-14a1 1 0 0 0 0 2h14a1 1 0 0 0 0-2z"/><path d="m27 46h-6a1 1 0 0 0 0 2h6a1 1 0 0 0 0-2z"/><path d="m27 40h-10a1 1 0 0 0 0 2h10a1 1 0 0 0 0-2z"/><path d="m42 40.586v-4.586a1 1 0 0 0 -2 0v5a1 1 0 0 0 .293.707l3 3a1 1 0 0 0 1.414-1.414z"/></g></g></svg>