<svg clip-rule="evenodd" fill-rule="evenodd" stroke-linejoin="round" stroke-miterlimit="2" viewBox="0 0 510 510" xmlns="http://www.w3.org/2000/svg"><path d="m138.777 443.409 7.663 13.539c.004.007.007.013.011.02 5.74 10.209 2.101 23.237-8.051 28.971l-25.285 14.331c-.008.005-.016.009-.025.014-10.209 5.74-23.237 2.101-28.973-8.055l-74.357-131.387c-5.791-10.217-2.152-23.257 8.011-28.997l25.315-14.332.007-.003c10.16-5.739 23.192-2.131 28.977 8.028l.011.019 6.321 11.169 67.055-38.823c19.662-11.371 39.739-18.856 61.334-11.844 21.317 6.913 56.121 21.806 91.638 28.224.352.063.701.151 1.042.261 17.41 5.638 28.018 23.227 23.263 40.906-.946 3.525-2.291 6.725-4.006 9.563 4.717-1.098 9.309-2.92 13.809-5.542l90.16-52.51c32.083-18.691 53.449-16.837 65.556-8.714 10.29 6.904 15.038 18.7 14.731 30.272-.31 11.68-5.844 22.853-15.004 28.494l-163.601 100.728c-16.977 10.478-35.573 12.933-54.838 7.794l-.009-.003s-115.474-30.947-115.474-30.947zm-52.494-92.758 44.613 78.832 18.031-10.411c1.838-1.061 4.022-1.349 6.072-.8l118.668 31.804c14.86 3.964 29.213 2.131 42.309-5.951l.007-.004 163.607-100.731c4.48-2.76 6.858-8.282 7.327-13.962.719-8.724-3.408-18.333-14.2-20.594-9.701-2.033-23.377 1.122-41.967 11.952l-90.157 52.509c-14.259 8.309-29.204 10.6-45.491 8.007-.009-.001-.018-.002-.027-.004l-11.179-1.819c-.003-.001-.007-.001-.01-.002-.108-.017-.216-.037-.323-.059-.004-.001-.008-.002-.011-.002-20.329-4.173-39.182-10.316-60.103-15.938-4.264-1.146-6.796-5.538-5.65-9.802s5.538-6.796 9.802-5.65c20.487 5.506 38.954 11.543 58.845 15.65 10.641 1.195 18.391-3.27 20.836-12.377l.001-.004c2.485-9.239-3.283-18.221-12.277-21.372-36.115-6.618-71.472-21.615-93.152-28.645l-.003-.001c-17.114-5.557-32.801 1.465-48.382 10.476zm-28.119-17.199-.008-.014c-1.444-2.514-4.672-3.421-7.193-1.998l-25.309 14.329-.007.003c-2.516 1.422-3.4 4.652-1.967 7.18l.003.005 74.359 131.391.003.006c1.425 2.523 4.663 3.408 7.198 1.987l25.268-14.322.01-.006c2.523-1.425 3.408-4.664 1.986-7.199zm-10.322 14.294c5.739-.854 11.068 3.109 11.922 8.848.82 5.738-3.143 11.102-8.881 11.921-5.739.854-11.068-3.142-11.922-8.881-.82-5.739 3.142-11.068 8.881-11.888zm183.377-140.092c-20.484-12.958-43.896-23.735-70.205-32.379l-3.228-.91-2.199 7.803c-2.969 10.536-16.691 12.913-23.058 4.163l-.002-.002s-36.91-50.758-36.91-50.758c-5.02-6.848-2.309-16.468 5.548-19.688l57.983-24.021c9.999-4.138 20.461 5.054 17.492 15.59l-2.199 7.803 2.149.347c26.452 8.448 50.502 18.695 72.177 30.712 0-22.808 0-65.645 0-65.645h-7.646c-10.824 0-16.767-12.425-10.146-20.832l.001-.002s37.731-47.881 37.731-47.881c5.173-6.615 15.057-6.615 20.23 0l37.733 47.883c6.621 8.407.678 20.832-10.147 20.832h-7.646v65.635c21.679-12.013 68.673-29.456 72.518-30.54l1.808-.509-2.199-7.803c-2.968-10.536 7.494-19.728 17.492-15.59l.003.001s57.981 24.02 57.981 24.02c7.856 3.22 10.567 12.84 5.547 19.688l-36.911 50.76c-6.368 8.75-20.09 6.373-23.058-4.163l-2.199-7.803s-3.229.909-3.235.911c-26.314 8.648-49.727 19.431-70.205 32.389 26.949 30.388 46.411 66.343 58.448 107.795 1.231 4.24-1.212 8.682-5.452 9.913-4.24 1.232-8.682-1.211-9.914-5.451-11.552-39.784-30.318-74.221-56.44-103.192-8.224 5.982-15.905 12.368-23.042 19.159 23.314 25.559 40.244 55.871 50.703 91.013 1.259 4.231-1.154 8.69-5.386 9.949-4.232 1.26-8.69-1.154-9.95-5.385-9.647-32.416-25.172-60.438-46.559-84.101-11.358 12.561-21.069 26.35-29.119 41.383-2.085 3.893-6.937 5.36-10.829 3.276-3.893-2.084-5.361-6.937-3.276-10.829 30.289-56.561 82.372-96.951 156.198-121.175.107-.036 11.419-3.225 11.419-3.225 4.252-1.199 8.671 1.277 9.869 5.53l2.709 9.614 31.066-42.721-48.8-20.216 2.709 9.614c1.198 4.252-1.278 8.671-5.53 9.869l-9.508 2.68c-.555.156-1.124.252-1.698.285-84.465 27.381-143.201 73.896-176.567 139.309-2.006 3.933-6.828 5.497-10.761 3.491-3.934-2.006-5.498-6.828-3.492-10.761 10.363-20.317 23.023-38.937 38.002-55.835zm33.548-51.878c4.812 3.034 9.493 6.165 14.044 9.393 4.558-3.233 9.247-6.368 14.066-9.406v-83.094c0-4.419 3.582-8 8-8h9.23l-31.285-39.7-31.284 39.7h9.229c4.418 0 8 3.581 8 8zm.59 19.521c-26.192-17.891-56.767-32.507-91.749-43.847-.574-.033-11.206-2.965-11.206-2.965-4.253-1.198-6.729-5.617-5.531-9.869l2.709-9.614-48.8 20.216 31.066 42.721 2.709-9.614c1.198-4.253 5.617-6.729 9.87-5.53l11.094 3.126c.109.03.217.063.324.099 28.838 9.462 54.354 21.395 76.542 35.786 7.192-7.182 14.849-14.019 22.972-20.509z"/></svg>