<svg id="Layer_1" enable-background="new 0 0 512 512" viewBox="0 0 512 512" xmlns="http://www.w3.org/2000/svg"><path clip-rule="evenodd" d="m19.373 36.157h17.915v15.897c0 16.599 13.529 30.128 30.128 30.128s30.128-13.529 30.128-30.128v-15.897h19.69v15.897c0 16.599 13.529 30.128 30.128 30.128s30.128-13.529 30.128-30.128v-15.897h19.69v15.897c0 16.599 13.529 30.128 30.128 30.128s30.128-13.529 30.128-30.128v-15.897h19.69v15.897c0 16.599 13.529 30.128 30.128 30.128s30.128-13.529 30.128-30.128v-15.897h17.915c8.036 0 14.611 6.575 14.611 14.611v38.205h-365.147v-38.205c0-8.036 6.575-14.611 14.612-14.611zm403.826 179.689c-3.333-2.443-4.054-7.126-1.612-10.459 2.443-3.333 7.126-4.054 10.459-1.611 41.98 30.799 66.721 79.474 66.721 131.549 0 17.53-2.81 34.998-8.366 51.623l6.518-2.675c3.818-1.569 8.186.254 9.756 4.072 1.569 3.818-.254 8.186-4.072 9.756l-22.781 9.351c-3.818 1.569-8.186-.254-9.756-4.072l-9.351-22.781c-1.569-3.818.254-8.186 4.072-9.756 3.818-1.569 8.186.254 9.756 4.072l2.254 5.492c4.652-14.595 6.969-29.757 6.969-45.081.001-47.353-22.389-91.471-60.567-119.48zm-38.556-41.744c-1.569-3.818.254-8.187 4.072-9.756s8.186.254 9.756 4.072l9.351 22.781c1.569 3.818-.254 8.186-4.072 9.756l-22.781 9.351c-3.818 1.569-8.186-.254-9.756-4.072-1.569-3.818.254-8.186 4.072-9.756l5.495-2.255c-14.595-4.651-29.759-6.968-45.083-6.968-47.354 0-91.468 22.396-119.477 60.576-2.443 3.333-7.126 4.054-10.459 1.611s-4.054-7.126-1.611-10.459c30.798-41.982 79.47-66.729 131.547-66.729 17.529 0 34.996 2.809 51.621 8.363zm-210.17 112.277c-3.818 1.569-8.187-.254-9.756-4.072s.254-8.186 4.072-9.756l22.781-9.351c3.818-1.569 8.186.254 9.756 4.072l9.351 22.781c1.569 3.818-.254 8.186-4.072 9.756-3.818 1.569-8.186-.254-9.756-4.072l-2.253-5.489c-4.652 14.595-6.97 29.753-6.97 45.077 0 47.355 22.396 91.468 60.576 119.477 3.333 2.443 4.054 7.126 1.612 10.459-2.443 3.333-7.126 4.054-10.459 1.611-41.982-30.798-66.729-79.47-66.729-131.547 0-17.53 2.812-34.998 8.368-51.623zm112.277 210.171c1.569 3.818-.254 8.186-4.072 9.756-3.818 1.569-8.186-.254-9.756-4.072l-9.351-22.781c-1.569-3.818.254-8.186 4.072-9.756l22.781-9.351c3.818-1.569 8.186.254 9.756 4.072 1.569 3.818-.254 8.187-4.072 9.756l-5.491 2.254c14.593 4.652 29.757 6.969 45.08 6.969 47.351 0 91.47-22.391 119.479-60.568 2.443-3.333 7.126-4.054 10.459-1.612 3.333 2.443 4.054 7.126 1.612 10.459-30.798 41.98-79.475 66.721-131.549 66.721-17.53 0-34.998-2.81-51.623-8.366zm48.946-274.975c-62.823 0-113.75 50.928-113.75 113.751 0 62.822 50.928 113.75 113.75 113.75s113.75-50.928 113.75-113.75c0-62.823-50.927-113.751-113.75-113.751zm-7.5 54.997c0-4.142 3.358-7.5 7.5-7.5s7.5 3.358 7.5 7.5v41.047c6.891 2.923 11.725 9.75 11.725 17.707 0 10.617-8.607 19.225-19.225 19.225-2.553 0-4.988-.499-7.217-1.402l-26.273 26.273c-2.928 2.929-7.677 2.929-10.605 0-2.928-2.928-2.928-7.677 0-10.605l26.273-26.273c-.903-2.228-1.402-4.665-1.402-7.217 0-7.957 4.834-14.784 11.725-17.707v-41.048zm7.5-37.751c-53.296 0-96.505 43.208-96.505 96.505 0 53.296 43.208 96.505 96.505 96.505s96.505-43.208 96.505-96.505-43.209-96.505-96.505-96.505zm0 15c45.016 0 81.505 36.489 81.505 81.505s-36.489 81.504-81.505 81.504c-45.015 0-81.505-36.489-81.505-81.504 0-45.016 36.489-81.505 81.505-81.505zm-268.28-248.689c-8.32 0-15.128 6.808-15.128 15.128v31.795c0 8.32 6.808 15.128 15.128 15.128 8.321 0 15.129-6.808 15.129-15.128v-31.795c0-8.32-6.808-15.128-15.129-15.128zm239.839 0c-8.32 0-15.128 6.808-15.128 15.128v31.795c0 8.32 6.808 15.128 15.128 15.128 8.321 0 15.129-6.808 15.129-15.128v-31.795c0-8.32-6.808-15.128-15.129-15.128zm-79.946 0c-8.321 0-15.128 6.808-15.128 15.128v31.795c0 8.32 6.808 15.128 15.128 15.128s15.128-6.808 15.128-15.128v-31.795c0-8.32-6.807-15.128-15.128-15.128zm-79.946 0c-8.321 0-15.129 6.808-15.129 15.128v31.795c0 8.32 6.808 15.128 15.129 15.128 8.32 0 15.128-6.808 15.128-15.128v-31.795c0-8.32-6.808-15.128-15.128-15.128zm-142.602 98.841v269.736c0 8.036 6.575 14.611 14.611 14.611h146.295c-5.328-17.092-8.042-34.932-8.042-52.995 0-12.073 1.223-24.122 3.65-35.947-4.56-2.363-8.341-6.28-10.433-11.369-4.697-11.428.82-24.642 12.25-29.334l22.781-9.351c.797-.327 1.602-.604 2.412-.834-1.427-6.161-.263-12.883 3.768-18.379 33.614-45.827 86.798-72.857 143.642-72.857 11.484 0 22.945 1.105 34.213 3.302v-56.583zm45.263 197.27c11.034 0 19.98 8.945 19.98 19.98 0 11.034-8.945 19.979-19.98 19.979s-19.979-8.945-19.979-19.979c-.001-11.035 8.944-19.98 19.979-19.98zm0-149.294c11.034 0 19.98 8.945 19.98 19.98s-8.945 19.98-19.98 19.98-19.979-8.945-19.979-19.98c-.001-11.034 8.944-19.98 19.979-19.98zm137.312 0c-11.035 0-19.98 8.945-19.98 19.98s8.945 19.98 19.98 19.98 19.98-8.945 19.98-19.98c-.001-11.034-8.946-19.98-19.98-19.98zm-68.656 0c11.034 0 19.979 8.945 19.979 19.98s-8.945 19.98-19.979 19.98-19.98-8.945-19.98-19.98c0-11.034 8.945-19.98 19.98-19.98zm-68.656 74.647c11.034 0 19.98 8.945 19.98 19.98s-8.945 19.98-19.98 19.98-19.979-8.945-19.979-19.98c-.001-11.035 8.944-19.98 19.979-19.98zm68.656 0c11.034 0 19.979 8.945 19.979 19.98s-8.945 19.98-19.979 19.98-19.98-8.945-19.98-19.98 8.945-19.98 19.98-19.98zm0 74.647c11.034 0 19.979 8.945 19.979 19.98 0 11.034-8.945 19.979-19.979 19.979s-19.98-8.945-19.98-19.979c0-11.035 8.945-19.98 19.98-19.98z" fill-rule="evenodd"/></svg>