<svg id="Layer_1" enable-background="new 0 0 512 512" viewBox="0 0 512 512" xmlns="http://www.w3.org/2000/svg"><g clip-rule="evenodd" fill-rule="evenodd"><g><g><path d="m23.135 39.919h335.927c8.036 0 14.612 6.575 14.612 14.611v314.913c0 8.036-6.575 14.611-14.612 14.611h-335.927c-8.036 0-14.612-6.575-14.612-14.611v-314.913c0-8.037 6.575-14.611 14.612-14.611z" fill="#3b3b6b"/><path d="m44.368 39.919h30.257v21.207c0 8.32-6.808 15.129-15.128 15.129-8.321 0-15.129-6.808-15.129-15.129zm79.947 0h30.257v21.207c0 8.32-6.808 15.129-15.129 15.129-8.32 0-15.128-6.808-15.128-15.129zm79.946 0h30.257v21.207c0 8.32-6.808 15.129-15.129 15.129-8.32 0-15.128-6.808-15.128-15.129zm79.947 0h30.257v21.207c0 8.32-6.808 15.129-15.129 15.129s-15.128-6.808-15.128-15.129z" fill="#32325b"/><path d="m108.803 39.919h250.258c8.036 0 14.612 6.575 14.612 14.611v220.832c-22.803 9.167-47.701 14.222-73.783 14.222-109.315 0-197.932-88.617-197.932-197.932.001-17.901 2.391-35.241 6.845-51.733z" fill="#45467e"/><path d="m124.315 39.919h30.257v21.207c0 8.32-6.808 15.129-15.129 15.129-8.32 0-15.128-6.808-15.128-15.129zm79.946 0h30.257v21.207c0 8.32-6.808 15.129-15.129 15.129-8.32 0-15.128-6.808-15.128-15.129zm79.947 0h30.257v21.207c0 8.32-6.808 15.129-15.129 15.129s-15.128-6.808-15.128-15.129z" fill="#3b3b6b"/><path d="m71.179 8.893c-8.321 0-15.129 6.808-15.129 15.128v31.795c0 8.321 6.808 15.128 15.129 15.128 8.32 0 15.128-6.808 15.128-15.128v-31.795c0-8.32-6.808-15.128-15.128-15.128zm239.84 0c-8.32 0-15.129 6.808-15.129 15.128v31.795c0 8.321 6.808 15.128 15.129 15.128 8.32 0 15.128-6.808 15.128-15.128v-31.795c0-8.32-6.808-15.128-15.128-15.128zm-79.947 0c-8.321 0-15.129 6.808-15.129 15.128v31.795c0 8.321 6.808 15.128 15.129 15.128 8.32 0 15.128-6.808 15.128-15.128v-31.795c0-8.32-6.808-15.128-15.128-15.128zm-79.947 0c-8.321 0-15.129 6.808-15.129 15.128v31.795c0 8.321 6.808 15.128 15.129 15.128 8.32 0 15.128-6.808 15.128-15.128v-31.795c.001-8.32-6.807-15.128-15.128-15.128z" fill="#8f8b81"/><path d="m8.523 107.735h365.15v269.736c0 8.036-6.575 14.611-14.611 14.611h-335.927c-8.037 0-14.611-6.575-14.611-14.611v-269.736z" fill="#fecbaa"/><path d="m115.114 241.758c11.034 0 19.979 8.945 19.979 19.979 0 11.035-8.945 19.98-19.979 19.98-11.035 0-19.98-8.945-19.98-19.98 0-11.034 8.946-19.979 19.98-19.979zm-68.656 74.647c11.035 0 19.98 8.945 19.98 19.98 0 11.034-8.945 19.98-19.98 19.98-11.034 0-19.979-8.945-19.979-19.98-.001-11.035 8.944-19.98 19.979-19.98zm68.656 0c11.034 0 19.979 8.945 19.979 19.98 0 11.034-8.945 19.98-19.979 19.98-11.035 0-19.98-8.945-19.98-19.98s8.946-19.98 19.98-19.98zm-68.656-149.294c11.035 0 19.98 8.945 19.98 19.98 0 11.034-8.945 19.98-19.98 19.98-11.034 0-19.979-8.945-19.979-19.98-.001-11.035 8.944-19.98 19.979-19.98zm137.312 0c11.034 0 19.979 8.945 19.979 19.98 0 11.034-8.945 19.98-19.979 19.98-11.035 0-19.98-8.945-19.98-19.98s8.946-19.98 19.98-19.98zm-68.656 0c11.034 0 19.979 8.945 19.979 19.98 0 11.034-8.945 19.98-19.979 19.98-11.035 0-19.98-8.945-19.98-19.98s8.946-19.98 19.98-19.98zm-68.656 74.647c11.035 0 19.98 8.945 19.98 19.979 0 11.035-8.945 19.98-19.98 19.98-11.034 0-19.979-8.945-19.979-19.98-.001-11.034 8.944-19.979 19.979-19.979z" fill="#ffb98d"/><path d="m102.612 107.735h271.062v167.627c-22.803 9.167-47.701 14.222-73.783 14.222-103.9 0-189.092-80.057-197.279-181.849z" fill="#fedfc5"/><path d="m132.394 197.124c-5.974-9.467-11.172-19.472-15.494-29.933 10.197.903 18.194 9.467 18.194 19.899 0 3.658-.984 7.085-2.7 10.034zm51.376-30.013c11.034 0 19.979 8.945 19.979 19.98 0 11.034-8.945 19.98-19.979 19.98-11.035 0-19.98-8.945-19.98-19.98s8.946-19.98 19.98-19.98z" fill="#fecbaa"/><path d="m122.442 230.359c11.034 0 19.979 8.945 19.979 19.98 0 11.034-8.945 19.98-19.979 19.98-11.035 0-19.98-8.945-19.98-19.98s8.946-19.98 19.98-19.98zm-68.656-74.647c11.035 0 19.98 8.945 19.98 19.979 0 11.035-8.945 19.98-19.98 19.98s-19.979-8.945-19.979-19.98c-.001-11.034 8.944-19.979 19.979-19.979zm137.313 0c11.034 0 19.979 8.945 19.979 19.979 0 11.035-8.945 19.98-19.979 19.98-11.035 0-19.98-8.945-19.98-19.98 0-11.034 8.945-19.979 19.98-19.979zm-68.657 0c11.034 0 19.979 8.945 19.979 19.979 0 11.035-8.945 19.98-19.979 19.98-11.035 0-19.98-8.945-19.98-19.98 0-11.034 8.946-19.979 19.98-19.979zm-68.656 74.647c11.035 0 19.98 8.945 19.98 19.98 0 11.034-8.945 19.98-19.98 19.98s-19.979-8.945-19.979-19.98c-.001-11.035 8.944-19.98 19.979-19.98z" fill="#43a2ff"/><path d="m53.786 305.006c11.035 0 19.98 8.945 19.98 19.98 0 11.034-8.945 19.98-19.98 19.98s-19.979-8.945-19.979-19.98c-.001-11.035 8.944-19.98 19.979-19.98zm68.656 0c11.034 0 19.979 8.945 19.979 19.98 0 11.034-8.945 19.98-19.979 19.98-11.035 0-19.98-8.945-19.98-19.98s8.946-19.98 19.98-19.98z" fill="#ff6372"/></g><g><ellipse cx="339.459" cy="339.088" fill="#ffc328" rx="113.75" ry="113.75" transform="matrix(.707 -.707 .707 .707 -140.347 339.35)"/><path d="m339.459 225.338c62.823 0 113.75 50.928 113.75 113.751 0 40.26-20.916 75.635-52.474 95.852-61.804-12.367-108.371-66.928-108.371-132.371 0-27.557 8.264-53.181 22.438-74.542 7.94-1.757 16.189-2.69 24.657-2.69z" fill="#ffd54f"/><circle cx="339.459" cy="339.088" fill="#9ae7fd" r="89.005"/><path d="m339.459 250.084c49.156 0 89.005 39.849 89.005 89.005 0 39.364-25.557 72.755-60.981 84.498-44.514-22.07-75.119-67.966-75.119-121.018 0-15.015 2.455-29.456 6.979-42.948 12.055-6.098 25.683-9.537 40.116-9.537z" fill="#c9f0ff"/><path d="m340.174 284.402c0-4.142 3.358-7.5 7.5-7.5s7.5 3.358 7.5 7.5v45.802c4.463 2.59 7.465 7.42 7.465 12.952 0 8.265-6.7 14.965-14.965 14.965-1.334 0-2.626-.176-3.857-.503l-29.633 29.634c-2.928 2.928-7.677 2.928-10.606 0-2.928-2.928-2.928-7.677 0-10.605l29.633-29.634c-.327-1.23-.503-2.523-.503-3.857 0-5.532 3.002-10.362 7.465-12.952v-45.802z" fill="#64dcfc"/><path d="m318.724 382.711c-3.031-4.101-5.833-8.381-8.392-12.819l22.88-22.88c-.327-1.23-.503-2.523-.503-3.857 0-5.532 3.002-10.362 7.465-12.952v-45.801c0-4.142 3.358-7.5 7.5-7.5s7.5 3.358 7.5 7.5v45.802c4.463 2.59 7.465 7.42 7.465 12.952 0 8.265-6.7 14.965-14.965 14.965-1.334 0-2.626-.176-3.857-.503z" fill="#9ae7fd"/><circle cx="339.459" cy="339.088" fill="#43a2ff" r="14.965"/></g></g><path d="m470.998 435.43c-14.84 20.221-34.43 37-56.65 48.511-22.97 11.903-48.879 18.193-74.919 18.193-17.741 0-35.029-2.801-51.581-8.333l2.66 6.479c1.57 3.829-.259 8.21-4.088 9.79-.929.382-1.9.561-2.839.561-2.962 0-5.749-1.75-6.951-4.65l-9.351-22.782c-1.57-3.838.259-8.219 4.093-9.79l22.787-9.352c3.834-1.566 8.21.264 9.78 4.094 1.57 3.829-.259 8.21-4.088 9.79l-5.433 2.231c14.473 4.621 29.544 6.961 45.012 6.961 46.983 0 91.641-22.64 119.469-60.579 2.452-3.343 7.14-4.065 10.483-1.613 3.338 2.448 4.069 7.15 1.616 10.489zm-217.438 33.58c-1.471 2-3.74 3.07-6.05 3.07-1.542 0-3.089-.481-4.433-1.457-20.226-14.84-37.009-34.42-48.516-56.641-11.903-22.97-18.203-48.879-18.203-74.919 0-17.741 2.811-35.033 8.342-51.581l-6.484 2.659c-3.839 1.57-8.22-.259-9.785-4.093-1.575-3.829.259-8.206 4.089-9.785l22.777-9.351c3.829-1.57 8.224.259 9.794 4.098l9.347 22.782c1.57 3.829-.259 8.21-4.088 9.78-.934.382-1.901.571-2.853.571-2.948 0-5.749-1.764-6.937-4.664l-2.231-5.428c-4.621 14.473-6.97 29.549-6.97 45.012 0 46.978 22.65 91.637 60.588 119.469 3.344 2.447 4.06 7.14 1.613 10.478zm134.8-291.159c-1.58-3.839.25-8.22 4.088-9.79 3.829-1.57 8.21.259 9.781 4.088l9.351 22.782c.759 1.839.75 3.91-.009 5.739-.774 1.844-2.24 3.292-4.084 4.051l-22.777 9.351c-.929.377-1.891.561-2.839.561-2.952 0-5.754-1.754-6.942-4.65-1.58-3.834.25-8.22 4.089-9.795l5.432-2.226c-14.473-4.621-29.553-6.97-45.021-6.97-46.969 0-91.627 22.65-119.459 60.588-1.471 1.999-3.749 3.07-6.05 3.07-1.542 0-3.098-.481-4.428-1.462-3.343-2.447-4.074-7.14-1.613-10.478 14.831-20.231 34.42-37.009 56.641-48.52 22.97-11.907 48.869-18.198 74.91-18.198 17.75 0 35.029 2.806 51.581 8.328zm117.988 224.012-22.777 9.346c-.92.382-1.882.571-2.853.571-.986 0-1.966-.198-2.891-.575-1.839-.774-3.287-2.24-4.046-4.084l-9.351-22.782c-1.57-3.829.259-8.21 4.089-9.776 3.829-1.585 8.21.25 9.79 4.089l2.231 5.428c4.621-14.468 6.97-29.549 6.97-45.017 0-46.974-22.65-91.632-60.588-119.464-3.339-2.447-4.06-7.149-1.613-10.488 2.452-3.339 7.149-4.06 10.492-1.608 20.216 14.84 37 34.43 48.511 56.65 11.898 22.966 18.198 48.869 18.198 74.91 0 17.75-2.811 35.038-8.342 51.576l6.484-2.646c3.829-1.585 8.22.245 9.79 4.088 1.565 3.83-.26 8.211-4.094 9.782zm-166.919-56.071c-3.711 0-6.72-3.018-6.72-6.729s3.009-6.72 6.72-6.72 6.729 3.009 6.729 6.72-3.018 6.729-6.729 6.729zm-7.498-65.482v38.363c-8.29 3.061-14.223 11.049-14.223 20.391 0 3.259.721 6.338 2.009 9.106l-24.38 24.38c-2.928 2.933-2.928 7.682 0 10.61 1.462 1.462 3.381 2.202 5.301 2.202 1.924 0 3.843-.74 5.3-2.202l24.38-24.38c2.783 1.292 5.862 2.014 9.111 2.014 11.978 0 21.73-9.752 21.73-21.73 0-9.342-5.933-17.33-14.232-20.391v-38.363c0-4.136-3.348-7.498-7.498-7.498-4.14 0-7.498 3.362-7.498 7.498zm89.01 58.753c0-44.941-36.561-81.502-81.512-81.502-44.941 0-81.497 36.561-81.497 81.502 0 44.946 36.556 81.507 81.497 81.507 44.95 0 81.512-36.561 81.512-81.507zm-178.01 0c0 53.217 43.286 96.508 96.498 96.508 53.222 0 96.513-43.291 96.513-96.508 0-53.212-43.291-96.503-96.513-96.503-53.212 0-96.498 43.291-96.498 96.503zm202.749 0c0-58.579-47.662-106.25-106.251-106.25-58.579 0-106.251 47.671-106.251 106.25 0 58.589 47.672 106.251 106.251 106.251 58.589 0 106.251-47.662 106.251-106.251zm-227.502 0c0 66.86 54.401 121.251 121.251 121.251 66.86 0 121.251-54.392 121.251-121.251 0-66.85-54.392-121.251-121.251-121.251-66.85 0-121.251 54.401-121.251 121.251zm-164.42-1.622c-6.88 0-12.478-5.598-12.478-12.478s5.598-12.482 12.478-12.482 12.483 5.602 12.483 12.482-5.602 12.478-12.483 12.478zm0-39.961c-15.152 0-27.479 12.332-27.479 27.483 0 15.152 12.327 27.479 27.479 27.479s27.479-12.327 27.479-27.479-12.327-27.483-27.479-27.483zm68.662 39.961c-6.881 0-12.478-5.598-12.478-12.478s5.598-12.482 12.478-12.482 12.478 5.602 12.478 12.482c-.001 6.88-5.598 12.478-12.478 12.478zm0-39.961c-15.152 0-27.479 12.332-27.479 27.483 0 15.152 12.327 27.479 27.479 27.479 15.151 0 27.478-12.327 27.478-27.479s-12.327-27.483-27.478-27.483zm-68.662-34.689c-6.88 0-12.478-5.588-12.478-12.478 0-6.88 5.598-12.482 12.478-12.482s12.483 5.602 12.483 12.482c0 6.889-5.602 12.478-12.483 12.478zm0-39.957c-15.152 0-27.479 12.327-27.479 27.479 0 15.156 12.327 27.479 27.479 27.479s27.479-12.322 27.479-27.479c0-15.152-12.327-27.479-27.479-27.479zm68.662 39.957c-6.881 0-12.478-5.588-12.478-12.478 0-6.88 5.598-12.482 12.478-12.482s12.478 5.602 12.478 12.482c-.001 6.889-5.598 12.478-12.478 12.478zm0-39.957c-15.152 0-27.479 12.327-27.479 27.479 0 15.156 12.327 27.479 27.479 27.479 15.151 0 27.478-12.322 27.478-27.479 0-15.152-12.327-27.479-27.478-27.479zm0-34.684c-6.881 0-12.478-5.598-12.478-12.478s5.598-12.483 12.478-12.483 12.478 5.602 12.478 12.483c-.001 6.88-5.598 12.478-12.478 12.478zm0-39.961c-15.152 0-27.479 12.322-27.479 27.483 0 15.152 12.327 27.479 27.479 27.479 15.151 0 27.478-12.327 27.478-27.479 0-15.161-12.327-27.483-27.478-27.483zm68.647 39.961c-6.88 0-12.478-5.598-12.478-12.478s5.598-12.483 12.478-12.483 12.482 5.602 12.482 12.483c0 6.88-5.602 12.478-12.482 12.478zm27.483-12.478c0-15.161-12.322-27.483-27.483-27.483-15.147 0-27.479 12.322-27.479 27.483 0 15.152 12.332 27.479 27.479 27.479 15.161 0 27.483-12.327 27.483-27.479zm-164.792 12.478c-6.88 0-12.478-5.598-12.478-12.478s5.598-12.483 12.478-12.483 12.483 5.602 12.483 12.483c0 6.88-5.602 12.478-12.483 12.478zm0-39.961c-15.152 0-27.479 12.322-27.479 27.483 0 15.152 12.327 27.479 27.479 27.479s27.479-12.327 27.479-27.479c0-15.161-12.327-27.483-27.479-27.483zm-30.647-100.799h25.418v8.404c0 12.478 10.148 22.631 22.622 22.631 12.478 0 22.631-10.153 22.631-22.631v-8.404h34.689v8.404c0 12.478 10.148 22.631 22.631 22.631 12.478 0 22.631-10.153 22.631-22.631v-8.404h34.689v8.404c0 12.478 10.148 22.631 22.631 22.631 12.468 0 22.617-10.153 22.617-22.631v-8.404h34.689v8.404c0 12.478 10.162 22.631 22.631 22.631 12.483 0 22.631-10.153 22.631-22.631v-8.404h25.423c3.919 0 7.107 3.202 7.107 7.121v45.7h-350.152v-45.7c0-3.919 3.188-7.121 7.112-7.121zm40.418-23.391v31.794c0 4.206 3.419 7.63 7.621 7.63 4.206 0 7.63-3.424 7.63-7.63v-31.794c0-4.207-3.424-7.63-7.63-7.63-4.202 0-7.621 3.424-7.621 7.63zm79.942 0v31.794c0 4.206 3.419 7.63 7.63 7.63 4.207 0 7.63-3.424 7.63-7.63v-31.794c0-4.207-3.424-7.63-7.63-7.63-4.212 0-7.63 3.424-7.63 7.63zm79.95 0v31.794c0 4.206 3.419 7.63 7.63 7.63 4.197 0 7.616-3.424 7.616-7.63v-31.794c0-4.207-3.419-7.63-7.616-7.63-4.211 0-7.63 3.424-7.63 7.63zm79.937 0v31.794c0 4.206 3.433 7.63 7.63 7.63 4.211 0 7.63-3.424 7.63-7.63v-31.794c0-4.207-3.419-7.63-7.63-7.63-4.197 0-7.63 3.424-7.63 7.63zm-139.921 361.425h-140.326c-3.924 0-7.111-3.192-7.111-7.121v-263.091h350.149v42.06c0 4.141 3.362 7.498 7.503 7.498 4.136 0 7.498-3.358 7.498-7.498v-102.762c0-12.2-9.922-22.117-22.107-22.117h-25.423v-8.394c0-12.478-10.148-22.631-22.631-22.631-12.469 0-22.631 10.153-22.631 22.631v8.394h-34.689v-8.394c0-12.478-10.148-22.631-22.617-22.631-12.483 0-22.631 10.153-22.631 22.631v8.394h-34.689v-8.394c0-12.478-10.153-22.631-22.631-22.631-12.482 0-22.631 10.153-22.631 22.631v8.394h-34.689v-8.394c0-12.478-10.153-22.631-22.631-22.631-12.473 0-22.622 10.153-22.622 22.631v8.394h-25.417c-12.19 0-22.112 9.917-22.112 22.117v323.793c0 12.199 9.922 22.117 22.112 22.117h140.327c4.14 0 7.503-3.358 7.503-7.498-.001-4.15-3.363-7.498-7.504-7.498z"/></g></svg>