<svg id="Layer_1" viewBox="0 0 64 64" xmlns="http://www.w3.org/2000/svg"><path d="m61.55 41.91-2.55-1.91v-2.65c0-1.03-.29-2.01-.81-2.85s-1.27-1.54-2.19-2c-1.84-.92-3-2.8-3-4.85v-1.65l-17.81 6.87c-.36.13-.72.2-1.09.2-.81 0-1.6-.32-2.19-.91-.86-.86-1.14-2.14-.71-3.28l6.63-17.48c.29-.76.74-1.46 1.31-2.03s1.23-1 1.93-1.28c-.2-.61-1.55-4.09-6.54-4.09h-12.03c-1.57 0-3.06.74-4 2s-2.43 2-4 2c-3.59 0-6.5 2.91-6.5 6.5v.5h11v-4c0-.552.448-1 1-1s1 .448 1 1v4h3v-5c0-.552.448-1 1-1s1 .448 1 1v5h1v24h11v-3c0-.552.448-1 1-1s1 .448 1 1v3h3v-4c0-.552.448-1 1-1s1 .448 1 1v4h3v-7c0-.552.448-1 1-1s1 .448 1 1v7h3v22l2.29-.38c1.07-.18 2-.73 2.66-1.51s1.05-1.79 1.05-2.87c0-1.37.77-2.63 2-3.24s2-1.87 2-3.24v-4.95c0-1.14-.54-2.21-1.45-2.9zm-31.55-32.91c0-.552.448-1 1-1s1 .448 1 1v5c0 .552-.448 1-1 1s-1-.448-1-1zm0 9c0-.552.448-1 1-1s1 .448 1 1-.448 1-1 1-1-.448-1-1zm28 32c0 .552-.448 1-1 1s-1-.448-1-1v-5c0-.552.448-1 1-1s1 .448 1 1z" fill="#f7a539"/><path d="m53 38h-25v-23c0-.552-.448-1-1-1h-26c-.552 0-1 .448-1 1v48c0 .552.448 1 1 1h52c.552 0 1-.448 1-1v-24c0-.552-.448-1-1-1zm-51-22h24v22h-24zm0 24h24v22h-24zm50 22h-24v-22h24z"/><path d="m62.246 1.754c-1.126-1.131-2.625-1.754-4.221-1.754s-3.105.623-4.23 1.755c-.069.069-.127.147-.173.233l-4.288 8.012-1.337-1.337c-1.916-1.916-4.781-2.506-7.299-1.501-.846.339-1.608.844-2.265 1.501-.665.665-1.196 1.488-1.538 2.383l-6.63 17.481c-.566 1.5-.198 3.204.938 4.34.775.775 1.804 1.203 2.897 1.203.479 0 .946-.085 1.45-.267l17.807-6.869c.832-.317 1.325-.582 2.051-1.307 1.279-1.279 1.983-2.979 1.983-4.787 0-1.79-.703-3.485-1.984-4.778l-1.339-1.333 7.947-4.31c.085-.046.164-.104.232-.173 1.131-1.137 1.753-2.645 1.753-4.246s-.623-3.109-1.753-4.246zm-12.667 11.32 1.416 1.416-3.533 3.533c-.388.387-1.038.378-1.416 0-.39-.39-.39-1.025 0-1.416zm4.413 11.139c-.479.478-.717.611-1.353.854l-17.79 6.863c-.863.311-1.661.095-2.233-.477-.582-.582-.771-1.453-.482-2.219l6.629-17.478c.241-.631.616-1.212 1.083-1.679.464-.465 1.001-.821 1.593-1.059 1.773-.708 3.791-.292 5.143 1.059l1.583 1.583-3.534 3.533c-1.169 1.17-1.169 3.074 0 4.244.569.569 1.325.883 2.127.883.796 0 1.548-.313 2.117-.883l3.535-3.534 1.578 1.571c.903.911 1.4 2.106 1.4 3.366 0 1.274-.496 2.472-1.397 3.373zm6.932-15.478-8.335 4.521-1.777-1.778 4.501-8.409c.735-.69 1.693-1.068 2.713-1.068 1.06 0 2.055.414 2.803 1.166.755.759 1.171 1.766 1.171 2.834 0 1.022-.381 1.988-1.075 2.735z"/><path d="m23 51c-.552 0-1 .448-1 1v6h-4c-.552 0-1 .448-1 1s.448 1 1 1h5c.552 0 1-.448 1-1v-7c0-.552-.448-1-1-1z"/><path d="m44 60h5c.552 0 1-.448 1-1v-7c0-.552-.448-1-1-1s-1 .448-1 1v6h-4c-.552 0-1 .448-1 1s.448 1 1 1z"/><path d="m23 27c-.552 0-1 .448-1 1v6h-4c-.552 0-1 .448-1 1s.448 1 1 1h5c.552 0 1-.448 1-1v-7c0-.552-.448-1-1-1z"/><circle cx="14" cy="59" r="1"/><circle cx="40" cy="59" r="1"/><circle cx="14" cy="35" r="1"/><ellipse cx="57.956" cy="6" rx=".995" ry="1"/></svg>