<svg id="Layer_1" enable-background="new 0 0 512 512" viewBox="0 0 512 512" xmlns="http://www.w3.org/2000/svg"><g clip-rule="evenodd" fill-rule="evenodd"><path d="m52.13 402.07h400.31l-76.48-365.78c-82.46 0-164.89 0-247.35 0z" fill="#785038"/><path d="m441.61 350.31-65.65-314.02h-217.25c18.46 156.9 133.8 283.18 282.9 314.02z" fill="#946e46"/><g fill="#a36032"><path d="m399.66 149.62-23.7-113.33h-95.64c-3.43 9.35-2.72 19.98 2.89 28.83 2.35 3.69 4.82 7.88 8.53 9.72 21.54 10.57 17.89 15.42 25.65 38.49 5.73 16.98 39.91 8.16 48.53 21.74 7.26 11.49 20.7 16.76 33.74 14.55z"/><path d="m52.13 402.07h42.89c5.05-8.25 7.97-17.86 7.97-28.15 0-26.99 56.41-45.24 49.27-74.47-9.72-39.71-19.25-43.28 1.76-77.64 3.63-5.95 3.37-14.12 3.37-21.46 0-28.63-22.54-52.21-51.53-55.22z"/><path d="m315.07 402.07h75.74c.88-5.19 3.15-10.35 6.97-15.31 10.12-13.01 10.6-25.99 1.39-38.89-10.91-15.34-24.66-41.27-7.26-52.44 15.87-10.2 20.78 3.91 41.56 15.93l-13.04-62.28c-41.05-11.85-39-38.27-64.6-44.48-30.5-7.37-50.63 11.88-35.63 50.31 17.89 35.09 21.66 68 15.76 105.31-3.06 19.43-17.34 25.95-20.89 41.85z"/></g><path d="m219.06 486.29h233.38v-84.22h-233.38v24.92h14.83c9.47 0 17.21 7.74 17.21 17.18v.03c0 9.44-7.74 17.18-17.21 17.18h-14.83z" fill="#efc27f"/><path d="m251.09 444.2h201.34v-42.12h-233.37v24.92h14.83c9.47 0 17.21 7.74 17.21 17.18v.02z" fill="#e3a431"/><path d="m52.13 402.07h166.93v24.92h14.83c9.47 0 17.21 7.74 17.21 17.18v.03c0 9.44-7.74 17.18-17.21 17.18h-14.83v24.92h-166.93z" fill="#efc27f"/><path d="m52.13 402.07h166.93v24.92h14.83c9.47 0 17.21 7.74 17.21 17.18v.03h-198.97z" fill="#e3a431"/><path d="m212.06 36.29h14v365.78h-14z" fill="#a36032"/></g></svg>