<svg id="Layer_1" enable-background="new 0 0 53 53" viewBox="0 0 53 53" xmlns="http://www.w3.org/2000/svg"><g><path d="m2.734277 49.4129639c.7299995 1.007019 1.8649981 1.5840454 3.1160014 1.5840454h7.0029979c.0060005 0 .012001.0029907.0179977.0029907h6.3400049c.0029984 0 .0059967-.0029907.0099983-.0029907h3.2989998c.0039978 0 .007.0029907.0100021.0029907h3.4599991c.0039978 0 .0069962-.0029907.0110016-.0029907h15.5389996c.0039978 0 .0069961.0029907.0099945.0029907h3.451004c.0039978 0 .0059967-.0029907.0099945-.0029907h2.1390076c1.2709961 0 2.4570007-.6260376 3.1719971-1.6750488.7160034-1.0479736.8669968-2.3809814.4029999-3.565979l-4.2279968-10.8540039c0-.0009766 0-.0020142-.0010071-.0029907l-1.1589966-2.9799805c-.0009995-.0029907-.0039978-.0050049-.0050049-.0079956l-1.8059998-4.6360474c-.571991-1.4639893-2.0139923-2.447998-3.5859985-2.447998h-2.5579987c2.2519989-3.7839966 3.4089966-6.8349609 3.4089966-9.0570068 0-7.5929566-6.1779938-13.7699586-13.7699947-13.7699586-7.5929985 0-13.7700014 6.177002-13.7700014 13.7699585 0 2.493042 1.4590034 5.7810059 3.4030008 9.0570068h-3.6050005c-.5410004 0-1.0589981.1140137-1.5219994.3290405-.9560013.401001-1.6879997 1.1539917-2.0629997 2.1189575l-7.194 18.4660035c-.0340004.0790405-.0750008.1870117-.0760002.2410278-.0079994.0250244-.007.0499878-.0149994.0759888-.0009995.0050049-.0030022.007019-.0040016.0120239 0 .0009766.0009995.0019531.0009995.0039673-.3459968 1.1500244-.1509972 2.3619995.5580024 3.3389893m18.3510025.5840454.4399986-.2529907.144001.2529907zm5.1929969 0-1.2849998-2.2420044 10.8329983-6.2319946 4.8600006 8.473999zm23.5160008-3.8779907c.3479996.8909912.2399979 1.8529663-.2969971 2.6399536-.5380096.7869873-1.3930054 1.2380371-2.3470001 1.2380371h-1.8610077l-5.9960022-10.4630127 6.4820099-3.7299805zm-9.8540039-20.2920533c1.1640015 0 2.2310028.7280273 2.654007 1.8120117l1.6529999 4.2420044-7.0210037 4.0360107-3.3320007-5.8179932c.5419998-.7550049 1.090004-1.5350342 1.6330032-2.3330078.4229965-.6370239.8409958-1.2860107 1.2480011-1.9390259h3.1649932zm-25.6889982-10.0570068c0-7.0409546 5.7280016-12.7699585 12.7700014-12.7699585 7.0409985 0 12.7699947 5.7290039 12.7699947 12.7699585 0 2.1830444-1.25 5.3110352-3.7159958 9.2970581-.4469986.7259521-.9140015 1.440979-1.3779984 2.1409912-.5970001.8759766-1.2040024 1.7420044-1.8010025 2.5679932-.6660004.9140015-1.3219967 1.7890015-1.9579983 2.5939941v.0009766c-.0009995 0-.0009995.0010376-.0009995.0010376-1.2689972 1.625-2.4069977 2.992981-3.1380005 3.8549805-.3929977.4609985-1.1689987.4580078-1.5540009.0029907l-.3429985-.4099731c-.4939995-.5900269-1.0909996-1.3040161-1.7439995-2.1260376-.6170006-.7559814-1.2730026-1.6009521-1.9589996-2.5059814-.0009995-.0009766-.0009995-.0009766-.0009995-.0009766-3.6259992-4.7870484-7.9470031-11.3460084-7.9470031-15.4170533m17.0140047 17.7990112 2.4929943 4.3460083-10.8329983 6.2319946-3.9119987-6.822998 4.6380005-2.6679688c.5460014.6789551 1.0580025 1.2959595 1.4839973 1.8059692l.3440018.4110107c.3860016.4559937.947998.7160034 1.5419998.7160034.5930023 0 1.1549988-.2600098 1.5410004-.7160034.6459998-.7620238 1.6139984-1.929016 2.7030029-3.304016m-18.2160044-7.7420044h4.2130022c1.1990013 1.9260254 2.5299988 3.8140259 3.7999992 5.5110474l-4.1259995 2.3689575-4.4820032-7.8120117c.1930009-.0439453.3910027-.0679932.5950013-.0679932m-3.2829971 3.427002 3.7019958 6.4510498-8.0089989 4.605957zm-4.8840022 12.5419922 9.5180016-5.4729614c.2389984-.1370239.3209991-.4420166.1839981-.6820068l-4.3509985-7.5820313.1639977-.4179688c.012001-.0319824.0300026-.0599976.0440025-.09198.0529976-.1240234.1119995-.2440186.1809998-.3569946.0369987-.0599976.079998-.1150513.1209984-.1720581.0590019-.0819702.1199989-.1609497.1870003-.2359619.0480003-.052002.0970001-.1019897.1479988-.151001.0780029-.072998.1610031-.1409912.2470016-.2059937.0509987-.0369873.0979996-.0770264.1520004-.1110229.0159988-.0100098.0340004-.0180054.0499992-.0280151l4.7900019 8.3500366c.0659981.1159668.1749992.2000122.3029976.2340088.1270027.0339966.2639999.0169678.3800011-.0490112l4.6690025-2.6810303c.2439957.3210449.4839973.632019.7199974.9349976.0369987.0480347.0730019.092041.1100006.1380005.1730003.2220459.3460007.4430542.5149994.6540527l-4.9329987 2.8369751c-.2390022.1380005-.321003.4429932-.1840019.6820068l4.4100037 7.6900024c.0659981.1149902.1749954.2000122.3029976.2349854.1280022.03302.2649994.0170288.3800011-.0499878l11.699995-6.7300415c.2389984-.1369629.3209991-.4429932.1840057-.6819458l-2.9419994-5.1280518c.0729961-.0929565.149992-.197998.2229977-.2939453.3030014-.3920288.6090012-.7950439.9189987-1.2120361.0579987-.0800171.1159973-.151001.1750031-.2310181l3.3580017 5.8619995c.0659943.1160278.1749954.1990356.3029938.2340088.1289978.0360107.2660065.0170288.3800049-.0489502l7.3239975-4.2090454.7939987 2.0369873-7.0469971 4.0550537c-.2389984.1380005-.3209991.4429932-.1840057.6819458l5.9589996 10.3990479h-2.2969971l-5.3950043-9.4060059c-.0659943-.1149902-.1749954-.1990356-.3029938-.2340088-.1269989-.03302-.2640076-.0170288-.3800049.0490112l-11.699995 6.7299805c-.2389984.1380005-.3209991.4429932-.1839981.6820068l1.2490005 2.1790161h-2.307003l-.6739998-1.1849976c-.0660019-.1150513-.1749992-.2000122-.3030014-.2350464-.1279984-.0339966-.2649994-.0169678-.3809967.0500488l-2.3790016 1.3699951h-4.3360033l5.6340036-3.2440186c.2389984-.1370239.3209991-.4420166.1839981-.6820068l-4.4099998-7.6900024c-.0659981-.1149902-.1750002-.1989746-.3029985-.2340088-.1300011-.0339966-.2649994-.0159912-.3800011.0490112l-11.8419988 6.8150026zm-1.7719996 4.6680298 12.4259987-7.151001 3.9120035 6.822998-6.7060022 3.8610229h-6.8919981c-.927002 0-1.7670021-.427002-2.3060038-1.1710205-.5029984-.6929931-.6469994-1.5440063-.4339981-2.3619994"/><path d="m27.0208797 21.3798218c3.3800011 0 6.1299953-2.75 6.1299953-6.1300049s-2.7499942-6.1300049-6.1299953-6.1300049-6.1300011 2.75-6.1300011 6.1300049 2.7500001 6.1300049 6.1300011 6.1300049m0-11.2600098c2.8289986 0 5.1299953 2.3010254 5.1299953 5.1300049s-2.3009968 5.1300049-5.1299953 5.1300049-5.1300011-2.3010254-5.1300011-5.1300049 2.3010026-5.1300049 5.1300011-5.1300049"/></g></svg>