<svg id="Capa_1" enable-background="new 0 0 512 512" viewBox="0 0 512 512" xmlns="http://www.w3.org/2000/svg"><g><path d="m276.541 12.5c0-2.761-2.239-5-5-5h-31.062l-15.531 15.531-15.532-15.531h-31.062c-2.761 0-5 2.239-5 5v88.188l30.415 14.119 72.773-14.119v-88.188z" fill="#ffd15b"/><path d="m271.547 7.5h-10v63.044c0 8.364-6.78 15.144-15.144 15.144h-73.043v15l30.415 14.119 72.773-14.119v-88.188c-.001-2.761-2.239-5-5.001-5z" fill="#ffc344"/><path d="m224.947 224.936 108.719-15.53v-103.718c0-2.761-2.239-5-5-5h-26.062l-15.531 15.531-15.531-15.531h-31.062z" fill="#f6ab31"/><path d="m240.478 224.938-124.25-15.531v-103.719c0-2.761 2.239-5 5-5h119.25z" fill="#feb237"/><g fill="#ac5e2e"><path d="m54.103 473.438-15.531 15.531-15.531-15.531v-46.594l15.531-15.532 15.531 15.532z"/><path d="m240.478 473.438-15.531 15.531-15.531-15.531v-46.594l15.531-15.532 15.531 15.532z"/><path d="m426.853 473.438-15.531 15.531-15.531-15.531v-46.594l15.531-15.532 15.531 15.532z"/></g><path d="m437.385 504.5h-424.875c-2.761 0-5-2.239-5-5v-21.062c0-2.761 2.239-5 5-5h424.875c2.761 0 5 2.239 5 5v21.062c0 2.761-2.239 5-5 5z" fill="#c86d36"/><path d="m380.26 395.781-186.375 15.531 15.531-201.906h165.844c2.761 0 5 2.239 5 5z" fill="#ffc344"/><path d="m274.041 131.75h26.062c1.381 0 2.5-1.119 2.5-2.5v-28.562h-31.062v28.562c0 1.381 1.119 2.5 2.5 2.5z" fill="#fff3be"/><path d="m69.634 395.781 62.125 15.531 77.656-15.531v-186.375h-46.594l-15.531 15.531-31.062-15.531h-41.594c-2.761 0-5 2.239-5 5z" fill="#ffd15b"/><path d="m437.385 426.844h-424.875c-2.761 0-5-2.239-5-5v-21.062c0-2.761 2.239-5 5-5h424.875c2.761 0 5 2.239 5 5v21.062c0 2.761-2.239 5-5 5z" fill="#c86d36"/><path d="m160.322 256h-41.594c-1.381 0-2.5-1.119-2.5-2.5v-44.094h46.594v44.094c0 1.381-1.119 2.5-2.5 2.5z" fill="#fff3be"/><path d="m346.697 364.719h-41.594c-1.381 0-2.5-1.119-2.5-2.5v-26.062c0-1.381 1.119-2.5 2.5-2.5h41.594c1.381 0 2.5 1.119 2.5 2.5v26.062c0 1.38-1.119 2.5-2.5 2.5z" fill="#eaf6ff"/><path d="m237.978 38.562h-26.062c-1.381 0-2.5-1.119-2.5-2.5v-28.562h31.062v28.562c0 1.381-1.119 2.5-2.5 2.5z" fill="#fff3be"/><path d="m474.551 312.796-42.223-42.223c-1.621-1.621-1.917-4.126-.748-6.098 7.087-11.957 11.057-25.978 10.792-40.946-.736-41.545-34.625-75.464-76.17-76.234-44.055-.816-79.933 35.061-79.116 79.116.77 41.545 34.689 75.434 76.234 76.17 14.967.265 28.989-3.705 40.946-10.792 1.972-1.169 4.477-.872 6.098.748l42.223 42.223z" fill="#d8ecfe"/><circle cx="364.728" cy="224.938" fill="#46cc8d" r="46.594"/><path d="m428.467 322.616 41.7 41.7c1.843 1.843 4.831 1.843 6.674 0l26.273-26.273c1.843-1.843 1.843-4.831 0-6.674l-41.7-41.7c-1.843-1.843-4.831-1.843-6.674 0l-26.273 26.273c-1.842 1.843-1.842 4.831 0 6.674z" fill="#c86d36"/><path d="m295.103 336.156v26.062c0 5.514 4.486 10 10 10h41.594c5.514 0 10-4.486 10-10v-26.062c0-5.514-4.486-10-10-10h-41.594c-5.513 0-10 4.486-10 10zm15 5h31.594v16.062h-31.594z"/><path d="m364.728 170.844c-29.827 0-54.094 24.267-54.094 54.094s24.267 54.094 54.094 54.094 54.094-24.267 54.094-54.094-24.267-54.094-54.094-54.094zm0 93.187c-21.557 0-39.094-17.538-39.094-39.094s17.537-39.094 39.094-39.094 39.094 17.538 39.094 39.094-17.537 39.094-39.094 39.094z"/><path d="m508.418 326.065-41.7-41.699c-2.308-2.309-5.376-3.58-8.641-3.58-1.453 0-2.867.253-4.193.736l-14.89-14.89c7.391-13.142 11.146-28.047 10.877-43.236-.391-22.045-9.26-42.848-24.975-58.576s-36.511-24.616-58.556-25.024c-8.648-.164-17.109.949-25.175 3.256v-37.365c0-6.893-5.607-12.5-12.5-12.5h-44.625v-80.687c0-6.893-5.607-12.5-12.5-12.5h-93.188c-6.893 0-12.5 5.607-12.5 12.5v80.688h-44.625c-6.893 0-12.5 5.607-12.5 12.5v26.323c0 4.142 3.358 7.5 7.5 7.5s7.5-3.358 7.5-7.5v-23.823h109.25v93.724l-109.25-.005v-34.896c0-4.142-3.358-7.5-7.5-7.5s-7.5 3.358-7.5 7.5v34.896h-34.092c-6.893 0-12.5 5.607-12.5 12.5v173.875h-49.625c-6.893 0-12.5 5.607-12.5 12.5v21.062c0 6.893 5.607 12.5 12.5 12.5h3.031v31.594h-3.031c-6.893 0-12.5 5.607-12.5 12.5v21.062c0 6.893 5.607 12.5 12.5 12.5h424.875c6.893 0 12.5-5.607 12.5-12.5v-21.062c0-6.893-5.607-12.5-12.5-12.5h-3.031v-31.594h3.031c6.893 0 12.5-5.607 12.5-12.5v-21.062c0-6.893-5.607-12.5-12.5-12.5h-49.63v-81.349c6.489-1.817 12.756-4.405 18.668-7.729l14.506 14.506c-2.348 4.592-1.603 10.37 2.236 14.21l41.7 41.699c2.308 2.309 5.376 3.58 8.641 3.58s6.333-1.271 8.641-3.579l26.272-26.273c4.762-4.765 4.762-12.516-.001-17.282zm-229.377-217.877h16.062v16.062h-16.062zm-62.125-93.188h16.062v16.062h-16.062zm-36.063 78.188v-78.188h21.062v21.062c0 5.514 4.486 10 10 10h26.062c5.514 0 10-4.486 10-10v-21.062h21.062v78.188zm67.125 15h16.062v21.062c0 5.514 4.486 10 10 10h26.062c5.514 0 10-4.486 10-10v-21.062h16.062v40.766c-7.891 4.019-15.191 9.309-21.652 15.77-10.529 10.529-17.943 23.274-21.82 37.188h-34.715v-93.724zm-124.25 108.718h31.594v31.594h-31.594zm-46.593 0h31.594v36.594c0 5.514 4.486 10 10 10h41.594c5.514 0 10-4.486 10-10v-36.594h31.594v171.375h-124.782zm-46.594 217.438h16.062v31.594h-16.062zm404.344 62.656h-419.875v-16.062h77.922c4.142 0 7.5-3.358 7.5-7.5s-3.358-7.5-7.5-7.5h-31.329v-31.594h140.312v31.594h-73.984c-4.142 0-7.5 3.358-7.5 7.5s3.358 7.5 7.5 7.5h306.953v16.062zm-201.907-62.656v31.594h-16.062v-31.594zm155.313 0v31.594h-140.313v-31.594zm31.062 31.594h-16.062v-31.594h16.062zm15.532-46.594h-419.875v-16.062h419.875zm-34.444-134.007c-11.146 6.606-23.934 9.985-36.989 9.745-5.541-.098-11.057-.856-16.393-2.256-4.005-1.052-8.105 1.345-9.157 5.352-1.051 4.007 1.346 8.106 5.353 9.157 6.49 1.703 13.197 2.626 19.933 2.745 3.208.056 6.401-.068 9.567-.366v78.568h-155.839v-171.37h63.024c-.293 3.179-.413 6.395-.353 9.639.443 23.944 11.157 46.771 29.394 62.629 3.125 2.718 7.863 2.388 10.58-.738 2.719-3.126 2.388-7.863-.738-10.581-15.039-13.077-23.873-31.88-24.238-51.588-.349-18.788 6.613-37.02 20.535-50.942 13.588-13.588 31.648-20.884 50.943-20.536 37.282.691 68.149 31.585 68.81 68.869.231 13.051-3.138 25.841-9.744 36.987-2.921 4.926-2.142 11.188 1.896 15.226l15.451 15.452-11.357 11.357-15.451-15.45c-4.037-4.039-10.298-4.82-15.227-1.899zm73.064 71.709-37.768-37.767 22.34-22.34 37.768 37.767z"/><path d="m372.802 211.749-13.564 13.564-4.706-4.707c-2.929-2.929-7.678-2.931-10.606-.001-2.93 2.929-2.93 7.677-.001 10.606l10.01 10.011c2.929 2.929 7.677 2.929 10.607 0l18.868-18.868c2.929-2.929 2.929-7.677 0-10.606-2.93-2.928-7.678-2.929-10.608.001z"/><path d="m162.822 185.844c4.142 0 7.5-3.358 7.5-7.5s-3.358-7.5-7.5-7.5h-15.531c-4.142 0-7.5 3.358-7.5 7.5s3.358 7.5 7.5 7.5z"/></g><g/><g/><g/><g/><g/><g/><g/><g/><g/><g/><g/><g/><g/><g/><g/></svg>