<svg fill="none" height="512" viewBox="0 0 24 24" width="512" xmlns="http://www.w3.org/2000/svg"><path clip-rule="evenodd" d="m2 12c0-5.52285 4.47715-10 10-10 5.5228 0 10 4.47715 10 10 0 5.5228-4.4772 10-10 10-5.52285 0-10-4.4772-10-10zm6.29289-1.7071c.39053-.39053 1.02369-.39053 1.41422 0l2.29289 2.2929 2.2929-2.2929c.3905-.39053 1.0237-.39053 1.4142 0 .3905.3905.3905 1.0237 0 1.4142l-2.6002 2.6002c-.6113.6113-1.6025.6113-2.2138 0l-2.60021-2.6002c-.39052-.3905-.39052-1.0237 0-1.4142z" fill="rgb(0,0,0)" fill-rule="evenodd"/></svg>