<svg height="512" viewBox="0 0 64 64" width="512" xmlns="http://www.w3.org/2000/svg"><g id="Add"><path d="m6 59a5.006 5.006 0 0 1 -5-5v-38a5.006 5.006 0 0 1 5-5h2v2.831a3.143 3.143 0 0 0 2.781 3.161c.072 0 .144.008.215.008a3.027 3.027 0 0 0 2.125-.88 2.98 2.98 0 0 0 .879-2.12v-3h8v2.831a3.143 3.143 0 0 0 2.781 3.161c.072 0 .143.008.215.008a3.027 3.027 0 0 0 2.125-.88 2.98 2.98 0 0 0 .879-2.12v-3h8v2.831a3.143 3.143 0 0 0 2.781 3.161c.073 0 .144.008.216.008a3 3 0 0 0 3-3v-3h8v2.831a3.143 3.143 0 0 0 2.781 3.161c.073 0 .144.008.215.008a3 3 0 0 0 3-3v-3h2a5.006 5.006 0 0 1 5 5v31a12.013 12.013 0 0 1 -11.993 12z" fill="#e6edff"/><path d="m58 11h-2v3a3 3 0 0 1 -3 3c-.071 0-.142 0-.215-.008a3.143 3.143 0 0 1 -2.785-3.161v-2.831h-8v3a3 3 0 0 1 -3 3c-.072 0-.143 0-.216-.008a3.143 3.143 0 0 1 -2.784-3.161v-2.831h-8v3a2.98 2.98 0 0 1 -.879 2.12 3.027 3.027 0 0 1 -2.121.88c-.072 0-.143 0-.215-.008a3.143 3.143 0 0 1 -2.785-3.161v-2.831h-8v3a2.98 2.98 0 0 1 -.879 2.12 3.027 3.027 0 0 1 -2.121.88c-.071 0-.143 0-.215-.008a3.143 3.143 0 0 1 -2.785-3.161v-2.831h-2a5.006 5.006 0 0 0 -5 5v5h62v-5a5.006 5.006 0 0 0 -5-5z" fill="#e63b47"/><path d="m30 50h4v4h-4z" fill="#a8b7d4"/><path d="m22 50h4v4h-4z" fill="#a8b7d4"/><path d="m14 50h4v4h-4z" fill="#a8b7d4"/><path d="m6 50h4v4h-4z" fill="#a8b7d4"/><path d="m30 42h4v4h-4z" fill="#a8b7d4"/><path d="m22 42h4v4h-4z" fill="#a8b7d4"/><path d="m14 42h4v4h-4z" fill="#a8b7d4"/><path d="m6 42h4v4h-4z" fill="#a8b7d4"/><path d="m30 34h4v4h-4z" fill="#a8b7d4"/><path d="m22 34h4v4h-4z" fill="#a8b7d4"/><path d="m14 34h4v4h-4z" fill="#a8b7d4"/><path d="m6 34h4v4h-4z" fill="#a8b7d4"/><circle cx="51" cy="47" fill="#4aa4f2" r="12"/><path d="m11 17a3 3 0 0 1 -3-3v-6a3 3 0 0 1 6 0v6a3 3 0 0 1 -3 3z" fill="#4aa4f2"/><path d="m25 17a3 3 0 0 1 -3-3v-6a3 3 0 0 1 6 0v6a3 3 0 0 1 -3 3z" fill="#4aa4f2"/><path d="m39 17a3 3 0 0 1 -3-3v-6a3 3 0 0 1 6 0v6a3 3 0 0 1 -3 3z" fill="#4aa4f2"/><path d="m53 17a3 3 0 0 1 -3-3v-6a3 3 0 0 1 6 0v6a3 3 0 0 1 -3 3z" fill="#4aa4f2"/><g fill="#222128"><path d="m34 49h-4a1 1 0 0 0 -1 1v4a1 1 0 0 0 1 1h4a1 1 0 0 0 1-1v-4a1 1 0 0 0 -1-1zm-1 4h-2v-2h2z"/><path d="m26 49h-4a1 1 0 0 0 -1 1v4a1 1 0 0 0 1 1h4a1 1 0 0 0 1-1v-4a1 1 0 0 0 -1-1zm-1 4h-2v-2h2z"/><path d="m18 49h-4a1 1 0 0 0 -1 1v4a1 1 0 0 0 1 1h4a1 1 0 0 0 1-1v-4a1 1 0 0 0 -1-1zm-1 4h-2v-2h2z"/><path d="m10 49h-4a1 1 0 0 0 -1 1v4a1 1 0 0 0 1 1h4a1 1 0 0 0 1-1v-4a1 1 0 0 0 -1-1zm-1 4h-2v-2h2z"/><path d="m35 42a1 1 0 0 0 -1-1h-4a1 1 0 0 0 -1 1v4a1 1 0 0 0 1 1h4a1 1 0 0 0 1-1zm-2 3h-2v-2h2z"/><path d="m27 42a1 1 0 0 0 -1-1h-4a1 1 0 0 0 -1 1v4a1 1 0 0 0 1 1h4a1 1 0 0 0 1-1zm-2 3h-2v-2h2z"/><path d="m19 42a1 1 0 0 0 -1-1h-4a1 1 0 0 0 -1 1v4a1 1 0 0 0 1 1h4a1 1 0 0 0 1-1zm-2 3h-2v-2h2z"/><path d="m11 42a1 1 0 0 0 -1-1h-4a1 1 0 0 0 -1 1v4a1 1 0 0 0 1 1h4a1 1 0 0 0 1-1zm-2 3h-2v-2h2z"/><path d="m35 34a1 1 0 0 0 -1-1h-4a1 1 0 0 0 -1 1v4a1 1 0 0 0 1 1h4a1 1 0 0 0 1-1zm-2 3h-2v-2h2z"/><path d="m38 33a1 1 0 0 0 -1 1v4a1 1 0 0 0 2 0v-3h3a1 1 0 0 0 0-2z"/><path d="m27 34a1 1 0 0 0 -1-1h-4a1 1 0 0 0 -1 1v4a1 1 0 0 0 1 1h4a1 1 0 0 0 1-1zm-2 3h-2v-2h2z"/><path d="m19 34a1 1 0 0 0 -1-1h-4a1 1 0 0 0 -1 1v4a1 1 0 0 0 1 1h4a1 1 0 0 0 1-1zm-2 3h-2v-2h2z"/><path d="m11 34a1 1 0 0 0 -1-1h-4a1 1 0 0 0 -1 1v4a1 1 0 0 0 1 1h4a1 1 0 0 0 1-1zm-2 3h-2v-2h2z"/><path d="m59 30a1 1 0 0 0 -1-1h-52a1 1 0 0 0 0 2h52a1 1 0 0 0 1-1z"/><path d="m6 27h4a1 1 0 0 0 0-2h-4a1 1 0 0 0 0 2z"/><path d="m18 27a1 1 0 0 0 0-2h-4a1 1 0 0 0 0 2z"/><path d="m26 27a1 1 0 0 0 0-2h-4a1 1 0 0 0 0 2z"/><path d="m34 27a1 1 0 0 0 0-2h-4a1 1 0 0 0 0 2z"/><path d="m42 27a1 1 0 0 0 0-2h-4a1 1 0 0 0 0 2z"/><path d="m50 27a1 1 0 0 0 0-2h-4a1 1 0 0 0 0 2z"/><path d="m58 25h-4a1 1 0 0 0 0 2h4a1 1 0 0 0 0-2z"/><path d="m58 10h-1v-2a4 4 0 0 0 -8 0v2h-6v-2a4 4 0 0 0 -8 0v2h-6v-2a4 4 0 0 0 -8 0v2h-6v-2a4 4 0 0 0 -8 0v2h-1a6.006 6.006 0 0 0 -6 6v38a6.006 6.006 0 0 0 6 6h45a12.993 12.993 0 1 0 -10.561-5.415 1 1 0 1 0 1.622-1.17 10.9 10.9 0 0 1 -2.061-6.415 11 11 0 1 1 11 11h-45a4 4 0 0 1 -4-4v-32h60v13a1 1 0 0 0 2 0v-19a6.006 6.006 0 0 0 -6-6zm-7-2a2 2 0 0 1 4 0v6a2 2 0 0 1 -4 0zm-14 0a2 2 0 0 1 4 0v6a2 2 0 0 1 -4 0zm-14 0a2 2 0 0 1 4 0v6a2 2 0 0 1 -4 0zm-14 0a2 2 0 0 1 4 0v6a2 2 0 0 1 -4 0zm-7 12v-4a4 4 0 0 1 4-4h1v2a4 4 0 0 0 8 0v-2h6v2a4 4 0 0 0 8 0v-2h6v2a4 4 0 0 0 8 0v-2h6v2a4 4 0 0 0 8 0v-2h1a4 4 0 0 1 4 4v4z"/><path d="m51 41a1 1 0 0 0 -1 1v4h-4a1 1 0 0 0 0 2h4v4a1 1 0 0 0 2 0v-4h4a1 1 0 0 0 0-2h-4v-4a1 1 0 0 0 -1-1z"/></g></g></svg>