<svg id="Layer_1" height="512" viewBox="0 0 64 64" width="512" xmlns="http://www.w3.org/2000/svg" data-name="Layer 1"><path d="m58.11 47.5a1.57 1.57 0 0 1 -.26-.19 5.48 5.48 0 0 1 -2.26-3.59l-3.85-23.14a2.6 2.6 0 0 0 -.85-1.5 2.54 2.54 0 0 0 -1.62-.59 2.5 2.5 0 0 0 -2.5 2.5v16.01a2.77 2.77 0 0 0 -2.77 2.72v11.82a5.26 5.26 0 0 0 1.15 3.37c1.1 1.32 3.23 2.68 7.29 2.42a3.62 3.62 0 0 1 1.65.31l3.76 1.65 5.15 2.27v-11.69z" fill="#ffd199"/><path d="m41 17v-14a1 1 0 0 0 -1-1h-16a1 1 0 0 0 -1 1v14a1 1 0 0 0 1 1h7l9 6-3-6h3a1 1 0 0 0 1-1z" fill="#ff7375"/><path d="m21 56v-3l-19 5 19-10v-4h13v12z" fill="#f2f2f2"/><path d="m13 41-11 13 6-13h-4v-11h14v11z" fill="#f2f2f2"/><path d="m49.27 19.49a1.54 1.54 0 0 1 1 .35 1.61 1.61 0 0 1 .51.9l3.82 23.14a6.48 6.48 0 0 0 2.64 4.22 1.94 1.94 0 0 0 .43.3l4.89 2.37.88-1.8-4.85-2.35a.24.24 0 0 1 -.08-.06l-.09-.07a4.44 4.44 0 0 1 -1.84-2.93l-3.86-23.16a3.66 3.66 0 0 0 -1.19-2.09 3.51 3.51 0 0 0 -5.76 2.69v15.1a3.77 3.77 0 0 0 -2.77 3.62v11.82a6.23 6.23 0 0 0 1.38 4c1.19 1.46 3.62 3.08 8.11 2.79a2.7 2.7 0 0 1 1.2.23l8.91 3.92.8-1.83-8.9-3.92a4.61 4.61 0 0 0 -2.12-.4c-3 .19-5.18-.52-6.46-2.06a4.26 4.26 0 0 1 -.92-2.73v-11.82a1.77 1.77 0 0 1 1.77-1.72 1.76 1.76 0 0 1 1.77 1.77v8.23h2v-8.28a3.73 3.73 0 0 0 -2.77-3.62v-15.1a1.5 1.5 0 0 1 1.5-1.51z"/><path d="m42 17v-14a2 2 0 0 0 -2-2h-16a2 2 0 0 0 -2 2v14a2 2 0 0 0 2 2h6.7l8.75 5.83a1 1 0 0 0 .55.17 1 1 0 0 0 .66-.25 1 1 0 0 0 .23-1.2l-2.27-4.55h1.38a2 2 0 0 0 2-2zm-5.89 1.45 1.31 2.63-5.87-3.91a1 1 0 0 0 -.55-.17h-7v-14h16v14h-3a1 1 0 0 0 -.89 1.45z"/><path d="m33.41 10 2.83-2.83-1.41-1.41-2.83 2.83-2.83-2.83-1.41 1.41 2.83 2.83-2.83 2.83 1.41 1.41 2.83-2.83 2.83 2.83 1.41-1.41z"/><path d="m2 59a1.07 1.07 0 0 0 .25 0l17.75-4.7v1.7a1 1 0 0 0 1 1h13a1 1 0 0 0 1-1v-12a1 1 0 0 0 -1-1h-13a1 1 0 0 0 -1 1v3.4l-18.47 9.72a1 1 0 0 0 -.46 1.24 1 1 0 0 0 .93.64zm19.47-10.12a1 1 0 0 0 .53-.88v-3h11v10h-11v-2a1 1 0 0 0 -1.25-1l-10.53 2.8z"/><path d="m1.46 54.84a1 1 0 0 0 1.3-.19l10.7-12.65h4.54a1 1 0 0 0 1-1v-11a1 1 0 0 0 -1-1h-14a1 1 0 0 0 -1 1v11a1 1 0 0 0 1 1h2.44l-5.35 11.58a1 1 0 0 0 .37 1.26zm7.45-13.42a1 1 0 0 0 -.07-1 1 1 0 0 0 -.84-.42h-3v-9h12v9h-4a1 1 0 0 0 -.76.35l-6.24 7.38z"/><path d="m8 34.5h2v2h-2z"/><path d="m12 34.5h2v2h-2z"/><path d="m24.5 49h2v2h-2z"/><path d="m28.5 49h2v2h-2z"/></svg>