<svg id="Layer_1" height="512" viewBox="0 0 64 64" width="512" xmlns="http://www.w3.org/2000/svg" data-name="Layer 1"><path d="m41 17v-14a1 1 0 0 0 -1-1h-16a1 1 0 0 0 -1 1v14a1 1 0 0 0 1 1h7l9 6-3-6h3a1 1 0 0 0 1-1z" fill="#e65c62"/><path d="m36.24 7.17-1.41-1.41-2.83 2.83-2.83-2.83-1.41 1.41 2.83 2.83-2.83 2.83 1.41 1.41 2.83-2.83 2.83 2.83 1.41-1.41-2.83-2.83z" fill="#f2f2f2"/><path d="m21 55v-2l-19 5 19-10v-3a1 1 0 0 1 1-1h11a1 1 0 0 1 1 1v10a1 1 0 0 1 -1 1h-11a1 1 0 0 1 -1-1z" fill="#b3d4ff"/><path d="m13 41-11 13 6-13h-3a1 1 0 0 1 -1-1v-9a1 1 0 0 1 1-1h12a1 1 0 0 1 1 1v9a1 1 0 0 1 -1 1z" fill="#b3d4ff"/><g fill="#2970cc"><path d="m8 34.5h2v2h-2z"/><path d="m12 34.5h2v2h-2z"/><path d="m24.5 49h2v2h-2z"/><path d="m28.5 49h2v2h-2z"/></g><path d="m57.11 47.5a1.57 1.57 0 0 1 -.26-.19 5.48 5.48 0 0 1 -2.26-3.59l-3.85-23.14a2.6 2.6 0 0 0 -.85-1.5 2.54 2.54 0 0 0 -1.62-.59 2.5 2.5 0 0 0 -2.5 2.5v16.01a2.77 2.77 0 0 0 -2.77 2.72v11.82a5.26 5.26 0 0 0 1.15 3.37c1.1 1.32 3.23 2.68 7.29 2.42a3.62 3.62 0 0 1 1.65.31l3.76 1.65 5.15 2.27v-11.69z" fill="#ffc173"/><path d="m49.54 48h-2v-8.28a1.76 1.76 0 0 0 -1.77-1.72v-2a3.77 3.77 0 0 1 3.77 3.77z" fill="#e6a451"/></svg>