<svg id="Layer_1" enable-background="new 0 0 256 256" height="512" viewBox="0 0 256 256" width="512" xmlns="http://www.w3.org/2000/svg"><g><g><g><path d="m113.759 64.174-81.105 65.912v85.772c0 5.523 4.477 10 10 10h142.211c5.523 0 10-4.477 10-10v-85.771z" fill="#f1f2f2"/><path d="m113.765 64.178v161.679h71.099c5.523 0 10-4.477 10-10v-85.771z" fill="#e6e7e8"/><path d="m154.315 225.858h30.549c5.523 0 10-4.477 10-10v-85.771l-40.549-32.954z" fill="#d1d3d4"/><path d="m73.203 225.858h-30.549c-5.523 0-10-4.477-10-10v-85.771l40.549-32.954z" fill="#e6e7e8"/><path d="m38.654 202.196c-1.104 0-2-.896-2-2v-57c0-1.104.896-2 2-2s2 .896 2 2v57c0 1.105-.896 2-2 2zm0-65c-1.104 0-2-.896-2-2v-.658c0-1.104.896-2 2-2s2 .896 2 2v.658c0 1.105-.896 2-2 2z" fill="#fff"/><path d="m214.142 110.736-91.807-74.609c-4.992-4.058-12.145-4.058-17.135 0l-92.182 74.914c-5.823 4.731-6.707 13.287-1.975 19.109 4.73 5.824 13.289 6.708 19.109 1.975l83.615-67.951 83.614 67.951c7.198 5.26 15.806 3.044 20.027-3.239 3.898-5.804 2.16-13.741-3.266-18.15z" fill="#d10028"/><path d="m217.407 123.885c-4.22 6.283-12.828 8.5-20.027 3.239l-83.614-67.951-83.615 67.951c-5.82 4.733-14.379 3.849-19.109-1.975-1.475-1.814-2.403-3.894-2.807-6.04-.698 3.778.194 7.825 2.807 11.04 4.73 5.824 13.289 6.708 19.109 1.975l83.615-67.951 83.614 67.951c7.198 5.26 15.806 3.044 20.027-3.239 1.94-2.888 2.482-6.304 1.871-9.551-.308 1.589-.919 3.134-1.871 4.551z" fill="#b7022d"/></g><g><path d="m148.014 225.858h-68.509v-108.81c0-2.209 1.791-4 4-4h60.509c2.209 0 4 1.791 4 4z" fill="#8c3f0a"/><path d="m144.014 113.047h-5c2.209 0 4 1.791 4 4v108.81h5v-108.81c0-2.209-1.791-4-4-4z" fill="#6d2e03"/><path d="m134.964 156.059h-42.41c-1.105 0-2-.895-2-2v-27.041c0-1.105.895-2 2-2h42.409c1.105 0 2 .895 2 2v27.041c.001 1.104-.894 2-1.999 2z" fill="#5e9cf7"/><path d="m134.964 125.018h-5c1.105 0 2 .895 2 2v27.041c0 1.105-.895 2-2 2h5c1.105 0 2-.895 2-2v-27.041c0-1.105-.896-2-2-2z" fill="#478cf7"/><circle cx="94.792" cy="171.959" fill="#ffc91d" r="4.237"/></g></g><g><path d="m167.574 55.524c-.642-1.356-.642-2.929 0-4.285l5.163-10.915h-13.716v26.116h13.716z" fill="#939598"/><path d="m172.737 40.323h-13.716v4.014h11.818z" fill="#808285"/><path d="m247.925 82.167-5.626-23.18c-3.149-12.973-14.765-22.107-28.114-22.107h-13.369c1.938 0 3.701 1.117 4.53 2.868l5.435 11.49c.642 1.356.642 2.929 0 4.285l-5.231 11.059h10.916c10.736 0 20.589 5.945 25.594 15.443l1.037 1.968c.45.854 1.336 1.389 2.301 1.389 1.684 0 2.925-1.578 2.527-3.215z" fill="#939598"/><path d="m247.925 82.167-5.626-23.18c-3.149-12.973-14.765-22.107-28.114-22.107h-13.369c1.938 0 3.701 1.117 4.53 2.868l1.008 2.132h2.831c13.349 0 24.966 9.134 28.114 22.107l4.097 16.879c.225.383.454.763.663 1.159l1.037 1.968c.45.854 1.336 1.389 2.301 1.389 1.685 0 2.926-1.578 2.528-3.215z" fill="#808285"/><path d="m197.659 225.858h-16.963c-2.209 0-4-1.791-4-4v-68.947c0-2.209 1.791-4 4-4h16.963c2.209 0 4 1.791 4 4v68.947c0 2.209-1.791 4-4 4z" fill="#377de2"/><path d="m197.659 148.91h-5c2.209 0 4 1.791 4 4v68.948c0 2.209-1.791 4-4 4h5c2.209 0 4-1.791 4-4v-68.948c0-2.209-1.791-4-4-4z" fill="#2266d3"/><path d="m198.215 69.882h-18.076l.823 4.733c.598 3.438.898 6.92.898 10.41v63.886h14.633v-63.886c0-3.489.301-6.972.898-10.41z" fill="#e6e7e8"/><path d="m193.216 69.882-.823 4.733c-.598 3.438-.898 6.92-.898 10.41v63.886h5v-63.886c0-3.489.301-6.972.898-10.41l.823-4.733z" fill="#d1d3d4"/><path d="m196.494 36.88h-14.633v-4.737c0-1.105.895-2 2-2h10.633c1.105 0 2 .895 2 2z" fill="#e6e7e8"/><path d="m194.494 30.142h-5.623c1.993 0 3.609 1.616 3.609 3.609v3.128h4.014v-4.737c0-1.104-.896-2-2-2z" fill="#d1d3d4"/><path d="m200.815 36.88h-23.276c-1.938 0-3.701 1.117-4.53 2.868l-5.435 11.49c-.642 1.356-.642 2.929 0 4.285l5.435 11.49c.828 1.751 2.592 2.868 4.53 2.868h23.276c1.938 0 3.701-1.117 4.53-2.868l5.435-11.49c.642-1.356.642-2.929 0-4.285l-5.435-11.49c-.828-1.751-2.592-2.868-4.53-2.868z" fill="#808285"/><path d="m210.78 51.238-5.435-11.49c-.828-1.751-2.592-2.868-4.53-2.868h-5c1.938 0 3.701 1.117 4.53 2.868l5.435 11.49c.642 1.356.642 2.929 0 4.285l-5.435 11.49c-.828 1.751-2.592 2.868-4.53 2.868h5c1.938 0 3.701-1.117 4.53-2.868l5.435-11.49c.642-1.356.642-2.928 0-4.285z" fill="#58595b"/><path d="m155.021 35.158h-9.571c-2.209 0-4 1.791-4 4v28.445c0 2.209 1.791 4 4 4h9.571c2.209 0 4-1.791 4-4v-28.445c0-2.209-1.791-4-4-4z" fill="#808285"/><path d="m155.021 35.158h-5c2.209 0 4 1.791 4 4v28.445c0 2.209-1.791 4-4 4h5c2.209 0 4-1.791 4-4v-28.445c0-2.209-1.791-4-4-4z" fill="#58595b"/></g></g></svg>