<svg id="Capa_1" enable-background="new 0 0 512 512" height="512" viewBox="0 0 512 512" width="512" xmlns="http://www.w3.org/2000/svg"><g><path d="m34 369.591c-21.602-36.505-34-79.1-34-124.591 0-135.31 109.69-245 245-245s245 109.69 245 245c0 69.877-29.254 132.922-76.183 177.555-43.593-67.711-378.249-50.314-379.817-52.964z" fill="#ffc143"/><path d="m426 46.299v363.821c-10.252 11.232-21.536 21.506-33.701 30.673h-282.788c-11.384-8.578-21.997-18.126-31.714-28.522-1.123-1.201-8.696-2.413-13.158-3.637v-362.335c0-5.523 4.477-10 10-10h341.361c5.523 0 10 4.477 10 10z" fill="#596c76"/><path d="m76.894 411.732c-3.41-1.448-14.083-2.913-15.394-4.393-10.312-11.647-19.532-24.284-27.5-37.749v-323.291c0-5.523 4.477-10 10-10h42.894c-5.523 0-10 4.477-10 10z" fill="#465a61"/><path d="m93.5 95.085h295c5.523 0 10 4.477 10 10v330.878c-42.001 33.805-95.388 54.037-153.5 54.037-58.304 0-111.851-20.366-153.915-54.372-.857-.693-1.71-7.333-2.558-8.038-1.695-1.409-3.371-2.84-5.027-4.292v-318.213c0-5.523 4.477-10 10-10z" fill="#fff"/><path d="m91.085 435.628c-10.631-8.594-20.529-18.06-29.585-28.289v-302.254c0-5.523 4.477-10 10-10h29.585c-5.523 0-10 4.477-10 10z" fill="#d9e7ec"/><path d="m320 85.542h-26.924c.78-2.545 1.2-5.245 1.2-8.042v-50c0-15.164-12.336-27.5-27.5-27.5h-73.553c-15.164 0-27.5 12.336-27.5 27.5v50c0 2.797.42 5.498 1.2 8.042h-26.923c-15.164 0-27.5 12.336-27.5 27.5v21.533c0 15.164 12.336 27.5 27.5 27.5h180c15.164 0 27.5-12.336 27.5-27.5v-21.533c0-15.163-12.336-27.5-27.5-27.5zm-139.276-8.042v-50c0-6.893 5.607-12.5 12.5-12.5h73.553c6.893 0 12.5 5.607 12.5 12.5v50c0 3.061-1.106 5.867-2.939 8.042h-92.675c-1.833-2.175-2.939-4.981-2.939-8.042zm151.776 57.076c0 6.893-5.607 12.5-12.5 12.5h-180c-6.893 0-12.5-5.607-12.5-12.5v-21.533c0-6.893 5.607-12.5 12.5-12.5h38.229c4.316 2.818 9.467 4.458 14.995 4.458h73.553c5.528 0 10.679-1.64 14.995-4.458h38.228c6.893 0 12.5 5.607 12.5 12.5z" fill="#465a61"/><path d="m205 125.288h-45c-5.523 0-10-4.477-10-10v-49.5c0-5.523 4.477-10 10-10h45c5.523 0 10 4.477 10 10v49.5c0 5.523-4.477 10-10 10z" fill="#00d1fc"/><path d="m300 125.288h-101.085c-5.523 0-10-4.477-10-10v-49.5c0-5.523 4.477-10 10-10h101.085c5.523 0 10 4.477 10 10v49.5c0 5.523-4.477 10-10 10z" fill="#64dcfc"/><path d="m270 100.538h-80c-5.523 0-10-4.477-10-10 0-5.523 4.477-10 10-10h80c5.523 0 10 4.477 10 10 0 5.523-4.477 10-10 10z" fill="#00c1fb"/><path d="m270 280h-110c-5.523 0-10-4.477-10-10 0-5.523 4.477-10 10-10h110c5.523 0 10 4.477 10 10 0 5.523-4.477 10-10 10zm10 30c0-5.523-4.477-10-10-10h-110c-5.523 0-10 4.477-10 10 0 5.523 4.477 10 10 10h110c5.523 0 10-4.477 10-10zm-41.667 40c0-5.523-4.477-10-10-10h-68.333c-5.523 0-10 4.477-10 10 0 5.523 4.477 10 10 10h68.333c5.523 0 10-4.477 10-10zm41.667 40c0-5.523-4.477-10-10-10h-110c-5.523 0-10 4.477-10 10 0 5.523 4.477 10 10 10h110c5.523 0 10-4.477 10-10zm-69.936 40c0-5.523-4.477-10-10-10h-40.064c-5.523 0-10 4.477-10 10 0 5.523 4.477 10 10 10h40.064c5.523 0 10-4.477 10-10z" fill="#b6c4cf"/><path d="m120 280h-10c-5.523 0-10-4.477-10-10 0-5.523 4.477-10 10-10h10c5.523 0 10 4.477 10 10 0 5.523-4.477 10-10 10zm10 30c0-5.523-4.477-10-10-10h-10c-5.523 0-10 4.477-10 10 0 5.523 4.477 10 10 10h10c5.523 0 10-4.477 10-10zm0 40c0-5.523-4.477-10-10-10h-10c-5.523 0-10 4.477-10 10 0 5.523 4.477 10 10 10h10c5.523 0 10-4.477 10-10zm0 40c0-5.523-4.477-10-10-10h-10c-5.523 0-10 4.477-10 10 0 5.523 4.477 10 10 10h10c5.523 0 10-4.477 10-10zm0 40c0-5.523-4.477-10-10-10h-10c-5.523 0-10 4.477-10 10 0 5.523 4.477 10 10 10h10c5.523 0 10-4.477 10-10zm67.667-210h-87.667c-5.523 0-10-4.477-10-10 0-5.523 4.477-10 10-10h87.667c5.523 0 10 4.477 10 10 0 5.523-4.477 10-10 10z" fill="#8d9ca8"/><path d="m330 205.123v220c0 11.046-8.954 20-20 20h-38c-11.046 0-20-8.954-20-20v-220c0-11.046 8.954-20 20-20h38c11.046 0 20 8.955 20 20z" fill="#ff4343"/><path d="m512 205.123v220c0 11.046-8.954 20-20 20h-105.532l-65.402 65.402c-3.15 3.15-8.536.919-8.536-3.536v-61.867h-2.53c-11.046 0-20-8.954-20-20v-220c0-11.046 8.954-20 20-20h182c11.046.001 20 8.956 20 20.001z" fill="#ff5757"/><path d="m392.5 388.805c0 5.799-4.701 10.5-10.5 10.5s-10.5-4.701-10.5-10.5 4.701-10.5 10.5-10.5 10.5 4.701 10.5 10.5zm-10.5-25.962c5.523 0 10-4.477 10-10v-37.732c0-5.523-4.477-10-10-10s-10 4.477-10 10v37.732c0 5.523 4.477 10 10 10z" fill="#ffe7bf"/><path d="m415.419 309.749c-8.666 9.127-20.847 14.362-33.42 14.362-5.523 0-10-4.477-10-10s4.477-10 10-10c7.219 0 13.937-2.888 18.916-8.132 4.976-5.24 7.508-12.114 7.133-19.353-.704-13.564-11.907-24.404-25.505-24.678-13.24-.292-24.554 9.376-26.376 22.428-.167 1.199-.252 2.428-.252 3.651 0 5.523-4.477 10-10 10s-10-4.477-10-10c0-2.145.149-4.303.444-6.415 3.221-23.08 23.233-40.119 46.587-39.66 24.031.484 43.831 19.652 45.075 43.637.663 12.771-3.813 24.902-12.602 34.16z" fill="#fff"/></g></svg>