<svg id="Layer_1" viewBox="0 0 64 64" xmlns="http://www.w3.org/2000/svg"><path d="m23 51c-.552 0-1 .448-1 1v6h-4c-.552 0-1 .448-1 1s.448 1 1 1h5c.552 0 1-.448 1-1v-7c0-.552-.448-1-1-1z"/><path d="m43 59c0 .552.448 1 1 1h5c.552 0 1-.448 1-1v-7c0-.552-.448-1-1-1s-1 .448-1 1v6h-4c-.552 0-1 .448-1 1z"/><path d="m23 27c-.552 0-1 .448-1 1v6h-4c-.552 0-1 .448-1 1s.448 1 1 1h5c.552 0 1-.448 1-1v-7c0-.552-.448-1-1-1z"/><path d="m31 15c.552 0 1-.448 1-1v-5c0-.552-.448-1-1-1s-1 .448-1 1v5c0 .552.448 1 1 1z"/><path d="m57 44c-.552 0-1 .448-1 1v5c0 .552.448 1 1 1s1-.448 1-1v-5c0-.552-.448-1-1-1z"/><path d="m62.149 41.11-2.149-1.61v-2.149c0-1.195-.332-2.362-.96-3.376-.628-1.016-1.525-1.834-2.593-2.368-1.51-.755-2.447-2.271-2.447-3.956v-.992c.488-.235.89-.514 1.407-1.031 1.279-1.279 1.983-2.979 1.983-4.787 0-1.79-.703-3.485-1.984-4.778l-1.339-1.333s8.111-4.414 8.179-4.483c1.131-1.137 1.753-2.645 1.753-4.246s-.623-3.109-1.753-4.246c-1.126-1.131-2.625-1.754-4.221-1.754s-3.105.623-4.23 1.755c-.069.069-4.461 8.245-4.461 8.245l-1.337-1.337c-1.684-1.684-4.102-2.341-6.373-1.794-.759-1.443-2.688-3.869-7.094-3.869h-12.03c-1.884 0-3.679.898-4.801 2.402-.747 1.001-1.942 1.598-3.199 1.598-3.967 0-7.216 3.098-7.475 7h-6.025c-.552-.001-1 .447-1 .999v48c0 .552.448 1 1 1h52c.552 0 1-.448 1-1v-1.152l1.456-.241c1.272-.214 2.429-.872 3.258-1.851.829-.98 1.286-2.229 1.286-3.516 0-.989.567-1.909 1.444-2.344 1.576-.782 2.556-2.367 2.556-4.136v-4.95c0-1.438-.69-2.82-1.851-3.7zm-12.569-28.036 1.416 1.416-3.533 3.533c-.388.387-1.038.378-1.416 0-.39-.39-.39-1.025 0-1.416zm5.733-10.006c.735-.69 1.693-1.068 2.713-1.068 1.06 0 2.055.414 2.803 1.166.755.759 1.171 1.766 1.171 2.834 0 1.022-.381 1.988-1.075 2.735l-8.335 4.521-1.777-1.778 4.501-8.409zm-8.73 7.009 1.583 1.583-3.534 3.533c-1.169 1.17-1.169 3.074 0 4.244.569.569 1.325.883 2.127.883.796 0 1.548-.313 2.117-.883l3.535-3.534 1.578 1.571c.903.911 1.4 2.106 1.4 3.366 0 1.274-.496 2.472-1.397 3.373-.479.478-.717.611-1.353.854l-17.79 6.863c-.863.311-1.661.095-2.233-.477-.582-.582-.771-1.453-.482-2.219l6.629-17.478c.241-.631.616-1.212 1.083-1.679.464-.465 1.001-.821 1.593-1.059 1.773-.708 3.791-.292 5.143 1.059zm-44.583 5.923h24v22h-24zm0 24h24v22h-24zm50 22h-24v-22h24zm10-12.24c0 .989-.567 1.909-1.444 2.344-1.576.782-2.556 2.367-2.556 4.136 0 .814-.289 1.604-.813 2.224-.523.619-1.256 1.034-2.061 1.17l-1.126.187v-20.821c0-.552-.448-1-1-1h-3v-6c0-.552-.448-1-1-1s-1 .448-1 1v6h-3v-3c0-.552-.448-1-1-1s-1 .448-1 1v3h-3v-2c0-.552-.448-1-1-1s-1 .448-1 1v2h-10v-23c0-.552-.448-1-1-1h-1v-4c0-.552-.448-1-1-1s-1 .448-1 1v4h-3v-3c0-.552-.448-1-1-1s-1 .448-1 1v3h-9.975c.254-2.799 2.611-5 5.475-5 1.884 0 3.679-.898 4.801-2.402.747-1.001 1.942-1.598 3.199-1.598h12.03c3.199 0 4.638 1.596 5.237 2.632-.48.286-.929.626-1.334 1.031-.665.665-1.196 1.488-1.538 2.383l-6.63 17.481c-.566 1.5-.198 3.204.938 4.34.775.775 1.804 1.203 2.897 1.203.479 0 .946-.085 1.45-.267l16.45-6.346v.193c0 2.448 1.361 4.649 3.553 5.745.736.368 1.354.932 1.787 1.632.432.698.66 1.501.66 2.324v2.65c0 .315.148.611.4.8l2.545 1.907c.66.5 1.054 1.287 1.054 2.103v4.95z"/><circle cx="14" cy="59" r="1"/><circle cx="40" cy="59" r="1"/><circle cx="14" cy="35" r="1"/><circle cx="31" cy="18" r="1"/><ellipse cx="57.956" cy="6" rx=".995" ry="1"/></svg>