<svg id="Layer_1" enable-background="new 0 0 512 512" height="512" viewBox="0 0 512 512" width="512" xmlns="http://www.w3.org/2000/svg"><g id="laminate_1_"><path d="m44.658 10.002h425.997v491.324h-425.997z" fill="#965353"/><g fill="#080808"><path d="m394.671.002h-21.328-63.999-21.344-64-21.328-64-21.328-85.342v511.996h85.343 21.328 64 21.327 64 21.344 63.999 21.328 85.327v-511.996zm63.999 350.248c-4.359-1.281-9.328-3.531-13.297-7.469-5.406-5.359-8.031-12.812-8.031-22.781v-85.344c0-13.265 4.875-22.265 14.891-27.5 2.172-1.141 4.375-1.984 6.438-2.625v145.719zm-149.326-328.904h63.999v223.998h-63.999zm0 245.31h21.328v42.688c0 10.156-2.734 18-8.109 23.266-3.953 3.859-8.891 6.016-13.219 7.234zm-170.671-245.31h64v223.998h-21.328v-53.344c0-5.891-4.781-10.656-10.672-10.656s-10.672 4.766-10.672 10.656v53.343h-21.328zm-64 0v85.312c0 10.188-2.734 18-8.109 23.281-3.953 3.875-8.891 6.031-13.219 7.219v-115.812zm42.672 469.308h-21.344v-64.875c0-5.891-4.765-10.655-10.656-10.655s-10.672 4.765-10.672 10.655v64.875h-21.328v-331.653c8.047-1.469 19.062-5.031 27.953-13.625 9.766-9.453 14.703-22.469 14.703-38.719v-85.311h21.344v223.998 21.312zm85.327 0h-64v-223.998h64zm85.328 0h-64v-223.998-21.312-223.998h64v223.998 21.312zm85.343 0h-63.999v-128.999c8.047-1.453 19.062-5 27.953-13.624 9.766-9.438 14.702-22.469 14.702-38.688v-42.688h21.344zm63.999 0v-42.656c0-5.891-4.781-10.656-10.672-10.656s-10.671 4.766-10.671 10.656v42.656h-21.328v-223.998-21.312-223.998h21.328v64.874c0 5.891 4.78 10.656 10.671 10.656s10.672-4.765 10.672-10.656v-64.874h21.328v161.202c-4.484.922-9.922 2.484-15.438 5.234-17.562 8.781-27.233 25.438-27.233 46.875v85.343c0 15.75 4.843 28.5 14.358 37.937 8.969 8.875 20.188 12.625 28.312 14.219v118.499h-21.327z"/><path d="m256 117.345c-5.891 0-10.656 4.766-10.656 10.656v277.342c0 5.875 4.766 10.656 10.656 10.656 5.906 0 10.672-4.781 10.672-10.656v-277.342c0-5.891-4.766-10.656-10.672-10.656z"/></g></g></svg>