<svg clip-rule="evenodd" fill-rule="evenodd" stroke-linejoin="round" stroke-miterlimit="2" viewBox="0 0 96 96" xmlns="http://www.w3.org/2000/svg"><g transform="translate(-3072 -152)"><g transform="matrix(0 -1.581 2.788 0 2644.67 877.209)"><path d="m449.735 156.152c0-.761-.533-1.491-1.481-2.029-.949-.538-2.236-.84-3.578-.84h-32.882c-2.794 0-5.059 1.284-5.059 2.869v28.696c0 .761.533 1.491 1.482 2.029s2.235.84 3.577.84h32.882c1.342 0 2.629-.302 3.578-.84.948-.538 1.481-1.268 1.481-2.029z" fill="#c3e5db"/></g><path d="m3124 166v68h36c2.12 0 4.16-.843 5.66-2.343s2.34-3.535 2.34-5.657c0-12.892 0-39.108 0-52 0-2.122-.84-4.157-2.34-5.657s-3.54-2.343-5.66-2.343z" fill="#9ecebf"/><path d="m3104.17 234h55.83c2.12 0 4.16-.843 5.66-2.343s2.34-3.535 2.34-5.657v-7.828l-19.17-19.172c-1.28-1.281-3.02-2-4.83-2s-3.55.719-4.83 2z" fill="#278445"/><path d="m3072 214.172v11.828c0 4.418 3.58 8 8 8h75.83l-45.3-45.293c-1.73-1.733-4.08-2.707-6.53-2.707-2.45 0-4.8.974-6.53 2.707z" fill="#2abd59"/><path d="m3155.83 234h-31.83v-31.828z" fill="#2a934c"/><g transform="matrix(1.273 0 0 1.273 3026.91 106.909)"><path d="m36.971 46.429c-.857.016-1.543.715-1.542 1.572 0 .856.686 1.555 1.543 1.57 5.202.093 9.43 4.227 9.457 9.437.004.865.706 1.563 1.57 1.563.865.001 1.567-.697 1.572-1.562.031-5.202 4.233-9.391 9.443-9.438.862-.007 1.557-.708 1.557-1.57.001-.862-.693-1.563-1.554-1.572-5.216-.055-9.408-4.225-9.446-9.44-.006-.864-.708-1.56-1.571-1.56s-1.565.696-1.571 1.56c-.039 5.223-4.262 9.343-9.458 9.44z" fill="#15aaf7"/></g><g transform="matrix(.933 0 0 .933 3041.47 131.2)"><circle cx="104.5" cy="55.5" fill="#e4e3d3" r="7.5"/></g><path d="m3128 152h-8c-1.1 0-2 .896-2 2s.9 2 2 2h2v88h-2c-1.1 0-2 .896-2 2s.9 2 2 2h8c1.1 0 2-.896 2-2s-.9-2-2-2h-2v-88h2c1.1 0 2-.896 2-2s-.9-2-2-2z" fill="#15aaf7"/><g transform="matrix(2.25 0 0 1 2422.25 0)"><path d="m307 152h-4c-.491 0-.889.896-.889 2s.398 2 .889 2h4c.491 0 .889-.896.889-2s-.398-2-.889-2z" fill="#f8ef40"/></g><g transform="matrix(4.75 0 0 1 1654.75 85)"><path d="m307 152h-4c-.232 0-.421.896-.421 2s.189 2 .421 2h4c.232 0 .421-.896.421-2s-.189-2-.421-2z" fill="#f8ef40"/></g><g transform="translate(2791)"><path d="m307 152h-4c-1.104 0-2 .896-2 2s.896 2 2 2h4c1.104 0 2-.896 2-2s-.896-2-2-2z" fill="#f8ef40"/></g><g transform="matrix(1.75 0 0 1 2544.75 0)"><path d="m307 152h-4c-.631 0-1.143.896-1.143 2s.512 2 1.143 2h4c.631 0 1.143-.896 1.143-2s-.512-2-1.143-2z" fill="#f8ef40"/></g><g transform="matrix(1.75 0 0 1 2544.75 85)"><path d="m307 152h-4c-.631 0-1.143.896-1.143 2s.512 2 1.143 2h4c.631 0 1.143-.896 1.143-2s-.512-2-1.143-2z" fill="#f8ef40"/></g><g transform="translate(2771 7)"><path d="m307 152h-4c-1.104 0-2 .896-2 2s.896 2 2 2h4c1.104 0 2-.896 2-2s-.896-2-2-2z" fill="#f8ef40"/></g><g transform="translate(2771 92)"><path d="m307 152h-4c-1.104 0-2 .896-2 2s.896 2 2 2h4c1.104 0 2-.896 2-2s-.896-2-2-2z" fill="#f8ef40"/></g><g transform="translate(2809 7)"><path d="m307 152h-4c-1.104 0-2 .896-2 2s.896 2 2 2h4c1.104 0 2-.896 2-2s-.896-2-2-2z" fill="#f8ef40"/></g><g transform="translate(2802 92)"><path d="m307 152h-4c-1.104 0-2 .896-2 2s.896 2 2 2h4c1.104 0 2-.896 2-2s-.896-2-2-2z" fill="#f8ef40"/></g><g transform="matrix(1.625 0 0 1 2606.62 7)"><path d="m307 152h-4c-.679 0-1.231.896-1.231 2s.552 2 1.231 2h4c.679 0 1.231-.896 1.231-2s-.552-2-1.231-2z" fill="#f8ef40"/></g><g transform="matrix(2.875 0 0 1 2215.88 92)"><path d="m307 152h-4c-.384 0-.696.896-.696 2s.312 2 .696 2h4c.384 0 .696-.896.696-2s-.312-2-.696-2z" fill="#f8ef40"/></g></g></svg>