<svg id="Layer_1" enable-background="new 0 0 267.119 236.67" height="512" viewBox="0 0 267.119 236.67" width="512" xmlns="http://www.w3.org/2000/svg"><g><path d="m53.716 181.484v2h7.836l-.058-2z"/><path d="m36.106 46.181c-2.677-6.552-2.642-13.755.1-20.282 2.74-6.526 7.858-11.595 14.411-14.272 3.206-1.31 6.575-1.974 10.014-1.974 2.962 0 5.828.501 8.523 1.411 6.359-2.559 12.76-4.03 17.611-4.03 6.536 0 8.986 2.638 9.891 4.852 1.01 2.471.96 6.492-5.011 11.62-1.663 1.428-3.671 2.833-5.909 4.166 1.967 5.804 1.795 11.882-.131 17.32l12.421-7.552-2.236-9.7 50.671-11.682 10.934 47.426h11.822v38h-38v-15.573l-2 .346v15.227h-38v-10.635l-2-.784v11.418h-9.333v2h9.333v38h-9.667v2h9.667v16.64l2-.227v-16.413h38v38h-34.499l.227 2h34.271 2 38 2 38 2 40 9v-2h-9v-38h9v-2h-9v-38h9v-2h-9v-38h9v-2h-9v-38h9v-2-21.483h-50.096-59.904-118.764v49.555l7.383 1.669c-1.071-1.556-1.993-3.24-2.729-5.043zm135.11 17.303h38v38h-38zm38 78h-38v-38h38zm-40-38v38h-38v-38zm-78 38v-38h38v38zm40 40v-38h38v38zm40 0v-38h38v38zm78 0h-38v-38h38zm0-40h-38v-38h38zm0-40h-38v-38h38zm0-40h-38v-38h38z"/><path d="m103.232 60.021-5.695 3.463h6.493z"/><path d="m72.458 59.869 15.353 6.017 14.71-8.944-3.786-16.423-15.467 9.404c-2.522 4.159-6.204 7.653-10.81 9.946z"/><path d="m65.319 57.213 1.707.386.048.119c.695-.208 1.387-.45 2.072-.73 11.052-4.515 16.57-16.811 12.822-27.971-5.093 1.351-9.674 1.835-12.933 1.452 2.158-.601 4.418-1.364 6.723-2.306 10.992-4.49 18.691-11.102 17.194-14.765-1.497-3.665-11.623-2.995-22.615 1.495-.376.154-.738.315-1.106.474-5.282-2.184-11.392-2.371-17.102-.038-11.503 4.699-17.019 17.835-12.32 29.338 1.292 3.162 3.224 5.869 5.581 8.038l19.472 4.403c.153.03.304.07.457.105z"/><path d="m108.056 67.592 2.961-.512-8.032-34.842 38.978-8.986 8.756 37.979c1.247.33 2.41.873 3.446 1.593l-9.952-43.17-44.826 10.334z"/><path d="m7.258 235.514c1.698.785 3.481 1.156 5.237 1.156 4.722 0 9.242-2.689 11.354-7.258l23.5-50.834c1.497-3.238 1.539-6.963.114-10.234l-8.47-19.456 24.646 27.247 1.367 47.393c.196 6.778 5.752 12.14 12.488 12.14.122 0 .245-.002.367-.005 6.9-.199 12.334-5.955 12.135-12.855l-1.5-52c-.086-2.974-1.229-5.819-3.225-8.025l-29-32.059 13.597-51.461 23.091 9.05c.934.366 1.924.552 2.919.552.455 0 .912-.039 1.364-.117l52-9c4.354-.753 7.272-4.894 6.519-9.247-.753-4.354-4.891-7.272-9.247-6.519l-49.798 8.619-30.916-12.119c-.517-.203-1.042-.347-1.568-.438l-36.825-8.328c-.832-.34-1.709-.539-2.596-.587l-.142-.032c-.018.007-.036.017-.054.025-2.01-.059-4.045.631-5.644 2.098l-8.596 7.887c-2.333 2.141-3.184 5.456-2.17 8.456.762 2.256 2.472 4.013 4.614 4.868l.017-.065 2.301.295-11.827 44.768c-1.36 3.083-1.49 6.699-.039 10.032l19.031 43.719-21.145 45.742c-2.897 6.267-.166 13.695 6.101 16.592z"/><path d="m215.119 231h46.725v4h-46.725z"/><path d="m220.395 223.829h46.725v4h-46.725z"/><path d="m218.134 216.658h46.725v4h-46.725z"/><path d="m215.119 209.487h46.725v4h-46.725z"/><path d="m220.395 202.317h46.725v4h-46.725z"/><path d="m127.778 196.069c-.456-1.15-1.771-1.718-2.921-1.262s-1.718 1.771-1.262 2.921l4.411 11.121h4.841z"/><path d="m191.738 228.827 2.65-14.134h1.921c.782 0 1.422-.64 1.422-1.422s-.64-1.422-1.422-1.422h-83.912c-.782 0-1.422.64-1.422 1.422s.64 1.422 1.422 1.422h1.921l2.65 14.134c.254 1.356 1.438 2.338 2.818 2.338h69.135c1.379 0 2.562-.982 2.817-2.338z"/></g></svg>