<svg id="Icons" height="512" viewBox="0 0 60 60" width="512" xmlns="http://www.w3.org/2000/svg"><path d="m45 6v4l-1 1h-42l-1-1v-4a3 3 0 0 1 3-3h38a3 3 0 0 1 3 3z" fill="#ec3a48"/><path d="m45 10v25l-12 12h-29a3 3 0 0 1 -3-3v-34z" fill="#d6dbe3"/><path d="m29.83 24h6.17v.883a1.087 1.087 0 0 0 1.861.788l2.82-2.883a1.133 1.133 0 0 0 0-1.576l-2.82-2.883a1.087 1.087 0 0 0 -1.861.788v.883h-7a1.966 1.966 0 0 0 -1.41.59l-11.42 11.41h-6.17v-.883a1.087 1.087 0 0 0 -1.861-.788l-2.82 2.883a1.133 1.133 0 0 0 0 1.576l2.82 2.883a1.087 1.087 0 0 0 1.861-.788v-.883h7a1.966 1.966 0 0 0 1.41-.59z" fill="#006ac9"/><path d="m37.51 38 3.17-3.21a1.129 1.129 0 0 0 0-1.58l-2.82-2.88a1.086 1.086 0 0 0 -1.86.79v.88h-6.17l-11.42-11.41a1.966 1.966 0 0 0 -1.41-.59h-7v-.883a1.087 1.087 0 0 0 -1.861-.788l-2.82 2.883a1.133 1.133 0 0 0 0 1.576l2.82 2.883a1.087 1.087 0 0 0 1.861-.788v-.883h6.17l11.42 11.41a1.966 1.966 0 0 0 1.41.59h7v.88a1.094 1.094 0 0 0 1.06 1.12z" fill="#21475e"/><circle cx="45" cy="47" fill="#2783ec" r="12"/><circle cx="45" cy="47" fill="#fff" r="8"/><g fill="#b9bfcc"><path d="m45 42a1 1 0 0 1 -1-1v-2a1 1 0 0 1 2 0v2a1 1 0 0 1 -1 1z"/><path d="m40.758 43.758a1 1 0 0 1 -.707-.293l-1.415-1.415a1 1 0 0 1 1.414-1.414l1.415 1.415a1 1 0 0 1 -.707 1.707z"/><path d="m39 48h-2a1 1 0 0 1 0-2h2a1 1 0 0 1 0 2z"/><path d="m39.343 53.657a1 1 0 0 1 -.707-1.707l1.415-1.415a1 1 0 0 1 1.414 1.414l-1.415 1.415a1 1 0 0 1 -.707.293z"/><path d="m45 56a1 1 0 0 1 -1-1v-2a1 1 0 0 1 2 0v2a1 1 0 0 1 -1 1z"/><path d="m50.657 53.657a1 1 0 0 1 -.707-.293l-1.415-1.415a1 1 0 0 1 1.414-1.414l1.415 1.415a1 1 0 0 1 -.707 1.707z"/><path d="m53 48h-2a1 1 0 0 1 0-2h2a1 1 0 0 1 0 2z"/><path d="m49.242 43.758a1 1 0 0 1 -.707-1.707l1.415-1.415a1 1 0 0 1 1.414 1.414l-1.415 1.415a1 1 0 0 1 -.707.293z"/><path d="m46 49a1 1 0 0 1 -.707-.293l-1-1a1 1 0 0 1 -.188-1.154l1-2a1 1 0 0 1 1.79.894l-.678 1.353.49.49a1 1 0 0 1 -.707 1.71z"/></g><path d="m45 56a9 9 0 1 1 9-9 9.01 9.01 0 0 1 -9 9zm0-16a7 7 0 1 0 7 7 7.009 7.009 0 0 0 -7-7z" fill="#0c70dc"/><path d="m8 6a1 1 0 0 1 -1-1v-4a1 1 0 0 1 2 0v4a1 1 0 0 1 -1 1z" fill="#d6dbe3"/><path d="m14 6a1 1 0 0 1 -1-1v-4a1 1 0 0 1 2 0v4a1 1 0 0 1 -1 1z" fill="#d6dbe3"/><path d="m20 6a1 1 0 0 1 -1-1v-4a1 1 0 0 1 2 0v4a1 1 0 0 1 -1 1z" fill="#d6dbe3"/><path d="m26 6a1 1 0 0 1 -1-1v-4a1 1 0 0 1 2 0v4a1 1 0 0 1 -1 1z" fill="#d6dbe3"/><path d="m32 6a1 1 0 0 1 -1-1v-4a1 1 0 0 1 2 0v4a1 1 0 0 1 -1 1z" fill="#d6dbe3"/><path d="m38 6a1 1 0 0 1 -1-1v-4a1 1 0 0 1 2 0v4a1 1 0 0 1 -1 1z" fill="#d6dbe3"/></svg>