<svg id="Layer_1" viewBox="0 0 128 128" xmlns="http://www.w3.org/2000/svg" data-name="Layer 1"><path d="m62.75289 24.0283a1.99981 1.99981 0 0 0 2.76711.5869l4.56979-2.9697a1.99929 1.99929 0 0 0 -.0004-3.3535l-4.5699-2.9688a1.99959 1.99959 0 1 0 -2.1787 3.3536l1.9883 1.292-1.9888 1.2929a2.00015 2.00015 0 0 0 -.5874 2.7666z" fill="#1c2a35" opacity=".3"/><path d="m13.02639 62.5h-.024a2.00019 2.00019 0 0 0 -1.9995 1.9766l-.00289.5234a2 2 0 0 0 4 0l.00289-.4766a2.00014 2.00014 0 0 0 -1.9765-2.0234z" fill="#1c2a35" opacity=".3"/><path d="m21.88379 38.0166a1.99947 1.99947 0 0 0 2.8144-.2842q.29671-.3633.6016-.7217a1.99968 1.99968 0 1 0 -3.0459-2.5918q-.331.3882-.6543.7842a1.99968 1.99968 0 0 0 .2842 2.8135z" fill="#1c2a35" opacity=".3"/><path d="m28.08349 28.6797q-.3963.3267-.7861.6641a1.99971 1.99971 0 1 0 2.6181 3.0234c.2344-.2022.4712-.4033.71-.5996a1.99981 1.99981 0 1 0 -2.542-3.0879z" fill="#1c2a35" opacity=".3"/><path d="m34.80809 24.04q-.4446.252-.8823.5137a2.00031 2.00031 0 0 0 2.0498 3.4356q.4014-.2403.8081-.4707a2.00023 2.00023 0 0 0 -1.9756-3.4786z" fill="#1c2a35" opacity=".3"/><path d="m42.24369 20.6416q-.4812.16995-.9585.3516a1.9998 1.9998 0 1 0 1.4169 3.7402q.4359-.1641.8746-.3203a2.00007 2.00007 0 1 0 -1.333-3.7715z" fill="#1c2a35" opacity=".3"/><path d="m50.16109 18.5996q-.5061.08355-1.0083.1787a1.99985 1.99985 0 0 0 .36921 3.9649 1.95588 1.95588 0 0 0 .374-.0352c.30569-.0576.61329-.1113.92139-.1631a1.99976 1.99976 0 0 0 -.6563-3.9453z" fill="#1c2a35" opacity=".3"/><path d="m15.72659 57.0645a1.9999 1.9999 0 1 0 -3.93359-.7247q-.09241.49965-.17531 1.0049a1.99979 1.99979 0 0 0 1.6518 2.2959 1.93255 1.93255 0 0 0 .3247.0264 2.00088 2.00088 0 0 0 1.9717-1.6777c.0503-.3096.104-.6172.1607-.9248z" fill="#1c2a35" opacity=".3"/><path d="m20.48439 43.9189q.2307-.4101.4692-.8164a1.99961 1.99961 0 1 0 -3.4473-2.0273q-.2592.4395-.5092.8848a1.99991 1.99991 0 1 0 3.4873 1.9589z" fill="#1c2a35" opacity=".3"/><path d="m17.40819 50.7393q.15525-.44385.31981-.8838a2 2 0 0 0 -3.74611-1.4024c-.1196.3203-.2358.6407-.3491.9639a2.00013 2.00013 0 1 0 3.7754 1.3223z" fill="#1c2a35" opacity=".3"/><path d="m57.84469 17.9688-.5234.0029a2.00007 2.00007 0 0 0 .0229 4h.024l.4765-.0029a2 2 0 0 0 0-4z" fill="#1c2a35" opacity=".3"/><path d="m61.08589 106.5859-3 3a1.99984 1.99984 0 1 0 2.8282 2.8282l3-3a1.99984 1.99984 0 0 0 -2.8282-2.8282z" fill="#1c2a35" opacity=".3"/><path d="m67.21089 111.1055-2 4a2.00025 2.00025 0 0 0 3.5782 1.789l2-4a2.00025 2.00025 0 1 0 -3.5782-1.789z" fill="#1c2a35" opacity=".3"/><path d="m86.25 15.969h12.407v6.97h-12.407z" fill="#e1ebf4"/><path d="m98.657 3.02h27.593v122.73h-27.593z" fill="#94e1e4"/><path d="m77.657 30.02h27.593v95.73h-27.593z" fill="#94e1e4"/><path d="m106 12h2a2 2 0 0 0 0-4h-2a2 2 0 0 0 0 4z" fill="#2d4356"/><path d="m116 12h2a2 2 0 0 0 0-4h-2a2 2 0 0 0 0 4z" fill="#2d4356"/><path d="m106 20h2a2 2 0 0 0 0-4h-2a2 2 0 0 0 0 4z" fill="#2d4356"/><path d="m116 20h2a2 2 0 0 0 0-4h-2a2 2 0 0 0 0 4z" fill="#2d4356"/><path d="m116 28h2a2 2 0 0 0 0-4h-2a2 2 0 0 0 0 4z" fill="#2d4356"/><path d="m116 36h2a2 2 0 0 0 0-4h-2a2 2 0 0 0 0 4z" fill="#2d4356"/><path d="m116 44h2a2 2 0 0 0 0-4h-2a2 2 0 0 0 0 4z" fill="#2d4356"/><path d="m116 52h2a2 2 0 0 0 0-4h-2a2 2 0 0 0 0 4z" fill="#2d4356"/><path d="m116 60h2a2 2 0 0 0 0-4h-2a2 2 0 0 0 0 4z" fill="#2d4356"/><path d="m116 68h2a2 2 0 0 0 0-4h-2a2 2 0 0 0 0 4z" fill="#2d4356"/><path d="m116 76h2a2 2 0 0 0 0-4h-2a2 2 0 0 0 0 4z" fill="#2d4356"/><path d="m116 84h2a2 2 0 0 0 0-4h-2a2 2 0 0 0 0 4z" fill="#2d4356"/><path d="m116 92h2a2 2 0 0 0 0-4h-2a2 2 0 0 0 0 4z" fill="#2d4356"/><path d="m116 100h2a2 2 0 0 0 0-4h-2a2 2 0 0 0 0 4z" fill="#2d4356"/><path d="m116 108h2a2 2 0 0 0 0-4h-2a2 2 0 0 0 0 4z" fill="#2d4356"/><path d="m116 116h2a2 2 0 0 0 0-4h-2a2 2 0 0 0 0 4z" fill="#2d4356"/><path d="m122 0h-20a6.00476 6.00476 0 0 0 -6 6v7h-6a6.00476 6.00476 0 0 0 -6 6v4h4v-4a2.00587 2.00587 0 0 1 2-2h6v6h4v-17a2.00587 2.00587 0 0 1 2-2h20a2.00587 2.00587 0 0 1 2 2v118h-16v-91a6.00476 6.00476 0 0 0 -6-6h-20a6.00476 6.00476 0 0 0 -6 6v15.67a2.10389 2.10389 0 0 0 .05.43l1.56 7.05a9.42454 9.42454 0 0 1 .04 3.09l-1.61 8.03a1.81215 1.81215 0 0 0 -.04.4v10.33a16.013 16.013 0 0 1 4 .53v-10.66l1.57-7.85a13.24779 13.24779 0 0 0 -.05-4.74l-1.52-6.83v-15.45a2.00587 2.00587 0 0 1 2-2h20a2.00587 2.00587 0 0 1 2 2v91h-24v-14.53a16.01019 16.01019 0 0 1 -4 .53v14h-22.15a9.565 9.565 0 0 0 2.15-6c0-5.52-4.78-10-10.67-10h-1.33v-5h9.33a2.67384 2.67384 0 0 0 2.67-2.69v-18.5a4.90727 4.90727 0 0 0 -2.36-3.94l-.58-.31 9.92-19.64c.26.03.51.06.77.07l6.97 25.25a11.97369 11.97369 0 1 0 5.28-1.24 11.64289 11.64289 0 0 0 -1.45.1l-6.93-25.12a6.99592 6.99592 0 1 0 -10.62-5.98 6.91109 6.91109 0 0 0 .22 1.71l-16.48 18.39-5.38-2.82a2.53271 2.53271 0 0 0 -1.18-.28 1.9571 1.9571 0 0 0 -2.18 1.71v4.29h-17.39a4.53082 4.53082 0 0 0 -4.61 4.43v7.57h-7.33a2.68017 2.68017 0 0 0 -2.67 2.69v11.62a2.67384 2.67384 0 0 0 2.67 2.69h29.33v5h-21.33c-5.89 0-10.67 4.48-10.67 10a9.565 9.565 0 0 0 2.15 6h-.15a2 2 0 0 0 0 4h124a2.00591 2.00591 0 0 0 2-2v-120a6.00476 6.00476 0 0 0 -6-6zm-46 86a8 8 0 1 1 -8 8 8.01062 8.01062 0 0 1 8-8zm-12-38a3 3 0 1 1 -3 3 3.00879 3.00879 0 0 1 3-3zm-4.74 8.43-9.74 19.27-5.12-2.68zm-45.26 22c0-.2.25-.43.61-.43h17.39v8h-18zm-10 20.57v-9h32v-16.87l15.7 8.24a1.21868 1.21868 0 0 1 .3.5v17.13zm36 4v5h-4v-5zm5.33 21h-34.66c-3.68 0-6.67-2.69-6.67-6s2.99-6 6.67-6h34.66c3.68 0 6.67 2.69 6.67 6s-2.99 6-6.67 6z" fill="#2d4356"/><circle cx="64" cy="51" fill="#ffdb80" r="3"/><path d="m59.26 56.43-9.74 19.27-5.12-2.68z" fill="#ffdb80"/><path d="m84 94a8 8 0 1 1 -8-8 8.01066 8.01066 0 0 1 8 8z" fill="#d68751"/><path d="m52 118c0 3.31-2.99 6-6.67 6h-34.66c-3.68 0-6.67-2.69-6.67-6s2.99-6 6.67-6h34.66c3.68 0 6.67 2.69 6.67 6z" fill="#d68751"/><path d="m32 78v8h-18v-7.57c0-.2.25-.43.61-.43z" fill="#81d9e3"/><path d="m52 81.87v17.13h-48v-9h32v-16.87l15.7 8.24a1.21868 1.21868 0 0 1 .3.5z" fill="#ffdb80"/><g fill="#2d4356"><circle cx="12" cy="118" r="2"/><circle cx="20" cy="118" r="2"/><circle cx="28" cy="118" r="2"/><circle cx="36" cy="118" r="2"/><circle cx="44" cy="118" r="2"/><path d="m86 39h2a2 2 0 0 0 0-4h-2a2 2 0 0 0 0 4z"/><path d="m96 39h2a2 2 0 0 0 0-4h-2a2 2 0 0 0 0 4z"/><path d="m86 47h2a2 2 0 0 0 0-4h-2a2 2 0 0 0 0 4z"/><path d="m96 47h2a2 2 0 0 0 0-4h-2a2 2 0 0 0 0 4z"/><path d="m86 55h2a2 2 0 0 0 0-4h-2a2 2 0 0 0 0 4z"/><path d="m96 55h2a2 2 0 0 0 0-4h-2a2 2 0 0 0 0 4z"/><path d="m86 63h2a2 2 0 0 0 0-4h-2a2 2 0 0 0 0 4z"/><path d="m96 63h2a2 2 0 0 0 0-4h-2a2 2 0 0 0 0 4z"/><path d="m86 71h2a2 2 0 0 0 0-4h-2a2 2 0 0 0 0 4z"/><path d="m96 71h2a2 2 0 0 0 0-4h-2a2 2 0 0 0 0 4z"/><path d="m86 79h2a2 2 0 0 0 0-4h-2a2 2 0 0 0 0 4z"/><path d="m96 79h2a2 2 0 0 0 0-4h-2a2 2 0 0 0 0 4z"/><path d="m96 87h2a2 2 0 0 0 0-4h-2a2 2 0 0 0 0 4z"/><path d="m96 95h2a2 2 0 0 0 0-4h-2a2 2 0 0 0 0 4z"/><path d="m96 103h2a2 2 0 0 0 0-4h-2a2 2 0 0 0 0 4z"/><path d="m88 107h-2a2 2 0 0 0 0 4h2a2 2 0 0 0 0-4z"/><path d="m96 111h2a2 2 0 0 0 0-4h-2a2 2 0 0 0 0 4z"/><path d="m88 115h-2a2 2 0 0 0 0 4h2a2 2 0 0 0 0-4z"/><path d="m96 119h2a2 2 0 0 0 0-4h-2a2 2 0 0 0 0 4z"/><path d="m44 84a2.00008 2.00008 0 0 0 -2 2v2a2 2 0 0 0 4 0v-2a2.00009 2.00009 0 0 0 -2-2z"/><path d="m61.08589 104.5859-3 3a1.99984 1.99984 0 1 0 2.8282 2.8282l3-3a1.99984 1.99984 0 0 0 -2.8282-2.8282z"/><path d="m67.21089 109.1055-2 4a2.00025 2.00025 0 0 0 3.5782 1.789l2-4a2.00025 2.00025 0 1 0 -3.5782-1.789z"/><path d="m62.75289 22.0283a1.99981 1.99981 0 0 0 2.76711.5869l4.56979-2.9697a1.99929 1.99929 0 0 0 -.0004-3.3535l-4.5699-2.9688a1.99959 1.99959 0 1 0 -2.1787 3.3536l1.9883 1.292-1.9888 1.2929a2.00015 2.00015 0 0 0 -.5874 2.7666z"/><path d="m13.02639 60.5h-.024a2.00019 2.00019 0 0 0 -1.9995 1.9766l-.00289.5234a2 2 0 0 0 4 0l.00289-.4766a2.00014 2.00014 0 0 0 -1.9765-2.0234z"/><path d="m21.88379 36.0166a1.99947 1.99947 0 0 0 2.8144-.2842q.29671-.3633.6016-.7217a1.99968 1.99968 0 1 0 -3.0459-2.5918q-.331.3882-.6543.7842a1.99968 1.99968 0 0 0 .2842 2.8135z"/><path d="m28.08349 26.6797q-.3963.3267-.7861.6641a1.99971 1.99971 0 1 0 2.6181 3.0234c.2344-.2022.4712-.4033.71-.5996a1.99981 1.99981 0 1 0 -2.542-3.0879z"/><path d="m34.80809 22.04q-.4446.252-.8823.5137a2.00031 2.00031 0 0 0 2.0498 3.4356q.4014-.2403.8081-.4707a2.00023 2.00023 0 0 0 -1.9756-3.4786z"/><path d="m42.24369 18.6416q-.4812.16995-.9585.3516a1.9998 1.9998 0 1 0 1.4169 3.7402q.4359-.1641.8746-.3203a2.00007 2.00007 0 1 0 -1.333-3.7715z"/><path d="m50.16109 16.5996q-.5061.08355-1.0083.1787a1.99985 1.99985 0 0 0 .36921 3.9649 1.95588 1.95588 0 0 0 .374-.0352c.30569-.0576.61329-.1113.92139-.1631a1.99976 1.99976 0 0 0 -.6563-3.9453z"/><path d="m15.72659 55.0645a1.9999 1.9999 0 1 0 -3.93359-.7247q-.09241.49965-.17531 1.0049a1.99979 1.99979 0 0 0 1.6518 2.2959 1.93255 1.93255 0 0 0 .3247.0264 2.00088 2.00088 0 0 0 1.9717-1.6777c.0503-.3096.104-.6172.1607-.9248z"/><path d="m20.48439 41.9189q.2307-.4101.4692-.8164a1.99961 1.99961 0 1 0 -3.4473-2.0273q-.2592.4395-.5092.8848a1.99991 1.99991 0 1 0 3.4873 1.9589z"/><path d="m17.40819 48.7393q.15525-.44385.31981-.8838a2 2 0 0 0 -3.74611-1.4024c-.1196.3203-.2358.6407-.3491.9639a2.00013 2.00013 0 1 0 3.7754 1.3223z"/><path d="m57.84469 15.9688-.5234.0029a2.00007 2.00007 0 0 0 .0229 4h.024l.4765-.0029a2 2 0 0 0 0-4z"/><path d="m108 24h-1.66991a10.04832 10.04832 0 0 1 3.501 2.7998 1.99617 1.99617 0 0 0 -1.83109-2.7998z"/><path d="m88 83h-.41111a16.09163 16.09163 0 0 1 2.1865 2.9023 1.98 1.98 0 0 0 .22461-.9023 2.0001 2.0001 0 0 0 -2-2z"/></g><path d="m80 122h24v2h-24z" fill="#426666" opacity=".3"/><path d="m108 122h16v2h-16z" fill="#426666" opacity=".3"/><path d="m59.26 56.43-2.32 4.59-11.32 12.64-1.22-.64z" fill="#f9edd2" opacity=".5"/><path d="m67 51a3 3 0 0 1 -6 0 2.77187 2.77187 0 0 1 .18-1 2.98811 2.98811 0 0 0 5.64 0 2.77187 2.77187 0 0 1 .18 1z" fill="#846134" opacity=".3"/><path d="m4 90h32v2h-32z" fill="#f9edd2" opacity=".5"/><path d="m32 78v2h-17.39c-.36 0-.61.23-.61.43v-2c0-.2.25-.43.61-.43z" fill="#e8fbfc" opacity=".4"/><path d="m52 81.87v2a1.21868 1.21868 0 0 0 -.3-.5l-15.7-8.24v-2l15.7 8.24a1.21868 1.21868 0 0 1 .3.5z" fill="#f9edd2" opacity=".5"/><path d="m4 97h48v2h-48z" fill="#846134" opacity=".3"/><path d="m52 118a4.716 4.716 0 0 1 -.1 1 6.49224 6.49224 0 0 0 -6.57-5h-34.66a6.49224 6.49224 0 0 0 -6.57 5 4.716 4.716 0 0 1 -.1-1c0-3.31 2.99-6 6.67-6h34.66c3.68 0 6.67 2.69 6.67 6z" fill="#e5d0c3" opacity=".3"/><path d="m52 118c0 3.31-2.99 6-6.67 6h-34.66c-3.68 0-6.67-2.69-6.67-6a4.71561 4.71561 0 0 1 .1-1 6.4923 6.4923 0 0 0 6.57 5h34.66a6.4923 6.4923 0 0 0 6.57-5 4.71561 4.71561 0 0 1 .1 1z" fill="#72492d" opacity=".4"/><path d="m84 94a8.267 8.267 0 0 1 -.06 1 8.00312 8.00312 0 0 0 -15.88 0 8.267 8.267 0 0 1 -.06-1 8 8 0 0 1 16 0z" fill="#e5d0c3" opacity=".3"/><path d="m84 94a8 8 0 0 1 -16 0 8.26549 8.26549 0 0 1 .06-1 8.00312 8.00312 0 0 0 15.88 0 8.26549 8.26549 0 0 1 .06 1z" fill="#72492d" opacity=".4"/><path d="m96 17v2h-6a2.00587 2.00587 0 0 0 -2 2v-2a2.00587 2.00587 0 0 1 2-2z" fill="#fff" opacity=".5"/><path d="m104 33v2a2.00587 2.00587 0 0 0 -2-2h-20a2.00587 2.00587 0 0 0 -2 2v-2a2.00587 2.00587 0 0 1 2-2h20a2.00587 2.00587 0 0 1 2 2z" fill="#f5ffff" opacity=".3"/><path d="m124 6v2a2.00587 2.00587 0 0 0 -2-2h-20a2.00587 2.00587 0 0 0 -2 2v-2a2.00587 2.00587 0 0 1 2-2h20a2.00587 2.00587 0 0 1 2 2z" fill="#f5ffff" opacity=".3"/></svg>