<svg id="No" enable-background="new 0 0 64 64" viewBox="0 0 64 64" xmlns="http://www.w3.org/2000/svg"><g><circle cx="32" cy="32" fill="#f7524b" r="32"/><path d="m40.04933 32 7.31037-7.31025c1.11865-1.11865 1.11865-2.93248 0-4.05112l-3.99833-3.99821c-1.11889-1.11877-2.93236-1.11877-4.05124 0l-7.31013 7.31025-7.31037-7.31025c-1.11865-1.11877-2.93259-1.11877-4.05124 0l-3.99809 3.99821c-1.11865 1.11865-1.11865 2.93248 0 4.05112l7.31037 7.31025-7.31037 7.31025c-1.11865 1.11876-1.11865 2.93248 0 4.05124l3.99809 3.99809c1.11865 1.11877 2.93259 1.11877 4.05124 0l7.31037-7.31025 7.31013 7.31025c1.11889 1.11877 2.93236 1.11877 4.05124 0l3.99833-3.99809c1.11865-1.11876 1.11865-2.93248 0-4.05124z" fill="#f0f0fc"/><path d="m54.62176 54.62019c-10.66468 10.66483-26.94127 12.22491-39.25942 4.72704 24.31883-3.21318 42.26443-21.67267 30.03843-56.42101 3.35313 1.56024 6.47331 3.70247 9.22099 6.45015 12.50433 12.48102 12.50433 32.76279 0 45.24382z" opacity=".1"/></g></svg>