<svg id="solid" viewBox="0 0 48 48" xmlns="http://www.w3.org/2000/svg"><path d="m37.7528 8.1546 7.0112-7.0112v28.3469c-1.8768-1.7258-4.3146-2.8369-7.0112-3.0202zm-14.7343-1.1434 7.0112-7.0112h-6.774l-7.0112 7.0112zm13.5909 0 7.0112-7.0112h-11.3042l-7.0112 7.0112zm-21.5083 11.3798 3.2683-2.1789c.2804-.1834.6256-.1834.906 0l3.2683 2.1789v-9.7618h-7.4427v9.7618zm31.8202 19.6315c0 5.5011-4.4764 9.9775-9.9775 9.9775s-9.9775-4.4764-9.9775-9.9775 4.4764-9.9775 9.9775-9.9775 9.9775 4.4764 9.9775 9.9775zm-4.0125-4.0882c-.3129-.3236-.8306-.3236-1.1434 0l-6.4719 6.4612-3.1712-3.1712c-.3129-.3129-.8306-.3129-1.1434 0-.3128.3236-.3128.8305 0 1.1434l3.743 3.7429c.151.1618.356.2373.5717.2373s.4207-.0755.5717-.2373l7.0436-7.0328c.3128-.3236.3128-.8305 0-1.1434zm-17.5605 4.0882c0 2.1249.4962 4.0341 1.3591 5.6629h-25.6287v-35.0562h12.4045v11.2719c0 .302.1618.5717.4315.7119.1186.0647.2481.0971.3775.0971.1618 0 .3128-.0432.453-.1402l4.0773-2.7182 4.0773 2.7182c.2589.1726.5717.1834.8306.0431.2697-.1402.4315-.4099.4315-.7119v-11.2719h11.973v17.8409c-6.0189.4207-10.7865 5.4364-10.7865 11.5524zm-15.6404 2.1573c0-.4423-.3668-.809-.809-.809h-4.3146c-.4422 0-.809.3667-.809.809s.3668.809.809.809h4.3146c.4422 0 .809-.3668.809-.809zm3.2359-4.3146c0-.4423-.3668-.809-.809-.809h-7.5506c-.4422 0-.809.3667-.809.809s.3668.809.809.809h7.5506c.4422 0 .809-.3668.809-.809zm8.0252-35.8652h-11.315l-7.3673 7.0112h11.671z"/></svg>