<svg fill="none" height="512" viewBox="0 0 24 24" width="512" xmlns="http://www.w3.org/2000/svg"><g fill="rgb(0,0,0)"><path d="m5 5c0-1.65685 1.34315-3 3-3h8c1.6569 0 3 1.34315 3 3v14c0 1.6569-1.3431 3-3 3h-8c-1.65685 0-3-1.3431-3-3v-3.1716l1.58579 1.5858c.78104.7811 2.04738.7811 2.82842 0 .78109-.781.78109-2.0474 0-2.8284l-2.41421-2.5858 2.41421-2.58579c.78109-.78104.78109-2.04738 0-2.82842-.78105-.78105-2.04738-.78105-2.82842 0l-1.58579 1.58578z"/><path d="m8.70711 7.29289c.39052.39053.39052 1.02369 0 1.41422l-3.2929 3.29289 3.2929 3.2929c.39052.3905.39052 1.0237 0 1.4142-.39053.3905-1.02369.3905-1.41422 0l-4-4c-.39052-.3905-.39052-1.0237 0-1.4142l4-4.00001c.39053-.39052 1.02369-.39052 1.41422 0z"/></g></svg>