<svg id="Layer_1" enable-background="new 0 0 100 100" viewBox="0 0 100 100" xmlns="http://www.w3.org/2000/svg"><g><path d="m31.13 76.76c-.04-2.16-1.46-3.91-3.21-3.91h-13.24v-11.89c0-1.4-1.14-2.54-2.54-2.54h-4.52c-1.4 0-2.54 1.14-2.54 2.54v33.24c0 .41.34.75.75.75h22.29c.26 0 .5-.13.64-.35s.15-.49.04-.72c-.09-.19-2.37-4.78-8.81-5.62-1.54-.2-2.37-.84-2.28-1.76.07-.7.71-1.47 1.48-1.4 1.91.12 7.47-.2 10.32-3.19 1.3-1.39 1.85-3.11 1.62-5.15 0 .01 0 .01 0 0zm-3.21-2.41c.75 0 1.41.75 1.63 1.76h-14.87v-1.76zm-21.34 1.76v-13.22h6.6v13.22zm1.04-16.19h4.52c.57 0 1.04.47 1.04 1.04v.43h-6.6v-.43c0-.57.46-1.04 1.04-1.04zm20.8 20.94c-2.45 2.56-7.55 2.84-9.14 2.73-1.5-.08-2.92 1.16-3.07 2.75-.14 1.4.73 3.02 3.58 3.4 3.81.5 5.94 2.46 6.94 3.71h-20.15v-15.84h23.11c.01 1.28-.41 2.35-1.27 3.25z"/><path d="m9.88 64.55c-1.31 0-2.38 1.07-2.38 2.38s1.07 2.38 2.38 2.38 2.38-1.07 2.38-2.38-1.07-2.38-2.38-2.38zm0 3.26c-.49 0-.88-.4-.88-.88s.39-.88.88-.88.88.39.88.88-.4.88-.88.88z"/><path d="m56.07 61.97h-6.42v-1.42h.94c.41 0 .75-.34.75-.75s-.34-.75-.75-.75h-3.38c-.41 0-.75.34-.75.75s.34.75.75.75h.94v1.42h-4.16v-8.33c0-1.65-1.37-3-3.06-3s-3.06 1.35-3.06 3v1.69c0 .41.34.75.75.75s.75-.34.75-.75v-1.69c0-.83.7-1.5 1.56-1.5s1.56.67 1.56 1.5v8.33h-3.94v-1.42h.94c.41 0 .75-.34.75-.75s-.34-.75-.75-.75h-3.38c-.41 0-.75.34-.75.75s.34.75.75.75h.94v1.42h-6.42c-.21 0-.41.09-.55.24s-.21.36-.2.57l.23 3.01c.3 3.88 3.86 6.92 8.1 6.92h1.41l-1.26 21.45c-.01.21.06.41.2.56s.34.24.55.24h8.47c.21 0 .4-.08.55-.24.14-.15.22-.35.2-.56l-1.26-21.46h1.41c4.24 0 7.8-3.04 8.1-6.92l.23-3.01c.02-.21-.06-.41-.2-.57-.13-.15-.33-.23-.54-.23zm-9.28 31.48h-6.88l1.22-20.75h4.44zm8.3-27.79c-.24 3.1-3.15 5.54-6.61 5.54h-10.26c-3.46 0-6.37-2.43-6.61-5.54l-.17-2.2h23.82z"/><path d="m94.16 5.1h-34.25c-.41 0-.75.34-.75.75v88.43c0 .41.34.75.75.75h34.25c.41 0 .75-.34.75-.75v-88.43c0-.42-.33-.75-.75-.75zm-.75 1.5v7.39h-15c-.41 0-.75.34-.75.75v3.85c-2.94.37-5.24 2.89-5.43 6-.4.31-.66.78-.66 1.33v.37c0 .92.75 1.67 1.67 1.67h10.33c.92 0 1.67-.75 1.67-1.67v-.37c0-.54-.26-1.02-.66-1.33-.19-3.11-2.49-5.63-5.43-6v-3.1h14.25v32.61h-2.28v-.89c0-.41-.34-.75-.75-.75s-.75.34-.75.75v3.27c0 .41.34.75.75.75s.75-.34.75-.75v-.88h2.28v40.05h-32.74v-83.05zm-20.34 19.31c0-.1.08-.17.17-.17h10.33c.1 0 .17.08.17.17v.37c0 .1-.08.17-.17.17h-10.33c-.1 0-.17-.08-.17-.17zm.71-1.67c.35-2.37 2.28-4.2 4.62-4.2s4.28 1.83 4.62 4.2zm-13.12 69.29v-2.38h32.75v2.38z"/><path d="m79.73 32.17c.41 0 .75-.34.75-.75v-1.32c0-.41-.34-.75-.75-.75s-.75.34-.75.75v1.32c0 .41.34.75.75.75z"/><path d="m79.73 35.63c.41 0 .75-.34.75-.75v-1.32c0-.41-.34-.75-.75-.75s-.75.34-.75.75v1.32c0 .42.34.75.75.75z"/><path d="m79.73 38.55c.41 0 .75-.34.75-.75v-.77c0-.41-.34-.75-.75-.75s-.75.34-.75.75v.77c0 .42.34.75.75.75z"/><path d="m82.39 32.17c.41 0 .75-.34.75-.75v-1.32c0-.41-.34-.75-.75-.75s-.75.34-.75.75v1.32c0 .41.33.75.75.75z"/><path d="m82.39 35.63c.41 0 .75-.34.75-.75v-1.32c0-.41-.34-.75-.75-.75s-.75.34-.75.75v1.32c0 .42.33.75.75.75z"/><path d="m82.39 38.55c.41 0 .75-.34.75-.75v-.77c0-.41-.34-.75-.75-.75s-.75.34-.75.75v.77c0 .42.33.75.75.75z"/><path d="m74.43 32.17c.41 0 .75-.34.75-.75v-1.32c0-.41-.34-.75-.75-.75s-.75.34-.75.75v1.32c0 .41.33.75.75.75z"/><path d="m74.43 35.63c.41 0 .75-.34.75-.75v-1.32c0-.41-.34-.75-.75-.75s-.75.34-.75.75v1.32c0 .42.33.75.75.75z"/><path d="m74.43 38.55c.41 0 .75-.34.75-.75v-.77c0-.41-.34-.75-.75-.75s-.75.34-.75.75v.77c0 .42.33.75.75.75z"/><path d="m77.08 32.17c.41 0 .75-.34.75-.75v-1.32c0-.41-.34-.75-.75-.75s-.75.34-.75.75v1.32c0 .41.34.75.75.75z"/><path d="m77.08 35.63c.41 0 .75-.34.75-.75v-1.32c0-.41-.34-.75-.75-.75s-.75.34-.75.75v1.32c0 .42.34.75.75.75z"/><path d="m77.08 38.55c.41 0 .75-.34.75-.75v-.77c0-.41-.34-.75-.75-.75s-.75.34-.75.75v.77c0 .42.34.75.75.75z"/><path d="m10.64 33.73h2.99v15.09c0 .41.34.75.75.75h9.5c.41 0 .75-.34.75-.75v-2.27h4.29c.41 0 .75-.34.75-.75v-12.07h2.84c.41 0 .75-.34.75-.75s-.34-.75-.75-.75h-2.85c-.07-1.64-1.42-2.96-3.08-2.96-2.42 0-9.68 0-9.68 0-1.67 0-3.04 1.3-3.23 2.96h-3.03c-.41 0-.75.34-.75.75s.34.75.75.75zm12.49 14.34h-8v-2.74h8zm5.05-3.03h-3.54v-11.31h3.54zm-1.6-14.27c.83 0 1.51.64 1.58 1.46h-3.52c.07-.81.75-1.46 1.58-1.46zm-9.67 0h6.68c-.28.47-.46 1.01-.46 1.59v11.46h-8v-11.21c0-1.01.8-1.84 1.78-1.84z"/></g></svg>