<svg id="Capa_1" enable-background="new 0 0 512 512" viewBox="0 0 512 512" xmlns="http://www.w3.org/2000/svg"><g><path d="m428.609 256-170.844 46.594-170.843-46.594v-176.906c0-13.807 11.193-25 25-25h291.688c13.807 0 25 11.193 25 25v176.906z" fill="#26a6fe"/><path d="m392.547 473.438h-269.563c-2.761 0-5-2.239-5-5v-378.282c0-2.761 2.239-5 5-5h269.562c2.761 0 5 2.239 5 5v378.281c.001 2.762-2.238 5.001-4.999 5.001z" fill="#eaf6ff"/><path d="m392.547 85.156h-15v130.312c0 13.807-11.193 25-25 25l-29.878 15.532-27.628-15.531h-177.057v227.969c0 2.761 2.239 5 5 5h269.562c2.761 0 5-2.239 5-5v-378.282c.001-2.761-2.238-5-4.999-5z" fill="#d8ecfe"/><path d="m293.482 38.562c-2.459 0-4.608-1.78-4.938-4.217-2.058-15.16-15.054-26.845-30.779-26.845s-28.721 11.685-30.779 26.845c-.331 2.437-2.479 4.217-4.938 4.217h-52.471c-2.761 0-5 2.239-5 5v57.125c0 8.284 6.716 15 15 15h156.375c8.284 0 15-6.716 15-15v-57.125c0-2.761-2.239-5-5-5z" fill="#b3dafe"/><path d="m288.761 148.871-41.928 41.928c-1.06 1.06-2.778 1.06-3.838 0l-21.923-21.923c-2.12-2.12-5.556-2.12-7.676 0l-16.167 16.167c-2.12 2.12-2.12 5.556 0 7.676l43.846 43.846c2.12 2.12 5.556 2.12 7.676 0l63.851-63.851c2.12-2.12 2.12-5.556 0-7.676l-16.167-16.167c-2.118-2.12-5.555-2.12-7.674 0z" fill="#46cc8d"/><path d="m295.041 240.469h174.126c2.227 0 3.343 2.693 1.768 4.268l-42.326 42.326-93.188 15.531-93.188-15.531 42.2-42.2c2.814-2.814 6.63-4.394 10.608-4.394z" fill="#eca026"/><path d="m189.427 240.469h-146.594c-2.227 0-3.343 2.693-1.768 4.268l42.326 42.326 65.656 15.531 93.188-15.531-42.2-42.2c-2.814-2.814-6.63-4.394-10.608-4.394z" fill="#feb237"/><path d="m423.609 504.5h-181.375l-15.531-155.312 15.531-62.125h186.375v212.437c0 2.761-2.239 5-5 5z" fill="#feb237"/><path d="m88.391 504.5h153.843v-217.438h-158.843v212.438c0 2.761 2.239 5 5 5z" fill="#ffc344"/><path d="m395.047 473.438h-41.594c-1.381 0-2.5-1.119-2.5-2.5v-26.062c0-1.381 1.119-2.5 2.5-2.5h41.594c1.381 0 2.5 1.119 2.5 2.5v26.062c0 1.38-1.12 2.5-2.5 2.5z" fill="#eaf6ff"/><path d="m195.64 92.656h124.25c4.143 0 7.5-3.357 7.5-7.5s-3.357-7.5-7.5-7.5h-124.25c-4.143 0-7.5 3.357-7.5 7.5s3.358 7.5 7.5 7.5z"/><circle cx="257.765" cy="38.562" r="7.5"/><path d="m301.741 143.569c-2.441-2.443-5.688-3.788-9.143-3.788-3.453 0-6.699 1.345-9.142 3.786l-38.543 38.544-18.538-18.54c-5.041-5.039-13.24-5.04-18.283.001l-16.164 16.165c-2.443 2.441-3.788 5.688-3.788 9.143 0 3.453 1.345 6.699 3.786 9.142l43.846 43.844c2.441 2.443 5.688 3.788 9.142 3.788s6.701-1.345 9.142-3.786l63.849-63.85c2.443-2.441 3.788-5.688 3.788-9.143 0-3.453-1.345-6.699-3.786-9.142zm-56.827 86.225-40.915-40.914 13.235-13.236 20.46 20.461c3.984 3.98 10.462 3.978 14.442-.002l40.462-40.463 13.235 13.235z"/><path d="m353.453 480.938h41.594c5.514 0 10-4.486 10-10v-26.062c0-5.514-4.486-10-10-10h-41.594c-5.514 0-10 4.486-10 10v26.062c0 5.513 4.486 10 10 10zm5-31.063h31.594v16.062h-31.594z"/><path d="m478.406 239.142c-1.553-3.75-5.18-6.173-9.238-6.173h-33.06v-153.878c0-17.92-14.579-32.5-32.5-32.5h-45.155v-3.029c0-6.893-5.607-12.5-12.5-12.5h-50.355c-3.53-17.862-19.402-31.062-37.833-31.062s-34.303 13.2-37.832 31.062h-50.355c-6.893 0-12.5 5.607-12.5 12.5v3.029h-45.16c-17.921 0-32.5 14.579-32.5 32.5v16.597c0 4.143 3.357 7.5 7.5 7.5s7.5-3.357 7.5-7.5v-16.597c0-9.649 7.851-17.5 17.5-17.5h45.16v16.06h-34.09c-6.893 0-12.5 5.607-12.5 12.5v142.817h-16.07v-102.28c0-4.143-3.357-7.5-7.5-7.5s-7.5 3.357-7.5 7.5v102.281h-36.585c-4.06 0-7.686 2.423-9.239 6.173s-.702 8.027 2.168 10.898l40.13 40.13v97.971c0 4.143 3.357 7.5 7.5 7.5s7.5-3.357 7.5-7.5v-93.578h143.843v202.437h-143.844v-73.859c0-4.143-3.357-7.5-7.5-7.5s-7.5 3.357-7.5 7.5v76.359c0 6.893 5.607 12.5 12.5 12.5h335.218c6.893 0 12.5-5.607 12.5-12.5v-209.33l40.13-40.13c2.87-2.87 3.721-7.148 2.167-10.898zm-74.798-177.551c9.649 0 17.5 7.85 17.5 17.5v153.878h-16.061v-142.818c0-6.893-5.607-12.5-12.5-12.5h-34.095v-16.06zm-231.53-15.529h49.971c6.223 0 11.541-4.604 12.37-10.708 1.575-11.604 11.612-20.354 23.346-20.354s21.771 8.75 23.347 20.355c.829 6.104 6.147 10.708 12.37 10.708h49.971v54.625c0 4.136-3.364 7.5-7.5 7.5h-156.375c-4.136 0-7.5-3.364-7.5-7.5zm-85.58 233.5-31.594-31.594h134.523c2.003 0 3.887.78 5.303 2.197l29.397 29.396h-137.629zm334.611 217.438h-171.375v-202.438h171.375zm4.394-217.438h-165.163l29.397-29.396c1.416-1.417 3.3-2.197 5.303-2.197h17.184c4.143 0 7.5-3.357 7.5-7.5s-3.357-7.5-7.5-7.5h-17.184c-6.01 0-11.66 2.341-15.91 6.59l-36.896 36.896-36.896-36.896c-4.25-4.249-9.9-6.59-15.91-6.59h-63.939v-140.318h31.59v8.036c0 12.406 10.094 22.5 22.5 22.5h156.375c12.406 0 22.5-10.094 22.5-22.5v-8.036h31.595v140.317h-42.823c-4.143 0-7.5 3.357-7.5 7.5s3.357 7.5 7.5 7.5h109.872z"/></g><g/><g/><g/><g/><g/><g/><g/><g/><g/><g/><g/><g/><g/><g/><g/></svg>