<svg id="Capa_1" enable-background="new 0 0 512 512" viewBox="0 0 512 512" xmlns="http://www.w3.org/2000/svg"><g><path d="m499.5 443.679h-52.125c-2.761 0-5-2.239-5-5v-365.358c0-2.761 2.239-5 5-5h52.125c2.761 0 5 2.239 5 5v365.357c0 2.762-2.239 5.001-5 5.001z" fill="#e53950"/><path d="m499.5 68.321h-15v350.357c0 2.761-2.239 5-5 5h-37.125v15c0 2.761 2.239 5 5 5h52.125c2.761 0 5-2.239 5-5v-365.357c0-2.761-2.239-5-5-5z" fill="#ca2e43"/><path d="m162.812 316.821-15.531-93.183-62.125-.004-15.531 93.187z" fill="#e5eef9"/><path d="m7.5 332.353 62.125 15.531-15.531-124.25c-25.733 0-46.594 20.861-46.594 46.594z" fill="#e5eef9"/><path d="m54.094 223.634c-7.157 0-13.937 1.615-19.996 4.498v79.221c0 2.761-2.239 5-5 5h-21.598v20l62.125 15.531z" fill="#d5e3f4"/><path d="m224.938 316.821h-62.125l15.531-93.188c25.733 0 46.594 20.861 46.594 46.594z" fill="#e5eef9"/><path d="m248.234 363.415-69.89 15.531-15.532-62.125h108.719z" fill="#ffbd86"/><path d="m147.281 108.321c0-22.091-17.909-40-40-40h-13.187c-22.091 0-40 17.909-40 40v6.594h93.187z" fill="#3c87d0"/><path d="m107.281 68.321h-13.187c-2.007 0-3.979.148-5.906.434 19.291 2.855 34.094 19.482 34.094 39.566v6.594h25v-6.594c-.001-22.091-17.909-40-40.001-40z" fill="#0078c8"/><path d="m54.094 114.915v27.656c0 27.614 22.386 50 50 50h18.187c13.807 0 25-11.193 25-25v-52.656z" fill="#ffe5c2"/><path d="m122.281 114.915v52.656c0 12.853-9.7 23.44-22.179 24.842 1.317.104 2.648.158 3.991.158h18.187c13.807 0 25-11.193 25-25v-52.656z" fill="#fed2a4"/><path d="m85.156 265.228v-41.593l-31.059-.001v212.438c0 2.761 2.239 5 5 5h114.25c2.761 0 5-2.239 5-5v-212.438h-31.066v46.594h-57.125c-2.761 0-5-2.239-5-5z" fill="#3c87d0"/><path d="m158.347 223.634v192.438c0 2.761-2.239 5-5 5h-99.25v15c0 2.761 2.239 5 5 5h114.25c2.761 0 5-2.239 5-5v-212.438z" fill="#0078c8"/><path d="m126.75 410.009h-16.062c-5.523 0-10-4.477-10-10v-21.062l29.805-19.424 1.257 19.424v26.062c0 2.761-2.239 5-5 5z" fill="#e53950"/><path d="m7.5 332.353v23.534c0 12.171 10.78 21.52 22.828 19.799l48.103-9.091c4.274-.611 8.605.65 11.883 3.46l10.373 8.891h36.594c5.523 0 10-4.477 10-10v-36.594h-139.781z" fill="#ffe5c2"/><path d="m122.281 358.946h-12.345c-1.194 0-2.348-.427-3.254-1.204l-3.354-2.875c-6.383-5.469-14.478-8.423-22.777-8.423-6.24 0-3.554.353-72.712 13.137 1.917 10.3 11.693 17.646 22.489 16.103l48.103-9.091c4.274-.611 8.605.65 11.883 3.46l10.373 8.891h36.594c5.523 0 10-4.477 10-10v-36.594h-20v21.594c0 2.764-2.238 5.002-5 5.002z" fill="#fed2a4"/><path d="m256 270.228h-138.542c-9.262 0-16.771 7.508-16.771 16.771v45.354h155.313l15.531-31.062z" fill="#e53950"/><path d="m256 270.228h-20v37.125c0 2.761-2.239 5-5 5h-130.312v20h155.312l15.531-31.062z" fill="#ca2e43"/><path d="m318.125 316.821-31.063 15.532-15.531-31.063 15.531-31.062 31.063 15.531 15.531 15.531z" fill="#685e68"/><path d="m442.375 316.821h-124.25v-31.062h124.25l13.763 13.763c.976.976.976 2.559 0 3.536z" fill="#cbc4cc"/><path d="m282.062 254.696h-21.062c-2.761 0-5 2.239-5 5v72.656h31.062v-72.656c0-2.761-2.238-5-5-5z" fill="#f3f0f3"/><path d="m284.828 378.946h-26.594c-5.523 0-10-4.477-10-10v-36.594h41.594c2.761 0 5 2.239 5 5v31.594c0 5.523-4.477 10-10 10z" fill="#ffe5c2"/><path d="m289.828 332.353h-15v21.594c0 2.761-2.239 5-5 5h-21.594v10c0 5.523 4.477 10 10 10h26.594c5.523 0 10-4.477 10-10v-31.594c0-2.762-2.238-5-5-5z" fill="#fed2a4"/><path d="m104.094 200.071h18.188c17.92 0 32.5-14.579 32.5-32.5v-45.156h39.094c4.142 0 7.5-3.357 7.5-7.5s-3.358-7.5-7.5-7.5h-39.103c-.485-25.775-21.602-46.594-47.49-46.594h-13.189c-26.191 0-47.5 21.309-47.5 47.5v34.25c0 31.706 25.794 57.5 57.5 57.5zm-10-124.25h13.188c17.617 0 32.005 14.09 32.487 31.594h-78.162c.481-17.503 14.869-31.594 32.487-31.594zm-32.5 46.594h78.188v45.156c0 9.649-7.851 17.5-17.5 17.5h-18.188c-23.435 0-42.5-19.065-42.5-42.5z"/><path d="m499.5 60.821h-52.125c-6.893 0-12.5 5.607-12.5 12.5v119.357c0 4.143 3.358 7.5 7.5 7.5s7.5-3.357 7.5-7.5v-116.857h47.125v360.357h-47.125v-116.25l11.568-11.569c3.896-3.897 3.896-10.241-.001-14.141l-11.567-11.567v-54.973c0-4.143-3.358-7.5-7.5-7.5s-7.5 3.357-7.5 7.5v50.58h-114.98l-25.333-12.666v-5.896c0-6.893-5.607-12.5-12.5-12.5h-21.062c-6.893 0-12.5 5.607-12.5 12.5v3.031h-16.581c-3.662-26.289-26.289-46.591-53.57-46.594h-124.255c-29.828.001-54.094 24.267-54.094 54.095v85.658c0 7.977 3.456 15.549 9.482 20.775s14.011 7.576 21.907 6.449c.111-.016.222-.034.332-.056l14.876-2.811v55.828c0 6.893 5.607 12.5 12.5 12.5h37.796c4.142 0 7.5-3.357 7.5-7.5s-3.358-7.5-7.5-7.5h-35.295v-56.163l18.032-3.408c2.09-.263 4.2.373 5.804 1.748l7.754 6.646v17.613c0 9.649 7.851 17.5 17.5 17.5h16.062c6.893 0 12.5-5.607 12.5-12.5v-18.673c8.726-.981 15.531-8.406 15.531-17.39v-29.094h16.066v93.719h-37.954c-4.142 0-7.5 3.357-7.5 7.5s3.358 7.5 7.5 7.5h40.454c6.893 0 12.5-5.607 12.5-12.5v-51.11l55.287-12.286c1.713 7.864 8.73 13.771 17.1 13.771h5.797v23.562c0 4.143 3.358 7.5 7.5 7.5s7.5-3.357 7.5-7.5v-23.562h5.797c9.649 0 17.5-7.851 17.5-17.5v-31.594c0-1.373-.223-2.694-.634-3.931l18.201-9.1h114.98v114.357c0 6.893 5.607 12.5 12.5 12.5h52.125c6.893 0 12.5-5.607 12.5-12.5v-365.355c0-6.892-5.607-12.5-12.5-12.5zm-173.875 232.438h113.644l8.031 8.031-8.031 8.031h-113.644zm-15-2.865v21.792l-16.062 8.031v-37.855zm-47.125-28.198h16.062v62.656h-16.062zm-15 62.657h-140.312v-37.854c0-5.111 4.159-9.271 9.271-9.271h131.041zm-155.844-93.718 47.125.002v31.59h-47.125zm78.192 31.593h-16.066v-31.594h16.066zm45.867 0h-30.867v-30.871c15.55 3.035 27.833 15.319 30.867 30.871zm-170.117-30.873v32.138c0 4.143 3.358 7.5 7.5 7.5s7.5-3.357 7.5-7.5v-32.859l16.059.001v34.093c0 6.893 5.607 12.5 12.5 12.5h4.872c-1.185 2.858-1.841 5.989-1.841 9.271v37.854h-31.59v-25.859c0-4.143-3.358-7.5-7.5-7.5s-7.5 3.357-7.5 7.5v25.859h-31.598v-54.625c0-18.994 13.615-34.866 31.598-38.373zm64.09 170.654c-1.378 0-2.5-1.121-2.5-2.5v-13.562h16.062v16.062zm29.093-33.563c0 1.379-1.122 2.5-2.5 2.5h-33.819l-8.268-7.087c-4.917-4.213-11.413-6.108-17.823-5.189-.111.016-.222.034-.333.056l-47.918 9.056c-3.545.462-7.11-.609-9.811-2.952-2.739-2.376-4.31-5.817-4.31-9.443v-16.033h124.781v29.092zm46.067-29.093h54.887v17.546l-54.887 12.198zm101.48 29.093c0 1.379-1.122 2.5-2.5 2.5h-26.594c-1.378 0-2.5-1.121-2.5-2.5v-29.094h31.594z"/><path d="m406.009 260c1.464 1.464 3.384 2.196 5.303 2.196s3.839-.732 5.303-2.196c2.929-2.93 2.929-7.678 0-10.607l-15.531-15.531c-2.929-2.928-7.678-2.928-10.606 0-2.929 2.93-2.929 7.678 0 10.607z"/><path d="m406.009 342.58-15.531 15.531c-2.929 2.93-2.929 7.678 0 10.607 1.464 1.464 3.384 2.196 5.303 2.196s3.839-.732 5.303-2.196l15.531-15.531c2.929-2.93 2.929-7.678 0-10.607-2.928-2.928-7.677-2.928-10.606 0z"/><path d="m162.812 293.79h-31.062c-4.142 0-7.5 3.357-7.5 7.5s3.358 7.5 7.5 7.5h31.062c4.142 0 7.5-3.357 7.5-7.5s-3.357-7.5-7.5-7.5z"/></g><g/><g/><g/><g/><g/><g/><g/><g/><g/><g/><g/><g/><g/><g/><g/></svg>