<svg id="Capa_1" enable-background="new 0 0 512 512" height="512" viewBox="0 0 512 512" width="512" xmlns="http://www.w3.org/2000/svg"><g><g><g><path d="m167.874 479.709c-8.124-1.625-13.393-9.527-11.768-17.65l21.998-110.001c1.624-8.123 9.527-13.392 17.65-11.767h.001c8.123 1.624 13.392 9.527 11.767 17.65l-21.998 110.001c-1.625 8.123-9.527 13.392-17.65 11.767z" fill="#ffcd00"/></g><path d="m425.977 199.975h-124.617l97.763-177.749c5.498-9.996-1.734-22.226-13.142-22.226h-179.98c-6.339 0-11.993 3.985-14.125 9.954l-99.988 279.965c-3.488 9.767 3.753 20.043 14.125 20.043h141.723l-36.449 184.064c-3.142 15.865 17.59 24.782 26.947 11.59l199.976-281.966c7.044-9.932-.057-23.675-12.233-23.675z" fill="#ffef31"/><path d="m425.977 199.975h-124.617l97.763-177.749c5.498-9.996-1.734-22.226-13.142-22.226h-129.98v480.562l182.209-256.912c7.044-9.932-.057-23.675-12.233-23.675z" fill="#ffcd00"/></g><g><g><path d="m40.956 298.729c-7.802-2.786-11.867-11.369-9.081-19.171l64.285-180c2.786-7.802 11.369-11.867 19.171-9.081 7.802 2.786 11.867 11.369 9.081 19.171l-64.285 180c-2.786 7.802-11.369 11.868-19.171 9.081z" fill="#ffcd00"/></g></g><g><g><path d="m392.247 128.146c-7.259-3.993-9.907-13.113-5.914-20.372l55.001-100c3.992-7.259 13.113-9.907 20.372-5.914 7.259 3.992 9.906 13.113 5.914 20.372l-55.001 100c-3.993 7.258-13.114 9.906-20.372 5.914z" fill="#ff9f00"/></g></g><g><g><path d="m291.13 509.286c-6.787-4.753-8.435-14.106-3.683-20.892l71.43-102.001c4.752-6.786 14.105-8.434 20.891-3.682l.001.001c6.786 4.752 8.434 14.105 3.682 20.891l-71.43 102.001c-4.753 6.785-14.106 8.434-20.891 3.682z" fill="#ff9f00"/></g><g><path d="m421.568 324.434c-6.742-4.816-8.303-14.184-3.488-20.925l35.715-50.001c4.815-6.741 14.183-8.302 20.924-3.487h.001c6.741 4.815 8.302 14.183 3.487 20.924l-35.715 50.001c-4.815 6.742-14.183 8.303-20.924 3.488z" fill="#ff9f00"/></g></g></g></svg>