<svg id="Layer_1" enable-background="new 0 0 512 512" viewBox="0 0 512 512" xmlns="http://www.w3.org/2000/svg"><g clip-rule="evenodd" fill-rule="evenodd"><g><path d="m19.373 36.157h335.927c8.036 0 14.611 6.575 14.611 14.611v314.913c0 8.036-6.575 14.611-14.611 14.611h-335.927c-8.036 0-14.612-6.575-14.612-14.611v-314.913c0-8.037 6.575-14.611 14.612-14.611z" fill="#3b3b6b"/><path d="m40.606 36.157h30.257v21.207c0 8.32-6.808 15.129-15.128 15.129-8.321 0-15.129-6.808-15.129-15.129zm79.946 0h30.257v21.207c0 8.32-6.808 15.129-15.129 15.129-8.32 0-15.128-6.808-15.128-15.129zm79.947 0h30.257v21.207c0 8.32-6.808 15.129-15.129 15.129-8.32 0-15.128-6.808-15.128-15.129zm79.947 0h30.257v21.207c0 8.32-6.808 15.129-15.129 15.129s-15.128-6.808-15.128-15.129z" fill="#32325b"/><path d="m105.041 36.157h250.258c8.036 0 14.611 6.575 14.611 14.611v220.832c-22.803 9.167-47.701 14.222-73.783 14.222-109.315 0-197.932-88.617-197.932-197.932.002-17.901 2.392-35.241 6.846-51.733z" fill="#45467e"/><path d="m120.552 36.157h30.257v21.207c0 8.32-6.808 15.129-15.129 15.129-8.32 0-15.128-6.808-15.128-15.129zm79.947 0h30.257v21.207c0 8.32-6.808 15.129-15.129 15.129-8.32 0-15.128-6.808-15.128-15.129zm79.947 0h30.257v21.207c0 8.32-6.808 15.129-15.129 15.129s-15.128-6.808-15.128-15.129z" fill="#3b3b6b"/><path d="m67.416 5.131c-8.321 0-15.129 6.808-15.129 15.128v31.795c0 8.321 6.808 15.128 15.129 15.128 8.32 0 15.129-6.808 15.129-15.128v-31.795c0-8.32-6.808-15.128-15.129-15.128zm239.84 0c-8.32 0-15.129 6.808-15.129 15.128v31.795c0 8.321 6.808 15.128 15.129 15.128 8.32 0 15.128-6.808 15.128-15.128v-31.795c0-8.32-6.807-15.128-15.128-15.128zm-79.946 0c-8.321 0-15.128 6.808-15.128 15.128v31.795c0 8.321 6.808 15.128 15.128 15.128s15.129-6.808 15.129-15.128v-31.795c-.001-8.32-6.809-15.128-15.129-15.128zm-79.947 0c-8.32 0-15.128 6.808-15.128 15.128v31.795c0 8.321 6.808 15.128 15.128 15.128s15.129-6.808 15.129-15.128v-31.795c-.001-8.32-6.809-15.128-15.129-15.128z" fill="#8f8b81"/><path d="m4.761 103.973h365.15v269.736c0 8.036-6.575 14.612-14.611 14.612h-335.928c-8.036 0-14.611-6.575-14.611-14.612z" fill="#fecbaa"/><path d="m111.352 237.996c11.034 0 19.979 8.945 19.979 19.979 0 11.035-8.945 19.98-19.979 19.98-11.035 0-19.98-8.945-19.98-19.98 0-11.034 8.945-19.979 19.98-19.979zm-68.657 74.647c11.035 0 19.98 8.945 19.98 19.98s-8.945 19.98-19.98 19.98c-11.034 0-19.979-8.945-19.979-19.98s8.945-19.98 19.979-19.98zm68.657 0c11.034 0 19.979 8.945 19.979 19.98s-8.945 19.98-19.979 19.98c-11.035 0-19.98-8.945-19.98-19.98s8.945-19.98 19.98-19.98zm-68.657-149.294c11.035 0 19.98 8.945 19.98 19.98 0 11.034-8.945 19.98-19.98 19.98-11.034 0-19.979-8.945-19.979-19.98s8.945-19.98 19.979-19.98zm137.313 0c11.034 0 19.979 8.945 19.979 19.98 0 11.034-8.945 19.98-19.979 19.98-11.035 0-19.98-8.945-19.98-19.98s8.945-19.98 19.98-19.98zm-68.656 0c11.034 0 19.979 8.945 19.979 19.98 0 11.034-8.945 19.98-19.979 19.98-11.035 0-19.98-8.945-19.98-19.98s8.945-19.98 19.98-19.98zm-68.657 74.647c11.035 0 19.98 8.945 19.98 19.979 0 11.035-8.945 19.98-19.98 19.98-11.034 0-19.979-8.945-19.979-19.98 0-11.034 8.945-19.979 19.979-19.979z" fill="#ffb98d"/><path d="m98.849 103.973h271.061v167.626c-22.803 9.167-47.701 14.222-73.783 14.222-103.898 0-189.09-80.056-197.278-181.848z" fill="#fedfc5"/><path d="m128.632 193.362c-5.973-9.467-11.172-19.472-15.494-29.933 10.197.903 18.194 9.467 18.194 19.899-.001 3.658-.984 7.085-2.7 10.034zm51.376-30.013c11.034 0 19.979 8.945 19.979 19.98 0 11.034-8.945 19.98-19.979 19.98-11.035 0-19.98-8.945-19.98-19.98s8.945-19.98 19.98-19.98z" fill="#fecbaa"/><path d="m118.68 226.597c11.034 0 19.979 8.945 19.979 19.98s-8.945 19.98-19.979 19.98c-11.035 0-19.98-8.945-19.98-19.98s8.945-19.98 19.98-19.98zm-68.657-74.647c11.035 0 19.98 8.945 19.98 19.979 0 11.035-8.945 19.98-19.98 19.98-11.034 0-19.979-8.945-19.979-19.98 0-11.034 8.945-19.979 19.979-19.979zm137.313 0c11.034 0 19.98 8.945 19.98 19.979 0 11.035-8.945 19.98-19.98 19.98s-19.98-8.945-19.98-19.98c0-11.034 8.945-19.979 19.98-19.979zm-68.656 0c11.034 0 19.979 8.945 19.979 19.979 0 11.035-8.945 19.98-19.979 19.98-11.035 0-19.98-8.945-19.98-19.98 0-11.034 8.945-19.979 19.98-19.979zm-68.657 74.647c11.035 0 19.98 8.945 19.98 19.98s-8.945 19.98-19.98 19.98c-11.034 0-19.979-8.945-19.979-19.98s8.945-19.98 19.979-19.98z" fill="#43a2ff"/><path d="m50.023 301.244c11.035 0 19.98 8.945 19.98 19.98 0 11.034-8.945 19.98-19.98 19.98-11.034 0-19.979-8.945-19.979-19.98s8.945-19.98 19.979-19.98zm68.657 0c11.034 0 19.979 8.945 19.979 19.98 0 11.034-8.945 19.98-19.979 19.98-11.035 0-19.98-8.945-19.98-19.98s8.945-19.98 19.98-19.98z" fill="#ff6372"/></g><g><path d="m419.73 220.585c-3.201-2.346-3.894-6.843-1.548-10.044s6.843-3.894 10.044-1.547c19.781 14.512 36.033 33.566 47.22 55.629 10.78 21.26 16.856 45.286 16.856 70.704 0 11.211-1.192 22.186-3.457 32.802-1.217 5.706-2.749 11.303-4.577 16.773l6.259-2.569c3.667-1.507 7.862.244 9.369 3.911s-.244 7.862-3.911 9.369l-21.877 8.98c-3.667 1.507-7.862-.244-9.369-3.911l-8.98-21.878c-1.507-3.667.244-7.862 3.911-9.369s7.862.244 9.369 3.911l2.164 5.274c1.402-4.397 2.597-8.892 3.575-13.473 2.043-9.577 3.118-19.552 3.118-29.82 0-23.136-5.507-44.961-15.28-64.233-10.152-20.022-24.912-37.323-42.886-50.509zm-238.864 67.736c-3.667 1.507-7.862-.244-9.369-3.911s.244-7.862 3.911-9.369l21.878-8.98c3.667-1.507 7.862.244 9.369 3.911l8.98 21.878c1.507 3.667-.244 7.862-3.911 9.369s-7.862-.244-9.369-3.911l-2.163-5.271c-1.417 4.444-2.623 8.99-3.607 13.627-2.022 9.526-3.086 19.448-3.086 29.663 0 23.136 5.508 44.959 15.282 64.23 10.154 20.022 24.916 37.322 42.892 50.509 3.201 2.346 3.894 6.843 1.548 10.044s-6.844 3.894-10.044 1.548c-19.783-14.512-36.036-33.566-47.225-55.63-10.781-21.258-16.857-45.282-16.857-70.702 0-11.153 1.181-22.075 3.424-32.645 1.222-5.758 2.766-11.408 4.612-16.931zm201.837-107.825c-1.507-3.667.244-7.862 3.911-9.369s7.862.244 9.369 3.911l8.98 21.878c1.507 3.667-.244 7.862-3.911 9.369l-21.878 8.98c-3.667 1.507-7.862-.244-9.369-3.911s.244-7.862 3.911-9.369l5.277-2.166c-4.409-1.405-8.917-2.603-13.513-3.582-9.565-2.037-19.528-3.11-29.783-3.11-23.136 0-44.959 5.508-64.23 15.282-20.022 10.154-37.322 24.917-50.509 42.892-2.346 3.201-6.843 3.894-10.044 1.548s-3.894-6.843-1.548-10.044c14.513-19.783 33.566-36.036 55.63-47.225 21.258-10.781 45.283-16.857 70.702-16.857 11.198 0 22.16 1.189 32.766 3.448 5.717 1.218 11.326 2.752 16.808 4.584zm-94.012 309.661c1.507 3.667-.244 7.862-3.911 9.369s-7.862-.244-9.369-3.911l-8.98-21.878c-1.507-3.667.244-7.862 3.911-9.369l21.878-8.98c3.667-1.507 7.862.244 9.369 3.911s-.244 7.862-3.911 9.369l-5.273 2.164c4.396 1.401 8.891 2.597 13.472 3.574 9.577 2.043 19.552 3.118 29.82 3.118 23.136 0 44.961-5.508 64.233-15.28 20.022-10.152 37.322-24.912 50.509-42.887 2.346-3.201 6.843-3.894 10.044-1.548s3.894 6.844 1.547 10.044c-14.512 19.781-33.566 36.033-55.629 47.22-21.26 10.78-45.285 16.856-70.704 16.856-11.211 0-22.186-1.192-32.802-3.456-5.706-1.217-11.303-2.75-16.773-4.578z" fill="#e0dfe1"/><path d="m369.911 182.485v14.77c-1.467-.362-2.944-.701-4.431-1.018-9.565-2.037-19.528-3.11-29.783-3.11-23.136 0-44.959 5.508-64.23 15.282-20.022 10.154-37.322 24.917-50.509 42.892-2.346 3.201-6.843 3.894-10.044 1.548s-3.894-6.843-1.548-10.044c14.513-19.783 33.566-36.036 55.63-47.225 21.258-10.781 45.283-16.857 70.702-16.857 11.198 0 22.16 1.189 32.766 3.448.482.101.965.206 1.447.314zm0 23.166c-.792 1.742-.891 3.793-.106 5.702.034.082.07.163.106.244zm-166.225 182.67h-15.38c-5.963-16.561-9.214-34.405-9.214-52.995 0-11.153 1.181-22.075 3.424-32.645 1.222-5.758 2.766-11.408 4.612-16.931l-6.262 2.571c-3.667 1.507-7.862-.244-9.369-3.911s.244-7.862 3.911-9.369l21.878-8.98c3.667-1.507 7.862.244 9.369 3.911l8.98 21.878c1.507 3.667-.244 7.862-3.911 9.369s-7.862-.244-9.369-3.911l-2.163-5.271c-1.417 4.444-2.623 8.99-3.607 13.627-2.022 9.526-3.086 19.448-3.086 29.663-.001 18.746 3.615 36.63 10.187 52.994z" fill="#ffb98d"/><path d="m369.911 182.485v14.77c-1.467-.362-2.944-.701-4.431-1.018-9.565-2.037-19.528-3.11-29.783-3.11-23.136 0-44.959 5.508-64.23 15.282-20.022 10.154-37.322 24.917-50.509 42.892-2.346 3.201-6.843 3.894-10.044 1.548s-3.894-6.843-1.548-10.044c14.513-19.783 33.566-36.036 55.63-47.225 21.258-10.781 45.283-16.857 70.702-16.857 11.198 0 22.16 1.189 32.766 3.448.482.101.965.206 1.447.314zm0 23.166c-.792 1.742-.891 3.793-.106 5.702.034.082.07.163.106.244z" fill="#fecbaa"/><path d="m423.199 215.847c-3.333-2.443-4.054-7.126-1.611-10.459s7.126-4.054 10.459-1.612c20.598 15.112 37.521 34.952 49.17 57.926 11.225 22.137 17.552 47.155 17.552 73.624 0 11.674-1.241 23.103-3.599 34.157-1.267 5.941-2.863 11.77-4.766 17.466l6.518-2.675c3.818-1.569 8.186.254 9.756 4.072 1.569 3.818-.254 8.186-4.072 9.756l-22.781 9.351c-3.818 1.569-8.186-.254-9.756-4.072l-9.351-22.781c-1.569-3.818.254-8.186 4.072-9.756s8.186.254 9.756 4.072l2.254 5.492c1.459-4.579 2.704-9.259 3.722-14.03 2.127-9.973 3.247-20.359 3.247-31.051 0-24.092-5.735-46.817-15.911-66.885-10.573-20.849-25.942-38.864-44.659-52.595zm-248.726 70.533c-3.818 1.569-8.187-.254-9.756-4.072s.254-8.186 4.072-9.756l22.781-9.351c3.818-1.569 8.187.254 9.756 4.072l9.351 22.781c1.569 3.818-.254 8.186-4.072 9.756-3.818 1.569-8.186-.254-9.756-4.072l-2.253-5.489c-1.475 4.628-2.731 9.362-3.756 14.19-2.106 9.919-3.214 20.251-3.214 30.887 0 24.092 5.736 46.816 15.913 66.882 10.573 20.849 25.945 38.863 44.663 52.595 3.333 2.443 4.054 7.126 1.611 10.459s-7.126 4.054-10.459 1.611c-20.6-15.112-37.524-34.952-49.175-57.926-11.226-22.136-17.553-47.152-17.553-73.621 0-11.613 1.23-22.987 3.566-33.993 1.273-5.996 2.881-11.879 4.803-17.63zm210.17-112.277c-1.569-3.818.254-8.186 4.072-9.756 3.818-1.569 8.186.254 9.756 4.072l9.351 22.781c1.569 3.818-.254 8.186-4.072 9.756l-22.781 9.351c-3.818 1.569-8.187-.254-9.756-4.072s.254-8.186 4.072-9.756l5.495-2.256c-4.591-1.463-9.285-2.71-14.07-3.73-9.96-2.121-20.334-3.238-31.013-3.238-24.091 0-46.815 5.736-66.882 15.913-20.849 10.573-38.863 25.945-52.595 44.663-2.443 3.333-7.126 4.054-10.459 1.611s-4.054-7.126-1.611-10.459c15.112-20.6 34.952-37.524 57.927-49.175 22.136-11.226 47.152-17.553 73.621-17.553 11.66 0 23.075 1.238 34.119 3.59 5.953 1.268 11.794 2.866 17.502 4.773zm-97.893 322.447c1.569 3.818-.254 8.186-4.072 9.756-3.818 1.569-8.186-.254-9.756-4.072l-9.351-22.781c-1.569-3.818.254-8.186 4.072-9.756l22.781-9.351c3.818-1.569 8.186.254 9.756 4.072 1.569 3.818-.254 8.187-4.072 9.756l-5.491 2.254c4.578 1.459 9.258 2.704 14.029 3.722 9.973 2.127 20.359 3.247 31.051 3.247 24.092 0 46.817-5.735 66.885-15.911 20.849-10.572 38.863-25.941 52.594-44.657 2.443-3.333 7.126-4.054 10.459-1.612 3.333 2.443 4.054 7.126 1.612 10.459-15.112 20.598-34.952 37.52-57.926 49.169-22.138 11.225-47.155 17.552-73.623 17.552-11.674 0-23.103-1.241-34.157-3.599-5.941-1.267-11.77-2.863-17.466-4.767z" fill="#7e7381"/></g><g><circle cx="335.696" cy="335.327" fill="#ffc328" r="113.75"/><path d="m335.696 221.576c62.822 0 113.75 50.928 113.75 113.751 0 40.26-20.916 75.635-52.474 95.852-61.804-12.367-108.371-66.928-108.371-132.371 0-27.557 8.264-53.181 22.438-74.542 7.94-1.757 16.189-2.69 24.657-2.69z" fill="#ffd54f"/><circle cx="335.696" cy="335.327" fill="#9ae7fd" r="89.005"/><path d="m335.696 246.322c49.156 0 89.005 39.849 89.005 89.005 0 39.364-25.557 72.755-60.981 84.498-44.514-22.07-75.119-67.966-75.119-121.018 0-15.015 2.455-29.456 6.979-42.948 12.055-6.098 25.684-9.537 40.116-9.537z" fill="#c9f0ff"/><path d="m336.412 280.639c0-4.142 3.358-7.5 7.5-7.5s7.5 3.358 7.5 7.5v45.802c4.463 2.59 7.465 7.42 7.465 12.952 0 8.265-6.7 14.965-14.965 14.965-1.334 0-2.626-.176-3.857-.503l-29.633 29.634c-2.928 2.928-7.677 2.928-10.606 0s-2.929-7.677 0-10.605l29.633-29.634c-.327-1.23-.503-2.523-.503-3.857 0-5.532 3.002-10.362 7.465-12.952v-45.802z" fill="#64dcfc"/><path d="m314.962 378.949c-3.031-4.101-5.833-8.381-8.392-12.819l22.88-22.88c-.327-1.23-.503-2.523-.503-3.857 0-5.532 3.002-10.362 7.465-12.952v-45.801c0-4.142 3.358-7.5 7.5-7.5s7.5 3.358 7.5 7.5v45.802c4.463 2.59 7.465 7.42 7.465 12.952 0 8.265-6.7 14.965-14.965 14.965-1.334 0-2.626-.176-3.857-.503z" fill="#9ae7fd"/><path d="m328.196 276.573c0-4.142 3.358-7.5 7.5-7.5s7.5 3.358 7.5 7.5v61.402c0 3.984-3.107 7.242-7.029 7.485l-33.962 33.962c-2.928 2.928-7.677 2.928-10.605 0s-2.928-7.677 0-10.605l36.145-36.145c.146-.146.297-.284.451-.416z" fill="#c8c9cd"/><circle cx="335.696" cy="335.327" fill="#43a2ff" r="14.965"/></g></g></svg>