<svg height="512" viewBox="0 0 64 64" width="512" xmlns="http://www.w3.org/2000/svg"><g id="Icons"><g><g><path d="m30.98 30.08v5h-6v-5c0-1.05-.23-2.04-.65-2.93-1.1-2.4-3.54-4.07-6.35-4.07h-4v-6h4c4.23 0 7.99 2.03 10.37 5.16 1.65 2.18 2.63 4.9 2.63 7.84z" fill="#c80a50"/></g></g><g><g><g><path d="m50 17.08v6h-4c-2.81 0-5.24 1.66-6.35 4.06-.42.89-.65 1.89-.65 2.94v5h-6v-5c0-2.94.99-5.67 2.64-7.85 2.37-3.13 6.13-5.15 10.36-5.15z" fill="#c80a50"/></g></g><g><path d="m28.35 22.24c1.65 2.18 2.63 4.9 2.63 7.84v5h-6v-5c0-1.05-.23-2.04-.65-2.93 1.09-.85 2.33-1.52 3.67-1.98v-2.17c0-.3.14-.57.35-.76z" fill="#a00028"/></g><g><path d="m39.65 27.14c-.42.89-.65 1.89-.65 2.94v5h-6v-5c0-2.94.99-5.67 2.64-7.85.22.19.36.46.36.77v2.17c1.33.46 2.57 1.12 3.65 1.97z" fill="#a00028"/></g><g><path d="m55.585 20.878-7.979 6.073c-.659.501-1.606.031-1.606-.796v-12.153c0-.828.948-1.297 1.606-.795l7.979 6.08c.526.4.526 1.191 0 1.591z" fill="#c80a50"/></g></g><g><g><path d="m8.415 20.878 7.979 6.073c.659.501 1.606.031 1.606-.796v-12.153c0-.828-.948-1.297-1.606-.795l-7.979 6.08c-.526.4-.526 1.191 0 1.591z" fill="#c80a50"/></g></g><g><path d="m29 12h6v14h-6z" fill="#00a0c8"/></g><g><path d="m35 22v4h-6v-4z" fill="#0082aa"/></g><g><path d="m46.124 41.536-1.878-1.084c.335-1.649.34-3.228 0-4.904l1.878-1.084c.478-.276.642-.888.366-1.366-.085-.147-3.059-5.298-3-5.196-.276-.478-.888-.642-1.366-.366l-1.881 1.086c-1.226-1.077-2.663-1.915-4.243-2.448v-2.174c0-.552-.448-1-1-1-.145 0-6.204 0-6 0-.552 0-1 .448-1 1v2.174c-1.58.533-3.017 1.371-4.243 2.448l-1.881-1.086c-.478-.276-1.09-.112-1.366.366-1.185 2.052-2.457 4.256-3 5.196-.276.478-.112 1.09.366 1.366l1.878 1.084c-.334 1.643-.342 3.221 0 4.904l-1.878 1.084c-.478.276-.642.888-.366 1.366 1.185 2.052 2.457 4.256 3 5.196.276.478.888.642 1.366.366l1.881-1.086c1.226 1.077 2.663 1.915 4.243 2.448v2.174c0 .552.448 1 1 1h6c.552 0 1-.448 1-1v-2.174c1.58-.533 3.017-1.371 4.243-2.448l1.881 1.086c.478.276 1.09.112 1.366-.366.085-.147 3.059-5.298 3-5.196.277-.478.113-1.09-.366-1.366z" fill="#0a5078"/></g><g><g><circle cx="32" cy="39" fill="#00325a" r="9.5"/></g><g><circle cx="32" cy="38" fill="#fab400" r="9.5"/></g><g><circle cx="32" cy="38" fill="#f0f0f0" r="7.5"/></g><g><path d="m39.5 38c0 .17-.01.33-.03.5-.24-3.91-3.5-7-7.47-7s-7.23 3.09-7.47 7c-.02-.17-.03-.33-.03-.5 0-4.14 3.36-7.5 7.5-7.5s7.5 3.36 7.5 7.5z" fill="#d2d2d2"/></g></g><g><path d="m35.098 39.634-1.098-.634 1.098-.634c.479-.276.642-.888.366-1.366-.277-.479-.888-.643-1.366-.366l-1.098.634v-1.268c0-.553-.448-1-1-1s-1 .447-1 1v1.268l-1.098-.634c-.479-.276-1.09-.111-1.366.366-.276.479-.112 1.09.366 1.366l1.098.634-1.098.634c-.479.276-.642.887-.366 1.366.277.479.888.641 1.366.366l1.098-.634v1.268c0 .553.448 1 1 1s1-.447 1-1v-1.268l1.098.634c.479.276 1.089.112 1.366-.366.276-.479.113-1.09-.366-1.366z" fill="#d2d2d2"/></g><g><g><path d="m39 56h10v4h-10z" fill="#fab400"/></g><g><g><g><path d="m39 56h10v2h-10z" fill="#dc9600"/></g></g><g><g><g><path d="m45.65 48c6.863-6.863 5.782-5.782 6.058-6.058.185-.185.292-.439.292-.701l.01-6.251c-.01-1.11.89-2 2-1.99 1.11-.01 2 .88 1.99 1.99v7.49c.01.53-.21 1.04-.58 1.41l-6.834 6.834c-.376.375-.586.884-.586 1.414v4.862h-8v-9z" fill="#f0c8a0"/></g><g><path d="m46.35 47.3.87.864c.396.393 1.037.387 1.425-.015l2.765-2.869c.82-.82.79-2.17-.11-2.93z" fill="#d2aa82"/></g></g><g><path d="m41.06 45.85.37-.38c.86-.86 2.09-1.22 3.26-.99.31.06.63-.06.85-.28l2.29-2.55c.71-.71 1.84-.88 2.65-.3 1.03.74 1.12 2.19.26 3.05l-4.74 4.6h-6v-1c.09-.8.47-1.56 1.06-2.15z" fill="#f0c8a0"/></g></g><g><g><path d="m39 53h10c.552 0 1 .448 1 1v2c0 .552-.448 1-1 1h-10c-.552 0-1-.448-1-1v-2c0-.552.448-1 1-1z" fill="#0a5078"/></g></g><g><circle cx="48" cy="56" fill="#00325a" r="1"/></g></g><g><circle cx="48" cy="55" fill="#f0f0f0" r="1"/></g></g><g><g><path d="m15 56h10v4h-10z" fill="#fab400"/></g><g><g><g><path d="m15 56h10v2h-10z" fill="#dc9600"/></g></g><g><g><g><path d="m18.35 48c-6.863-6.863-5.782-5.782-6.058-6.058-.185-.185-.292-.439-.292-.701l-.01-6.251c.01-1.11-.89-2-2-1.99-1.11-.01-2 .88-1.99 1.99v7.49c-.01.53.21 1.04.58 1.41l6.834 6.834c.376.375.586.884.586 1.414v4.862h8v-9z" fill="#f0c8a0"/></g><g><path d="m17.65 47.3-.87.864c-.396.393-1.037.387-1.425-.015l-2.765-2.869c-.82-.82-.79-2.17.11-2.93z" fill="#d2aa82"/></g></g><g><path d="m22.94 45.85-.37-.38c-.86-.86-2.09-1.22-3.26-.99-.31.06-.63-.06-.85-.28l-2.29-2.55c-.71-.71-1.84-.88-2.65-.3-1.03.74-1.12 2.19-.26 3.05l4.74 4.6h6v-1c-.09-.8-.47-1.56-1.06-2.15z" fill="#f0c8a0"/></g></g><g><g><path d="m25 53h-10c-.552 0-1 .448-1 1v2c0 .552.448 1 1 1h10c.552 0 1-.448 1-1v-2c0-.552-.448-1-1-1z" fill="#0a5078"/></g></g><g><circle cx="16" cy="56" fill="#00325a" r="1"/></g></g><g><circle cx="16" cy="55" fill="#f0f0f0" r="1"/></g></g><g><path d="m31.233 4.39-6.007 7.877c-.529.693-.069 1.733.767 1.733h12.014c.836 0 1.296-1.04.767-1.733l-6.007-7.877c-.396-.52-1.138-.52-1.534 0z" fill="#00a0c8"/></g><g><g><path d="m32 42c-.552 0-1-.447-1-1v-6c0-.553.448-1 1-1s1 .447 1 1v6c0 .553-.448 1-1 1z" fill="#0a5078"/></g><g><path d="m29.403 40.5c-.346 0-.682-.179-.867-.5-.276-.479-.112-1.09.366-1.366l5.196-3c.479-.277 1.089-.113 1.366.366.276.479.112 1.09-.366 1.366l-5.196 3c-.158.091-.33.134-.499.134z" fill="#c80a50"/></g><g><path d="m34.597 40.5c-.169 0-.341-.043-.499-.134l-5.196-3c-.479-.276-.642-.887-.366-1.366s.887-.644 1.366-.366l5.196 3c.479.276.642.888.366 1.366-.185.32-.521.5-.867.5z" fill="#00a0c8"/></g></g></g></svg>