<svg id="Layer_1" enable-background="new 0 0 512 512" viewBox="0 0 512 512" xmlns="http://www.w3.org/2000/svg"><g clip-rule="evenodd" fill-rule="evenodd"><g><g><path d="m495.936 85.66.064 376.528-91.26-33.813h-354.928c-18.596 0-33.812-15.216-33.812-33.813v-344.749h446.187c19.37 0 34.917 16.449 33.749 35.847z" fill="#f4f6f8"/><g fill="#e4e8eb"><path d="m462.187 496h-52.447c-2.754 0-5-2.246-5-5v-62.626h57.447c18.597 0 33.812 15.216 33.812 33.813.001 18.598-15.219 33.813-33.812 33.813z"/><path d="m16 394.562c0-18.597 15.215-33.813 33.812-33.813h28.813c2.754 0 5-2.246 5-5v-334.749c0-2.754-2.246-5-5-5h-28.813c-18.728 0-33.812 15.355-33.812 33.813z"/></g></g><g><path d="m324.395 153.027v116.404c0 5.068-4.108 9.176-9.175 9.176h-118.44c-5.068 0-9.175-4.107-9.175-9.176 0 0 0-91.396 0-116.404l68.395-55.452z" fill="#e4e8eb"/><path d="m160.359 153.495 88.744-71.95c4.131-3.359 9.972-3.203 13.907.092l88.63 71.858c2.139 1.734 2.469 4.894.735 7.033l-7.471 9.216c-1.734 2.139-4.893 2.469-7.033.735l-81.871-66.379-81.871 66.378c-2.139 1.734-5.298 1.404-7.032-.735l-7.472-9.215c-1.735-2.14-1.405-5.299.734-7.033z" fill="#f76c82"/><path d="m217.436 278.606h77.127v-85.516c0-2.754-2.246-5-5-5h-67.128c-2.754 0-5 2.246-5 5v85.516z" fill="#d5a889"/></g><g><path d="m136.159 255.28 169.349 232.779c1.134 1.56 1.288 3.491.413 5.21s-2.527 2.731-4.456 2.731h-169.349c-2.754 0-5-2.246-5-5v-232.779c0-2.202 1.359-4.073 3.454-4.755 2.094-.68 4.293.033 5.589 1.814z" fill="#fdcd56"/><path d="m167.116 365.824v90.176h65.604z" fill="#f4f6f8"/></g><g><path d="m448.691 37.289c0-11.709-9.58-21.289-21.289-21.289s-21.289 9.58-21.289 21.29v166.484l19.387 40.76c.517 1.086 1.556 1.731 2.758 1.711 1.203-.02 2.22-.698 2.701-1.801l17.732-40.67z" fill="#fdcd56"/><path d="m430.959 244.444 17.732-40.67s0-.119 0-.351c-13.607 0-28.971 0-42.577 0v.351l19.387 40.76c.517 1.086 1.556 1.731 2.758 1.711 1.201-.02 2.219-.698 2.7-1.801z" fill="#efc7a4"/><path d="m406.113 54.326h42.578c0-1.599 0-3.107 0-4.513 0-7.822 0-12.524 0-12.524 0-11.709-9.58-21.289-21.289-21.289s-21.289 9.58-21.289 21.29v12.523z" fill="#636c77"/></g></g><path d="m174.122 387.268 44.848 61.652h-44.848zm256.286-378.188h-6.014c-14.19 1.506-25.283 13.547-25.283 28.13v5.524h-308.479v-26.812c0-3.356-2.362-6.158-5.511-6.842h-38.9c-20.827 1.825-37.221 19.359-37.221 40.656v344.75c0 22.502 18.309 40.811 40.811 40.811h70.31v60.626c0 3.863 3.129 6.997 7.002 6.997h184.16c2.64 0 5.049-1.473 6.24-3.821 1.2-2.348.969-5.167-.57-7.294l-41.112-56.509h121.901v60.626c0 3.863 3.129 6.997 7.002 6.997h57.45c22.497 0 40.806-18.304 40.806-40.811l-.061-376.328c.602-11.077-3.416-22.064-11.068-30.181-7.698-8.178-18.521-12.865-29.678-12.865h-6.503v-5.524c.001-14.583-11.092-26.623-25.282-28.13zm-263.288 453.843h65.6c2.631 0 5.04-1.477 6.24-3.826 1.191-2.348.974-5.162-.579-7.293l-65.6-90.177c-1.788-2.451-4.95-3.473-7.83-2.541-2.88.941-4.828 3.628-4.828 6.658v90.177c0 3.868 3.129 7.002 6.997 7.002zm173.61-299.219-80.319-65.12c-2.569-2.085-6.249-2.085-8.818 0l-80.323 65.12-4.95-6.108 87.203-70.7c1.459-1.186 3.557-1.172 4.997.028.024.024.052.052.08.071l87.081 70.602zm-23.339 105.648c0 1.2-.969 2.174-2.169 2.174h-13.66v-83.514c0-3.868-3.129-7.002-7.002-7.002h-77.119c-3.868 0-7.002 3.134-7.002 7.002v83.514h-13.655c-1.2 0-2.174-.974-2.174-2.174v-106.542l61.393-49.775 61.388 49.775zm-29.829 2.174h-63.12v-76.512h63.12zm72.371-120.4c3.007 2.438 3.468 6.842 1.026 9.849l-13.768 16.982c-1.172 1.445-2.861 2.362-4.71 2.555-1.84.188-3.689-.357-5.129-1.524l-5.962-4.828v95.193c0 8.917-7.246 16.178-16.168 16.178h-118.439c-8.922 0-16.173-7.261-16.173-16.178v-95.193l-5.957 4.828c-1.294 1.049-2.852 1.562-4.404 1.562-2.037 0-4.056-.885-5.435-2.593l-13.773-16.982c-1.167-1.445-1.722-3.289-1.529-5.138.202-1.845 1.111-3.539 2.56-4.71l92.618-75.097c6.63-5.392 16.201-5.341 22.77.122zm102.261 337.795h-50.453v-53.624h50.453c14.78 0 26.807 12.027 26.807 26.812s-12.027 26.812-26.807 26.812zm-196.541-67.623h196.54c10.249 0 19.627 3.798 26.798 10.06l-.051-345.775c0-.141 0-.282.01-.419.452-7.425-2.136-14.517-7.27-19.97-5.139-5.454-12.056-8.461-19.486-8.461h-6.503v146.963c0 .965-.198 1.915-.579 2.8l-20.37 46.702c-1.092 2.513-3.562 4.155-6.301 4.202-.038 0-.08 0-.108 0-2.701 0-5.162-1.548-6.32-3.99l-22.219-46.707c-.452-.941-.682-1.967-.682-3.007v-146.963h-308.48v303.939c0 3.868-3.138 7.002-7.002 7.002h-33.819c-14.78 0-26.812 12.023-26.812 26.812 0 14.78 12.032 26.812 26.812 26.812h70.31v-178.528c0-3.03 1.948-5.717 4.828-6.654 2.885-.937 6.042.085 7.835 2.536zm-131.533 67.623h163.423l-163.423-224.627zm-111.121-439.185c0-14.785 12.032-26.817 26.812-26.817h26.821v330.751h-26.821c-10.249 0-19.632 3.802-26.812 10.07zm404.402-26.817c7.882 0 14.291 6.414 14.291 14.291v10.037h-28.582v-10.037c0-7.877 6.414-14.291 14.291-14.291zm10.762 187.426-10.113 23.175-11.02-23.175zm3.529-13.999h-28.582v-135.1h28.582z"/></g></svg>