<svg id="Layer_1" height="512" viewBox="0 0 64 64" width="512" xmlns="http://www.w3.org/2000/svg"><path d="m47 23-22-20-22 20h4v22h36v-22z" fill="#c6c6c6"/><path d="m18 25h14v20h-14z" fill="#474747"/><path d="m56 15 .13 6-1.13 2h-4l-1.12-2 .12-6-4 6 .35 1.41.15.59.5 2 3 2v16h6v-16l3-2 1-4z" fill="#356baa"/><path d="m41 59h16c1.1 0 2-.71 2-1.57l.38-2.36.62-3.93.63-3.93.37-2.36c0-.86-.9-1.86-2-1.86h-7v-4c0-1.1-.9-2-2-2-1.1 0-2 .9-2 2 0 2.21-1.79 4-4 4h-3" fill="#d88568"/><path d="m31 41h10v20h-10z" fill="#14a8a4"/><path d="m59 42h-2v-14.46l2.55-1.7c.21-.14.35-.35.42-.59l1-4c.07-.27.02-.56-.14-.8l-4-6c-.25-.37-.71-.53-1.13-.4s-.71.53-.7.98l.12 5.73-.71 1.25h-2.83l-.7-1.25.11-5.73c0-.44-.28-.84-.7-.97s-.89.03-1.13.4l-3.81 5.71-19.68-17.91c-.38-.35-.96-.35-1.35 0l-21.99 20c-.31.28-.41.72-.26 1.1.15.39.52.64.93.64h3v21c0 .55.45 1 1 1h23v15c0 .55.45 1 1 1h10c.55 0 1-.45 1-1v-1h15c1.62 0 2.94-1.1 3-2.48l1.99-12.51c0-.05.01-.1.01-.16 0-1.35-1.28-2.86-3-2.86zm-10.07-23.59-.05 2.57c0 .18.04.35.13.51l1.12 2c.18.32.51.51.87.51h4c.36 0 .69-.19.87-.51l1.13-2c.09-.16.13-.33.13-.51l-.06-2.56 1.85 2.77-.8 3.2-2.68 1.79c-.28.19-.45.5-.45.83v15h-2v-3c0-1.3-.84-2.4-2-2.82v-9.18c0-.33-.17-.65-.45-.83l-2.68-1.79-.8-3.2 1.85-2.78zm-2.9 6.84c.06.24.21.45.42.59l2.55 1.7v8.65c-1.16.41-2 1.51-2 2.82 0 1.65-1.35 3-3 3v-18.01h1.72l.31 1.24zm-6.03 34.76h-8v-18h8zm-7-20v-15c0-.55-.45-1-1-1h-14c-.55 0-1 .45-1 1v15h2v-14h12v14c-.55 0-1 .45-1 1v3h-11v-2h-2v2h-9v-21.01c0-.55-.45-1-1-1h-1.41l2.2-2h3.21v2c0 .27.11.52.29.71l2.71 2.71v2.59h2v-3c0-.27-.11-.52-.29-.71l-2.71-2.71v-.97l2.55 1.28c.14.07.29.11.45.11h4.76l1.79.89c.14.07.29.11.45.11h2v-2h-1.76l-1.79-.89c-.14-.07-.29-.11-.45-.11h-1v-2c0-.38-.21-.72-.55-.89l-1.45-.72v-1.38h-2v2c0 .38.21.72.55.89l1.45.72v1.38h-1.76l-3.79-1.89c-.14-.07-.29-.11-.45-.11h-2.01l15.01-13.66 8.41 7.65h-3l-3.71-3.71c-.19-.19-.44-.29-.71-.29h-3v2h2.59l2 2h-1.59c-.38 0-.73.21-.89.55l-.72 1.45h-3.38v2h4c.38 0 .73-.21.89-.55l.72-1.45h8.99l8.8 8h-1.41c-.55 0-1 .45-1 1v18c0-.55-.45-1-1-1h-8zm25 17.43c0 .23-.4.57-1 .57h-15v-14h2c2.76 0 5-2.24 5-5 0-.55.45-1 1-1s1 .45 1 1v4c0 .55.45 1 1 1h7c.54 0 .95.51 1 .81l-.19 1.19h-4.81v2h4.49l-.32 2h-6.17v2h5.85l-.32 2h-7.53v2h7.21s-.21 1.38-.21 1.43z"/></svg>