<svg fill="none" height="512" viewBox="0 0 24 24" width="512" xmlns="http://www.w3.org/2000/svg"><path clip-rule="evenodd" d="m2 12c0-5.52285 4.47715-10 10-10 5.5228 0 10 4.47715 10 10 0 5.5228-4.4772 10-10 10-5.52285 0-10-4.4772-10-10zm11.7071-3.70711c.3905.39053.3905 1.02369 0 1.41422l-2.2929 2.29289 2.2929 2.2929c.3905.3905.3905 1.0237 0 1.4142s-1.0237.3905-1.4142 0l-2.73749-2.7375c-.53551-.5355-.53551-1.4037 0-1.9392l2.73749-2.73751c.3905-.39052 1.0237-.39052 1.4142 0z" fill="rgb(0,0,0)" fill-rule="evenodd"/></svg>