<svg id="Layer_1" enable-background="new 0 0 64 64" height="512" viewBox="0 0 64 64" width="512" xmlns="http://www.w3.org/2000/svg"><path d="m49.5 37.2-10.5-5.2h-14l-10.5 5.2c-3.4 1.7-5.5 5.2-5.5 9v14.8h46v-14.8c0-3.8-2.1-7.3-5.5-9z" fill="#2b2b2b"/><path d="m46.5 43.6 3.6-5.9c-.2-.1-.4-.3-.7-.4l-3-1.5-4.3 6.5c-.7 1.1-2 1.8-3.3 1.8h-13.7c-1.3 0-2.6-.7-3.3-1.8l-4.3-6.5-3 1.5c-.2.1-.5.3-.7.4l3.6 5.9c1 1.6 1.5 3.4 1.5 5.3v12.1h26v-12.1c.1-1.9.6-3.7 1.6-5.3z" fill="#1e7bba"/><path d="m22 47h20v2h-20z" fill="#ede064"/><path d="m52 57.2c-.8 0-1.6-.3-2.1-.9l-4.2-4.2c-.4-.4-1-.4-1.4 0l-2.6 2.6-1.4-1.4 2.6-2.6c1.2-1.1 3.1-1.1 4.2 0l4.2 4.2c.4.4 1 .4 1.4 0l3.2-3.2c.4-.4.4-1 0-1.4l-1.6-1.6 1.4-1.4 1.6 1.6c1.2 1.2 1.2 3.1 0 4.2l-3.2 3.2c-.5.6-1.3.9-2.1.9z" fill="#b4b4b5"/><path d="m26.1 37.2c3.6 2.3 8.2 2.3 11.8 0l5.1-3.2-4-2h-14l-4 2z" fill="#ede064"/><path d="m19.5 17.6c-.9.2-1.5 1-1.5 1.9v.9c0 .9.6 1.7 1.5 1.9l2.5.7v-6z" fill="#ce7c5f"/><path d="m44.5 17.6-2.5-.6v6l2.5-.6c.9-.2 1.5-1 1.5-1.9v-.9c0-1-.6-1.8-1.5-2z" fill="#ce7c5f"/><path d="m21 14v10.1c0 3.7 2 7 5.2 8.8l2.4 1.3c2.1 1.1 4.6 1.1 6.7 0l2.4-1.3c3.2-1.8 5.2-5.1 5.2-8.8v-10.1z" fill="#d8927c"/><path d="m35 3h-6c-4.4 0-8 3.6-8 8v3h22v-3c0-4.4-3.6-8-8-8z" fill="#1e7bba"/><path d="m21 14 3.1 4.7c.6.8 1.5 1.3 2.5 1.3h10.8c1 0 1.9-.5 2.5-1.3l3.1-4.7z" fill="#1b4666"/><path d="m43.4 38.6 2.2-2.2c.8-.8 2-.8 2.8 0l8.2 8.2c.8.8.8 2 0 2.8l-2.2 2.2c-.8.8-2 .8-2.8 0l-8.2-8.2c-.8-.8-.8-2 0-2.8z" fill="#f4e8cb"/><path d="m34 58.8v.2c0 1.1.9 2 2 2h.2c.5 0 1-.2 1.4-.6l4.8-4.8c.4-.4.6-.9.6-1.4v-2.2h-2.2c-.5 0-1 .2-1.4.6l-4.8 4.8c-.4.4-.6.9-.6 1.4z" fill="#3f3f3f"/></svg>