<svg height="512" viewBox="0 0 64 64" width="512" xmlns="http://www.w3.org/2000/svg"><path d="m59.5 43.68652h-.49854v-1c0-2.748-5.18359-4-10-4s-10 1.252-10 4v1a2.58862 2.58862 0 0 0 -3.001 2.50006v.99994a2.58859 2.58859 0 0 0 3.001 2.5v7.00391a3.94183 3.94183 0 0 0 2.48292 3.77734 22.16511 22.16511 0 0 0 14.97363.02149 3.97537 3.97537 0 0 0 2.54345-3.80274v-7a2.58792 2.58792 0 0 0 2.99854-2.50006v-.99994a2.50263 2.50263 0 0 0 -2.5-2.5zm-20.49951 4c-1.29639.12616-.95642-.57647-1-1.50006.01526-.5617.59613-.51153 1-.49994zm2.001-2.47168a19.18787 19.18787 0 0 0 8 1.47168 19.18909 19.18909 0 0 0 7.999-1.47125v2.10962c-3.29193 4.433-12.70612 4.43274-15.999.00232zm16 11.47168a1.97833 1.97833 0 0 1 -1.21142 1.918 20.251 20.251 0 0 1 -13.63138-.01952 1.9738 1.9738 0 0 1 -1.15723-1.89453v-6.56162c4.08576 3.37133 11.91559 3.37036 16-.002zm-8-12c-5.24951 0-8-1.48632-8-2s2.75049-2 8-2 8 1.48633 8 2-2.75049 2-8.00003 2zm10.99851 2.5c-.01562.56171-.59473.51142-.99854.5v-2c1.2887-.13061.95789.58374.99854 1.5z"/><path d="m16.46533 14.1543a1.00224 1.00224 0 0 0 1.34571-.43555 11.66416 11.66416 0 0 1 5.22113-5.22275.99969.99969 0 1 0 -.91205-1.77923 14.18756 14.18756 0 0 0 -3.52539 2.56445 13.97254 13.97254 0 0 0 -2.56494 3.52734 1.001 1.001 0 0 0 .43554 1.34574z"/><path d="m7.32812 13.60059a2.01 2.01 0 0 1 0-2.82813l4.25782-4.25781a2.04706 2.04706 0 0 1 2.82812 0l.681.681c-1.62347 2.01654-5.13812 6.21344-2.685 8.62854l23.6793 23.67874a3.011 3.011 0 0 0 3.23.67285 18.03722 18.03722 0 0 0 10.18264-10.20312 2.9807 2.9807 0 0 0 -.68164-3.19336c-1.15368-1.1435-9.64923-9.65735-11.01672-11.017l-12.66253-12.66269c-2.4646-2.45038-6.56494 1.04639-8.63122 2.68274l-.68177-.68176a4.09412 4.09412 0 0 0 -5.65624 0l-4.25782 4.25781a3.99974 3.99974 0 0 0 0 5.65625l19.17188 19.17187-4.12775 4.12775a4.007 4.007 0 0 0 -5.00848.52264l-.63147.63147a3.99545 3.99545 0 0 0 -3.6615 1.07557l-8.48486 8.48535a4.00414 4.00414 0 0 0 0 5.65722l2.82812 2.82813a4.018 4.018 0 0 0 5.65674-.00006l8.48535-8.48529a3.94351 3.94351 0 0 0 .96655-4.03736 4.15146 4.15146 0 0 0 1.1883-5.18829l4.91009-4.9101a.99962.99962 0 0 0 0-1.41406zm37.42878 11.94341a1.01982 1.01982 0 0 1 -1.41413-.001 3.006 3.006 0 0 0 -4.24218.001l-4.24268 4.24316a1.00027 1.00027 0 0 1 -1.41449-1.41416l2.82806-2.82807a3.00019 3.00019 0 1 0 -4.24267-4.24316 1 1 0 0 1 -1.41351-1.41413l1.414-1.414a3.00028 3.00028 0 0 0 -4.24225-4.2431 1.00021 1.00021 0 0 1 -1.41443-1.41418l2.82855-2.82807c3.83777 3.83745 11.69538 11.69512 15.55573 15.55571zm-22.11383-21.25494a1.01111 1.01111 0 0 1 1.084.22461l4.06022 4.06033-2.82879 2.82834a3.00027 3.00027 0 0 0 4.24322 4.24213 1.0093 1.0093 0 0 1 1.70648.70807.99482.99482 0 0 1 -.293.707l-1.41406 1.41406a3.0029 3.0029 0 0 0 -.00049 4.24219 3.07313 3.07313 0 0 0 4.24268 0 1.02606 1.02606 0 0 1 1.41455 0 1.00436 1.00436 0 0 1 0 1.41406l-2.82858 2.82915a2.99985 2.99985 0 0 0 4.2427 4.24217l4.24216-4.24217a1.002 1.002 0 0 1 1.41455-.001 3.07306 3.07306 0 0 0 4.24243.00018l1.23511 1.23517a.98152.98152 0 0 1 .2334 1.0498 16.03264 16.03264 0 0 1 -9.05225 9.07129 1.0045 1.0045 0 0 1 -1.08349-.22558l-23.67969-23.6787a.98272.98272 0 0 1 -.2334-1.05078 16.0319 16.0319 0 0 1 9.05225-9.07032zm-3.91507 43.32617-8.48535 8.48536a2.04768 2.04768 0 0 1 -2.82862 0l-2.82809-2.82813a2.0031 2.0031 0 0 1 0-2.8291l8.48486-8.48536a2.00946 2.00946 0 0 1 2.82861 0l2.82862 2.8291a2.01965 2.01965 0 0 1 -.00003 2.82813zm1.293-4.36323-2.70752-2.708c-.04053-.041-.08155-.08008-.12354-.11915a2.01136 2.01136 0 1 1 2.83106 2.82715z"/></svg>