<svg enable-background="new 0 0 512 512" viewBox="0 0 512 512" xmlns="http://www.w3.org/2000/svg"><g id="_x30_1_Painter"><g><path d="m349.329 341.109c10.823 12.667 15.676 24.169 18.103 33.585 2.427 9.415 2.33 16.744 3.203 21.064 0 4.028 3.252 7.28 7.28 7.28s7.28-3.252 7.28-7.28v-.68c0-28.149-13.638-55.765-34.944-73.139-15.628-12.91-34.556-20.627-56.396-21.743-2.038-12.23-12.618-21.597-25.431-21.597-12.716 0-23.247 9.27-25.383 21.355h-11.211v-22.617c39.166-14.22 67.607-50.911 69.742-94.397 16.307-.048 29.557-13.347 29.557-29.654 0-16.258-13.104-29.508-29.314-29.702v-57.172c0-25.383-20.675-46.01-46.058-46.01h-120.216c-25.334 0-46.009 20.627-46.009 46.01v57.172c-16.162.243-29.314 13.444-29.314 29.702 0 16.259 13.201 29.508 29.46 29.654 2.135 43.486 30.624 80.177 69.742 94.397v22.617h-8.493c-2.135-12.085-12.667-21.355-25.383-21.355-12.764 0-23.296 9.318-25.383 21.5-52.076 1.068-94.106 43.68-94.106 95.999v67.267c0 15.531 12.57 28.101 28.052 28.198 0 .049 87.311.049 322.891 0 15.579 0 28.198-12.618 28.198-28.198v-30.236c0-3.98-3.252-7.28-7.28-7.28s-7.28 3.3-7.28 7.28v30.236c0 7.523-6.115 13.638-13.638 13.638h-29.362l.437-42.903c.194-18.103-14.414-32.808-32.469-32.808h-1.359v-86.486c21.984 1.405 41.252 11.112 55.084 26.303zm-47.514-202.966c8.154.194 14.754 6.892 14.754 15.142 0 8.202-6.6 14.9-14.754 15.094zm-212.284 30.236c-8.154-.194-14.754-6.892-14.754-15.094 0-8.251 6.601-14.948 14.754-15.142zm14.56-101.967c0-17.326 14.123-31.45 31.449-31.45h120.217c17.375 0 31.498 14.123 31.498 31.45v57.172h-183.164zm176.612 71.731-10.629 15.482c-4.95 7.28-13.201 11.599-21.985 11.599h-104.831c-8.833 0-17.035-4.32-22.034-11.599l-10.58-15.482zm-176.612 39.506c0-.582 0-23.296 0-23.296 2.621 2.621 12.23 25.431 39.166 25.431h104.831c26.839 0 36.642-22.908 39.069-25.286v23.15c0 50.426-41.059 91.485-91.533 91.485-50.474.001-91.533-41.058-91.533-91.484zm113.18 103.861v38.05c0 11.939-9.707 21.646-21.646 21.646s-21.646-9.707-21.646-21.646v-38.05c6.989 1.456 14.22 2.184 21.646 2.184 7.425 0 14.657-.728 21.646-2.184zm-65.908 33.003h8.056v5.047c0 19.947 16.259 36.206 36.206 36.206s36.206-16.259 36.206-36.206v-5.047h10.774v86.777h-91.242zm-87.748 162.489h-29.363c-7.523 0-13.638-6.115-13.638-13.638v-67.267c0-44.117 35.284-80.08 79.109-81.439v86.632h-4.028c-18.103 0-32.663 14.705-32.517 32.808zm231.988-61.152c9.949 0 18.006 8.105 17.909 18.103l-.437 43.049h-234.9l-.437-43.049c-.097-9.998 7.959-18.103 17.957-18.103z"/><path d="m484.64 185.512h-7.571v-1.65c0-10.289-8.348-18.637-18.637-18.637h-104.298c-10.24 0-18.637 8.348-18.637 18.637v17.86c0 10.289 8.396 18.637 18.637 18.637h104.298c10.289 0 18.637-8.348 18.637-18.637v-1.65h7.571c3.737 0 6.746 3.058 6.746 6.746v23.102c0 3.737-3.009 6.746-6.746 6.746h-62.122c-12.958 0-23.49 10.58-23.49 23.539v6.794c-7.037.097-12.716 5.824-12.716 12.861v34.458c0 11.017 8.979 19.996 19.996 19.996s19.996-8.979 19.996-19.996v-34.458c0-7.037-5.678-12.764-12.716-12.861v-6.794c0-4.95 4.028-8.979 8.93-8.979h62.122c11.745 0 21.306-9.561 21.306-21.306v-23.102c0-11.745-9.562-21.306-21.306-21.306zm-72.897 128.807c0 3.009-2.427 5.436-5.436 5.436s-5.436-2.427-5.436-5.436v-32.76h10.871v32.76z"/></g></g><g id="Layer_1"/></svg>