<?xml version="1.0" encoding="iso-8859-1"?>
<!-- Generator: Adobe Illustrator 19.0.0, SVG Export Plug-In . SVG Version: 6.00 Build 0)  -->
<svg version="1.1" id="Capa_1" xmlns="http://www.w3.org/2000/svg" xmlns:xlink="http://www.w3.org/1999/xlink" x="0px" y="0px"
	 viewBox="0 0 512 512" style="enable-background:new 0 0 512 512;" xml:space="preserve">
<g>
	<path style="fill:#35DC86;" d="M426.667,352c41.28,0,74.667,33.387,74.667,74.667s-33.387,74.667-74.667,74.667H53.333
		c0,0-42.667,0-42.667-42.667s0-330.667,0-330.667s0-42.667,42.667-42.667s298.667,0,298.667,0v341.333
		C352,385.387,385.387,352,426.667,352z"/>
	<path style="fill:#35DC86;" d="M501.333,85.333v341.333c0-41.28-33.387-74.667-74.667-74.667S352,385.387,352,426.667V85.333
		c0-41.28,33.387-74.667,74.667-74.667S501.333,44.053,501.333,85.333z"/>
</g>
<circle style="fill:#2EBC70;" cx="426.667" cy="426.667" r="74.667"/>
<path style="fill:#D0D7DF;" d="M53.333,394.667c0,5.888,4.779,10.667,10.667,10.667h234.667c5.888,0,10.667-4.779,10.667-10.667v-64
	c0-5.888-4.779-10.667-10.667-10.667H64c-5.888,0-10.667,4.779-10.667,10.667V394.667z"/>
<path style="fill:#F1F2F2;" d="M245.333,138.667v64H192L245.333,138.667z"/>
<path style="fill:#FED049;" d="M245.333,277.333H138.667H53.333L288,10.667v266.667H245.333z M245.333,202.667v-64l-53.333,64
	H245.333z"/>
<g>
	<path style="fill:#474C54;" d="M426.667,0c-43.435,0-79.317,32.64-84.597,74.667h-11.403c-5.899,0-10.667,4.779-10.667,10.667
		S324.768,96,330.667,96h10.667v330.667c0,5.888,4.768,10.667,10.667,10.667s10.667-4.779,10.667-10.667c0-35.296,28.704-64,64-64
		s64,28.704,64,64s-28.704,64-64,64H53.397c-5.355-0.064-32.064-1.888-32.064-32V128.053c0.064-5.355,1.888-32.053,32-32.053H160
		c5.899,0,10.667-4.779,10.667-10.667S165.899,74.667,160,74.667H53.333C11.147,74.667,0,109.557,0,128v330.667
		C0,500.853,34.891,512,53.333,512h373.333c41.525,0,76.213-29.803,83.787-69.141c0.981-1.611,1.547-3.509,1.547-5.525v-352
		C512,38.283,473.717,0,426.667,0z M490.667,370.283c-15.648-17.739-38.539-28.949-64-28.949c-25.461,0-48.352,11.211-64,28.949
		V85.333c0-35.296,28.704-64,64-64s64,28.704,64,64V370.283z"/>
	<path style="fill:#474C54;" d="M64,309.333c-11.765,0-21.333,9.568-21.333,21.333v64C42.667,406.432,52.235,416,64,416h117.333
		c5.899,0,10.667-4.779,10.667-10.667v-42.667c0-5.888-4.768-10.667-10.667-10.667c-5.899,0-10.667,4.779-10.667,10.667v32h-53.333
		v-21.333c0-5.888-4.768-10.667-10.667-10.667c-5.899,0-10.667,4.779-10.667,10.667v21.333H64v-64h234.667v64h-32v-21.333
		c0-5.888-4.768-10.667-10.667-10.667c-5.899,0-10.667,4.779-10.667,10.667v21.333H224c-5.899,0-10.667,4.779-10.667,10.667
		S218.101,416,224,416h74.667c11.765,0,21.333-9.568,21.333-21.333v-64c0-11.765-9.568-21.333-21.333-21.333H64z"/>
	<path style="fill:#474C54;" d="M43.616,281.728c1.728,3.819,5.525,6.272,9.717,6.272H288c5.899,0,10.667-4.779,10.667-10.667
		V10.667c0-4.437-2.752-8.416-6.891-9.984c-4.16-1.547-8.832-0.395-11.776,2.933L45.333,270.283
		C42.549,273.429,41.888,277.909,43.616,281.728z M277.333,38.933v227.733H256v-21.333c0-5.888-4.768-10.667-10.667-10.667
		c-5.899,0-10.667,4.779-10.667,10.667v21.333h-32v-21.333c0-5.888-4.768-10.667-10.667-10.667c-5.899,0-10.667,4.779-10.667,10.667
		v21.333h-32v-21.333c0-5.888-4.768-10.667-10.667-10.667S128,239.445,128,245.333v21.333H76.928L277.333,38.933z"/>
	<path style="fill:#474C54;" d="M192,213.333h53.333c5.899,0,10.667-4.779,10.667-10.667v-64c0-4.491-2.816-8.501-7.029-10.027
		c-4.213-1.515-8.949-0.245-11.829,3.2l-53.333,64c-2.645,3.179-3.221,7.605-1.461,11.349
		C184.096,210.933,187.861,213.333,192,213.333L192,213.333z M234.667,168.128V192h-19.893L234.667,168.128z"/>
	<path style="fill:#474C54;" d="M64,437.333c-5.899,0-10.667,4.779-10.667,10.667c0,5.888,4.768,10.667,10.667,10.667h21.333
		C91.232,458.667,96,453.888,96,448c0-5.888-4.768-10.667-10.667-10.667H64z"/>
	<path style="fill:#474C54;" d="M128,437.333c-5.899,0-10.667,4.779-10.667,10.667c0,5.888,4.768,10.667,10.667,10.667h21.333
		c5.899,0,10.667-4.779,10.667-10.667c0-5.888-4.768-10.667-10.667-10.667H128z"/>
	<path style="fill:#474C54;" d="M192,437.333c-5.899,0-10.667,4.779-10.667,10.667c0,5.888,4.768,10.667,10.667,10.667h106.667
		c5.899,0,10.667-4.779,10.667-10.667c0-5.888-4.768-10.667-10.667-10.667H192z"/>
</g>
<g>
</g>
<g>
</g>
<g>
</g>
<g>
</g>
<g>
</g>
<g>
</g>
<g>
</g>
<g>
</g>
<g>
</g>
<g>
</g>
<g>
</g>
<g>
</g>
<g>
</g>
<g>
</g>
<g>
</g>
</svg>
