<svg id="Layer_1" enable-background="new 0 0 512 512" viewBox="0 0 512 512" xmlns="http://www.w3.org/2000/svg"><g><g><path d="m374.1 373.4c-20.8-15.4-47-25-73.4-27.1h-54.5c-26.4 2.1-52.6 11.5-73.4 27.1l5.3-6.1c16-26.2 44.4-44.1 75.3-46.8v.1h.2l19.9 20.1 19.9-20.1h.2v-.1c30.8 2.8 59.3 20.7 75.2 46.8 0 0 5.3 6.1 5.3 6.1z" fill="#afe57c"/></g><g><path d="m458.5 357.6c-.1.6-6.5 94.9-6.7 95.3-4.4 36.7-48.2 40.6-68.2 13.3v35.1h-220.4v-35.1c-20 27.3-63.6 23.5-68.2-13.3-.3-.3-6.5-95-6.7-95.4 0-.7.4-1.3 1.2-1.4l28-4.8c.7-.1 1.4.3 1.5 1l14.8 60.8c.4 1.7 2.6 2.3 3.7.9l35.3-40.8c20.8-15.5 47.1-25 73.4-27.1h54.5c26.4 2 52.5 11.7 73.4 27.1 0 0 35.3 40.8 35.3 40.8 1.2 1.3 3.5.8 3.7-1l14.8-60.8c.2-.7.8-1.1 1.5-1l28 4.8c.7.3 1.2.9 1.1 1.6z" fill="#c7f2a4"/></g><g><path d="m284.7 304.2c-47.6 8.4-87.6-36.9-86.7-85.1 6.2-9.6 13.4-19.4 20.3-26.9-11.6 49.4 16.9 104.9 66.4 112z" fill="#f3b3a2"/></g><g><path d="m349.3 219.1c.6 37.7-24.3 75.4-58.4 83.7-10.2 3.3-21.3-2.4-30.3-6.7-34-17.5-51.8-63.7-42.2-103.9 8.9-9.9 23.3-21.7 36.3-18.1 5.5 1.3 10.2 4.2 18.9 4.2 9-.1 16.8-3 23.1-6.7 3.1-1.2 6-6 9.4-3.8.6.4.9 1.1 1 1.8 1.3 7.2 4 14.7 9.7 20.6 11.7 9.3 23 15.4 32.5 28.9z" fill="#f7d0c1"/></g><g><path d="m320.2 125.7c-61.8-29-108 4.6-102.2 66.9-6.9 7.4-13.8 17-19.9 26.6-12.1-29.1-11-74.6 13.7-98.6 23.5-22 70.1-22.7 108.4 5.1z" fill="#445859"/></g><g><path d="m357.5 205.4c-2.2 4.8-5 9.4-8.2 13.8-9.4-13.6-21.7-20.2-32.5-29.1-5.6-5.8-8.4-13-9.7-20.6-.3-2.1-2.7-3.2-4.5-1.9-7 5.1-16.6 10.3-28.1 10.6-8 .6-15.7-3.6-22.2-4.6-7.9-1-19.1 2.2-34.3 18.9-5.8-62.3 40.4-95.8 102.2-66.9 3.3 2.4 6.6 5 9.7 7.8 6.9 2 13.5 4.9 20.3 10.5 2.8 2.5 5.6 5.5 7.9 9.2-.1.2 13.4 21.9-.6 52.3z" fill="#5b7882"/></g><g><path d="m199.5 235.9c-18.6 2.3-23.2-26.6-6.4-32.5 1.2 5.3 2.9 10.5 5 15.7 0 5.8.4 11.4 1.4 16.8z" fill="#ea9a85"/></g><g><path d="m364.4 219.4c0 9.7-7.6 17.6-16.5 16.6 1-5.4 1.5-11.1 1.5-16.8 3.3-4.5 6-9.1 8.2-13.8 4 3 6.8 8.2 6.8 14z" fill="#ea9a85"/></g><g><path d="m253.5 320.5 19.9 20.1 19.9-20.1-1.8-17.8c-11.6 3.3-24.8 3.2-36.3-.1z" fill="#ea9a85"/></g><g><g><path d="m266.9 383c.1 8.5 12.8 8.5 13 0-.2-8.5-12.8-8.5-13 0z" fill="#ec6e73"/></g></g><g><g><path d="m266.9 425.8c.1 8.5 12.8 8.5 13 0-.2-8.5-12.8-8.4-13 0z" fill="#ec6e73"/></g></g><g><g><path d="m266.9 468.7c.1 8.5 12.8 8.5 13 0-.2-8.5-12.8-8.5-13 0z" fill="#ec6e73"/></g></g><g><path d="m430.6 351.6 7.3-14.3c1.3-2.6 3.7-4.6 6.5-5.4l48.1-14c4.5-1.3 8.3 3.4 6.1 7.5l-2.9 5.3c-.7 1.3-1.7 2.3-3 2.9l-28.6 14c-2.1.8-6.4 6.9-7.9 8.4z" fill="#f7d0c1"/></g><g><path d="m116.2 351.6-7.3-14.3c-1.3-2.6-3.7-4.6-6.5-5.4l-48.1-14c-4.5-1.3-8.3 3.4-6.1 7.5l2.9 5.3c.7 1.3 1.7 2.3 3 2.9l28.6 14c2.1.8 6.4 6.9 7.9 8.4z" fill="#f7d0c1"/></g><g><path d="m95.9 232c-46.9 8.2-95.8-25.6-94.9-69-1-43.5 48.1-77.2 95-68.9-88.5 14.9-88.5 122.9-.1 137.9z" fill="#e1ecf0"/></g><g><path d="m134.1 232c4.4 9.4 9.2 17 13.6 23.2-12.3-1.9-33.9-13.6-43.3-24.9-2.8.7-5.6 1.3-8.5 1.7-37.9-5.8-66.7-34.5-66.7-69s28.9-63.2 66.8-68.9c37.9 5.8 66.8 34.4 66.8 68.9 0 23.4-13.3 44.1-33.7 56.8 1.4 4 3.1 8.1 5 12.2z" fill="#eff5f6"/></g><g><g><path d="m83.7 187.7c-3 0-5.5-2.4-5.5-5.5v-8.5c0-6.3 3.4-12 8.8-14.6 2.7-1.3 5-4.5 4-8.6-2-8.5-14.9-6.8-14.8 1.8 0 3-2.4 5.5-5.5 5.5-10.4-1.3-4.1-16.1 1.5-19.9 22-15.9 43.4 18 19.6 31-1.6.8-2.6 2.7-2.6 4.8v8.5c0 3.1-2.5 5.5-5.5 5.5z" fill="#f8d36f"/></g></g><g><g><path d="m83.7 202.5c-7.4.1-7.4-12.6 0-12.4 7.3-.2 7.3 12.5 0 12.4z" fill="#f8d36f"/></g></g><g><g><path d="m114.7 179.9c-4 .1-6.8-4.5-4.8-8 0 0 4-7.5 4-7.5 2.9-5.5 8.7-9 14.6-8.8 2.8-.1 6.5-1.6 7.6-5.7 1.5-5.1-3.6-10.3-8.7-9.2-2.3.4-4.2 1.8-5.3 3.9-1.4 2.7-4.7 3.7-7.4 2.3-8.6-6 3.9-16.1 10.7-16.9 26.9-3.7 29.8 36.2 2.8 36.6-7 0-6.3 13.5-13.5 13.3z" fill="#f8d36f"/></g></g><g><g><path d="m106.4 193.2c-9.6-.5-4.9-15.6 3.3-11.6 5.4 2.7 2.3 11.7-3.3 11.6z" fill="#f8d36f"/></g></g><g><g><path d="m51.4 185.7c-4.3.4-7-6.7-9.3-9.4-3.5-5.2-3.9-11.9-.9-17 1.5-2.6 1.6-6.5-1.5-9.4-3.8-3.8-10.8-1.7-12.2 3.4-.7 2.2-.3 4.6.9 6.4 1.7 2.5 1 5.9-1.5 7.6-9.3 4.6-12.4-10.9-9.9-17.3 3.5-12.6 20.8-17.4 30.1-8.1 6.4 6 7.8 15.3 3.5 22.8-.9 1.5-.7 3.7.5 5.4l4.7 7c2.7 3.5-.1 8.7-4.4 8.6z" fill="#f8d36f"/></g></g><g><g><path d="m60.7 198.2c-5.3 0-8.8-8.1-3.9-11.2 8.1-5 14 10.4 3.9 11.2z" fill="#f8d36f"/></g></g><g><path d="m457.2 123.7c-9.8 1.6-20.8 1.1-30.3-1.4-7.1 8.9-25.5 18.9-35.2 20.3 5.3-7 11.9-19.1 15.2-28.7-58.4-38.5-15.3-112.9 50.3-102.2-71.4 12.4-71.3 99.6 0 112z" fill="#e1ecf0"/></g><g><path d="m511 67.6c0 27.9-23.2 51.1-53.8 56-71.4-12.4-71.4-99.6 0-112 30.6 5 53.8 28.2 53.8 56z" fill="#eff5f6"/></g><g><g><path d="m467.1 85.9c-3 0-5.5-2.4-5.5-5.5v-8.5c0-6.3 3.4-12 8.8-14.6 5.9-2.4 5.6-12.5-1.5-14.1-4.7-1.2-9.4 2.5-9.3 7.3 0 3-2.4 5.5-5.5 5.5-10.4-1.3-4.1-16.1 1.5-19.9 22-15.9 43.4 18 19.6 31-1.6.8-2.6 2.7-2.6 4.8v8.5c-.1 3-2.5 5.5-5.5 5.5z" fill="#ec6e73"/></g></g><g><g><path d="m467.1 100.7c-7.4.1-7.4-12.6 0-12.4 7.3-.2 7.3 12.5 0 12.4z" fill="#ec6e73"/></g></g><g><g><path d="m434.8 83.9c-4.3.4-7-6.7-9.3-9.4-3.5-5.2-3.9-11.9-.9-17 3.5-5.3-2.3-13.5-9.1-10.8-4.6 1.6-6.4 7.4-3.7 11.3 1.7 2.5 1 5.9-1.5 7.6-9.3 4.4-12.3-11.1-9.8-17.5 3.5-12.6 20.8-17.3 30.1-8.1 6.4 6 7.8 15.4 3.5 22.8-.9 1.5-.7 3.7.5 5.4l4.8 7c2.5 3.6-.3 8.8-4.6 8.7z" fill="#ec6e73"/></g></g><g><g><path d="m444 96.3c-5.3 0-8.8-8.1-3.9-11.3 8.2-4.8 14 10.6 3.9 11.3z" fill="#ec6e73"/></g></g></g></svg>