<svg id="Layer_1" enable-background="new 0 0 1580 1580" height="512" viewBox="0 0 1580 1580" width="512" xmlns="http://www.w3.org/2000/svg"><g><g><path d="m1368.4 1473.1h-1156.8c-13.3 0-24-10.7-24-24v-736c0-13.3 10.7-24 24-24s24 10.7 24 24v712h1108.8v-712c0-13.3 10.7-24 24-24s24 10.7 24 24v736c0 13.3-10.8 24-24 24z"/><path d="m1483.8 814.5c-16.5 0-32.4-5.5-45.6-15.9l-648.2-510-648.2 510c-32.1 25.2-78.7 19.7-103.9-12.4-12.2-15.5-17.7-34.9-15.3-54.5 2.3-19.6 12.2-37.2 27.7-49.4l724.9-570.3c8.7-6.9 21-6.9 29.7 0l724.9 570.3c32.1 25.2 37.6 71.8 12.4 103.9-12.2 15.5-29.8 25.4-49.4 27.7-3 .4-6 .6-9 .6zm-693.8-580.4c5.2 0 10.5 1.7 14.8 5.1l663.1 521.6c5.5 4.3 12.3 6.2 19.2 5.4s13.1-4.3 17.4-9.7c8.9-11.3 6.9-27.7-4.4-36.5l-710.1-558.6-710.1 558.6c-5.5 4.3-8.9 10.5-9.7 17.4s1.1 13.7 5.4 19.2c8.9 11.3 25.2 13.2 36.5 4.4l663.1-521.6c4.3-3.6 9.6-5.3 14.8-5.3z"/></g><path d="m1244.5 512.4c-13.3 0-24-10.7-24-24v-275.9h-119v144.5c0 13.3-10.7 24-24 24s-24-10.7-24-24v-168.5c0-13.3 10.7-24 24-24h167c13.3 0 24 10.7 24 24v299.9c0 13.3-10.7 24-24 24z"/><g><g><path d="m1041 1349.1c-29.6 0-57.5-11.5-78.5-32.5l-211.3-211.3c-9.4-9.4-9.4-24.6 0-33.9s24.6-9.4 33.9 0l211.3 211.3c11.9 11.9 27.7 18.5 44.5 18.5s32.6-6.6 44.5-18.5 18.5-27.7 18.5-44.5-6.6-32.6-18.5-44.5l-211.2-211.5c-9.4-9.4-9.4-24.6 0-33.9 9.4-9.4 24.6-9.4 33.9 0l211.3 211.3c21 21 32.5 48.8 32.5 78.5s-11.5 57.5-32.5 78.5c-20.9 20.9-48.8 32.5-78.4 32.5z"/><g><path d="m1045.6 1266.7c-6.1 0-12.3-2.3-17-7l-212.1-212.1c-9.4-9.4-9.4-24.6 0-33.9 9.4-9.4 24.6-9.4 33.9 0l212.1 212.1c9.4 9.4 9.4 24.6 0 33.9-4.6 4.7-10.7 7-16.9 7z"/></g><path d="m723 999.2c-6.1 0-12.3-2.3-17-7l-202.8-202.8-32-13.6c-2.5-1-4.7-2.5-6.7-4.3l-2.7-2.4c-2-1.8-3.6-3.9-4.9-6.2l-19.7-35.6c-2.5-4.6-3.5-9.8-2.8-15l.9-6.7c.7-5.2 3.1-9.9 6.8-13.6l52.7-52.7c3.7-3.7 8.5-6.1 13.6-6.8l6.7-.9c5.2-.7 10.4.2 15 2.8l35.6 19.7c2.3 1.3 4.4 2.9 6.2 4.9l2.4 2.7c1.8 2 3.2 4.2 4.3 6.7l13.6 32 202.8 202.7c9.4 9.4 9.4 24.6 0 33.9-9.4 9.4-24.6 9.4-33.9 0l-206.1-206c-2.2-2.2-3.9-4.7-5.1-7.6l-12.9-30.4-17.9-9.9-33.1 33.1 9.9 17.9 30.4 13c2.8 1.2 5.4 2.9 7.6 5.1l206 206c9.4 9.4 9.4 24.6 0 33.9-4.6 4.7-10.8 7.1-16.9 7.1z"/></g><g><path d="m585.7 1348.7c-18.2 0-36.3-3.1-53.6-9.3-7.4-2.7-13-8.8-15.1-16.4s-.2-15.7 4.9-21.7l64.7-76.3-35.7-35.7-76.3 64.7c-6 5.1-14.1 6.9-21.7 4.9s-13.7-7.7-16.4-15.1c-10-27.9-12-58-5.8-87 6.4-29.9 21.2-57.1 42.9-78.8s48.9-36.5 78.8-42.9c23.9-5.1 48.6-4.7 72.1 1.2l216-216c-5.9-23.5-6.4-48.2-1.2-72.1 6.4-29.9 21.2-57.1 42.9-78.8s48.9-36.5 78.8-42.9c29-6.2 59.1-4.2 87 5.8 7.4 2.7 13 8.8 15.1 16.4 2 7.6.2 15.7-4.9 21.7l-64.7 76.3 35.7 35.7 76.3-64.7c6-5.1 14.1-6.9 21.7-4.9s13.7 7.7 16.4 15.1c10 27.9 12 58 5.8 87-6.4 29.9-21.2 57.1-42.9 78.8s-48.9 36.5-78.8 42.9c-23.9 5.1-48.6 4.7-72.1-1.2l-216 216c5.9 23.5 6.4 48.2 1.2 72.1-6.4 29.9-21.2 57.1-42.9 78.8s-48.9 36.5-78.8 42.9c-11.1 2.3-22.3 3.5-33.4 3.5zm-.4-48h.1c28.9 0 57.4-11.3 78.5-32.3 30.1-30.1 40.3-75.5 25.9-115.6-3.1-8.7-1-18.5 5.6-25.1l236.4-236.3c6.6-6.6 16.3-8.8 25.1-5.6 40.1 14.4 85.5 4.2 115.6-25.9 21.1-21.1 32.4-49.6 32.3-78.6l-61.5 52.2c-9.5 8.1-23.7 7.5-32.5-1.3l-67-67c-8.8-8.8-9.4-23-1.3-32.5l52.2-61.5h-.1c-28.9 0-57.4 11.3-78.5 32.3-30.1 30.1-40.3 75.5-25.9 115.6 3.1 8.7.9 18.5-5.6 25.1l-236.3 236.4c-6.6 6.6-16.3 8.8-25.1 5.6-40.1-14.4-85.5-4.2-115.6 25.9-21.1 21.1-32.4 49.6-32.3 78.6l61.5-52.2c9.5-8.1 23.7-7.5 32.5 1.3l67 67c8.8 8.8 9.4 23 1.3 32.5z"/></g></g></g></svg>