<svg fill="none" height="512" viewBox="0 0 24 24" width="512" xmlns="http://www.w3.org/2000/svg"><path clip-rule="evenodd" d="m12.7071 9.29289c-.3905-.39052-1.0237-.39052-1.4142 0-.3905.39053-.3905 1.02371 0 1.41421l1.2929 1.2929-1.2929 1.2929c-.3905.3905-.3905 1.0237 0 1.4142s1.0237.3905 1.4142 0l1.2929-1.2929 1.2929 1.2929c.3905.3905 1.0237.3905 1.4142 0s.3905-1.0237 0-1.4142l-1.2929-1.2929 1.2929-1.2929c.3905-.3905.3905-1.02368 0-1.41421-.3905-.39052-1.0237-.39052-1.4142 0l-1.2929 1.29291zm-3.93122-4.55062c.54688-.47852 1.24882-.74227 1.97552-.74227h5.6005c.9798 0 1.8353.05119 2.558.21181.7341.16314 1.3909.45215 1.9085.96972s.8066 1.17443.9697 1.90849c.1606.72271.2118 1.57825.2118 2.55798v4.704c0 .9797-.0512 1.8353-.2118 2.558-.1631.734-.4521 1.3909-.9697 1.9085-.5176.5175-1.1744.8066-1.9085.9697-.7227.1606-1.5782.2118-2.558.2118h-5.6005c-.7267 0-1.42864-.2638-1.97552-.7423l-5.71428-5c-1.36598-1.1952-1.36599-3.3202-.00001-4.51543z" fill="rgb(0,0,0)" fill-rule="evenodd"/></svg>