<svg fill="none" height="512" viewBox="0 0 512 512" width="512" xmlns="http://www.w3.org/2000/svg"><g fill="rgb(0,0,0)"><path d="m232 196c0-13.255 10.745-24 24-24s24 10.745 24 24-10.745 24-24 24-24-10.745-24-24z"/><path clip-rule="evenodd" d="m249.319 353.441c.002.002.004.003 6.681-7.441l-6.677 7.444c3.799 3.408 9.555 3.408 13.354 0l-6.677-7.444c6.677 7.444 6.679 7.443 6.681 7.441l.089-.08c.056-.05.136-.123.239-.217.208-.188.51-.462.9-.82.781-.714 1.915-1.76 3.353-3.107 2.874-2.692 6.964-6.588 11.865-11.437 9.791-9.687 22.874-23.235 35.987-38.634 13.08-15.361 26.374-32.779 36.449-50.2 9.932-17.175 17.437-35.53 17.437-52.478 0-62.624-50.549-113.468-113-113.468s-113 50.844-113 113.468c0 16.948 7.505 35.303 17.437 52.478 10.075 17.421 23.369 34.839 36.449 50.2 13.113 15.399 26.196 28.947 35.987 38.634 4.901 4.849 8.991 8.745 11.865 11.437 1.438 1.347 2.572 2.393 3.353 3.107.39.358.692.632.9.82.103.094.183.167.239.217zm-86.319-156.973c0-51.664 41.68-93.468 93-93.468s93 41.804 93 93.468c0 11.623-5.37 26.246-14.75 42.465-9.238 15.974-21.694 32.367-34.364 47.247-12.637 14.841-25.304 27.962-34.826 37.383-3.508 3.471-6.581 6.432-9.06 8.784-2.479-2.352-5.552-5.313-9.06-8.784-9.522-9.421-22.189-22.542-34.826-37.383-12.67-14.88-25.126-31.273-34.364-47.247-9.38-16.219-14.75-30.842-14.75-42.465z" fill-rule="evenodd"/><path d="m167.087 327.776c5.253-1.705 8.13-7.346 6.424-12.599-1.705-5.253-7.345-8.129-12.598-6.424-19.576 6.354-36.381 14.81-48.494 25.084-12.088 10.254-20.419 23.177-20.419 38.163 0 12.579 5.9018 23.761 14.932 33.05 8.985 9.241 21.499 17.107 36.184 23.496 29.401 12.791 69.319 20.454 112.884 20.454s83.483-7.663 112.884-20.454c14.685-6.389 27.199-14.255 36.184-23.496 9.03-9.289 14.932-20.471 14.932-33.05 0-14.986-8.331-27.909-20.419-38.163-12.113-10.274-28.918-18.73-48.494-25.084-5.253-1.705-10.893 1.171-12.598 6.424-1.706 5.253 1.171 10.894 6.424 12.599 18.056 5.861 32.251 13.273 41.731 21.314 9.503 8.06 13.356 15.897 13.356 22.91 0 5.922-2.717 12.365-9.272 19.108-6.601 6.79-16.639 13.362-29.823 19.098-26.336 11.458-63.418 18.794-104.905 18.794s-78.569-7.336-104.905-18.794c-13.184-5.736-23.222-12.308-29.823-19.098-6.555-6.743-9.272-13.186-9.272-19.108 0-7.013 3.853-14.85 13.356-22.91 9.48-8.041 23.675-15.453 41.731-21.314z"/></g></svg>