<svg id="Layer_1" enable-background="new 0 0 512 512" viewBox="0 0 512 512" xmlns="http://www.w3.org/2000/svg"><path d="m145.6 367.5c-25.2 0-45.7 20.5-45.7 45.7 2.3 60.5 89 60.4 91.3 0 .1-25.2-20.4-45.7-45.6-45.7zm0 80.5c-19.2 0-34.9-15.6-34.9-34.9 1.6-46.2 68.1-46.2 69.8 0 0 19.3-15.6 34.9-34.9 34.9zm85.7-52.4-16-2.4c-1.4-5-3.4-9.8-5.9-14.4l9.8-13.1c2.4-3.2 2.1-7.8-.8-10.6l-14-14c-2.8-2.8-7.4-3.2-10.6-.8l-13.1 9.6c-4.8-2.6-9.8-4.7-15-6.2l-2.4-16.1c-.6-4-4-6.9-8-6.9h-19.8c-4 0-7.5 3-8.1 7l-2.3 16.2c-5 1.5-9.8 3.5-14.4 6l-13.1-9.6c-3.3-2.4-7.7-2-10.6.8l-14 14c-2.8 2.8-3.2 7.4-.8 10.6l9.8 13.1c-2.5 4.6-4.4 9.4-5.9 14.4l-16 2.4c-4 .6-6.9 4-6.9 8v19.8c0 4 3 7.5 7 8.1l16.1 2.3c1.5 5 3.5 9.8 6 14.4l-9.6 13.1c-2.4 3.3-2 7.7.8 10.6l14 14c2.9 2.9 7.4 3.2 10.6.8l13-9.8c4.4 2.4 9 4.3 13.8 5.7l2.3 16.2c.6 4 4 7 8.1 7h19.8c4 0 7.4-2.9 8.1-6.9l2.4-16c5-1.4 9.9-3.4 14.4-5.9l13 9.8c3.2 2.4 7.8 2.1 10.7-.8l14-14c2.9-2.9 3.2-7.3.8-10.6l-9.6-13.1c2.5-4.6 4.5-9.4 6-14.4l16.1-2.3c4-.6 7-4 7-8.1v-19.8c.2-4.1-2.7-7.5-6.7-8.1zm-3.9 25.6-17.4 2.5c-2.2.3-3.9 1.9-4.5 4.1-1.5 6.4-4.1 12.4-7.5 17.9-1.2 1.9-1.1 4.3.2 6l10.4 14.1-10.8 10.8-14.1-10.5c-1.8-1.3-4.2-1.4-6-.3-5.6 3.4-11.6 5.9-18 7.4-2.1.5-3.8 2.3-4.1 4.4l-2.6 17.3h-15.3l-2.5-17.4c-.3-2.2-1.9-4-4.1-4.5-6.2-1.5-12.1-3.9-17.5-7.2-1.9-1.1-4.3-1-6 .3l-14.1 10.5-10.8-10.8 10.4-14.1c1.3-1.8 1.4-4.2.2-6-3.5-5.6-6-11.6-7.5-18-.5-2.1-2.3-3.7-4.5-4.1l-17.4-2.5v-15.3l17.3-2.6c2.2-.3 3.9-2 4.4-4.1 1.5-6.4 3.9-12.5 7.3-18 1.1-1.9 1-4.3-.3-6l-10.4-14.1 10.8-10.8 14.1 10.3c1.8 1.3 4.2 1.4 6 .2 5.5-3.4 11.6-6 18-7.5 2.1-.5 3.7-2.3 4.1-4.5l2.5-17.4h15.3l2.6 17.3c.3 2.2 2 3.9 4.1 4.4 6.5 1.5 12.8 4.1 18.5 7.6 1.9 1.2 4.3 1.1 6-.2l14.1-10.4 10.8 10.8-10.5 14.1c-1.3 1.8-1.4 4.1-.3 6 3.4 5.6 5.9 11.6 7.3 18 .5 2.2 2.3 3.8 4.4 4.1l17.3 2.6v15.6zm168-211.1c0-18.6 0-141.4 0-156.6 0-14.9-12.1-27-27-27h-24.6v-6.1c.2-7.4-6.5-14.2-14-14-7.7 0-14 6.3-14 14v6.1h-39.9v-6.1c.2-7.4-6.5-14.3-14-14-7.7 0-14 6.3-14 14v6.1h-39.9v-6.1c.2-7.6-6.5-14.2-14-14-7.7 0-14 6.3-14 14v6.1h-39.9v-6.1c.2-7.4-6.5-14.2-14-14-7.7 0-14 6.3-14 14v6.1h-48.1c-14.7 0-27.9 10.8-30.1 24.6l-32.6 211.2c-2.5 14.4 9.4 26.6 23.9 26.3h36.5c3.7 11.7 13.8 19.9 25.6 19.9h158.3c-24.4 84.2 42.8 172.7 130.7 171.3 168.2-5.3 183.8-241.4 19.1-269.7zm-335.2-156.6v224.3h-35c-8.1.2-14.5-5.8-13.2-13.8l32.6-211.3c1.4-9 11.4-16.2 21-15.5-3.2 4.6-5.4 10.5-5.4 16.3zm266.3-33.1c0-4.1 6.5-4.4 6.5 0v22.5c0 4.3-6.5 4.3-6.5 0zm-68 0c0-4.2 6.5-4.3 6.5 0v22.5c0 4.2-6.5 4.3-6.5 0zm-67.9 0c0-4.3 6.5-4.3 6.5 0v22.5c0 4.3-6.5 4.3-6.5 0zm-68 0c0-4.1 6.5-4.4 6.5 0v22.5c0 1.8-1.4 3.3-3.3 3.3-1.8 0-3.3-1.5-3.3-3.3v-22.5zm-51.6 33.1c0-9 7.3-16.3 16.3-16.3h24.6v5.7c0 7.7 6.3 14 14 14s14-6.3 14-14v-5.7h39.9v5.7c0 7.7 6.3 14 14 14s14-6.3 14-14v-5.7h39.9v5.7c0 7.7 6.3 14 14 14s14-6.3 14-14v-5.7h39.9v5.7c0 7.7 6.3 14 14 14s14-6.3 14-14v-5.7h24.6c9 0 16.3 7.3 16.3 16.3v19.9h-313.5zm16.2 244.2c-7.9 0-14.6-6.4-16-15.4-.2-1.1-.3-2.1-.3-3.3v-194.8h313.6v124.8c-2.7-.1-5.3-.2-8-.2-55.9-.9-109 36.3-127.8 88.9zm164.3 46.5c0-47.5 28.8-92.7 71.8-112.9 80.2-39.2 179.1 22.8 177.7 112.9-6.9 165.5-242.7 165.5-249.5 0zm-116.4-234.8h-18.5c-6.6 0-11.9 5.3-11.9 11.9v18.5c0 6.6 5.3 11.9 11.9 11.9h18.5c6.6 0 11.9-5.3 11.9-11.9v-18.5c0-6.5-5.3-11.9-11.9-11.9zm1.1 30.4c0 .6-.5 1.1-1.1 1.1h-18.5c-.6 0-1.1-.5-1.1-1.1v-18.5c0-.6.5-1.1 1.1-1.1h18.5c.6 0 1.1.5 1.1 1.1zm66.9-30.4h-18.5c-6.6 0-11.9 5.3-11.9 11.9v18.5c0 6.6 5.3 11.9 11.9 11.9h18.5c6.6 0 11.9-5.3 11.9-11.9v-18.5c0-6.5-5.4-11.9-11.9-11.9zm1.1 30.4c0 .6-.5 1.1-1.1 1.1h-18.5c-.6 0-1.1-.5-1.1-1.1v-18.5c0-.6.5-1.1 1.1-1.1h18.5c.6 0 1.1.5 1.1 1.1zm48.4 11.9h18.4c6.6 0 11.9-5.3 11.9-11.9v-18.5c0-6.6-5.3-11.9-11.9-11.9h-18.5c-6.6 0-11.9 5.3-11.9 11.9v18.5c.1 6.6 5.4 11.9 12 11.9zm-1.2-30.4c0-.6.5-1.1 1.1-1.1h18.5c.6 0 1.1.5 1.1 1.1v18.5c0 .6-.5 1.1-1.1 1.1h-18.5c-.6 0-1.1-.5-1.1-1.1zm69.1 30.4h18.5c6.6 0 11.9-5.3 11.9-11.9v-18.5c0-6.6-5.3-11.9-11.9-11.9h-18.5c-6.6 0-11.9 5.3-11.9 11.9v18.5c0 6.6 5.4 11.9 11.9 11.9zm-1.1-30.4c0-.6.5-1.1 1.1-1.1h18.5c.6 0 1.1.5 1.1 1.1v18.5c0 .6-.5 1.1-1.1 1.1h-18.5c-.6 0-1.1-.5-1.1-1.1zm-184.3 48.5h-18.5c-6.6 0-11.9 5.3-11.9 11.9v18.5c0 6.6 5.3 11.9 11.9 11.9h18.5c6.6 0 11.9-5.3 11.9-11.9v-18.5c0-6.5-5.3-11.9-11.9-11.9zm1.1 30.4c0 .6-.5 1.1-1.1 1.1h-18.5c-.6 0-1.1-.5-1.1-1.1v-18.5c0-.6.5-1.1 1.1-1.1h18.5c.6 0 1.1.5 1.1 1.1zm66.9-30.4h-18.5c-6.6 0-11.9 5.3-11.9 11.9v18.5c0 6.6 5.3 11.9 11.9 11.9h18.5c6.6 0 11.9-5.3 11.9-11.9v-18.5c0-6.5-5.4-11.9-11.9-11.9zm1.1 30.4c0 .6-.5 1.1-1.1 1.1h-18.5c-.6 0-1.1-.5-1.1-1.1v-18.5c0-.6.5-1.1 1.1-1.1h18.5c.6 0 1.1.5 1.1 1.1zm78.7-18.5c0-6.6-5.3-11.9-11.9-11.9h-18.5c-6.6 0-11.9 5.3-11.9 11.9v18.5c0 6.6 5.3 11.9 11.9 11.9h18.5c6.6 0 11.9-5.3 11.9-11.9zm-10.7 18.5c0 .6-.5 1.1-1.1 1.1h-18.5c-.6 0-1.1-.5-1.1-1.1v-18.5c0-.6.5-1.1 1.1-1.1h18.4c.6 0 1.1.5 1.1 1.1v18.5zm-137.1 30h-18.5c-6.6 0-11.9 5.3-11.9 11.9v18.5c0 6.6 5.3 11.9 11.9 11.9h18.5c6.6 0 11.9-5.3 11.9-11.9v-18.5c0-6.5-5.3-11.9-11.9-11.9zm1.1 30.4c0 .6-.5 1.1-1.1 1.1h-18.5c-.6 0-1.1-.5-1.1-1.1v-18.5c0-.6.5-1.1 1.1-1.1h18.5c.6 0 1.1.5 1.1 1.1zm66.9-30.4h-18.5c-6.6 0-11.9 5.3-11.9 11.9v18.5c0 6.6 5.3 11.9 11.9 11.9h18.5c6.6 0 11.9-5.3 11.9-11.9v-18.5c0-6.5-5.4-11.9-11.9-11.9zm1.1 30.4c0 .6-.5 1.1-1.1 1.1h-18.5c-.6 0-1.1-.5-1.1-1.1v-18.5c0-.6.5-1.1 1.1-1.1h18.5c.6 0 1.1.5 1.1 1.1zm172-28.4c-61.8 0-112 50.3-112 112 6.2 148.6 217.9 148.6 224.1 0-.1-61.7-50.3-112-112.1-112zm0 213.3c-55.8 0-101.3-45.4-101.3-101.3 5.6-134.3 197-134.3 202.5 0 .1 55.9-45.4 101.3-101.2 101.3zm5.4-32.4v11.1c0 3-2.4 5.4-5.4 5.4s-5.4-2.4-5.4-5.4v-11.1c0-3 2.4-5.4 5.4-5.4s5.4 2.5 5.4 5.4zm-10.8-137.8v-11.1c0-3 2.4-5.4 5.4-5.4s5.4 2.4 5.4 5.4v11.1c0 3-2.4 5.4-5.4 5.4s-5.4-2.4-5.4-5.4zm-63.5 74.3h-11.1c-7 0-7-10.7 0-10.8h11.1c7 .1 7 10.8 0 10.8zm154.3-5.4c0 3-2.4 5.4-5.4 5.4h-11.1c-3 0-5.4-2.4-5.4-5.4s2.4-5.4 5.4-5.4h11.1c3 0 5.4 2.4 5.4 5.4zm-38.9-73.5c-2.5-1.6-5.8-.8-7.4 1.7l-35.8 56.5c-12.7-3.1-23.6 11.8-16.8 22.9l-29.4 35c-1.9 2.3-1.6 5.7.7 7.6s5.7 1.6 7.6-.7l29.4-35c14.3 5.6 27.3-12.3 17.6-24.1l35.8-56.6c1.5-2.3.8-5.7-1.7-7.3zm-46.5 78.4c-6.3-.2-6.4-9.6 0-9.7 6.3 0 6.3 9.6 0 9.7z"/></svg>