<svg id="Capa_1" enable-background="new 0 0 512 512" viewBox="0 0 512 512" xmlns="http://www.w3.org/2000/svg"><g><path d="m473.438 69.625h-434.876l-15.531-15.531 15.531-15.532h124.25l15.532 15.532 15.531-15.532h124.25l15.531 15.532 15.532-15.532h124.25l15.531 15.532z" fill="#fe9738"/><path d="m38.562 426.844-15.531 15.531-15.531-15.531v-383.282c0-2.761 2.239-5 5-5h26.062z" fill="#fea95c"/><path d="m504.5 426.844-170.844 15.531-170.844-15.531v-155.313l170.844-15.531 170.844 15.531z" fill="#fedbbd"/><path d="m486.5 269.895v133.949c0 2.761-2.239 5-5 5h-318.688v18l170.844 15.531 170.844-15.531v-155.313z" fill="#feca9c"/><path d="m494.5 473.438h-477c-5.523 0-10-4.477-10-10v-36.594h497v36.594c0 5.522-4.477 10-10 10z" fill="#cbe5e8"/><path d="m484.5 426.844v16.594c0 5.523-4.477 10-10 10h-467v10c0 5.523 4.477 10 10 10h477c5.523 0 10-4.477 10-10v-36.594z" fill="#a8d3d8"/><g fill="#fea95c"><path d="m193.875 116.219-15.531 15.531-15.532-15.531v-77.657h31.063z"/><path d="m349.188 116.219-15.532 15.531-15.531-15.531v-77.657h31.063z"/><path d="m504.5 116.219-15.531 15.531-15.531-15.531v-77.657h26.062c2.761 0 5 2.239 5 5z"/></g><path d="m162.812 116.219h341.688v155.312h-341.688z" fill="#fedbbd"/><path d="m488.5 116.219v134.312c0 2.761-2.239 5-5 5h-320.688v16h341.688v-155.312z" fill="#feca9c"/><path d="m499.5 31.062h-367.75c-4.143 0-7.5 3.358-7.5 7.5s3.357 7.5 7.5 7.5h23.562v16.059h-109.25v-16.059h50.688c4.143 0 7.5-3.358 7.5-7.5s-3.357-7.5-7.5-7.5h-84.25c-6.893 0-12.5 5.607-12.5 12.5v419.875c0 9.649 7.851 17.5 17.5 17.5h477c9.649 0 17.5-7.851 17.5-17.5v-419.875c0-6.892-5.607-12.5-12.5-12.5zm-188.875 31.059h-109.25v-16.059h109.25zm-109.25 15h109.25v31.598h-109.25zm211.841 46.598c4.143 0 7.5-3.357 7.5-7.5s-3.357-7.5-7.5-7.5h-56.528v-31.598h109.25v31.598h-17.722c-4.143 0-7.5 3.357-7.5 7.5s3.357 7.5 7.5 7.5h48.784v140.312h-326.688v-140.312zm52.722-61.598h-109.25v-16.059h109.25zm-295.626 216.91h326.688v140.312h-326.688zm326.688-170.312h-16.062v-38.84c.007-.19.006-.326 0-.515v-23.302h16.062zm-155.312-39.356c-.006.189-.007.325 0 .515v38.84h-16.062v-62.656h16.062zm-155.313.052c-.004.144-.004.265 0 .413v38.891h-16.062v-62.657h16.062zm-155.313-23.353v373.281h-16.062v-373.281zm465.938 417.376c0 1.379-1.121 2.5-2.5 2.5h-477c-1.379 0-2.5-1.121-2.5-2.5v-29.094h84.18c4.143 0 7.5-3.357 7.5-7.5s-3.357-7.5-7.5-7.5h-53.118v-342.223h109.25v342.223h-21.132c-4.143 0-7.5 3.357-7.5 7.5s3.357 7.5 7.5 7.5h362.82z"/><circle cx="193.875" cy="147.281" r="7.5"/><circle cx="333.656" cy="147.281" r="7.5"/><circle cx="473.438" cy="147.281" r="7.5"/><circle cx="193.875" cy="240.469" r="7.5"/><circle cx="333.656" cy="240.469" r="7.5"/><circle cx="473.438" cy="240.469" r="7.5"/><circle cx="193.875" cy="302.594" r="7.5"/><circle cx="333.656" cy="302.594" r="7.5"/><circle cx="473.438" cy="302.594" r="7.5"/><circle cx="193.875" cy="395.781" r="7.5"/><circle cx="333.656" cy="395.781" r="7.5"/><circle cx="473.438" cy="395.781" r="7.5"/></g><g/><g/><g/><g/><g/><g/><g/><g/><g/><g/><g/><g/><g/><g/><g/></svg>