<svg id="Layer_1" enable-background="new 0 0 500 500" viewBox="0 0 500 500" xmlns="http://www.w3.org/2000/svg"><g fill="#141515"><path d="m276.727 357.707h-148.24c-7.276 0-13.193 5.957-13.193 13.277v55.033c0 7.226 5.917 13.104 13.193 13.104h148.24c7.175 0 13.015-5.878 13.015-13.104v-55.033c-.001-7.321-5.841-13.277-13.015-13.277zm4.279 68.31c0 2.408-1.919 4.369-4.279 4.369h-148.24c-2.377 0-4.457-2.041-4.457-4.369v-55.033c0-2.461 2.044-4.541 4.457-4.541h148.24c2.36 0 4.279 2.039 4.279 4.541z"/><path d="m96.659 357.707h-58.638c-7.181 0-13.021 5.957-13.021 13.277v55.033c0 7.104 5.965 13.104 13.021 13.104h58.638c7.175 0 13.015-5.878 13.015-13.104v-55.033c0-7.321-5.84-13.277-13.015-13.277zm4.278 68.31c0 2.408-1.919 4.369-4.279 4.369h-58.637c-2.24 0-4.284-2.083-4.284-4.369v-55.033c0-2.419 2.003-4.541 4.284-4.541h58.638c2.36 0 4.279 2.039 4.279 4.541v55.033z"/><path d="m461.979 357.707h-153.603c-7.175 0-13.015 5.957-13.015 13.277v55.033c0 7.104 5.959 13.104 13.015 13.104h153.603c7.056 0 13.021-6 13.021-13.104v-55.033c0-7.321-5.84-13.277-13.021-13.277zm4.285 68.31c0 2.286-2.044 4.369-4.285 4.369h-153.603c-2.241 0-4.279-2.083-4.279-4.369v-55.033c0-2.419 1.996-4.541 4.279-4.541h153.603c2.283 0 4.285 2.122 4.285 4.541z"/><path d="m218.082 351.942h148.413c7.181 0 13.021-5.879 13.021-13.101v-55.033c0-7.225-5.84-13.104-13.021-13.104h-148.413c-7.174 0-13.015 5.879-13.015 13.104v55.033c.001 7.222 5.841 13.101 13.015 13.101zm-4.278-68.135c0-2.407 1.919-4.368 4.279-4.368h148.413c2.36 0 4.284 1.961 4.284 4.368v55.033c0 2.407-1.924 4.365-4.284 4.365h-148.414c-2.36 0-4.279-1.958-4.279-4.365v-55.033z"/><path d="m473.379 283.208c-1.031-.834-2.372-1.153-3.659-.879l-37.859 8.066-9.838-17.469c-.775-1.374-2.229-2.223-3.808-2.223h-20.065c-7.3 0-13.015 5.757-13.015 13.104v55.033c0 7.347 5.715 13.101 13.015 13.101h63.829c7.181 0 13.021-5.879 13.021-13.101v-52.238c0-1.316-.596-2.565-1.621-3.394zm-7.115 55.633c0 2.407-1.925 4.365-4.285 4.365h-63.829c-2.437 0-4.279-1.877-4.279-4.365v-55.033c0-2.491 1.841-4.368 4.279-4.368h17.514l10.16 18.041c.942 1.66 2.837 2.518 4.72 2.127l35.719-7.61v46.843z"/><path d="m38.021 351.942h148.413c7.175 0 13.015-5.879 13.015-13.101v-55.033c0-7.225-5.84-13.104-13.015-13.104h-148.413c-7.181 0-13.021 5.879-13.021 13.104v55.033c0 7.222 5.84 13.101 13.021 13.101zm-4.285-68.135c0-2.407 1.925-4.368 4.284-4.368h148.413c2.36 0 4.279 1.961 4.279 4.368v55.033c0 2.407-1.919 4.365-4.279 4.365h-148.412c-2.36 0-4.284-1.958-4.284-4.365v-55.033z"/><path d="m289.741 251.834v-55.206c0-7.225-5.84-13.104-13.015-13.104h-148.24c-7.276 0-13.193 5.878-13.193 13.104v55.206c0 7.225 5.917 13.104 13.193 13.104h148.24c7.175 0 13.015-5.879 13.015-13.104zm-165.712 0v-55.206c0-2.327 2.08-4.367 4.457-4.367h148.24c2.36 0 4.279 1.96 4.279 4.367v55.206c0 2.407-1.919 4.368-4.279 4.368h-148.24c-2.377 0-4.457-2.041-4.457-4.368z"/><path d="m38.021 264.938h58.638c7.175 0 13.015-5.878 13.015-13.104v-55.206c0-7.225-5.839-13.104-13.015-13.104h-58.638c-7.055 0-13.021 6.001-13.021 13.104v55.206c0 7.103 5.965 13.104 13.021 13.104zm-4.285-68.31c0-2.285 2.044-4.367 4.284-4.367h58.638c2.36 0 4.279 1.96 4.279 4.367v55.206c0 2.407-1.919 4.368-4.279 4.368h-58.637c-2.24 0-4.284-2.083-4.284-4.368v-55.206z"/><path d="m416.797 262.784c.786-1.338.804-2.988.047-4.341l-13.146-23.586c-.531-.948-1.389-1.666-2.419-2.011l-44.086-14.839-9.88-31.426c-.572-1.818-2.259-3.057-4.166-3.057h-34.771c-7.056 0-13.015 6.001-13.015 13.104v55.206c0 7.103 5.959 13.104 13.015 13.104h104.655c1.549 0 2.979-.82 3.766-2.154zm-108.421-6.582c-2.241 0-4.279-2.083-4.279-4.368v-55.206c0-2.285 2.038-4.367 4.279-4.367h31.566l9.588 30.487c.417 1.332 1.448 2.383 2.771 2.828l44.592 15.011 8.7 15.616h-97.217z"/><path d="m218.082 177.758h122.121c1.389 0 2.699-.664 3.522-1.785.822-1.123 1.061-2.568.643-3.897l-5.011-15.899c-.34-1.085-1.097-1.997-2.098-2.533l-48.353-25.97 9.546-25.428c.507-1.341.316-2.842-.494-4.022-.816-1.177-2.164-1.88-3.594-1.88h-76.283c-7.174 0-13.015 5.956-13.015 13.277v55.033c.002 7.226 5.842 13.104 13.016 13.104zm-4.278-68.137c0-2.419 1.997-4.541 4.279-4.541h69.979l-8.676 23.101c-.769 2.047.095 4.348 2.02 5.381l50.158 26.935 2.681 8.525h-116.163c-2.36 0-4.279-1.961-4.279-4.368v-55.033z"/><path d="m38.021 177.758h148.413c7.175 0 13.015-5.879 13.015-13.104v-55.033c0-7.321-5.84-13.277-13.015-13.277h-148.413c-7.181 0-13.021 5.957-13.021 13.277v55.033c0 7.226 5.84 13.104 13.021 13.104zm-4.285-68.137c0-2.419 2.003-4.541 4.284-4.541h148.413c2.282 0 4.279 2.121 4.279 4.541v55.033c0 2.407-1.919 4.368-4.279 4.368h-148.412c-2.36 0-4.284-1.961-4.284-4.368v-55.033z"/><path d="m356.085 167.115c-.131 1.704.745 3.331 2.241 4.16.662.364 1.389.545 2.116.545.917 0 1.829-.289 2.598-.858l36.327-26.906c1.579-1.167 2.181-3.245 1.478-5.077l-9.338-24.283c-.501-1.305-1.597-2.291-2.95-2.652-1.334-.363-2.789-.054-3.879.825l-24.563 19.915c-.93.757-1.508 1.86-1.603 3.057zm10.989-28.726 18.438-14.948 5.989 15.574-25.964 19.227z"/><path d="m395.731 213.573c.238 0 .483-.021.721-.06l62.619-10.482c1.854-.31 3.301-1.77 3.593-3.626.292-1.853-.632-3.688-2.294-4.556l-38.574-20.091c-1.138-.59-2.467-.658-3.653-.179l-40.826 16.424c-1.419.572-2.437 1.847-2.682 3.361-.238 1.513.328 3.042 1.502 4.031l16.781 14.15c.793.668 1.788 1.028 2.813 1.028zm23.813-30.138 25.219 13.134-47.763 7.994-9.683-8.167z"/><path d="m453.428 226.177-34.599-10.831c-1.74-.542-3.635.048-4.755 1.49-1.12 1.44-1.222 3.424-.262 4.977l17.818 28.827c.685 1.108 1.829 1.853 3.123 2.029l30.618 4.193c.197.026.393.041.59.041 1.466 0 2.854-.742 3.665-1.993.923-1.421.935-3.248.042-4.686l-13.837-22.189c-.556-.887-1.408-1.546-2.403-1.858zm-15.452 18.115-10.577-17.112 21.876 6.85 8.051 12.914z"/><path d="m390.839 168.984c.769 1.439 2.265 2.312 3.856 2.312.25 0 .506-.021.756-.066l56.386-9.958c1.591-.28 2.89-1.412 3.391-2.941l8.48-25.857c.399-1.206.251-2.523-.405-3.611-.65-1.088-1.747-1.836-2.991-2.053l-26.12-4.544c-1.418-.25-2.89.229-3.903 1.278l-38.747 40.359c-1.305 1.362-1.591 3.415-.703 5.081zm44.145-37.713 18.849 3.281-6.09 18.572-40.63 7.175z"/><path d="m323.947 107.754 17.472 30.922c.78 1.385 2.246 2.22 3.802 2.22.232 0 .471-.018.709-.06 1.806-.295 3.236-1.69 3.582-3.489l9.171-48.042c.298-1.549-.268-3.137-1.472-4.157l-27.508-23.238c-1.305-1.105-3.134-1.344-4.702-.605-1.549.739-2.52 2.318-2.485 4.034l.864 40.359c.019.721.209 1.426.567 2.056zm25.678-17.58-6.46 33.836-11.072-19.597-.632-29.584z"/></g></svg>